%TF.GenerationSoftware,KiCad,Pcbnew,(5.1.9)-1*%
%TF.CreationDate,2022-01-25T19:09:39-05:00*%
%TF.ProjectId,gimbal,67696d62-616c-42e6-9b69-6361645f7063,rev?*%
%TF.SameCoordinates,Original*%
%TF.FileFunction,Legend,Top*%
%TF.FilePolarity,Positive*%
%FSLAX46Y46*%
G04 Gerber Fmt 4.6, Leading zero omitted, Abs format (unit mm)*
G04 Created by KiCad (PCBNEW (5.1.9)-1) date 2022-01-25 19:09:39*
%MOMM*%
%LPD*%
G01*
G04 APERTURE LIST*
%ADD10C,0.150000*%
%ADD11C,0.120000*%
G04 APERTURE END LIST*
D10*
X158885238Y-99623571D02*
X159028095Y-99671190D01*
X159075714Y-99718809D01*
X159123333Y-99814047D01*
X159123333Y-99956904D01*
X159075714Y-100052142D01*
X159028095Y-100099761D01*
X158932857Y-100147380D01*
X158551904Y-100147380D01*
X158551904Y-99147380D01*
X158885238Y-99147380D01*
X158980476Y-99195000D01*
X159028095Y-99242619D01*
X159075714Y-99337857D01*
X159075714Y-99433095D01*
X159028095Y-99528333D01*
X158980476Y-99575952D01*
X158885238Y-99623571D01*
X158551904Y-99623571D01*
X159551904Y-100147380D02*
X159551904Y-99147380D01*
X160123333Y-100147380D01*
X160123333Y-99147380D01*
X160790000Y-99147380D02*
X160980476Y-99147380D01*
X161075714Y-99195000D01*
X161170952Y-99290238D01*
X161218571Y-99480714D01*
X161218571Y-99814047D01*
X161170952Y-100004523D01*
X161075714Y-100099761D01*
X160980476Y-100147380D01*
X160790000Y-100147380D01*
X160694761Y-100099761D01*
X160599523Y-100004523D01*
X160551904Y-99814047D01*
X160551904Y-99480714D01*
X160599523Y-99290238D01*
X160694761Y-99195000D01*
X160790000Y-99147380D01*
X161837619Y-99147380D02*
X161932857Y-99147380D01*
X162028095Y-99195000D01*
X162075714Y-99242619D01*
X162123333Y-99337857D01*
X162170952Y-99528333D01*
X162170952Y-99766428D01*
X162123333Y-99956904D01*
X162075714Y-100052142D01*
X162028095Y-100099761D01*
X161932857Y-100147380D01*
X161837619Y-100147380D01*
X161742380Y-100099761D01*
X161694761Y-100052142D01*
X161647142Y-99956904D01*
X161599523Y-99766428D01*
X161599523Y-99528333D01*
X161647142Y-99337857D01*
X161694761Y-99242619D01*
X161742380Y-99195000D01*
X161837619Y-99147380D01*
X163075714Y-99147380D02*
X162599523Y-99147380D01*
X162551904Y-99623571D01*
X162599523Y-99575952D01*
X162694761Y-99528333D01*
X162932857Y-99528333D01*
X163028095Y-99575952D01*
X163075714Y-99623571D01*
X163123333Y-99718809D01*
X163123333Y-99956904D01*
X163075714Y-100052142D01*
X163028095Y-100099761D01*
X162932857Y-100147380D01*
X162694761Y-100147380D01*
X162599523Y-100099761D01*
X162551904Y-100052142D01*
X164028095Y-99147380D02*
X163551904Y-99147380D01*
X163504285Y-99623571D01*
X163551904Y-99575952D01*
X163647142Y-99528333D01*
X163885238Y-99528333D01*
X163980476Y-99575952D01*
X164028095Y-99623571D01*
X164075714Y-99718809D01*
X164075714Y-99956904D01*
X164028095Y-100052142D01*
X163980476Y-100099761D01*
X163885238Y-100147380D01*
X163647142Y-100147380D01*
X163551904Y-100099761D01*
X163504285Y-100052142D01*
X128494404Y-108975000D02*
X128399166Y-108927380D01*
X128256309Y-108927380D01*
X128113452Y-108975000D01*
X128018214Y-109070238D01*
X127970595Y-109165476D01*
X127922976Y-109355952D01*
X127922976Y-109498809D01*
X127970595Y-109689285D01*
X128018214Y-109784523D01*
X128113452Y-109879761D01*
X128256309Y-109927380D01*
X128351547Y-109927380D01*
X128494404Y-109879761D01*
X128542023Y-109832142D01*
X128542023Y-109498809D01*
X128351547Y-109498809D01*
X128970595Y-109927380D02*
X128970595Y-109260714D01*
X128970595Y-108927380D02*
X128922976Y-108975000D01*
X128970595Y-109022619D01*
X129018214Y-108975000D01*
X128970595Y-108927380D01*
X128970595Y-109022619D01*
X129446785Y-109927380D02*
X129446785Y-109260714D01*
X129446785Y-109355952D02*
X129494404Y-109308333D01*
X129589642Y-109260714D01*
X129732500Y-109260714D01*
X129827738Y-109308333D01*
X129875357Y-109403571D01*
X129875357Y-109927380D01*
X129875357Y-109403571D02*
X129922976Y-109308333D01*
X130018214Y-109260714D01*
X130161071Y-109260714D01*
X130256309Y-109308333D01*
X130303928Y-109403571D01*
X130303928Y-109927380D01*
X130780119Y-109927380D02*
X130780119Y-108927380D01*
X130780119Y-109308333D02*
X130875357Y-109260714D01*
X131065833Y-109260714D01*
X131161071Y-109308333D01*
X131208690Y-109355952D01*
X131256309Y-109451190D01*
X131256309Y-109736904D01*
X131208690Y-109832142D01*
X131161071Y-109879761D01*
X131065833Y-109927380D01*
X130875357Y-109927380D01*
X130780119Y-109879761D01*
X132113452Y-109927380D02*
X132113452Y-109403571D01*
X132065833Y-109308333D01*
X131970595Y-109260714D01*
X131780119Y-109260714D01*
X131684880Y-109308333D01*
X132113452Y-109879761D02*
X132018214Y-109927380D01*
X131780119Y-109927380D01*
X131684880Y-109879761D01*
X131637261Y-109784523D01*
X131637261Y-109689285D01*
X131684880Y-109594047D01*
X131780119Y-109546428D01*
X132018214Y-109546428D01*
X132113452Y-109498809D01*
X132732500Y-109927380D02*
X132637261Y-109879761D01*
X132589642Y-109784523D01*
X132589642Y-108927380D01*
X133827738Y-109879761D02*
X133970595Y-109927380D01*
X134208690Y-109927380D01*
X134303928Y-109879761D01*
X134351547Y-109832142D01*
X134399166Y-109736904D01*
X134399166Y-109641666D01*
X134351547Y-109546428D01*
X134303928Y-109498809D01*
X134208690Y-109451190D01*
X134018214Y-109403571D01*
X133922976Y-109355952D01*
X133875357Y-109308333D01*
X133827738Y-109213095D01*
X133827738Y-109117857D01*
X133875357Y-109022619D01*
X133922976Y-108975000D01*
X134018214Y-108927380D01*
X134256309Y-108927380D01*
X134399166Y-108975000D01*
X135208690Y-109879761D02*
X135113452Y-109927380D01*
X134922976Y-109927380D01*
X134827738Y-109879761D01*
X134780119Y-109784523D01*
X134780119Y-109403571D01*
X134827738Y-109308333D01*
X134922976Y-109260714D01*
X135113452Y-109260714D01*
X135208690Y-109308333D01*
X135256309Y-109403571D01*
X135256309Y-109498809D01*
X134780119Y-109594047D01*
X135684880Y-109927380D02*
X135684880Y-109260714D01*
X135684880Y-109451190D02*
X135732500Y-109355952D01*
X135780119Y-109308333D01*
X135875357Y-109260714D01*
X135970595Y-109260714D01*
X136208690Y-109260714D02*
X136446785Y-109927380D01*
X136684880Y-109260714D01*
X137208690Y-109927380D02*
X137113452Y-109879761D01*
X137065833Y-109832142D01*
X137018214Y-109736904D01*
X137018214Y-109451190D01*
X137065833Y-109355952D01*
X137113452Y-109308333D01*
X137208690Y-109260714D01*
X137351547Y-109260714D01*
X137446785Y-109308333D01*
X137494404Y-109355952D01*
X137542023Y-109451190D01*
X137542023Y-109736904D01*
X137494404Y-109832142D01*
X137446785Y-109879761D01*
X137351547Y-109927380D01*
X137208690Y-109927380D01*
X139303928Y-109832142D02*
X139256309Y-109879761D01*
X139113452Y-109927380D01*
X139018214Y-109927380D01*
X138875357Y-109879761D01*
X138780119Y-109784523D01*
X138732500Y-109689285D01*
X138684880Y-109498809D01*
X138684880Y-109355952D01*
X138732500Y-109165476D01*
X138780119Y-109070238D01*
X138875357Y-108975000D01*
X139018214Y-108927380D01*
X139113452Y-108927380D01*
X139256309Y-108975000D01*
X139303928Y-109022619D01*
X139875357Y-109927380D02*
X139780119Y-109879761D01*
X139732500Y-109832142D01*
X139684880Y-109736904D01*
X139684880Y-109451190D01*
X139732500Y-109355952D01*
X139780119Y-109308333D01*
X139875357Y-109260714D01*
X140018214Y-109260714D01*
X140113452Y-109308333D01*
X140161071Y-109355952D01*
X140208690Y-109451190D01*
X140208690Y-109736904D01*
X140161071Y-109832142D01*
X140113452Y-109879761D01*
X140018214Y-109927380D01*
X139875357Y-109927380D01*
X140637261Y-109260714D02*
X140637261Y-109927380D01*
X140637261Y-109355952D02*
X140684880Y-109308333D01*
X140780119Y-109260714D01*
X140922976Y-109260714D01*
X141018214Y-109308333D01*
X141065833Y-109403571D01*
X141065833Y-109927380D01*
X141399166Y-109260714D02*
X141780119Y-109260714D01*
X141542023Y-108927380D02*
X141542023Y-109784523D01*
X141589642Y-109879761D01*
X141684880Y-109927380D01*
X141780119Y-109927380D01*
X142113452Y-109927380D02*
X142113452Y-109260714D01*
X142113452Y-109451190D02*
X142161071Y-109355952D01*
X142208690Y-109308333D01*
X142303928Y-109260714D01*
X142399166Y-109260714D01*
X142875357Y-109927380D02*
X142780119Y-109879761D01*
X142732500Y-109832142D01*
X142684880Y-109736904D01*
X142684880Y-109451190D01*
X142732500Y-109355952D01*
X142780119Y-109308333D01*
X142875357Y-109260714D01*
X143018214Y-109260714D01*
X143113452Y-109308333D01*
X143161071Y-109355952D01*
X143208690Y-109451190D01*
X143208690Y-109736904D01*
X143161071Y-109832142D01*
X143113452Y-109879761D01*
X143018214Y-109927380D01*
X142875357Y-109927380D01*
X143780119Y-109927380D02*
X143684880Y-109879761D01*
X143637261Y-109784523D01*
X143637261Y-108927380D01*
X127922976Y-111291666D02*
X128399166Y-111291666D01*
X127827738Y-111577380D02*
X128161071Y-110577380D01*
X128494404Y-111577380D01*
X128970595Y-111577380D02*
X128875357Y-111529761D01*
X128827738Y-111434523D01*
X128827738Y-110577380D01*
X129780119Y-111577380D02*
X129780119Y-111053571D01*
X129732500Y-110958333D01*
X129637261Y-110910714D01*
X129446785Y-110910714D01*
X129351547Y-110958333D01*
X129780119Y-111529761D02*
X129684880Y-111577380D01*
X129446785Y-111577380D01*
X129351547Y-111529761D01*
X129303928Y-111434523D01*
X129303928Y-111339285D01*
X129351547Y-111244047D01*
X129446785Y-111196428D01*
X129684880Y-111196428D01*
X129780119Y-111148809D01*
X130256309Y-110910714D02*
X130256309Y-111577380D01*
X130256309Y-111005952D02*
X130303928Y-110958333D01*
X130399166Y-110910714D01*
X130542023Y-110910714D01*
X130637261Y-110958333D01*
X130684880Y-111053571D01*
X130684880Y-111577380D01*
X131922976Y-111577380D02*
X131922976Y-110577380D01*
X131922976Y-111053571D02*
X132494404Y-111053571D01*
X132494404Y-111577380D02*
X132494404Y-110577380D01*
X132970595Y-111482142D02*
X133018214Y-111529761D01*
X132970595Y-111577380D01*
X132922976Y-111529761D01*
X132970595Y-111482142D01*
X132970595Y-111577380D01*
X127875357Y-112560714D02*
X128113452Y-113227380D01*
X128351547Y-112560714D01*
X129256309Y-113227380D02*
X128684880Y-113227380D01*
X128970595Y-113227380D02*
X128970595Y-112227380D01*
X128875357Y-112370238D01*
X128780119Y-112465476D01*
X128684880Y-112513095D01*
X145796190Y-82002380D02*
X145796190Y-82811904D01*
X145843809Y-82907142D01*
X145891428Y-82954761D01*
X145986666Y-83002380D01*
X146177142Y-83002380D01*
X146272380Y-82954761D01*
X146320000Y-82907142D01*
X146367619Y-82811904D01*
X146367619Y-82002380D01*
X146843809Y-83002380D02*
X146843809Y-82002380D01*
X147224761Y-82002380D01*
X147320000Y-82050000D01*
X147367619Y-82097619D01*
X147415238Y-82192857D01*
X147415238Y-82335714D01*
X147367619Y-82430952D01*
X147320000Y-82478571D01*
X147224761Y-82526190D01*
X146843809Y-82526190D01*
X147843809Y-83002380D02*
X147843809Y-82002380D01*
X148081904Y-82002380D01*
X148224761Y-82050000D01*
X148320000Y-82145238D01*
X148367619Y-82240476D01*
X148415238Y-82430952D01*
X148415238Y-82573809D01*
X148367619Y-82764285D01*
X148320000Y-82859523D01*
X148224761Y-82954761D01*
X148081904Y-83002380D01*
X147843809Y-83002380D01*
X148843809Y-83002380D02*
X148843809Y-82002380D01*
X131318095Y-96655000D02*
X131222857Y-96607380D01*
X131080000Y-96607380D01*
X130937142Y-96655000D01*
X130841904Y-96750238D01*
X130794285Y-96845476D01*
X130746666Y-97035952D01*
X130746666Y-97178809D01*
X130794285Y-97369285D01*
X130841904Y-97464523D01*
X130937142Y-97559761D01*
X131080000Y-97607380D01*
X131175238Y-97607380D01*
X131318095Y-97559761D01*
X131365714Y-97512142D01*
X131365714Y-97178809D01*
X131175238Y-97178809D01*
X131794285Y-97607380D02*
X131794285Y-96607380D01*
X132365714Y-97607380D01*
X132365714Y-96607380D01*
X132841904Y-97607380D02*
X132841904Y-96607380D01*
X133080000Y-96607380D01*
X133222857Y-96655000D01*
X133318095Y-96750238D01*
X133365714Y-96845476D01*
X133413333Y-97035952D01*
X133413333Y-97178809D01*
X133365714Y-97369285D01*
X133318095Y-97464523D01*
X133222857Y-97559761D01*
X133080000Y-97607380D01*
X132841904Y-97607380D01*
X130683095Y-94067380D02*
X131254523Y-94067380D01*
X130968809Y-95067380D02*
X130968809Y-94067380D01*
X131492619Y-94067380D02*
X132159285Y-95067380D01*
X132159285Y-94067380D02*
X131492619Y-95067380D01*
X131318095Y-89035000D02*
X131222857Y-88987380D01*
X131080000Y-88987380D01*
X130937142Y-89035000D01*
X130841904Y-89130238D01*
X130794285Y-89225476D01*
X130746666Y-89415952D01*
X130746666Y-89558809D01*
X130794285Y-89749285D01*
X130841904Y-89844523D01*
X130937142Y-89939761D01*
X131080000Y-89987380D01*
X131175238Y-89987380D01*
X131318095Y-89939761D01*
X131365714Y-89892142D01*
X131365714Y-89558809D01*
X131175238Y-89558809D01*
X131794285Y-89987380D02*
X131794285Y-88987380D01*
X132365714Y-89987380D01*
X132365714Y-88987380D01*
X132841904Y-89987380D02*
X132841904Y-88987380D01*
X133080000Y-88987380D01*
X133222857Y-89035000D01*
X133318095Y-89130238D01*
X133365714Y-89225476D01*
X133413333Y-89415952D01*
X133413333Y-89558809D01*
X133365714Y-89749285D01*
X133318095Y-89844523D01*
X133222857Y-89939761D01*
X133080000Y-89987380D01*
X132841904Y-89987380D01*
X130857857Y-87447380D02*
X130857857Y-86447380D01*
X131429285Y-87447380D01*
X131429285Y-86447380D01*
X132095952Y-86447380D02*
X132286428Y-86447380D01*
X132381666Y-86495000D01*
X132476904Y-86590238D01*
X132524523Y-86780714D01*
X132524523Y-87114047D01*
X132476904Y-87304523D01*
X132381666Y-87399761D01*
X132286428Y-87447380D01*
X132095952Y-87447380D01*
X132000714Y-87399761D01*
X131905476Y-87304523D01*
X131857857Y-87114047D01*
X131857857Y-86780714D01*
X131905476Y-86590238D01*
X132000714Y-86495000D01*
X132095952Y-86447380D01*
X132810238Y-86447380D02*
X133381666Y-86447380D01*
X133095952Y-87447380D02*
X133095952Y-86447380D01*
X133715000Y-87447380D02*
X133715000Y-86447380D01*
X134524523Y-86923571D02*
X134191190Y-86923571D01*
X134191190Y-87447380D02*
X134191190Y-86447380D01*
X134667380Y-86447380D01*
X131318095Y-82050000D02*
X131222857Y-82002380D01*
X131080000Y-82002380D01*
X130937142Y-82050000D01*
X130841904Y-82145238D01*
X130794285Y-82240476D01*
X130746666Y-82430952D01*
X130746666Y-82573809D01*
X130794285Y-82764285D01*
X130841904Y-82859523D01*
X130937142Y-82954761D01*
X131080000Y-83002380D01*
X131175238Y-83002380D01*
X131318095Y-82954761D01*
X131365714Y-82907142D01*
X131365714Y-82573809D01*
X131175238Y-82573809D01*
X131794285Y-83002380D02*
X131794285Y-82002380D01*
X132365714Y-83002380D01*
X132365714Y-82002380D01*
X132841904Y-83002380D02*
X132841904Y-82002380D01*
X133080000Y-82002380D01*
X133222857Y-82050000D01*
X133318095Y-82145238D01*
X133365714Y-82240476D01*
X133413333Y-82430952D01*
X133413333Y-82573809D01*
X133365714Y-82764285D01*
X133318095Y-82859523D01*
X133222857Y-82954761D01*
X133080000Y-83002380D01*
X132841904Y-83002380D01*
X154813095Y-82685000D02*
X154717857Y-82637380D01*
X154575000Y-82637380D01*
X154432142Y-82685000D01*
X154336904Y-82780238D01*
X154289285Y-82875476D01*
X154241666Y-83065952D01*
X154241666Y-83208809D01*
X154289285Y-83399285D01*
X154336904Y-83494523D01*
X154432142Y-83589761D01*
X154575000Y-83637380D01*
X154670238Y-83637380D01*
X154813095Y-83589761D01*
X154860714Y-83542142D01*
X154860714Y-83208809D01*
X154670238Y-83208809D01*
X155289285Y-83637380D02*
X155289285Y-82637380D01*
X155860714Y-83637380D01*
X155860714Y-82637380D01*
X156336904Y-83637380D02*
X156336904Y-82637380D01*
X156575000Y-82637380D01*
X156717857Y-82685000D01*
X156813095Y-82780238D01*
X156860714Y-82875476D01*
X156908333Y-83065952D01*
X156908333Y-83208809D01*
X156860714Y-83399285D01*
X156813095Y-83494523D01*
X156717857Y-83589761D01*
X156575000Y-83637380D01*
X156336904Y-83637380D01*
X154241666Y-81097380D02*
X154241666Y-80097380D01*
X154622619Y-80097380D01*
X154717857Y-80145000D01*
X154765476Y-80192619D01*
X154813095Y-80287857D01*
X154813095Y-80430714D01*
X154765476Y-80525952D01*
X154717857Y-80573571D01*
X154622619Y-80621190D01*
X154241666Y-80621190D01*
X155146428Y-80097380D02*
X155384523Y-81097380D01*
X155575000Y-80383095D01*
X155765476Y-81097380D01*
X156003571Y-80097380D01*
X156955952Y-81097380D02*
X156622619Y-80621190D01*
X156384523Y-81097380D02*
X156384523Y-80097380D01*
X156765476Y-80097380D01*
X156860714Y-80145000D01*
X156908333Y-80192619D01*
X156955952Y-80287857D01*
X156955952Y-80430714D01*
X156908333Y-80525952D01*
X156860714Y-80573571D01*
X156765476Y-80621190D01*
X156384523Y-80621190D01*
X154551190Y-78509761D02*
X154694047Y-78557380D01*
X154932142Y-78557380D01*
X155027380Y-78509761D01*
X155075000Y-78462142D01*
X155122619Y-78366904D01*
X155122619Y-78271666D01*
X155075000Y-78176428D01*
X155027380Y-78128809D01*
X154932142Y-78081190D01*
X154741666Y-78033571D01*
X154646428Y-77985952D01*
X154598809Y-77938333D01*
X154551190Y-77843095D01*
X154551190Y-77747857D01*
X154598809Y-77652619D01*
X154646428Y-77605000D01*
X154741666Y-77557380D01*
X154979761Y-77557380D01*
X155122619Y-77605000D01*
X155551190Y-78557380D02*
X155551190Y-77557380D01*
X156551190Y-77605000D02*
X156455952Y-77557380D01*
X156313095Y-77557380D01*
X156170238Y-77605000D01*
X156075000Y-77700238D01*
X156027380Y-77795476D01*
X155979761Y-77985952D01*
X155979761Y-78128809D01*
X156027380Y-78319285D01*
X156075000Y-78414523D01*
X156170238Y-78509761D01*
X156313095Y-78557380D01*
X156408333Y-78557380D01*
X156551190Y-78509761D01*
X156598809Y-78462142D01*
X156598809Y-78128809D01*
X156408333Y-78128809D01*
X142621190Y-89622380D02*
X142621190Y-90431904D01*
X142668809Y-90527142D01*
X142716428Y-90574761D01*
X142811666Y-90622380D01*
X143002142Y-90622380D01*
X143097380Y-90574761D01*
X143145000Y-90527142D01*
X143192619Y-90431904D01*
X143192619Y-89622380D01*
X143668809Y-90622380D02*
X143668809Y-89622380D01*
X144049761Y-89622380D01*
X144145000Y-89670000D01*
X144192619Y-89717619D01*
X144240238Y-89812857D01*
X144240238Y-89955714D01*
X144192619Y-90050952D01*
X144145000Y-90098571D01*
X144049761Y-90146190D01*
X143668809Y-90146190D01*
X144668809Y-90622380D02*
X144668809Y-89622380D01*
X144906904Y-89622380D01*
X145049761Y-89670000D01*
X145145000Y-89765238D01*
X145192619Y-89860476D01*
X145240238Y-90050952D01*
X145240238Y-90193809D01*
X145192619Y-90384285D01*
X145145000Y-90479523D01*
X145049761Y-90574761D01*
X144906904Y-90622380D01*
X144668809Y-90622380D01*
X145668809Y-90622380D02*
X145668809Y-89622380D01*
X142906904Y-87082380D02*
X143525952Y-87082380D01*
X143192619Y-87463333D01*
X143335476Y-87463333D01*
X143430714Y-87510952D01*
X143478333Y-87558571D01*
X143525952Y-87653809D01*
X143525952Y-87891904D01*
X143478333Y-87987142D01*
X143430714Y-88034761D01*
X143335476Y-88082380D01*
X143049761Y-88082380D01*
X142954523Y-88034761D01*
X142906904Y-87987142D01*
X143811666Y-87082380D02*
X144145000Y-88082380D01*
X144478333Y-87082380D01*
X144716428Y-87082380D02*
X145335476Y-87082380D01*
X145002142Y-87463333D01*
X145145000Y-87463333D01*
X145240238Y-87510952D01*
X145287857Y-87558571D01*
X145335476Y-87653809D01*
X145335476Y-87891904D01*
X145287857Y-87987142D01*
X145240238Y-88034761D01*
X145145000Y-88082380D01*
X144859285Y-88082380D01*
X144764047Y-88034761D01*
X144716428Y-87987142D01*
X143383095Y-84590000D02*
X143287857Y-84542380D01*
X143145000Y-84542380D01*
X143002142Y-84590000D01*
X142906904Y-84685238D01*
X142859285Y-84780476D01*
X142811666Y-84970952D01*
X142811666Y-85113809D01*
X142859285Y-85304285D01*
X142906904Y-85399523D01*
X143002142Y-85494761D01*
X143145000Y-85542380D01*
X143240238Y-85542380D01*
X143383095Y-85494761D01*
X143430714Y-85447142D01*
X143430714Y-85113809D01*
X143240238Y-85113809D01*
X143859285Y-85542380D02*
X143859285Y-84542380D01*
X144430714Y-85542380D01*
X144430714Y-84542380D01*
X144906904Y-85542380D02*
X144906904Y-84542380D01*
X145145000Y-84542380D01*
X145287857Y-84590000D01*
X145383095Y-84685238D01*
X145430714Y-84780476D01*
X145478333Y-84970952D01*
X145478333Y-85113809D01*
X145430714Y-85304285D01*
X145383095Y-85399523D01*
X145287857Y-85494761D01*
X145145000Y-85542380D01*
X144906904Y-85542380D01*
X130984761Y-76287380D02*
X131318095Y-77287380D01*
X131651428Y-76287380D01*
X131984761Y-77287380D02*
X131984761Y-76287380D01*
X132460952Y-77287380D02*
X132460952Y-76287380D01*
X133032380Y-77287380D01*
X133032380Y-76287380D01*
X168576666Y-75398380D02*
X169243333Y-75398380D01*
X168576666Y-76398380D01*
X169243333Y-76398380D01*
X163830000Y-75922190D02*
X163830000Y-76398380D01*
X163496666Y-75398380D02*
X163830000Y-75922190D01*
X164163333Y-75398380D01*
X158416666Y-75398380D02*
X159083333Y-76398380D01*
X159083333Y-75398380D02*
X158416666Y-76398380D01*
D11*
%TO.C,U2*%
X138430000Y-99685000D02*
X140380000Y-99685000D01*
X138430000Y-99685000D02*
X136480000Y-99685000D01*
X138430000Y-90815000D02*
X140380000Y-90815000D01*
X138430000Y-90815000D02*
X134980000Y-90815000D01*
%TO.C,U1*%
X138425000Y-76600000D02*
X138425000Y-77860000D01*
X138425000Y-83420000D02*
X138425000Y-82160000D01*
X142185000Y-76600000D02*
X138425000Y-76600000D01*
X144435000Y-83420000D02*
X138425000Y-83420000D01*
%TO.C,R1*%
X145690000Y-94522936D02*
X145690000Y-95977064D01*
X143870000Y-94522936D02*
X143870000Y-95977064D01*
%TO.C,J9*%
X167580000Y-84515000D02*
X170240000Y-84515000D01*
X167580000Y-79375000D02*
X167580000Y-84515000D01*
X170240000Y-79375000D02*
X170240000Y-84515000D01*
X167580000Y-79375000D02*
X170240000Y-79375000D01*
X167580000Y-78105000D02*
X167580000Y-76775000D01*
X167580000Y-76775000D02*
X168910000Y-76775000D01*
%TO.C,J8*%
X168850000Y-104835000D02*
X171510000Y-104835000D01*
X168850000Y-97155000D02*
X168850000Y-104835000D01*
X171510000Y-97155000D02*
X171510000Y-104835000D01*
X168850000Y-97155000D02*
X171510000Y-97155000D01*
X168850000Y-95885000D02*
X168850000Y-94555000D01*
X168850000Y-94555000D02*
X170180000Y-94555000D01*
%TO.C,J7*%
X162500000Y-84515000D02*
X165160000Y-84515000D01*
X162500000Y-79375000D02*
X162500000Y-84515000D01*
X165160000Y-79375000D02*
X165160000Y-84515000D01*
X162500000Y-79375000D02*
X165160000Y-79375000D01*
X162500000Y-78105000D02*
X162500000Y-76775000D01*
X162500000Y-76775000D02*
X163830000Y-76775000D01*
%TO.C,J6*%
X127575000Y-90865000D02*
X130235000Y-90865000D01*
X127575000Y-88265000D02*
X127575000Y-90865000D01*
X130235000Y-88265000D02*
X130235000Y-90865000D01*
X127575000Y-88265000D02*
X130235000Y-88265000D01*
X127575000Y-86995000D02*
X127575000Y-85665000D01*
X127575000Y-85665000D02*
X128905000Y-85665000D01*
%TO.C,J5*%
X127575000Y-98485000D02*
X130235000Y-98485000D01*
X127575000Y-95885000D02*
X127575000Y-98485000D01*
X130235000Y-95885000D02*
X130235000Y-98485000D01*
X127575000Y-95885000D02*
X130235000Y-95885000D01*
X127575000Y-94615000D02*
X127575000Y-93285000D01*
X127575000Y-93285000D02*
X128905000Y-93285000D01*
%TO.C,J4*%
X157420000Y-84515000D02*
X160080000Y-84515000D01*
X157420000Y-79375000D02*
X157420000Y-84515000D01*
X160080000Y-79375000D02*
X160080000Y-84515000D01*
X157420000Y-79375000D02*
X160080000Y-79375000D01*
X157420000Y-78105000D02*
X157420000Y-76775000D01*
X157420000Y-76775000D02*
X158750000Y-76775000D01*
%TO.C,J3*%
X151070000Y-107375000D02*
X153730000Y-107375000D01*
X151070000Y-94615000D02*
X151070000Y-107375000D01*
X153730000Y-94615000D02*
X153730000Y-107375000D01*
X151070000Y-94615000D02*
X153730000Y-94615000D01*
X151070000Y-93345000D02*
X151070000Y-92015000D01*
X151070000Y-92015000D02*
X152400000Y-92015000D01*
%TO.C,J2*%
X148650000Y-83760000D02*
X145990000Y-83760000D01*
X148650000Y-88900000D02*
X148650000Y-83760000D01*
X145990000Y-88900000D02*
X145990000Y-83760000D01*
X148650000Y-88900000D02*
X145990000Y-88900000D01*
X148650000Y-90170000D02*
X148650000Y-91500000D01*
X148650000Y-91500000D02*
X147320000Y-91500000D01*
%TO.C,J1*%
X127575000Y-81975000D02*
X130235000Y-81975000D01*
X127575000Y-79375000D02*
X127575000Y-81975000D01*
X130235000Y-79375000D02*
X130235000Y-81975000D01*
X127575000Y-79375000D02*
X130235000Y-79375000D01*
X127575000Y-78105000D02*
X127575000Y-76775000D01*
X127575000Y-76775000D02*
X128905000Y-76775000D01*
%TO.C,D1*%
X148955000Y-77125000D02*
X146955000Y-77125000D01*
X146955000Y-77125000D02*
X146955000Y-81025000D01*
X148955000Y-77125000D02*
X148955000Y-81025000D01*
%TO.C,C2*%
X138168748Y-85625000D02*
X138691252Y-85625000D01*
X138168748Y-87095000D02*
X138691252Y-87095000D01*
%TO.C,C1*%
X134085000Y-79748748D02*
X134085000Y-80271252D01*
X132615000Y-79748748D02*
X132615000Y-80271252D01*
%TO.C,U2*%
D10*
X137668095Y-89422380D02*
X137668095Y-90231904D01*
X137715714Y-90327142D01*
X137763333Y-90374761D01*
X137858571Y-90422380D01*
X138049047Y-90422380D01*
X138144285Y-90374761D01*
X138191904Y-90327142D01*
X138239523Y-90231904D01*
X138239523Y-89422380D01*
X138668095Y-89517619D02*
X138715714Y-89470000D01*
X138810952Y-89422380D01*
X139049047Y-89422380D01*
X139144285Y-89470000D01*
X139191904Y-89517619D01*
X139239523Y-89612857D01*
X139239523Y-89708095D01*
X139191904Y-89850952D01*
X138620476Y-90422380D01*
X139239523Y-90422380D01*
%TO.C,U1*%
X136398095Y-75652380D02*
X136398095Y-76461904D01*
X136445714Y-76557142D01*
X136493333Y-76604761D01*
X136588571Y-76652380D01*
X136779047Y-76652380D01*
X136874285Y-76604761D01*
X136921904Y-76557142D01*
X136969523Y-76461904D01*
X136969523Y-75652380D01*
X137969523Y-76652380D02*
X137398095Y-76652380D01*
X137683809Y-76652380D02*
X137683809Y-75652380D01*
X137588571Y-75795238D01*
X137493333Y-75890476D01*
X137398095Y-75938095D01*
%TO.C,R1*%
X147052380Y-95416666D02*
X146576190Y-95750000D01*
X147052380Y-95988095D02*
X146052380Y-95988095D01*
X146052380Y-95607142D01*
X146100000Y-95511904D01*
X146147619Y-95464285D01*
X146242857Y-95416666D01*
X146385714Y-95416666D01*
X146480952Y-95464285D01*
X146528571Y-95511904D01*
X146576190Y-95607142D01*
X146576190Y-95988095D01*
X147052380Y-94464285D02*
X147052380Y-95035714D01*
X147052380Y-94750000D02*
X146052380Y-94750000D01*
X146195238Y-94845238D01*
X146290476Y-94940476D01*
X146338095Y-95035714D01*
%TO.C,J8*%
X169846666Y-93007380D02*
X169846666Y-93721666D01*
X169799047Y-93864523D01*
X169703809Y-93959761D01*
X169560952Y-94007380D01*
X169465714Y-94007380D01*
X170465714Y-93435952D02*
X170370476Y-93388333D01*
X170322857Y-93340714D01*
X170275238Y-93245476D01*
X170275238Y-93197857D01*
X170322857Y-93102619D01*
X170370476Y-93055000D01*
X170465714Y-93007380D01*
X170656190Y-93007380D01*
X170751428Y-93055000D01*
X170799047Y-93102619D01*
X170846666Y-93197857D01*
X170846666Y-93245476D01*
X170799047Y-93340714D01*
X170751428Y-93388333D01*
X170656190Y-93435952D01*
X170465714Y-93435952D01*
X170370476Y-93483571D01*
X170322857Y-93531190D01*
X170275238Y-93626428D01*
X170275238Y-93816904D01*
X170322857Y-93912142D01*
X170370476Y-93959761D01*
X170465714Y-94007380D01*
X170656190Y-94007380D01*
X170751428Y-93959761D01*
X170799047Y-93912142D01*
X170846666Y-93816904D01*
X170846666Y-93626428D01*
X170799047Y-93531190D01*
X170751428Y-93483571D01*
X170656190Y-93435952D01*
%TO.C,J3*%
X152066666Y-90467380D02*
X152066666Y-91181666D01*
X152019047Y-91324523D01*
X151923809Y-91419761D01*
X151780952Y-91467380D01*
X151685714Y-91467380D01*
X152447619Y-90467380D02*
X153066666Y-90467380D01*
X152733333Y-90848333D01*
X152876190Y-90848333D01*
X152971428Y-90895952D01*
X153019047Y-90943571D01*
X153066666Y-91038809D01*
X153066666Y-91276904D01*
X153019047Y-91372142D01*
X152971428Y-91419761D01*
X152876190Y-91467380D01*
X152590476Y-91467380D01*
X152495238Y-91419761D01*
X152447619Y-91372142D01*
%TO.C,D1*%
X150407380Y-80113095D02*
X149407380Y-80113095D01*
X149407380Y-79875000D01*
X149455000Y-79732142D01*
X149550238Y-79636904D01*
X149645476Y-79589285D01*
X149835952Y-79541666D01*
X149978809Y-79541666D01*
X150169285Y-79589285D01*
X150264523Y-79636904D01*
X150359761Y-79732142D01*
X150407380Y-79875000D01*
X150407380Y-80113095D01*
X150407380Y-78589285D02*
X150407380Y-79160714D01*
X150407380Y-78875000D02*
X149407380Y-78875000D01*
X149550238Y-78970238D01*
X149645476Y-79065476D01*
X149693095Y-79160714D01*
%TO.C,C2*%
X138263333Y-88622142D02*
X138215714Y-88669761D01*
X138072857Y-88717380D01*
X137977619Y-88717380D01*
X137834761Y-88669761D01*
X137739523Y-88574523D01*
X137691904Y-88479285D01*
X137644285Y-88288809D01*
X137644285Y-88145952D01*
X137691904Y-87955476D01*
X137739523Y-87860238D01*
X137834761Y-87765000D01*
X137977619Y-87717380D01*
X138072857Y-87717380D01*
X138215714Y-87765000D01*
X138263333Y-87812619D01*
X138644285Y-87812619D02*
X138691904Y-87765000D01*
X138787142Y-87717380D01*
X139025238Y-87717380D01*
X139120476Y-87765000D01*
X139168095Y-87812619D01*
X139215714Y-87907857D01*
X139215714Y-88003095D01*
X139168095Y-88145952D01*
X138596666Y-88717380D01*
X139215714Y-88717380D01*
%TO.C,C1*%
X135387142Y-80176666D02*
X135434761Y-80224285D01*
X135482380Y-80367142D01*
X135482380Y-80462380D01*
X135434761Y-80605238D01*
X135339523Y-80700476D01*
X135244285Y-80748095D01*
X135053809Y-80795714D01*
X134910952Y-80795714D01*
X134720476Y-80748095D01*
X134625238Y-80700476D01*
X134530000Y-80605238D01*
X134482380Y-80462380D01*
X134482380Y-80367142D01*
X134530000Y-80224285D01*
X134577619Y-80176666D01*
X135482380Y-79224285D02*
X135482380Y-79795714D01*
X135482380Y-79510000D02*
X134482380Y-79510000D01*
X134625238Y-79605238D01*
X134720476Y-79700476D01*
X134768095Y-79795714D01*
%TD*%
M02*
