%TF.GenerationSoftware,KiCad,Pcbnew,6.0.7-f9a2dced07~116~ubuntu22.04.1*%
%TF.CreationDate,2022-09-11T17:13:33-04:00*%
%TF.ProjectId,gimbal,67696d62-616c-42e6-9b69-6361645f7063,rev?*%
%TF.SameCoordinates,Original*%
%TF.FileFunction,Copper,L1,Top*%
%TF.FilePolarity,Positive*%
%FSLAX46Y46*%
G04 Gerber Fmt 4.6, Leading zero omitted, Abs format (unit mm)*
G04 Created by KiCad (PCBNEW 6.0.7-f9a2dced07~116~ubuntu22.04.1) date 2022-09-11 17:13:33*
%MOMM*%
%LPD*%
G01*
G04 APERTURE LIST*
G04 Aperture macros list*
%AMRoundRect*
0 Rectangle with rounded corners*
0 $1 Rounding radius*
0 $2 $3 $4 $5 $6 $7 $8 $9 X,Y pos of 4 corners*
0 Add a 4 corners polygon primitive as box body*
4,1,4,$2,$3,$4,$5,$6,$7,$8,$9,$2,$3,0*
0 Add four circle primitives for the rounded corners*
1,1,$1+$1,$2,$3*
1,1,$1+$1,$4,$5*
1,1,$1+$1,$6,$7*
1,1,$1+$1,$8,$9*
0 Add four rect primitives between the rounded corners*
20,1,$1+$1,$2,$3,$4,$5,0*
20,1,$1+$1,$4,$5,$6,$7,0*
20,1,$1+$1,$6,$7,$8,$9,0*
20,1,$1+$1,$8,$9,$2,$3,0*%
G04 Aperture macros list end*
%ADD10C,0.600000*%
%TA.AperFunction,NonConductor*%
%ADD11C,0.600000*%
%TD*%
%TA.AperFunction,ComponentPad*%
%ADD12C,2.000000*%
%TD*%
%TA.AperFunction,SMDPad,CuDef*%
%ADD13RoundRect,0.250000X0.250000X0.475000X-0.250000X0.475000X-0.250000X-0.475000X0.250000X-0.475000X0*%
%TD*%
%TA.AperFunction,SMDPad,CuDef*%
%ADD14RoundRect,0.250000X-0.475000X0.250000X-0.475000X-0.250000X0.475000X-0.250000X0.475000X0.250000X0*%
%TD*%
%TA.AperFunction,SMDPad,CuDef*%
%ADD15R,1.200000X0.900000*%
%TD*%
%TA.AperFunction,ComponentPad*%
%ADD16R,1.700000X1.700000*%
%TD*%
%TA.AperFunction,ComponentPad*%
%ADD17O,1.700000X1.700000*%
%TD*%
%TA.AperFunction,SMDPad,CuDef*%
%ADD18RoundRect,0.249999X-0.312501X-0.625001X0.312501X-0.625001X0.312501X0.625001X-0.312501X0.625001X0*%
%TD*%
%TA.AperFunction,SMDPad,CuDef*%
%ADD19R,1.500000X2.000000*%
%TD*%
%TA.AperFunction,SMDPad,CuDef*%
%ADD20R,3.800000X2.000000*%
%TD*%
%TA.AperFunction,SMDPad,CuDef*%
%ADD21RoundRect,0.150000X0.825000X0.150000X-0.825000X0.150000X-0.825000X-0.150000X0.825000X-0.150000X0*%
%TD*%
%TA.AperFunction,SMDPad,CuDef*%
%ADD22RoundRect,0.635000X-0.635000X-1.905000X0.635000X-1.905000X0.635000X1.905000X-0.635000X1.905000X0*%
%TD*%
%TA.AperFunction,ViaPad*%
%ADD23C,0.800000*%
%TD*%
%TA.AperFunction,Conductor*%
%ADD24C,0.381000*%
%TD*%
%TA.AperFunction,Conductor*%
%ADD25C,0.508000*%
%TD*%
%TA.AperFunction,Conductor*%
%ADD26C,0.762000*%
%TD*%
G04 APERTURE END LIST*
D10*
D11*
X134589857Y-57285142D02*
X136304142Y-57285142D01*
X135447000Y-60285142D02*
X135447000Y-57285142D01*
X138161285Y-57285142D02*
X138161285Y-59428000D01*
X138018428Y-59856571D01*
X137732714Y-60142285D01*
X137304142Y-60285142D01*
X137018428Y-60285142D01*
X139589857Y-60285142D02*
X139589857Y-57285142D01*
X139589857Y-58713714D02*
X141304142Y-58713714D01*
X141304142Y-60285142D02*
X141304142Y-57285142D01*
X142589857Y-60142285D02*
X143018428Y-60285142D01*
X143732714Y-60285142D01*
X144018428Y-60142285D01*
X144161285Y-59999428D01*
X144304142Y-59713714D01*
X144304142Y-59428000D01*
X144161285Y-59142285D01*
X144018428Y-58999428D01*
X143732714Y-58856571D01*
X143161285Y-58713714D01*
X142875571Y-58570857D01*
X142732714Y-58428000D01*
X142589857Y-58142285D01*
X142589857Y-57856571D01*
X142732714Y-57570857D01*
X142875571Y-57428000D01*
X143161285Y-57285142D01*
X143875571Y-57285142D01*
X144304142Y-57428000D01*
X145447000Y-60142285D02*
X145875571Y-60285142D01*
X146589857Y-60285142D01*
X146875571Y-60142285D01*
X147018428Y-59999428D01*
X147161285Y-59713714D01*
X147161285Y-59428000D01*
X147018428Y-59142285D01*
X146875571Y-58999428D01*
X146589857Y-58856571D01*
X146018428Y-58713714D01*
X145732714Y-58570857D01*
X145589857Y-58428000D01*
X145447000Y-58142285D01*
X145447000Y-57856571D01*
X145589857Y-57570857D01*
X145732714Y-57428000D01*
X146018428Y-57285142D01*
X146732714Y-57285142D01*
X147161285Y-57428000D01*
X148018428Y-57285142D02*
X149732714Y-57285142D01*
X148875571Y-60285142D02*
X148875571Y-57285142D01*
X153018428Y-57285142D02*
X153018428Y-59713714D01*
X153161285Y-59999428D01*
X153304142Y-60142285D01*
X153589857Y-60285142D01*
X154161285Y-60285142D01*
X154447000Y-60142285D01*
X154589857Y-59999428D01*
X154732714Y-59713714D01*
X154732714Y-57285142D01*
X156018428Y-59428000D02*
X157447000Y-59428000D01*
X155732714Y-60285142D02*
X156732714Y-57285142D01*
X157732714Y-60285142D01*
X158304142Y-57285142D02*
X159304142Y-60285142D01*
X160304142Y-57285142D01*
D12*
%TO.P,SW3,1,1*%
%TO.N,/Side*%
X127179000Y-89753000D03*
X133679000Y-89753000D03*
%TO.P,SW3,2,2*%
%TO.N,GND*%
X127179000Y-85253000D03*
X133679000Y-85253000D03*
%TD*%
%TO.P,SW2,1,1*%
%TO.N,/Center*%
X141657000Y-89753000D03*
X148157000Y-89753000D03*
%TO.P,SW2,2,2*%
%TO.N,GND*%
X141657000Y-85253000D03*
X148157000Y-85253000D03*
%TD*%
D13*
%TO.P,C1,1*%
%TO.N,VCC*%
X132649000Y-116967000D03*
%TO.P,C1,2*%
%TO.N,GND*%
X130749000Y-116967000D03*
%TD*%
D14*
%TO.P,C2,1*%
%TO.N,+3V3*%
X137541000Y-107635000D03*
%TO.P,C2,2*%
%TO.N,GND*%
X137541000Y-109535000D03*
%TD*%
D15*
%TO.P,D1,1,K*%
%TO.N,VCC*%
X137541000Y-115569000D03*
%TO.P,D1,2,A*%
%TO.N,+3V3*%
X137541000Y-112269000D03*
%TD*%
D16*
%TO.P,J2,1,Pin_1*%
%TO.N,/UPDI*%
X131191000Y-102093000D03*
D17*
%TO.P,J2,2,Pin_2*%
%TO.N,+3V3*%
X131191000Y-99553000D03*
%TO.P,J2,3,Pin_3*%
%TO.N,GND*%
X131191000Y-97013000D03*
%TD*%
D16*
%TO.P,J3,1,Pin_1*%
%TO.N,+3V3*%
X154305000Y-84963000D03*
D17*
%TO.P,J3,2,Pin_2*%
%TO.N,unconnected-(J3-Pad2)*%
X154305000Y-87503000D03*
%TO.P,J3,3,Pin_3*%
%TO.N,GND*%
X154305000Y-90043000D03*
%TO.P,J3,4,Pin_4*%
%TO.N,/SDA*%
X154305000Y-92583000D03*
%TO.P,J3,5,Pin_5*%
%TO.N,/SCL*%
X154305000Y-95123000D03*
%TO.P,J3,6,Pin_6*%
%TO.N,unconnected-(J3-Pad6)*%
X154305000Y-97663000D03*
%TD*%
D16*
%TO.P,J4,1,Pin_1*%
%TO.N,/Servo_X*%
X163703000Y-121920000D03*
D17*
%TO.P,J4,2,Pin_2*%
%TO.N,VCC*%
X161163000Y-121920000D03*
%TO.P,J4,3,Pin_3*%
%TO.N,GND*%
X158623000Y-121920000D03*
%TD*%
D16*
%TO.P,J5,1,Pin_1*%
%TO.N,/TX*%
X142875000Y-98806000D03*
D17*
%TO.P,J5,2,Pin_2*%
%TO.N,GND*%
X142875000Y-96266000D03*
%TD*%
D16*
%TO.P,J6,1,Pin_1*%
%TO.N,/Servo_Y*%
X173609000Y-121920000D03*
D17*
%TO.P,J6,2,Pin_2*%
%TO.N,VCC*%
X171069000Y-121920000D03*
%TO.P,J6,3,Pin_3*%
%TO.N,GND*%
X168529000Y-121920000D03*
%TD*%
D16*
%TO.P,J7,1,Pin_1*%
%TO.N,unconnected-(J7-Pad1)*%
X172085000Y-87503000D03*
D17*
%TO.P,J7,2,Pin_2*%
%TO.N,unconnected-(J7-Pad2)*%
X172085000Y-90043000D03*
%TO.P,J7,3,Pin_3*%
%TO.N,unconnected-(J7-Pad3)*%
X172085000Y-92583000D03*
%TO.P,J7,4,Pin_4*%
%TO.N,unconnected-(J7-Pad4)*%
X172085000Y-95123000D03*
%TD*%
D18*
%TO.P,R1,1*%
%TO.N,/UPDI*%
X136332500Y-102743000D03*
%TO.P,R1,2*%
%TO.N,Net-(R1-Pad2)*%
X139257500Y-102743000D03*
%TD*%
D19*
%TO.P,U1,1,GND*%
%TO.N,GND*%
X129526000Y-113640000D03*
D20*
%TO.P,U1,2,VO*%
%TO.N,+3V3*%
X131826000Y-107340000D03*
D19*
X131826000Y-113640000D03*
%TO.P,U1,3,VI*%
%TO.N,VCC*%
X134126000Y-113640000D03*
%TD*%
D21*
%TO.P,U2,1,VCC*%
%TO.N,+3V3*%
X148144000Y-109728000D03*
%TO.P,U2,2,PA4*%
%TO.N,/Servo_X*%
X148144000Y-108458000D03*
%TO.P,U2,3,PA5*%
%TO.N,/Servo_Y*%
X148144000Y-107188000D03*
%TO.P,U2,4,PA6*%
%TO.N,/Center*%
X148144000Y-105918000D03*
%TO.P,U2,5,PA7*%
%TO.N,/Side*%
X148144000Y-104648000D03*
%TO.P,U2,6,PB3*%
%TO.N,unconnected-(U2-Pad6)*%
X148144000Y-103378000D03*
%TO.P,U2,7,PB2*%
%TO.N,/TX*%
X148144000Y-102108000D03*
%TO.P,U2,8,PB1*%
%TO.N,/SDA*%
X143194000Y-102108000D03*
%TO.P,U2,9,PB0*%
%TO.N,/SCL*%
X143194000Y-103378000D03*
%TO.P,U2,10,~{RESET}/PA0*%
%TO.N,Net-(R1-Pad2)*%
X143194000Y-104648000D03*
%TO.P,U2,11,PA1*%
%TO.N,unconnected-(U2-Pad11)*%
X143194000Y-105918000D03*
%TO.P,U2,12,PA2*%
%TO.N,unconnected-(U2-Pad12)*%
X143194000Y-107188000D03*
%TO.P,U2,13,PA3*%
%TO.N,unconnected-(U2-Pad13)*%
X143194000Y-108458000D03*
%TO.P,U2,14,GND*%
%TO.N,GND*%
X143194000Y-109728000D03*
%TD*%
D16*
%TO.P,J1,1,Pin_1*%
%TO.N,GND*%
X122570000Y-121920000D03*
D17*
%TO.P,J1,2,Pin_2*%
%TO.N,Net-(J1-Pad2)*%
X125110000Y-121920000D03*
%TO.P,J1,3,Pin_3*%
%TO.N,GND*%
X127650000Y-121920000D03*
%TD*%
D22*
%TO.P,SW1,1,A*%
%TO.N,VCC*%
X134152000Y-121771000D03*
%TO.P,SW1,2,B*%
%TO.N,Net-(J1-Pad2)*%
X139192000Y-121771000D03*
%TO.P,SW1,3,C*%
%TO.N,unconnected-(SW1-Pad3)*%
X144272000Y-121771000D03*
%TD*%
D23*
%TO.N,/Side*%
X150241000Y-99314000D03*
X150241000Y-94742000D03*
%TO.N,/Center*%
X151257000Y-94107000D03*
X151257000Y-98933000D03*
%TO.N,GND*%
X135890000Y-109601000D03*
X129526000Y-115744000D03*
X145161000Y-109728000D03*
%TO.N,+3V3*%
X157099000Y-105791000D03*
X157099000Y-109601000D03*
%TO.N,/TX*%
X147955000Y-100965000D03*
%TD*%
D24*
%TO.N,/Side*%
X148144000Y-104648000D02*
X148717000Y-104648000D01*
X148717000Y-104648000D02*
X150241000Y-103124000D01*
X150241000Y-103124000D02*
X150241000Y-99314000D01*
X150241000Y-94742000D02*
X147828000Y-92329000D01*
X147828000Y-92329000D02*
X136255000Y-92329000D01*
X136255000Y-92329000D02*
X133679000Y-89753000D01*
X127179000Y-89753000D02*
X133679000Y-89753000D01*
%TO.N,/Center*%
X148157000Y-89753000D02*
X141657000Y-89753000D01*
X151257000Y-94107000D02*
X151257000Y-92853000D01*
X151257000Y-92853000D02*
X148157000Y-89753000D01*
X151257000Y-101600000D02*
X151257000Y-98933000D01*
X148613382Y-105918000D02*
X151257000Y-103274382D01*
X148144000Y-105918000D02*
X148613382Y-105918000D01*
X151257000Y-103274382D02*
X151257000Y-101600000D01*
D25*
%TO.N,GND*%
X130749000Y-116967000D02*
X129526000Y-115744000D01*
X129526000Y-115744000D02*
X129526000Y-113640000D01*
D26*
%TO.N,VCC*%
X134152000Y-117856000D02*
X157099000Y-117856000D01*
X161163000Y-121920000D02*
X163068000Y-123825000D01*
X134126000Y-116953000D02*
X134126000Y-113640000D01*
X157099000Y-117856000D02*
X161163000Y-121920000D01*
D25*
X132649000Y-116967000D02*
X134112000Y-116967000D01*
X134112000Y-116967000D02*
X134126000Y-116953000D01*
X137541000Y-115569000D02*
X136055000Y-115569000D01*
D26*
X134152000Y-117856000D02*
X134126000Y-117830000D01*
D25*
X136055000Y-115569000D02*
X134126000Y-113640000D01*
D26*
X134152000Y-121771000D02*
X134152000Y-117856000D01*
X163068000Y-123825000D02*
X169164000Y-123825000D01*
X134126000Y-117830000D02*
X134126000Y-116953000D01*
X169164000Y-123825000D02*
X171069000Y-121920000D01*
D25*
%TO.N,+3V3*%
X157099000Y-87757000D02*
X154305000Y-84963000D01*
X148144000Y-111125000D02*
X155575000Y-111125000D01*
X148144000Y-111125000D02*
X141031000Y-111125000D01*
X131826000Y-113640000D02*
X131826000Y-111252000D01*
X148144000Y-109728000D02*
X148144000Y-111125000D01*
X129887000Y-100857000D02*
X129887000Y-105401000D01*
X131826000Y-111252000D02*
X136524000Y-111252000D01*
X131191000Y-99553000D02*
X129887000Y-100857000D01*
X157099000Y-105791000D02*
X157099000Y-87757000D01*
X131826000Y-111252000D02*
X131826000Y-107340000D01*
X155575000Y-111125000D02*
X157099000Y-109601000D01*
X137246000Y-107340000D02*
X137541000Y-107635000D01*
X131826000Y-107340000D02*
X137246000Y-107340000D01*
X136524000Y-111252000D02*
X137541000Y-112269000D01*
X129887000Y-105401000D02*
X131826000Y-107340000D01*
X141031000Y-111125000D02*
X137541000Y-107635000D01*
D24*
%TO.N,/UPDI*%
X136332500Y-102743000D02*
X135682500Y-102093000D01*
X135682500Y-102093000D02*
X131191000Y-102093000D01*
%TO.N,/SCL*%
X144331658Y-103378000D02*
X152586658Y-95123000D01*
X143194000Y-103378000D02*
X144331658Y-103378000D01*
X152586658Y-95123000D02*
X154305000Y-95123000D01*
%TO.N,/SDA*%
X144780000Y-102108000D02*
X154305000Y-92583000D01*
X143194000Y-102108000D02*
X144780000Y-102108000D01*
%TO.N,/Servo_X*%
X158496000Y-108458000D02*
X148144000Y-108458000D01*
X163703000Y-113665000D02*
X158496000Y-108458000D01*
X163703000Y-121920000D02*
X163703000Y-113665000D01*
%TO.N,/TX*%
X148144000Y-101154000D02*
X148144000Y-102108000D01*
X147955000Y-100965000D02*
X148144000Y-101154000D01*
%TO.N,/Servo_Y*%
X148144000Y-107188000D02*
X158877000Y-107188000D01*
X158877000Y-107188000D02*
X173609000Y-121920000D01*
%TO.N,Net-(R1-Pad2)*%
X141162500Y-104648000D02*
X139257500Y-102743000D01*
X143194000Y-104648000D02*
X141162500Y-104648000D01*
D26*
%TO.N,Net-(J1-Pad2)*%
X136071000Y-124892000D02*
X128082000Y-124892000D01*
X139192000Y-121771000D02*
X136071000Y-124892000D01*
X128082000Y-124892000D02*
X125110000Y-121920000D01*
%TD*%
%TA.AperFunction,Conductor*%
%TO.N,GND*%
G36*
X178083621Y-52004502D02*
G01*
X178130114Y-52058158D01*
X178141500Y-52110500D01*
X178141500Y-124841500D01*
X178121498Y-124909621D01*
X178067842Y-124956114D01*
X178015500Y-124967500D01*
X169171510Y-124967500D01*
X169131141Y-124955647D01*
X169106539Y-124966461D01*
X169090389Y-124967500D01*
X163141611Y-124967500D01*
X163103325Y-124956258D01*
X163089613Y-124964088D01*
X163060490Y-124967500D01*
X145410660Y-124967500D01*
X145342539Y-124947498D01*
X145296046Y-124893842D01*
X145285942Y-124823568D01*
X145315436Y-124758988D01*
X145359310Y-124726438D01*
X145372382Y-124720604D01*
X145469006Y-124677483D01*
X145520429Y-124642075D01*
X145637345Y-124561571D01*
X145637346Y-124561570D01*
X145642101Y-124558296D01*
X145656203Y-124544170D01*
X145786498Y-124413647D01*
X145790578Y-124409560D01*
X145909463Y-124236258D01*
X145994775Y-124044192D01*
X146009708Y-123981750D01*
X146042463Y-123844793D01*
X146042464Y-123844789D01*
X146043658Y-123839795D01*
X146048167Y-123776890D01*
X146050339Y-123746594D01*
X146050339Y-123746586D01*
X146050500Y-123744344D01*
X146050500Y-122306703D01*
X150036743Y-122306703D01*
X150037302Y-122310947D01*
X150037302Y-122310951D01*
X150039650Y-122328784D01*
X150074268Y-122591734D01*
X150150129Y-122869036D01*
X150151813Y-122872984D01*
X150259769Y-123126081D01*
X150262923Y-123133476D01*
X150274693Y-123153142D01*
X150346148Y-123272534D01*
X150410561Y-123380161D01*
X150590313Y-123604528D01*
X150798851Y-123802423D01*
X151032317Y-123970186D01*
X151036112Y-123972195D01*
X151036113Y-123972196D01*
X151055570Y-123982498D01*
X151286392Y-124104712D01*
X151556373Y-124203511D01*
X151837264Y-124264755D01*
X151865841Y-124267004D01*
X152060282Y-124282307D01*
X152060291Y-124282307D01*
X152062739Y-124282500D01*
X152218271Y-124282500D01*
X152220407Y-124282354D01*
X152220418Y-124282354D01*
X152428548Y-124268165D01*
X152428554Y-124268164D01*
X152432825Y-124267873D01*
X152437020Y-124267004D01*
X152437022Y-124267004D01*
X152602511Y-124232733D01*
X152714342Y-124209574D01*
X152985343Y-124113607D01*
X153116155Y-124046090D01*
X153237005Y-123983715D01*
X153237006Y-123983715D01*
X153240812Y-123981750D01*
X153244313Y-123979289D01*
X153244317Y-123979287D01*
X153425382Y-123852032D01*
X153476023Y-123816441D01*
X153686622Y-123620740D01*
X153868713Y-123398268D01*
X154018927Y-123153142D01*
X154024081Y-123141402D01*
X154132757Y-122893830D01*
X154134483Y-122889898D01*
X154213244Y-122613406D01*
X154251071Y-122347617D01*
X154253146Y-122333036D01*
X154253146Y-122333034D01*
X154253751Y-122328784D01*
X154253845Y-122310951D01*
X154254497Y-122186522D01*
X157419989Y-122186522D01*
X157460397Y-122337325D01*
X157464143Y-122347617D01*
X157550528Y-122532870D01*
X157556006Y-122542356D01*
X157673238Y-122709782D01*
X157680292Y-122718189D01*
X157824811Y-122862708D01*
X157833218Y-122869762D01*
X158000644Y-122986994D01*
X158010130Y-122992472D01*
X158195383Y-123078857D01*
X158205675Y-123082603D01*
X158351503Y-123121678D01*
X158365599Y-123121342D01*
X158369000Y-123113400D01*
X158369000Y-122192115D01*
X158364525Y-122176876D01*
X158363135Y-122175671D01*
X158355452Y-122174000D01*
X157434749Y-122174000D01*
X157421218Y-122177973D01*
X157419989Y-122186522D01*
X154254497Y-122186522D01*
X154255235Y-122045583D01*
X154255235Y-122045576D01*
X154255257Y-122041297D01*
X154217732Y-121756266D01*
X154201618Y-121697361D01*
X154188082Y-121647885D01*
X154141871Y-121478964D01*
X154102728Y-121387196D01*
X154030763Y-121218476D01*
X154030761Y-121218472D01*
X154029077Y-121214524D01*
X153913774Y-121021866D01*
X153883643Y-120971521D01*
X153883640Y-120971517D01*
X153881439Y-120967839D01*
X153701687Y-120743472D01*
X153575299Y-120623534D01*
X153496258Y-120548527D01*
X153496255Y-120548525D01*
X153493149Y-120545577D01*
X153259683Y-120377814D01*
X153237843Y-120366250D01*
X153200203Y-120346321D01*
X153005608Y-120243288D01*
X152735627Y-120144489D01*
X152454736Y-120083245D01*
X152423685Y-120080801D01*
X152231718Y-120065693D01*
X152231709Y-120065693D01*
X152229261Y-120065500D01*
X152073729Y-120065500D01*
X152071593Y-120065646D01*
X152071582Y-120065646D01*
X151863452Y-120079835D01*
X151863446Y-120079836D01*
X151859175Y-120080127D01*
X151854980Y-120080996D01*
X151854978Y-120080996D01*
X151718417Y-120109276D01*
X151577658Y-120138426D01*
X151306657Y-120234393D01*
X151051188Y-120366250D01*
X151047687Y-120368711D01*
X151047683Y-120368713D01*
X151037594Y-120375804D01*
X150815977Y-120531559D01*
X150773502Y-120571029D01*
X150614635Y-120718658D01*
X150605378Y-120727260D01*
X150423287Y-120949732D01*
X150273073Y-121194858D01*
X150271347Y-121198791D01*
X150271346Y-121198792D01*
X150161379Y-121449305D01*
X150157517Y-121458102D01*
X150078756Y-121734594D01*
X150038249Y-122019216D01*
X150038227Y-122023505D01*
X150038226Y-122023512D01*
X150036822Y-122291557D01*
X150036743Y-122306703D01*
X146050500Y-122306703D01*
X146050500Y-119797656D01*
X146043370Y-119700221D01*
X145994131Y-119495910D01*
X145908483Y-119303994D01*
X145905209Y-119299239D01*
X145792571Y-119135655D01*
X145792570Y-119135654D01*
X145789296Y-119130899D01*
X145640560Y-118982422D01*
X145635802Y-118979158D01*
X145635796Y-118979153D01*
X145630326Y-118975401D01*
X145585468Y-118920372D01*
X145577482Y-118849825D01*
X145608904Y-118786161D01*
X145669758Y-118749591D01*
X145701604Y-118745500D01*
X156678367Y-118745500D01*
X156746488Y-118765502D01*
X156767462Y-118782405D01*
X158475464Y-120490407D01*
X158509490Y-120552719D01*
X158504425Y-120623534D01*
X158461878Y-120680370D01*
X158408255Y-120703587D01*
X158403112Y-120704494D01*
X158205675Y-120757397D01*
X158195383Y-120761143D01*
X158010130Y-120847528D01*
X158000644Y-120853006D01*
X157833218Y-120970238D01*
X157824811Y-120977292D01*
X157680292Y-121121811D01*
X157673238Y-121130218D01*
X157556006Y-121297644D01*
X157550528Y-121307130D01*
X157464143Y-121492383D01*
X157460397Y-121502675D01*
X157421322Y-121648503D01*
X157421658Y-121662599D01*
X157429600Y-121666000D01*
X158751000Y-121666000D01*
X158819121Y-121686002D01*
X158865614Y-121739658D01*
X158877000Y-121792000D01*
X158877000Y-123108251D01*
X158880973Y-123121782D01*
X158889522Y-123123011D01*
X159040325Y-123082603D01*
X159050617Y-123078857D01*
X159235870Y-122992472D01*
X159245356Y-122986994D01*
X159412782Y-122869762D01*
X159421189Y-122862708D01*
X159565708Y-122718189D01*
X159572762Y-122709782D01*
X159689994Y-122542356D01*
X159695471Y-122532871D01*
X159706974Y-122508202D01*
X159753891Y-122454916D01*
X159822168Y-122435454D01*
X159890128Y-122455995D01*
X159937912Y-122514044D01*
X159944297Y-122529767D01*
X159946266Y-122534616D01*
X159948965Y-122539020D01*
X160053608Y-122709782D01*
X160062987Y-122725088D01*
X160209250Y-122893938D01*
X160381126Y-123036632D01*
X160574000Y-123149338D01*
X160578825Y-123151180D01*
X160578826Y-123151181D01*
X160593538Y-123156799D01*
X160782692Y-123229030D01*
X160787760Y-123230061D01*
X160787763Y-123230062D01*
X160895017Y-123251883D01*
X161001597Y-123273567D01*
X161006772Y-123273757D01*
X161006774Y-123273757D01*
X161218936Y-123281537D01*
X161286278Y-123304022D01*
X161303414Y-123318357D01*
X162382511Y-124397454D01*
X162395348Y-124412482D01*
X162403331Y-124423470D01*
X162408233Y-124427883D01*
X162408234Y-124427885D01*
X162453063Y-124468249D01*
X162457847Y-124472790D01*
X162471994Y-124486937D01*
X162474559Y-124489014D01*
X162487554Y-124499537D01*
X162492575Y-124503825D01*
X162537381Y-124544170D01*
X162537385Y-124544173D01*
X162542285Y-124548585D01*
X162547995Y-124551881D01*
X162547998Y-124551884D01*
X162554045Y-124555375D01*
X162570330Y-124566568D01*
X162580875Y-124575107D01*
X162640480Y-124605477D01*
X162646276Y-124608624D01*
X162704215Y-124642075D01*
X162717125Y-124646270D01*
X162735384Y-124653833D01*
X162747476Y-124659994D01*
X162800525Y-124674209D01*
X162812094Y-124677309D01*
X162818419Y-124679182D01*
X162882044Y-124699855D01*
X162888611Y-124700545D01*
X162888615Y-124700546D01*
X162894288Y-124701142D01*
X162895530Y-124701272D01*
X162914972Y-124704875D01*
X162928085Y-124708389D01*
X162934682Y-124708735D01*
X162934684Y-124708735D01*
X162994887Y-124711890D01*
X163001461Y-124712407D01*
X163018105Y-124714156D01*
X163018109Y-124714156D01*
X163021380Y-124714500D01*
X163041407Y-124714500D01*
X163048001Y-124714673D01*
X163067084Y-124715673D01*
X163097276Y-124726283D01*
X163106113Y-124720604D01*
X163121901Y-124717051D01*
X163128215Y-124716051D01*
X163147925Y-124714500D01*
X169084075Y-124714500D01*
X169103785Y-124716051D01*
X169110099Y-124717051D01*
X169128193Y-124725629D01*
X169136012Y-124720604D01*
X169164916Y-124715673D01*
X169183999Y-124714673D01*
X169190593Y-124714500D01*
X169210620Y-124714500D01*
X169213891Y-124714156D01*
X169213895Y-124714156D01*
X169230539Y-124712407D01*
X169237113Y-124711890D01*
X169297316Y-124708735D01*
X169297318Y-124708735D01*
X169303915Y-124708389D01*
X169317028Y-124704875D01*
X169336470Y-124701272D01*
X169337712Y-124701142D01*
X169343385Y-124700546D01*
X169343389Y-124700545D01*
X169349956Y-124699855D01*
X169413581Y-124679182D01*
X169419906Y-124677309D01*
X169431475Y-124674209D01*
X169484524Y-124659994D01*
X169496616Y-124653833D01*
X169514875Y-124646270D01*
X169527785Y-124642075D01*
X169585724Y-124608624D01*
X169591520Y-124605477D01*
X169651125Y-124575107D01*
X169661670Y-124566568D01*
X169677955Y-124555375D01*
X169684002Y-124551884D01*
X169684005Y-124551881D01*
X169689715Y-124548585D01*
X169694615Y-124544173D01*
X169694619Y-124544170D01*
X169739425Y-124503825D01*
X169744446Y-124499537D01*
X169757441Y-124489014D01*
X169760006Y-124486937D01*
X169774153Y-124472790D01*
X169778937Y-124468249D01*
X169823766Y-124427885D01*
X169823767Y-124427883D01*
X169828669Y-124423470D01*
X169836652Y-124412482D01*
X169849489Y-124397454D01*
X170932217Y-123314726D01*
X170994529Y-123280700D01*
X171025927Y-123277906D01*
X171072228Y-123279604D01*
X171125673Y-123281564D01*
X171125677Y-123281564D01*
X171130837Y-123281753D01*
X171135957Y-123281097D01*
X171135959Y-123281097D01*
X171347288Y-123254025D01*
X171347289Y-123254025D01*
X171352416Y-123253368D01*
X171357366Y-123251883D01*
X171561429Y-123190661D01*
X171561434Y-123190659D01*
X171566384Y-123189174D01*
X171766994Y-123090896D01*
X171948860Y-122961173D01*
X172057091Y-122853319D01*
X172119462Y-122819404D01*
X172190268Y-122824592D01*
X172247030Y-122867238D01*
X172264012Y-122898341D01*
X172286201Y-122957529D01*
X172308385Y-123016705D01*
X172395739Y-123133261D01*
X172512295Y-123220615D01*
X172648684Y-123271745D01*
X172710866Y-123278500D01*
X174507134Y-123278500D01*
X174569316Y-123271745D01*
X174705705Y-123220615D01*
X174822261Y-123133261D01*
X174909615Y-123016705D01*
X174960745Y-122880316D01*
X174967500Y-122818134D01*
X174967500Y-121021866D01*
X174960745Y-120959684D01*
X174909615Y-120823295D01*
X174822261Y-120706739D01*
X174705705Y-120619385D01*
X174569316Y-120568255D01*
X174507134Y-120561500D01*
X173291226Y-120561500D01*
X173223105Y-120541498D01*
X173202131Y-120524595D01*
X159391497Y-106713962D01*
X159385643Y-106707696D01*
X159376072Y-106696725D01*
X159348158Y-106664726D01*
X159296622Y-106628506D01*
X159291326Y-106624573D01*
X159247737Y-106590394D01*
X159247734Y-106590392D01*
X159241760Y-106585708D01*
X159234836Y-106582582D01*
X159231801Y-106580744D01*
X159219102Y-106573500D01*
X159215954Y-106571812D01*
X159209739Y-106567444D01*
X159151050Y-106544562D01*
X159145005Y-106542022D01*
X159087565Y-106516087D01*
X159080092Y-106514702D01*
X159076674Y-106513631D01*
X159062685Y-106509646D01*
X159059193Y-106508749D01*
X159052111Y-106505988D01*
X159044578Y-106504996D01*
X159044577Y-106504996D01*
X158989670Y-106497767D01*
X158983157Y-106496735D01*
X158928682Y-106486639D01*
X158928680Y-106486639D01*
X158921213Y-106485255D01*
X158913633Y-106485692D01*
X158913632Y-106485692D01*
X158859888Y-106488791D01*
X158852635Y-106489000D01*
X157963293Y-106489000D01*
X157895172Y-106468998D01*
X157848679Y-106415342D01*
X157838575Y-106345068D01*
X157854174Y-106300000D01*
X157930223Y-106168279D01*
X157930224Y-106168278D01*
X157933527Y-106162556D01*
X157992542Y-105980928D01*
X157996360Y-105944607D01*
X158011814Y-105797565D01*
X158012504Y-105791000D01*
X158002839Y-105699042D01*
X157993232Y-105607635D01*
X157993232Y-105607633D01*
X157992542Y-105601072D01*
X157933527Y-105419444D01*
X157878381Y-105323928D01*
X157861500Y-105260929D01*
X157861500Y-95089695D01*
X170722251Y-95089695D01*
X170722548Y-95094848D01*
X170722548Y-95094851D01*
X170728011Y-95189590D01*
X170735110Y-95312715D01*
X170736247Y-95317761D01*
X170736248Y-95317767D01*
X170756119Y-95405939D01*
X170784222Y-95530639D01*
X170868266Y-95737616D01*
X170870965Y-95742020D01*
X170982286Y-95923680D01*
X170984987Y-95928088D01*
X171131250Y-96096938D01*
X171303126Y-96239632D01*
X171496000Y-96352338D01*
X171704692Y-96432030D01*
X171709760Y-96433061D01*
X171709763Y-96433062D01*
X171814466Y-96454364D01*
X171923597Y-96476567D01*
X171928772Y-96476757D01*
X171928774Y-96476757D01*
X172141673Y-96484564D01*
X172141677Y-96484564D01*
X172146837Y-96484753D01*
X172151957Y-96484097D01*
X172151959Y-96484097D01*
X172363288Y-96457025D01*
X172363289Y-96457025D01*
X172368416Y-96456368D01*
X172375096Y-96454364D01*
X172577429Y-96393661D01*
X172577434Y-96393659D01*
X172582384Y-96392174D01*
X172782994Y-96293896D01*
X172964860Y-96164173D01*
X173123096Y-96006489D01*
X173182594Y-95923689D01*
X173250435Y-95829277D01*
X173253453Y-95825077D01*
X173307232Y-95716264D01*
X173350136Y-95629453D01*
X173350137Y-95629451D01*
X173352430Y-95624811D01*
X173413214Y-95424749D01*
X173415865Y-95416023D01*
X173415865Y-95416021D01*
X173417370Y-95411069D01*
X173446529Y-95189590D01*
X173448156Y-95123000D01*
X173429852Y-94900361D01*
X173375431Y-94683702D01*
X173286354Y-94478840D01*
X173165014Y-94291277D01*
X173014670Y-94126051D01*
X173010619Y-94122852D01*
X173010615Y-94122848D01*
X172843414Y-93990800D01*
X172843410Y-93990798D01*
X172839359Y-93987598D01*
X172798053Y-93964796D01*
X172748084Y-93914364D01*
X172733312Y-93844921D01*
X172758428Y-93778516D01*
X172785780Y-93751909D01*
X172830920Y-93719711D01*
X172964860Y-93624173D01*
X173013429Y-93575774D01*
X173119435Y-93470137D01*
X173123096Y-93466489D01*
X173182594Y-93383689D01*
X173250435Y-93289277D01*
X173253453Y-93285077D01*
X173298108Y-93194725D01*
X173350136Y-93089453D01*
X173350137Y-93089451D01*
X173352430Y-93084811D01*
X173417370Y-92871069D01*
X173446529Y-92649590D01*
X173447941Y-92591802D01*
X173448074Y-92586365D01*
X173448074Y-92586361D01*
X173448156Y-92583000D01*
X173429852Y-92360361D01*
X173375431Y-92143702D01*
X173286354Y-91938840D01*
X173228037Y-91848695D01*
X173167822Y-91755617D01*
X173167820Y-91755614D01*
X173165014Y-91751277D01*
X173014670Y-91586051D01*
X173010619Y-91582852D01*
X173010615Y-91582848D01*
X172843414Y-91450800D01*
X172843410Y-91450798D01*
X172839359Y-91447598D01*
X172798053Y-91424796D01*
X172748084Y-91374364D01*
X172733312Y-91304921D01*
X172758428Y-91238516D01*
X172785780Y-91211909D01*
X172851153Y-91165279D01*
X172964860Y-91084173D01*
X173123096Y-90926489D01*
X173182594Y-90843689D01*
X173250435Y-90749277D01*
X173253453Y-90745077D01*
X173292854Y-90665356D01*
X173350136Y-90549453D01*
X173350137Y-90549451D01*
X173352430Y-90544811D01*
X173417370Y-90331069D01*
X173446529Y-90109590D01*
X173448156Y-90043000D01*
X173429852Y-89820361D01*
X173375431Y-89603702D01*
X173286354Y-89398840D01*
X173165014Y-89211277D01*
X173161532Y-89207450D01*
X173017798Y-89049488D01*
X172986746Y-88985642D01*
X172995141Y-88915143D01*
X173040317Y-88860375D01*
X173066761Y-88846706D01*
X173173297Y-88806767D01*
X173181705Y-88803615D01*
X173298261Y-88716261D01*
X173385615Y-88599705D01*
X173436745Y-88463316D01*
X173443500Y-88401134D01*
X173443500Y-86604866D01*
X173436745Y-86542684D01*
X173385615Y-86406295D01*
X173298261Y-86289739D01*
X173181705Y-86202385D01*
X173045316Y-86151255D01*
X172983134Y-86144500D01*
X171186866Y-86144500D01*
X171124684Y-86151255D01*
X170988295Y-86202385D01*
X170871739Y-86289739D01*
X170784385Y-86406295D01*
X170733255Y-86542684D01*
X170726500Y-86604866D01*
X170726500Y-88401134D01*
X170733255Y-88463316D01*
X170784385Y-88599705D01*
X170871739Y-88716261D01*
X170988295Y-88803615D01*
X170996704Y-88806767D01*
X170996705Y-88806768D01*
X171105451Y-88847535D01*
X171162216Y-88890176D01*
X171186916Y-88956738D01*
X171171709Y-89026087D01*
X171152316Y-89052568D01*
X171025629Y-89185138D01*
X170899743Y-89369680D01*
X170871683Y-89430130D01*
X170831690Y-89516289D01*
X170805688Y-89572305D01*
X170745989Y-89787570D01*
X170722251Y-90009695D01*
X170722548Y-90014848D01*
X170722548Y-90014851D01*
X170728011Y-90109590D01*
X170735110Y-90232715D01*
X170736247Y-90237761D01*
X170736248Y-90237767D01*
X170756119Y-90325939D01*
X170784222Y-90450639D01*
X170822461Y-90544811D01*
X170863622Y-90646178D01*
X170868266Y-90657616D01*
X170870965Y-90662020D01*
X170975608Y-90832782D01*
X170984987Y-90848088D01*
X171131250Y-91016938D01*
X171303126Y-91159632D01*
X171312790Y-91165279D01*
X171376445Y-91202476D01*
X171425169Y-91254114D01*
X171438240Y-91323897D01*
X171411509Y-91389669D01*
X171371055Y-91423027D01*
X171358607Y-91429507D01*
X171354474Y-91432610D01*
X171354471Y-91432612D01*
X171330247Y-91450800D01*
X171179965Y-91563635D01*
X171176393Y-91567373D01*
X171031410Y-91719089D01*
X171025629Y-91725138D01*
X171022715Y-91729410D01*
X171022714Y-91729411D01*
X170970656Y-91805726D01*
X170899743Y-91909680D01*
X170805688Y-92112305D01*
X170745989Y-92327570D01*
X170722251Y-92549695D01*
X170722548Y-92554848D01*
X170722548Y-92554851D01*
X170728011Y-92649590D01*
X170735110Y-92772715D01*
X170736247Y-92777761D01*
X170736248Y-92777767D01*
X170754024Y-92856641D01*
X170784222Y-92990639D01*
X170868266Y-93197616D01*
X170984987Y-93388088D01*
X171131250Y-93556938D01*
X171303126Y-93699632D01*
X171364411Y-93735444D01*
X171376445Y-93742476D01*
X171425169Y-93794114D01*
X171438240Y-93863897D01*
X171411509Y-93929669D01*
X171371055Y-93963027D01*
X171358607Y-93969507D01*
X171354474Y-93972610D01*
X171354471Y-93972612D01*
X171330247Y-93990800D01*
X171179965Y-94103635D01*
X171025629Y-94265138D01*
X170899743Y-94449680D01*
X170805688Y-94652305D01*
X170745989Y-94867570D01*
X170722251Y-95089695D01*
X157861500Y-95089695D01*
X157861500Y-87824376D01*
X157862933Y-87805426D01*
X157865124Y-87791027D01*
X157865124Y-87791021D01*
X157866224Y-87783792D01*
X157861915Y-87730817D01*
X157861500Y-87720602D01*
X157861500Y-87712475D01*
X157858189Y-87684076D01*
X157857760Y-87679736D01*
X157852402Y-87613867D01*
X157851809Y-87606574D01*
X157849553Y-87599612D01*
X157848357Y-87593624D01*
X157846949Y-87587667D01*
X157846101Y-87580393D01*
X157843603Y-87573511D01*
X157843602Y-87573507D01*
X157821055Y-87511393D01*
X157819645Y-87507289D01*
X157797013Y-87437425D01*
X157793213Y-87431162D01*
X157790675Y-87425620D01*
X157787933Y-87420144D01*
X157785434Y-87413259D01*
X157745185Y-87351868D01*
X157742870Y-87348200D01*
X157704773Y-87285419D01*
X157697333Y-87276995D01*
X157697362Y-87276969D01*
X157694762Y-87274038D01*
X157691958Y-87270684D01*
X157687946Y-87264565D01*
X157631413Y-87211011D01*
X157628972Y-87208634D01*
X155700405Y-85280067D01*
X155666379Y-85217755D01*
X155663500Y-85190972D01*
X155663500Y-84064866D01*
X155656745Y-84002684D01*
X155605615Y-83866295D01*
X155518261Y-83749739D01*
X155401705Y-83662385D01*
X155265316Y-83611255D01*
X155203134Y-83604500D01*
X153406866Y-83604500D01*
X153344684Y-83611255D01*
X153208295Y-83662385D01*
X153091739Y-83749739D01*
X153004385Y-83866295D01*
X152953255Y-84002684D01*
X152946500Y-84064866D01*
X152946500Y-85861134D01*
X152953255Y-85923316D01*
X153004385Y-86059705D01*
X153091739Y-86176261D01*
X153208295Y-86263615D01*
X153216704Y-86266767D01*
X153216705Y-86266768D01*
X153325451Y-86307535D01*
X153382216Y-86350176D01*
X153406916Y-86416738D01*
X153391709Y-86486087D01*
X153372316Y-86512568D01*
X153260885Y-86629174D01*
X153245629Y-86645138D01*
X153119743Y-86829680D01*
X153025688Y-87032305D01*
X152965989Y-87247570D01*
X152942251Y-87469695D01*
X152942548Y-87474848D01*
X152942548Y-87474851D01*
X152949405Y-87593767D01*
X152955110Y-87692715D01*
X152956247Y-87697761D01*
X152956248Y-87697767D01*
X152973991Y-87776497D01*
X153004222Y-87910639D01*
X153088266Y-88117616D01*
X153204987Y-88308088D01*
X153351250Y-88476938D01*
X153523126Y-88619632D01*
X153716000Y-88732338D01*
X153717133Y-88732770D01*
X153769068Y-88779476D01*
X153787811Y-88847953D01*
X153766556Y-88915694D01*
X153715081Y-88959826D01*
X153692134Y-88970526D01*
X153682644Y-88976006D01*
X153515218Y-89093238D01*
X153506811Y-89100292D01*
X153362292Y-89244811D01*
X153355238Y-89253218D01*
X153238006Y-89420644D01*
X153232528Y-89430130D01*
X153146143Y-89615383D01*
X153142397Y-89625675D01*
X153103322Y-89771503D01*
X153103658Y-89785599D01*
X153111600Y-89789000D01*
X155493251Y-89789000D01*
X155506782Y-89785027D01*
X155508011Y-89776478D01*
X155467603Y-89625675D01*
X155463857Y-89615383D01*
X155377472Y-89430130D01*
X155371994Y-89420644D01*
X155254762Y-89253218D01*
X155247708Y-89244811D01*
X155103189Y-89100292D01*
X155094782Y-89093238D01*
X154927356Y-88976006D01*
X154917866Y-88970526D01*
X154890141Y-88957598D01*
X154836856Y-88910682D01*
X154817394Y-88842405D01*
X154837935Y-88774445D01*
X154887957Y-88730252D01*
X154889019Y-88729732D01*
X155002994Y-88673896D01*
X155184860Y-88544173D01*
X155197041Y-88532035D01*
X155324991Y-88404531D01*
X155343096Y-88386489D01*
X155402594Y-88303689D01*
X155470435Y-88209277D01*
X155473453Y-88205077D01*
X155513016Y-88125028D01*
X155570136Y-88009453D01*
X155570137Y-88009451D01*
X155572430Y-88004811D01*
X155637370Y-87791069D01*
X155652575Y-87675578D01*
X155681298Y-87610651D01*
X155740563Y-87571560D01*
X155811554Y-87570715D01*
X155866592Y-87602930D01*
X156299595Y-88035933D01*
X156333621Y-88098245D01*
X156336500Y-88125028D01*
X156336500Y-105260929D01*
X156319619Y-105323928D01*
X156264473Y-105419444D01*
X156205458Y-105601072D01*
X156204768Y-105607633D01*
X156204768Y-105607635D01*
X156195161Y-105699042D01*
X156185496Y-105791000D01*
X156186186Y-105797565D01*
X156201641Y-105944607D01*
X156205458Y-105980928D01*
X156264473Y-106162556D01*
X156267776Y-106168278D01*
X156267777Y-106168279D01*
X156343826Y-106300000D01*
X156360564Y-106368996D01*
X156337343Y-106436087D01*
X156281536Y-106479974D01*
X156234707Y-106489000D01*
X149700233Y-106489000D01*
X149632112Y-106468998D01*
X149585619Y-106415342D01*
X149575515Y-106345068D01*
X149579236Y-106327848D01*
X149622767Y-106178011D01*
X149622768Y-106178007D01*
X149624562Y-106171831D01*
X149627500Y-106134502D01*
X149627500Y-105944607D01*
X149647502Y-105876486D01*
X149664405Y-105855512D01*
X151731038Y-103788879D01*
X151737304Y-103783025D01*
X151774549Y-103750534D01*
X151780274Y-103745540D01*
X151816502Y-103693992D01*
X151820435Y-103688698D01*
X151824282Y-103683792D01*
X151859291Y-103639143D01*
X151862417Y-103632219D01*
X151864264Y-103629170D01*
X151871489Y-103616504D01*
X151873186Y-103613339D01*
X151877556Y-103607121D01*
X151900456Y-103548386D01*
X151902983Y-103542373D01*
X151928912Y-103484947D01*
X151930296Y-103477479D01*
X151931364Y-103474071D01*
X151935364Y-103460032D01*
X151936253Y-103456568D01*
X151939012Y-103449493D01*
X151940004Y-103441961D01*
X151947235Y-103387037D01*
X151948267Y-103380523D01*
X151958360Y-103326065D01*
X151958360Y-103326062D01*
X151959744Y-103318596D01*
X151956209Y-103257287D01*
X151956000Y-103250035D01*
X151956000Y-99562779D01*
X151976002Y-99494658D01*
X151988359Y-99478475D01*
X151996040Y-99469944D01*
X152073649Y-99335522D01*
X152088223Y-99310279D01*
X152088224Y-99310278D01*
X152091527Y-99304556D01*
X152150542Y-99122928D01*
X152160861Y-99024753D01*
X152169814Y-98939565D01*
X152170504Y-98933000D01*
X152150542Y-98743072D01*
X152091527Y-98561444D01*
X152075472Y-98533635D01*
X152008477Y-98417598D01*
X151996040Y-98396056D01*
X151968147Y-98365077D01*
X151872675Y-98259045D01*
X151872674Y-98259044D01*
X151868253Y-98254134D01*
X151745311Y-98164811D01*
X151719094Y-98145763D01*
X151719093Y-98145762D01*
X151713752Y-98141882D01*
X151707724Y-98139198D01*
X151707722Y-98139197D01*
X151545319Y-98066891D01*
X151545318Y-98066891D01*
X151539288Y-98064206D01*
X151445888Y-98044353D01*
X151358944Y-98025872D01*
X151358939Y-98025872D01*
X151352487Y-98024500D01*
X151161513Y-98024500D01*
X151155061Y-98025872D01*
X151155056Y-98025872D01*
X151068112Y-98044353D01*
X150974712Y-98064206D01*
X150968680Y-98066891D01*
X150968060Y-98067093D01*
X150897092Y-98069121D01*
X150836294Y-98032459D01*
X150804969Y-97968747D01*
X150813061Y-97898213D01*
X150840028Y-97858165D01*
X152839288Y-95858905D01*
X152901600Y-95824879D01*
X152928383Y-95822000D01*
X153069412Y-95822000D01*
X153137533Y-95842002D01*
X153176844Y-95882165D01*
X153202285Y-95923680D01*
X153202290Y-95923686D01*
X153204987Y-95928088D01*
X153351250Y-96096938D01*
X153523126Y-96239632D01*
X153593595Y-96280811D01*
X153596445Y-96282476D01*
X153645169Y-96334114D01*
X153658240Y-96403897D01*
X153631509Y-96469669D01*
X153591055Y-96503027D01*
X153578607Y-96509507D01*
X153574474Y-96512610D01*
X153574471Y-96512612D01*
X153404100Y-96640530D01*
X153399965Y-96643635D01*
X153396393Y-96647373D01*
X153289720Y-96759000D01*
X153245629Y-96805138D01*
X153242715Y-96809410D01*
X153242714Y-96809411D01*
X153157556Y-96934249D01*
X153119743Y-96989680D01*
X153025688Y-97192305D01*
X152965989Y-97407570D01*
X152942251Y-97629695D01*
X152942548Y-97634848D01*
X152942548Y-97634851D01*
X152948011Y-97729590D01*
X152955110Y-97852715D01*
X152956247Y-97857761D01*
X152956248Y-97857767D01*
X152966773Y-97904469D01*
X153004222Y-98070639D01*
X153088266Y-98277616D01*
X153107889Y-98309638D01*
X153187055Y-98438825D01*
X153204987Y-98468088D01*
X153351250Y-98636938D01*
X153523126Y-98779632D01*
X153716000Y-98892338D01*
X153924692Y-98972030D01*
X153929760Y-98973061D01*
X153929763Y-98973062D01*
X154037017Y-98994883D01*
X154143597Y-99016567D01*
X154148772Y-99016757D01*
X154148774Y-99016757D01*
X154361673Y-99024564D01*
X154361677Y-99024564D01*
X154366837Y-99024753D01*
X154371957Y-99024097D01*
X154371959Y-99024097D01*
X154583288Y-98997025D01*
X154583289Y-98997025D01*
X154588416Y-98996368D01*
X154593366Y-98994883D01*
X154797429Y-98933661D01*
X154797434Y-98933659D01*
X154802384Y-98932174D01*
X155002994Y-98833896D01*
X155184860Y-98704173D01*
X155343096Y-98546489D01*
X155349647Y-98537373D01*
X155470435Y-98369277D01*
X155473453Y-98365077D01*
X155493799Y-98323911D01*
X155570136Y-98169453D01*
X155570137Y-98169451D01*
X155572430Y-98164811D01*
X155631999Y-97968747D01*
X155635865Y-97956023D01*
X155635865Y-97956021D01*
X155637370Y-97951069D01*
X155666529Y-97729590D01*
X155666611Y-97726240D01*
X155668074Y-97666365D01*
X155668074Y-97666361D01*
X155668156Y-97663000D01*
X155649852Y-97440361D01*
X155595431Y-97223702D01*
X155506354Y-97018840D01*
X155421940Y-96888356D01*
X155387822Y-96835617D01*
X155387820Y-96835614D01*
X155385014Y-96831277D01*
X155234670Y-96666051D01*
X155230619Y-96662852D01*
X155230615Y-96662848D01*
X155063414Y-96530800D01*
X155063410Y-96530798D01*
X155059359Y-96527598D01*
X155018053Y-96504796D01*
X154968084Y-96454364D01*
X154953312Y-96384921D01*
X154978428Y-96318516D01*
X155005780Y-96291909D01*
X155049603Y-96260650D01*
X155184860Y-96164173D01*
X155343096Y-96006489D01*
X155402594Y-95923689D01*
X155470435Y-95829277D01*
X155473453Y-95825077D01*
X155527232Y-95716264D01*
X155570136Y-95629453D01*
X155570137Y-95629451D01*
X155572430Y-95624811D01*
X155633214Y-95424749D01*
X155635865Y-95416023D01*
X155635865Y-95416021D01*
X155637370Y-95411069D01*
X155666529Y-95189590D01*
X155668156Y-95123000D01*
X155649852Y-94900361D01*
X155595431Y-94683702D01*
X155506354Y-94478840D01*
X155385014Y-94291277D01*
X155234670Y-94126051D01*
X155230619Y-94122852D01*
X155230615Y-94122848D01*
X155063414Y-93990800D01*
X155063410Y-93990798D01*
X155059359Y-93987598D01*
X155018053Y-93964796D01*
X154968084Y-93914364D01*
X154953312Y-93844921D01*
X154978428Y-93778516D01*
X155005780Y-93751909D01*
X155050920Y-93719711D01*
X155184860Y-93624173D01*
X155233429Y-93575774D01*
X155339435Y-93470137D01*
X155343096Y-93466489D01*
X155402594Y-93383689D01*
X155470435Y-93289277D01*
X155473453Y-93285077D01*
X155518108Y-93194725D01*
X155570136Y-93089453D01*
X155570137Y-93089451D01*
X155572430Y-93084811D01*
X155637370Y-92871069D01*
X155666529Y-92649590D01*
X155667941Y-92591802D01*
X155668074Y-92586365D01*
X155668074Y-92586361D01*
X155668156Y-92583000D01*
X155649852Y-92360361D01*
X155595431Y-92143702D01*
X155506354Y-91938840D01*
X155448037Y-91848695D01*
X155387822Y-91755617D01*
X155387820Y-91755614D01*
X155385014Y-91751277D01*
X155234670Y-91586051D01*
X155230619Y-91582852D01*
X155230615Y-91582848D01*
X155063414Y-91450800D01*
X155063410Y-91450798D01*
X155059359Y-91447598D01*
X155022260Y-91427118D01*
X154926695Y-91374364D01*
X154885384Y-91351559D01*
X154835414Y-91301127D01*
X154820642Y-91231685D01*
X154845758Y-91165279D01*
X154893027Y-91127057D01*
X154917865Y-91115475D01*
X154927356Y-91109994D01*
X155094782Y-90992762D01*
X155103189Y-90985708D01*
X155247708Y-90841189D01*
X155254762Y-90832782D01*
X155371994Y-90665356D01*
X155377472Y-90655870D01*
X155463857Y-90470617D01*
X155467603Y-90460325D01*
X155506678Y-90314497D01*
X155506342Y-90300401D01*
X155498400Y-90297000D01*
X153116749Y-90297000D01*
X153103218Y-90300973D01*
X153101989Y-90309522D01*
X153142397Y-90460325D01*
X153146143Y-90470617D01*
X153232528Y-90655870D01*
X153238006Y-90665356D01*
X153355238Y-90832782D01*
X153362292Y-90841189D01*
X153506811Y-90985708D01*
X153515218Y-90992762D01*
X153682644Y-91109994D01*
X153692130Y-91115472D01*
X153718896Y-91127953D01*
X153772181Y-91174871D01*
X153791642Y-91243148D01*
X153771100Y-91311108D01*
X153723827Y-91353910D01*
X153578607Y-91429507D01*
X153574474Y-91432610D01*
X153574471Y-91432612D01*
X153550247Y-91450800D01*
X153399965Y-91563635D01*
X153396393Y-91567373D01*
X153251410Y-91719089D01*
X153245629Y-91725138D01*
X153242715Y-91729410D01*
X153242714Y-91729411D01*
X153190656Y-91805726D01*
X153119743Y-91909680D01*
X153025688Y-92112305D01*
X152965989Y-92327570D01*
X152942251Y-92549695D01*
X152942548Y-92554848D01*
X152942548Y-92554851D01*
X152948011Y-92649590D01*
X152955110Y-92772715D01*
X152956247Y-92777762D01*
X152956248Y-92777766D01*
X152971417Y-92845073D01*
X152966881Y-92915924D01*
X152937595Y-92961869D01*
X152234172Y-93665292D01*
X152171860Y-93699318D01*
X152101045Y-93694253D01*
X152044209Y-93651706D01*
X152035966Y-93639209D01*
X151996040Y-93570056D01*
X151988363Y-93561530D01*
X151957647Y-93497524D01*
X151956000Y-93477221D01*
X151956000Y-92881599D01*
X151956292Y-92873029D01*
X151959654Y-92823723D01*
X151959654Y-92823719D01*
X151960170Y-92816148D01*
X151958865Y-92808672D01*
X151958865Y-92808668D01*
X151949337Y-92754076D01*
X151948374Y-92747551D01*
X151941722Y-92692582D01*
X151941721Y-92692580D01*
X151940809Y-92685040D01*
X151938125Y-92677938D01*
X151937281Y-92674500D01*
X151933417Y-92660377D01*
X151932387Y-92656966D01*
X151931081Y-92649483D01*
X151905761Y-92591802D01*
X151903270Y-92585696D01*
X151883691Y-92533883D01*
X151883690Y-92533882D01*
X151881006Y-92526778D01*
X151876707Y-92520523D01*
X151875065Y-92517382D01*
X151867967Y-92504628D01*
X151866130Y-92501522D01*
X151863077Y-92494567D01*
X151858452Y-92488540D01*
X151858450Y-92488536D01*
X151824735Y-92444598D01*
X151820871Y-92439280D01*
X151785179Y-92387348D01*
X151754890Y-92360361D01*
X151739312Y-92346482D01*
X151734036Y-92341501D01*
X149649297Y-90256762D01*
X149615271Y-90194450D01*
X149615873Y-90138253D01*
X149650380Y-89994524D01*
X149650381Y-89994518D01*
X149651535Y-89989711D01*
X149670165Y-89753000D01*
X149651535Y-89516289D01*
X149624479Y-89403590D01*
X149597260Y-89290218D01*
X149596105Y-89285406D01*
X149594211Y-89280833D01*
X149507135Y-89070611D01*
X149507133Y-89070607D01*
X149505240Y-89066037D01*
X149492993Y-89046051D01*
X149383759Y-88867798D01*
X149383755Y-88867792D01*
X149381176Y-88863584D01*
X149226969Y-88683031D01*
X149046416Y-88528824D01*
X149042208Y-88526245D01*
X149042202Y-88526241D01*
X148848183Y-88407346D01*
X148843963Y-88404760D01*
X148839393Y-88402867D01*
X148839389Y-88402865D01*
X148629167Y-88315789D01*
X148629165Y-88315788D01*
X148624594Y-88313895D01*
X148544391Y-88294640D01*
X148398524Y-88259620D01*
X148398518Y-88259619D01*
X148393711Y-88258465D01*
X148157000Y-88239835D01*
X147920289Y-88258465D01*
X147915482Y-88259619D01*
X147915476Y-88259620D01*
X147769609Y-88294640D01*
X147689406Y-88313895D01*
X147684835Y-88315788D01*
X147684833Y-88315789D01*
X147474611Y-88402865D01*
X147474607Y-88402867D01*
X147470037Y-88404760D01*
X147465817Y-88407346D01*
X147271798Y-88526241D01*
X147271792Y-88526245D01*
X147267584Y-88528824D01*
X147087031Y-88683031D01*
X147083823Y-88686787D01*
X146976855Y-88812030D01*
X146932824Y-88863584D01*
X146930237Y-88867806D01*
X146853005Y-88993835D01*
X146800357Y-89041467D01*
X146745573Y-89054000D01*
X143068427Y-89054000D01*
X143000306Y-89033998D01*
X142960995Y-88993835D01*
X142883763Y-88867806D01*
X142881176Y-88863584D01*
X142837145Y-88812030D01*
X142730177Y-88686787D01*
X142726969Y-88683031D01*
X142546416Y-88528824D01*
X142542208Y-88526245D01*
X142542202Y-88526241D01*
X142348183Y-88407346D01*
X142343963Y-88404760D01*
X142339393Y-88402867D01*
X142339389Y-88402865D01*
X142129167Y-88315789D01*
X142129165Y-88315788D01*
X142124594Y-88313895D01*
X142044391Y-88294640D01*
X141898524Y-88259620D01*
X141898518Y-88259619D01*
X141893711Y-88258465D01*
X141657000Y-88239835D01*
X141420289Y-88258465D01*
X141415482Y-88259619D01*
X141415476Y-88259620D01*
X141269609Y-88294640D01*
X141189406Y-88313895D01*
X141184835Y-88315788D01*
X141184833Y-88315789D01*
X140974611Y-88402865D01*
X140974607Y-88402867D01*
X140970037Y-88404760D01*
X140965817Y-88407346D01*
X140771798Y-88526241D01*
X140771792Y-88526245D01*
X140767584Y-88528824D01*
X140587031Y-88683031D01*
X140432824Y-88863584D01*
X140430245Y-88867792D01*
X140430241Y-88867798D01*
X140321007Y-89046051D01*
X140308760Y-89066037D01*
X140306867Y-89070607D01*
X140306865Y-89070611D01*
X140219789Y-89280833D01*
X140217895Y-89285406D01*
X140216740Y-89290218D01*
X140189522Y-89403590D01*
X140162465Y-89516289D01*
X140143835Y-89753000D01*
X140162465Y-89989711D01*
X140163619Y-89994518D01*
X140163620Y-89994524D01*
X140176066Y-90046365D01*
X140217895Y-90220594D01*
X140219788Y-90225165D01*
X140219789Y-90225167D01*
X140256791Y-90314497D01*
X140308760Y-90439963D01*
X140311346Y-90444183D01*
X140430241Y-90638202D01*
X140430245Y-90638208D01*
X140432824Y-90642416D01*
X140587031Y-90822969D01*
X140590787Y-90826177D01*
X140608364Y-90841189D01*
X140767584Y-90977176D01*
X140771792Y-90979755D01*
X140771798Y-90979759D01*
X140965817Y-91098654D01*
X140970037Y-91101240D01*
X140974607Y-91103133D01*
X140974611Y-91103135D01*
X141147799Y-91174871D01*
X141189406Y-91192105D01*
X141269609Y-91211360D01*
X141415476Y-91246380D01*
X141415482Y-91246381D01*
X141420289Y-91247535D01*
X141657000Y-91266165D01*
X141893711Y-91247535D01*
X141898518Y-91246381D01*
X141898524Y-91246380D01*
X142044391Y-91211360D01*
X142124594Y-91192105D01*
X142166201Y-91174871D01*
X142339389Y-91103135D01*
X142339393Y-91103133D01*
X142343963Y-91101240D01*
X142348183Y-91098654D01*
X142542202Y-90979759D01*
X142542208Y-90979755D01*
X142546416Y-90977176D01*
X142705636Y-90841189D01*
X142723213Y-90826177D01*
X142726969Y-90822969D01*
X142872283Y-90652829D01*
X142877963Y-90646178D01*
X142881176Y-90642416D01*
X142960995Y-90512165D01*
X143013643Y-90464533D01*
X143068427Y-90452000D01*
X146745573Y-90452000D01*
X146813694Y-90472002D01*
X146853005Y-90512165D01*
X146932824Y-90642416D01*
X146936037Y-90646178D01*
X146941718Y-90652829D01*
X147087031Y-90822969D01*
X147090787Y-90826177D01*
X147108364Y-90841189D01*
X147267584Y-90977176D01*
X147271792Y-90979755D01*
X147271798Y-90979759D01*
X147465817Y-91098654D01*
X147470037Y-91101240D01*
X147474607Y-91103133D01*
X147474611Y-91103135D01*
X147647799Y-91174871D01*
X147689406Y-91192105D01*
X147769609Y-91211360D01*
X147915476Y-91246380D01*
X147915482Y-91246381D01*
X147920289Y-91247535D01*
X148157000Y-91266165D01*
X148393711Y-91247535D01*
X148398518Y-91246381D01*
X148398524Y-91246380D01*
X148483853Y-91225894D01*
X148542254Y-91211873D01*
X148613161Y-91215420D01*
X148660762Y-91245297D01*
X150521095Y-93105630D01*
X150555121Y-93167942D01*
X150558000Y-93194725D01*
X150558000Y-93477221D01*
X150537998Y-93545342D01*
X150525641Y-93561525D01*
X150517960Y-93570056D01*
X150514661Y-93575769D01*
X150514658Y-93575774D01*
X150431556Y-93719711D01*
X150380173Y-93768704D01*
X150310460Y-93782140D01*
X150244549Y-93755753D01*
X150233342Y-93745806D01*
X148342496Y-91854960D01*
X148336643Y-91848695D01*
X148304153Y-91811451D01*
X148304150Y-91811448D01*
X148299158Y-91805726D01*
X148247622Y-91769506D01*
X148242326Y-91765573D01*
X148198737Y-91731394D01*
X148198734Y-91731392D01*
X148192760Y-91726708D01*
X148185836Y-91723582D01*
X148182801Y-91721744D01*
X148170102Y-91714500D01*
X148166954Y-91712812D01*
X148160739Y-91708444D01*
X148102050Y-91685562D01*
X148096005Y-91683022D01*
X148038565Y-91657087D01*
X148031092Y-91655702D01*
X148027674Y-91654631D01*
X148013685Y-91650646D01*
X148010193Y-91649749D01*
X148003111Y-91646988D01*
X147995578Y-91645996D01*
X147995577Y-91645996D01*
X147940670Y-91638767D01*
X147934157Y-91637735D01*
X147879682Y-91627639D01*
X147879680Y-91627639D01*
X147872213Y-91626255D01*
X147864633Y-91626692D01*
X147864632Y-91626692D01*
X147810888Y-91629791D01*
X147803635Y-91630000D01*
X136596725Y-91630000D01*
X136528604Y-91609998D01*
X136507630Y-91593095D01*
X135171297Y-90256762D01*
X135137271Y-90194450D01*
X135137873Y-90138253D01*
X135172380Y-89994524D01*
X135172381Y-89994518D01*
X135173535Y-89989711D01*
X135192165Y-89753000D01*
X135173535Y-89516289D01*
X135146479Y-89403590D01*
X135119260Y-89290218D01*
X135118105Y-89285406D01*
X135116211Y-89280833D01*
X135029135Y-89070611D01*
X135029133Y-89070607D01*
X135027240Y-89066037D01*
X135014993Y-89046051D01*
X134905759Y-88867798D01*
X134905755Y-88867792D01*
X134903176Y-88863584D01*
X134748969Y-88683031D01*
X134568416Y-88528824D01*
X134564208Y-88526245D01*
X134564202Y-88526241D01*
X134370183Y-88407346D01*
X134365963Y-88404760D01*
X134361393Y-88402867D01*
X134361389Y-88402865D01*
X134151167Y-88315789D01*
X134151165Y-88315788D01*
X134146594Y-88313895D01*
X134066391Y-88294640D01*
X133920524Y-88259620D01*
X133920518Y-88259619D01*
X133915711Y-88258465D01*
X133679000Y-88239835D01*
X133442289Y-88258465D01*
X133437482Y-88259619D01*
X133437476Y-88259620D01*
X133291609Y-88294640D01*
X133211406Y-88313895D01*
X133206835Y-88315788D01*
X133206833Y-88315789D01*
X132996611Y-88402865D01*
X132996607Y-88402867D01*
X132992037Y-88404760D01*
X132987817Y-88407346D01*
X132793798Y-88526241D01*
X132793792Y-88526245D01*
X132789584Y-88528824D01*
X132609031Y-88683031D01*
X132605823Y-88686787D01*
X132498855Y-88812030D01*
X132454824Y-88863584D01*
X132452237Y-88867806D01*
X132375005Y-88993835D01*
X132322357Y-89041467D01*
X132267573Y-89054000D01*
X128590427Y-89054000D01*
X128522306Y-89033998D01*
X128482995Y-88993835D01*
X128405763Y-88867806D01*
X128403176Y-88863584D01*
X128359145Y-88812030D01*
X128252177Y-88686787D01*
X128248969Y-88683031D01*
X128068416Y-88528824D01*
X128064208Y-88526245D01*
X128064202Y-88526241D01*
X127870183Y-88407346D01*
X127865963Y-88404760D01*
X127861393Y-88402867D01*
X127861389Y-88402865D01*
X127651167Y-88315789D01*
X127651165Y-88315788D01*
X127646594Y-88313895D01*
X127566391Y-88294640D01*
X127420524Y-88259620D01*
X127420518Y-88259619D01*
X127415711Y-88258465D01*
X127179000Y-88239835D01*
X126942289Y-88258465D01*
X126937482Y-88259619D01*
X126937476Y-88259620D01*
X126791609Y-88294640D01*
X126711406Y-88313895D01*
X126706835Y-88315788D01*
X126706833Y-88315789D01*
X126496611Y-88402865D01*
X126496607Y-88402867D01*
X126492037Y-88404760D01*
X126487817Y-88407346D01*
X126293798Y-88526241D01*
X126293792Y-88526245D01*
X126289584Y-88528824D01*
X126109031Y-88683031D01*
X125954824Y-88863584D01*
X125952245Y-88867792D01*
X125952241Y-88867798D01*
X125843007Y-89046051D01*
X125830760Y-89066037D01*
X125828867Y-89070607D01*
X125828865Y-89070611D01*
X125741789Y-89280833D01*
X125739895Y-89285406D01*
X125738740Y-89290218D01*
X125711522Y-89403590D01*
X125684465Y-89516289D01*
X125665835Y-89753000D01*
X125684465Y-89989711D01*
X125685619Y-89994518D01*
X125685620Y-89994524D01*
X125698066Y-90046365D01*
X125739895Y-90220594D01*
X125741788Y-90225165D01*
X125741789Y-90225167D01*
X125778791Y-90314497D01*
X125830760Y-90439963D01*
X125833346Y-90444183D01*
X125952241Y-90638202D01*
X125952245Y-90638208D01*
X125954824Y-90642416D01*
X126109031Y-90822969D01*
X126112787Y-90826177D01*
X126130364Y-90841189D01*
X126289584Y-90977176D01*
X126293792Y-90979755D01*
X126293798Y-90979759D01*
X126487817Y-91098654D01*
X126492037Y-91101240D01*
X126496607Y-91103133D01*
X126496611Y-91103135D01*
X126669799Y-91174871D01*
X126711406Y-91192105D01*
X126791609Y-91211360D01*
X126937476Y-91246380D01*
X126937482Y-91246381D01*
X126942289Y-91247535D01*
X127179000Y-91266165D01*
X127415711Y-91247535D01*
X127420518Y-91246381D01*
X127420524Y-91246380D01*
X127566391Y-91211360D01*
X127646594Y-91192105D01*
X127688201Y-91174871D01*
X127861389Y-91103135D01*
X127861393Y-91103133D01*
X127865963Y-91101240D01*
X127870183Y-91098654D01*
X128064202Y-90979759D01*
X128064208Y-90979755D01*
X128068416Y-90977176D01*
X128227636Y-90841189D01*
X128245213Y-90826177D01*
X128248969Y-90822969D01*
X128394283Y-90652829D01*
X128399963Y-90646178D01*
X128403176Y-90642416D01*
X128482995Y-90512165D01*
X128535643Y-90464533D01*
X128590427Y-90452000D01*
X132267573Y-90452000D01*
X132335694Y-90472002D01*
X132375005Y-90512165D01*
X132454824Y-90642416D01*
X132458037Y-90646178D01*
X132463718Y-90652829D01*
X132609031Y-90822969D01*
X132612787Y-90826177D01*
X132630364Y-90841189D01*
X132789584Y-90977176D01*
X132793792Y-90979755D01*
X132793798Y-90979759D01*
X132987817Y-91098654D01*
X132992037Y-91101240D01*
X132996607Y-91103133D01*
X132996611Y-91103135D01*
X133169799Y-91174871D01*
X133211406Y-91192105D01*
X133291609Y-91211360D01*
X133437476Y-91246380D01*
X133437482Y-91246381D01*
X133442289Y-91247535D01*
X133679000Y-91266165D01*
X133915711Y-91247535D01*
X133920518Y-91246381D01*
X133920524Y-91246380D01*
X134005853Y-91225894D01*
X134064254Y-91211873D01*
X134135161Y-91215420D01*
X134182762Y-91245297D01*
X135740503Y-92803038D01*
X135746356Y-92809303D01*
X135783842Y-92852274D01*
X135817634Y-92876023D01*
X135835378Y-92888494D01*
X135840674Y-92892427D01*
X135884263Y-92926606D01*
X135884266Y-92926608D01*
X135890240Y-92931292D01*
X135897164Y-92934418D01*
X135900199Y-92936256D01*
X135912898Y-92943500D01*
X135916046Y-92945188D01*
X135922261Y-92949556D01*
X135980950Y-92972438D01*
X135986995Y-92974978D01*
X136044435Y-93000913D01*
X136051908Y-93002298D01*
X136055326Y-93003369D01*
X136069315Y-93007354D01*
X136072807Y-93008251D01*
X136079889Y-93011012D01*
X136087422Y-93012004D01*
X136087423Y-93012004D01*
X136142330Y-93019233D01*
X136148843Y-93020265D01*
X136203318Y-93030361D01*
X136203320Y-93030361D01*
X136210787Y-93031745D01*
X136218367Y-93031308D01*
X136218368Y-93031308D01*
X136272112Y-93028209D01*
X136279365Y-93028000D01*
X147486275Y-93028000D01*
X147554396Y-93048002D01*
X147575370Y-93064905D01*
X149304757Y-94794292D01*
X149338783Y-94856604D01*
X149340972Y-94870215D01*
X149347458Y-94931928D01*
X149406473Y-95113556D01*
X149409776Y-95119278D01*
X149409777Y-95119279D01*
X149413868Y-95126365D01*
X149501960Y-95278944D01*
X149506378Y-95283851D01*
X149506379Y-95283852D01*
X149536916Y-95317767D01*
X149629747Y-95420866D01*
X149784248Y-95533118D01*
X149790276Y-95535802D01*
X149790278Y-95535803D01*
X149952681Y-95608109D01*
X149958712Y-95610794D01*
X149965164Y-95612166D01*
X149965169Y-95612167D01*
X150003838Y-95620386D01*
X150066312Y-95654115D01*
X150100633Y-95716264D01*
X150095905Y-95787103D01*
X150066736Y-95832728D01*
X144527370Y-101372095D01*
X144465058Y-101406121D01*
X144438275Y-101409000D01*
X144418770Y-101409000D01*
X144354631Y-101391453D01*
X144289429Y-101352893D01*
X144289427Y-101352892D01*
X144282601Y-101348855D01*
X144274990Y-101346644D01*
X144274988Y-101346643D01*
X144222769Y-101331472D01*
X144122831Y-101302438D01*
X144116426Y-101301934D01*
X144116421Y-101301933D01*
X144087958Y-101299693D01*
X144087950Y-101299693D01*
X144085502Y-101299500D01*
X142302498Y-101299500D01*
X142300050Y-101299693D01*
X142300042Y-101299693D01*
X142271579Y-101301933D01*
X142271574Y-101301934D01*
X142265169Y-101302438D01*
X142165231Y-101331472D01*
X142113012Y-101346643D01*
X142113010Y-101346644D01*
X142105399Y-101348855D01*
X142098572Y-101352892D01*
X142098573Y-101352892D01*
X141969020Y-101429509D01*
X141969017Y-101429511D01*
X141962193Y-101433547D01*
X141844547Y-101551193D01*
X141840511Y-101558017D01*
X141840509Y-101558020D01*
X141796000Y-101633281D01*
X141759855Y-101694399D01*
X141713438Y-101854169D01*
X141710500Y-101891498D01*
X141710500Y-102324502D01*
X141710693Y-102326950D01*
X141710693Y-102326958D01*
X141711019Y-102331092D01*
X141713438Y-102361831D01*
X141759855Y-102521601D01*
X141844547Y-102664807D01*
X141847229Y-102667489D01*
X141872502Y-102731861D01*
X141858600Y-102801484D01*
X141848428Y-102817312D01*
X141844547Y-102821193D01*
X141759855Y-102964399D01*
X141757644Y-102972010D01*
X141757643Y-102972012D01*
X141752088Y-102991134D01*
X141713438Y-103124169D01*
X141710500Y-103161498D01*
X141710500Y-103594502D01*
X141710693Y-103596950D01*
X141710693Y-103596958D01*
X141712232Y-103616504D01*
X141713438Y-103631831D01*
X141715232Y-103638007D01*
X141715233Y-103638011D01*
X141758764Y-103787848D01*
X141758561Y-103858844D01*
X141720007Y-103918460D01*
X141655342Y-103947768D01*
X141637767Y-103949000D01*
X141504225Y-103949000D01*
X141436104Y-103928998D01*
X141415130Y-103912095D01*
X140365405Y-102862370D01*
X140331379Y-102800058D01*
X140328500Y-102773275D01*
X140328499Y-102070867D01*
X140328499Y-102067600D01*
X140317526Y-101961833D01*
X140279545Y-101847992D01*
X140263867Y-101800998D01*
X140263866Y-101800996D01*
X140261550Y-101794054D01*
X140168479Y-101643651D01*
X140043303Y-101518694D01*
X139892739Y-101425885D01*
X139782239Y-101389234D01*
X139731390Y-101372368D01*
X139731388Y-101372368D01*
X139724862Y-101370203D01*
X139718026Y-101369503D01*
X139718023Y-101369502D01*
X139674970Y-101365091D01*
X139620401Y-101359500D01*
X139260299Y-101359500D01*
X138894600Y-101359501D01*
X138788833Y-101370474D01*
X138763119Y-101379053D01*
X138627998Y-101424133D01*
X138627996Y-101424134D01*
X138621054Y-101426450D01*
X138470651Y-101519521D01*
X138345694Y-101644697D01*
X138252885Y-101795261D01*
X138250581Y-101802208D01*
X138220146Y-101893968D01*
X138197203Y-101963138D01*
X138186500Y-102067599D01*
X138186501Y-103418400D01*
X138197474Y-103524167D01*
X138199658Y-103530713D01*
X138250730Y-103683792D01*
X138253450Y-103691946D01*
X138346521Y-103842349D01*
X138471697Y-103967306D01*
X138498905Y-103984077D01*
X138599546Y-104046113D01*
X138622261Y-104060115D01*
X138656538Y-104071484D01*
X138783610Y-104113632D01*
X138783612Y-104113632D01*
X138790138Y-104115797D01*
X138796974Y-104116497D01*
X138796977Y-104116498D01*
X138840030Y-104120909D01*
X138894599Y-104126500D01*
X138994625Y-104126500D01*
X139600274Y-104126499D01*
X139668395Y-104146501D01*
X139689369Y-104163404D01*
X140648003Y-105122038D01*
X140653856Y-105128303D01*
X140691342Y-105171274D01*
X140697556Y-105175641D01*
X140742878Y-105207494D01*
X140748174Y-105211427D01*
X140791763Y-105245606D01*
X140791766Y-105245608D01*
X140797740Y-105250292D01*
X140804664Y-105253418D01*
X140807699Y-105255256D01*
X140820398Y-105262500D01*
X140823546Y-105264188D01*
X140829761Y-105268556D01*
X140888450Y-105291438D01*
X140894495Y-105293978D01*
X140951935Y-105319913D01*
X140959408Y-105321298D01*
X140962826Y-105322369D01*
X140976815Y-105326354D01*
X140980307Y-105327251D01*
X140987389Y-105330012D01*
X140994922Y-105331004D01*
X140994923Y-105331004D01*
X141049830Y-105338233D01*
X141056343Y-105339265D01*
X141110818Y-105349361D01*
X141110820Y-105349361D01*
X141118287Y-105350745D01*
X141125867Y-105350308D01*
X141125868Y-105350308D01*
X141179612Y-105347209D01*
X141186865Y-105347000D01*
X141637767Y-105347000D01*
X141705888Y-105367002D01*
X141752381Y-105420658D01*
X141762485Y-105490932D01*
X141758764Y-105508152D01*
X141715233Y-105657989D01*
X141715232Y-105657993D01*
X141713438Y-105664169D01*
X141710500Y-105701498D01*
X141710500Y-106134502D01*
X141713438Y-106171831D01*
X141759855Y-106331601D01*
X141844547Y-106474807D01*
X141847229Y-106477489D01*
X141872502Y-106541861D01*
X141858600Y-106611484D01*
X141848428Y-106627312D01*
X141844547Y-106631193D01*
X141759855Y-106774399D01*
X141713438Y-106934169D01*
X141710500Y-106971498D01*
X141710500Y-107404502D01*
X141713438Y-107441831D01*
X141759855Y-107601601D01*
X141844547Y-107744807D01*
X141847229Y-107747489D01*
X141872502Y-107811861D01*
X141858600Y-107881484D01*
X141848428Y-107897312D01*
X141844547Y-107901193D01*
X141759855Y-108044399D01*
X141713438Y-108204169D01*
X141712934Y-108210574D01*
X141712933Y-108210579D01*
X141711523Y-108228500D01*
X141710500Y-108241498D01*
X141710500Y-108674502D01*
X141713438Y-108711831D01*
X141734762Y-108785229D01*
X141756452Y-108859886D01*
X141759855Y-108871601D01*
X141776893Y-108900411D01*
X141840509Y-109007980D01*
X141840511Y-109007983D01*
X141844547Y-109014807D01*
X141928990Y-109099250D01*
X141963016Y-109161562D01*
X141957951Y-109232377D01*
X141940258Y-109264524D01*
X141907228Y-109308039D01*
X141898875Y-109322865D01*
X141851459Y-109442624D01*
X141847884Y-109456699D01*
X141850167Y-109470390D01*
X141862992Y-109474000D01*
X144524291Y-109474000D01*
X144538273Y-109469894D01*
X144540243Y-109457201D01*
X144536541Y-109442624D01*
X144489125Y-109322865D01*
X144480772Y-109308039D01*
X144447742Y-109264524D01*
X144422489Y-109198171D01*
X144437118Y-109128698D01*
X144459010Y-109099250D01*
X144543453Y-109014807D01*
X144547489Y-109007983D01*
X144547491Y-109007980D01*
X144611107Y-108900411D01*
X144628145Y-108871601D01*
X144631549Y-108859886D01*
X144653238Y-108785229D01*
X144674562Y-108711831D01*
X144677500Y-108674502D01*
X144677500Y-108241498D01*
X144676477Y-108228500D01*
X144675067Y-108210579D01*
X144675066Y-108210574D01*
X144674562Y-108204169D01*
X144628145Y-108044399D01*
X144543453Y-107901193D01*
X144540771Y-107898511D01*
X144515498Y-107834139D01*
X144529400Y-107764516D01*
X144539572Y-107748688D01*
X144543453Y-107744807D01*
X144628145Y-107601601D01*
X144674562Y-107441831D01*
X144677500Y-107404502D01*
X144677500Y-106971498D01*
X144674562Y-106934169D01*
X144628145Y-106774399D01*
X144543453Y-106631193D01*
X144540771Y-106628511D01*
X144515498Y-106564139D01*
X144529400Y-106494516D01*
X144539572Y-106478688D01*
X144543453Y-106474807D01*
X144628145Y-106331601D01*
X144674562Y-106171831D01*
X144677500Y-106134502D01*
X144677500Y-105701498D01*
X144674562Y-105664169D01*
X144645528Y-105564231D01*
X144630357Y-105512012D01*
X144630356Y-105512010D01*
X144628145Y-105504399D01*
X144543453Y-105361193D01*
X144540771Y-105358511D01*
X144515498Y-105294139D01*
X144529400Y-105224516D01*
X144539572Y-105208688D01*
X144543453Y-105204807D01*
X144628145Y-105061601D01*
X144636463Y-105032972D01*
X144672767Y-104908008D01*
X144674562Y-104901831D01*
X144677500Y-104864502D01*
X144677500Y-104431498D01*
X144674562Y-104394169D01*
X144628145Y-104234399D01*
X144597310Y-104182259D01*
X144579851Y-104113444D01*
X144602368Y-104046113D01*
X144647393Y-104006458D01*
X144650770Y-104004693D01*
X144657880Y-104002006D01*
X144664139Y-103997704D01*
X144667292Y-103996056D01*
X144680030Y-103988967D01*
X144683136Y-103987130D01*
X144690091Y-103984077D01*
X144696118Y-103979452D01*
X144696122Y-103979450D01*
X144740060Y-103945735D01*
X144745378Y-103941871D01*
X144797310Y-103906179D01*
X144838177Y-103860311D01*
X144843157Y-103855036D01*
X146446312Y-102251881D01*
X146508624Y-102217855D01*
X146579439Y-102222920D01*
X146636275Y-102265467D01*
X146661019Y-102331091D01*
X146663438Y-102361831D01*
X146709855Y-102521601D01*
X146794547Y-102664807D01*
X146797229Y-102667489D01*
X146822502Y-102731861D01*
X146808600Y-102801484D01*
X146798428Y-102817312D01*
X146794547Y-102821193D01*
X146709855Y-102964399D01*
X146707644Y-102972010D01*
X146707643Y-102972012D01*
X146702088Y-102991134D01*
X146663438Y-103124169D01*
X146660500Y-103161498D01*
X146660500Y-103594502D01*
X146660693Y-103596950D01*
X146660693Y-103596958D01*
X146662232Y-103616504D01*
X146663438Y-103631831D01*
X146709855Y-103791601D01*
X146794547Y-103934807D01*
X146797229Y-103937489D01*
X146822502Y-104001861D01*
X146808600Y-104071484D01*
X146798428Y-104087312D01*
X146794547Y-104091193D01*
X146709855Y-104234399D01*
X146663438Y-104394169D01*
X146660500Y-104431498D01*
X146660500Y-104864502D01*
X146663438Y-104901831D01*
X146665233Y-104908008D01*
X146701538Y-105032972D01*
X146709855Y-105061601D01*
X146794547Y-105204807D01*
X146797229Y-105207489D01*
X146822502Y-105271861D01*
X146808600Y-105341484D01*
X146798428Y-105357312D01*
X146794547Y-105361193D01*
X146709855Y-105504399D01*
X146707644Y-105512010D01*
X146707643Y-105512012D01*
X146692472Y-105564231D01*
X146663438Y-105664169D01*
X146660500Y-105701498D01*
X146660500Y-106134502D01*
X146663438Y-106171831D01*
X146709855Y-106331601D01*
X146794547Y-106474807D01*
X146797229Y-106477489D01*
X146822502Y-106541861D01*
X146808600Y-106611484D01*
X146798428Y-106627312D01*
X146794547Y-106631193D01*
X146709855Y-106774399D01*
X146663438Y-106934169D01*
X146660500Y-106971498D01*
X146660500Y-107404502D01*
X146663438Y-107441831D01*
X146709855Y-107601601D01*
X146794547Y-107744807D01*
X146797229Y-107747489D01*
X146822502Y-107811861D01*
X146808600Y-107881484D01*
X146798428Y-107897312D01*
X146794547Y-107901193D01*
X146709855Y-108044399D01*
X146663438Y-108204169D01*
X146662934Y-108210574D01*
X146662933Y-108210579D01*
X146661523Y-108228500D01*
X146660500Y-108241498D01*
X146660500Y-108674502D01*
X146663438Y-108711831D01*
X146684762Y-108785229D01*
X146706452Y-108859886D01*
X146709855Y-108871601D01*
X146794547Y-109014807D01*
X146797229Y-109017489D01*
X146822502Y-109081861D01*
X146808600Y-109151484D01*
X146798428Y-109167312D01*
X146794547Y-109171193D01*
X146709855Y-109314399D01*
X146663438Y-109474169D01*
X146660500Y-109511498D01*
X146660500Y-109944502D01*
X146663438Y-109981831D01*
X146709855Y-110141601D01*
X146713891Y-110148425D01*
X146728047Y-110172362D01*
X146745506Y-110241178D01*
X146722989Y-110308509D01*
X146667644Y-110352978D01*
X146619593Y-110362500D01*
X144571753Y-110362500D01*
X144503632Y-110342498D01*
X144457139Y-110288842D01*
X144447035Y-110218568D01*
X144471389Y-110160322D01*
X144480772Y-110147960D01*
X144489125Y-110133135D01*
X144536541Y-110013376D01*
X144540116Y-109999301D01*
X144537833Y-109985610D01*
X144525008Y-109982000D01*
X141863709Y-109982000D01*
X141849727Y-109986106D01*
X141847757Y-109998799D01*
X141851459Y-110013376D01*
X141898875Y-110133135D01*
X141907228Y-110147960D01*
X141916611Y-110160322D01*
X141941863Y-110226675D01*
X141927234Y-110296148D01*
X141877367Y-110346683D01*
X141816247Y-110362500D01*
X141399028Y-110362500D01*
X141330907Y-110342498D01*
X141309933Y-110325595D01*
X138811405Y-107827067D01*
X138777379Y-107764755D01*
X138774500Y-107737972D01*
X138774500Y-107334600D01*
X138763526Y-107228834D01*
X138707550Y-107061054D01*
X138614478Y-106910652D01*
X138489303Y-106785695D01*
X138338738Y-106692885D01*
X138240675Y-106660359D01*
X138177389Y-106639368D01*
X138177387Y-106639368D01*
X138170861Y-106637203D01*
X138164025Y-106636503D01*
X138164022Y-106636502D01*
X138120969Y-106632091D01*
X138066400Y-106626500D01*
X137550085Y-106626500D01*
X137513732Y-106619960D01*
X137513610Y-106620460D01*
X137512641Y-106620223D01*
X137509972Y-106619283D01*
X137506168Y-106618599D01*
X137500738Y-106616580D01*
X137494952Y-106614655D01*
X137488321Y-106611556D01*
X137416443Y-106596606D01*
X137412171Y-106595639D01*
X137340888Y-106578196D01*
X137335289Y-106577849D01*
X137335285Y-106577848D01*
X137329670Y-106577500D01*
X137329672Y-106577461D01*
X137325771Y-106577228D01*
X137321412Y-106576839D01*
X137314244Y-106575348D01*
X137306927Y-106575546D01*
X137236423Y-106577454D01*
X137233014Y-106577500D01*
X134360500Y-106577500D01*
X134292379Y-106557498D01*
X134245886Y-106503842D01*
X134234500Y-106451500D01*
X134234500Y-106291866D01*
X134227745Y-106229684D01*
X134176615Y-106093295D01*
X134089261Y-105976739D01*
X133972705Y-105889385D01*
X133836316Y-105838255D01*
X133774134Y-105831500D01*
X131448028Y-105831500D01*
X131379907Y-105811498D01*
X131358933Y-105794595D01*
X130686405Y-105122067D01*
X130652379Y-105059755D01*
X130649500Y-105032972D01*
X130649500Y-103577500D01*
X130669502Y-103509379D01*
X130723158Y-103462886D01*
X130775500Y-103451500D01*
X132089134Y-103451500D01*
X132151316Y-103444745D01*
X132287705Y-103393615D01*
X132404261Y-103306261D01*
X132491615Y-103189705D01*
X132542745Y-103053316D01*
X132549500Y-102991134D01*
X132549500Y-102918000D01*
X132569502Y-102849879D01*
X132623158Y-102803386D01*
X132675500Y-102792000D01*
X135135501Y-102792000D01*
X135203622Y-102812002D01*
X135250115Y-102865658D01*
X135261501Y-102918000D01*
X135261501Y-103418400D01*
X135272474Y-103524167D01*
X135274658Y-103530713D01*
X135325730Y-103683792D01*
X135328450Y-103691946D01*
X135421521Y-103842349D01*
X135546697Y-103967306D01*
X135573905Y-103984077D01*
X135674546Y-104046113D01*
X135697261Y-104060115D01*
X135731538Y-104071484D01*
X135858610Y-104113632D01*
X135858612Y-104113632D01*
X135865138Y-104115797D01*
X135871974Y-104116497D01*
X135871977Y-104116498D01*
X135915030Y-104120909D01*
X135969599Y-104126500D01*
X136329701Y-104126500D01*
X136695400Y-104126499D01*
X136801167Y-104115526D01*
X136835953Y-104103920D01*
X136962002Y-104061867D01*
X136962004Y-104061866D01*
X136968946Y-104059550D01*
X137119349Y-103966479D01*
X137244306Y-103841303D01*
X137337115Y-103690739D01*
X137369854Y-103592033D01*
X137390632Y-103529390D01*
X137390632Y-103529388D01*
X137392797Y-103522862D01*
X137394179Y-103509379D01*
X137398942Y-103462886D01*
X137403500Y-103418401D01*
X137403499Y-102067600D01*
X137392526Y-101961833D01*
X137354545Y-101847992D01*
X137338867Y-101800998D01*
X137338866Y-101800996D01*
X137336550Y-101794054D01*
X137243479Y-101643651D01*
X137118303Y-101518694D01*
X136967739Y-101425885D01*
X136857239Y-101389234D01*
X136806390Y-101372368D01*
X136806388Y-101372368D01*
X136799862Y-101370203D01*
X136793026Y-101369503D01*
X136793023Y-101369502D01*
X136749970Y-101365091D01*
X136695401Y-101359500D01*
X136335299Y-101359500D01*
X135969600Y-101359501D01*
X135863833Y-101370474D01*
X135857299Y-101372654D01*
X135857294Y-101372655D01*
X135807600Y-101389234D01*
X135744767Y-101393601D01*
X135726713Y-101390255D01*
X135719133Y-101390692D01*
X135719132Y-101390692D01*
X135665388Y-101393791D01*
X135658135Y-101394000D01*
X132675500Y-101394000D01*
X132607379Y-101373998D01*
X132560886Y-101320342D01*
X132549500Y-101268000D01*
X132549500Y-101194866D01*
X132542745Y-101132684D01*
X132491615Y-100996295D01*
X132404261Y-100879739D01*
X132287705Y-100792385D01*
X132275132Y-100787672D01*
X132169203Y-100747960D01*
X132112439Y-100705318D01*
X132087739Y-100638756D01*
X132102947Y-100569408D01*
X132124493Y-100540727D01*
X132229096Y-100436489D01*
X132237013Y-100425472D01*
X132356435Y-100259277D01*
X132359453Y-100255077D01*
X132371924Y-100229845D01*
X132456136Y-100059453D01*
X132456137Y-100059451D01*
X132458430Y-100054811D01*
X132502460Y-99909891D01*
X132521865Y-99846023D01*
X132521865Y-99846021D01*
X132523370Y-99841069D01*
X132541398Y-99704134D01*
X141516500Y-99704134D01*
X141523255Y-99766316D01*
X141574385Y-99902705D01*
X141661739Y-100019261D01*
X141778295Y-100106615D01*
X141914684Y-100157745D01*
X141976866Y-100164500D01*
X143773134Y-100164500D01*
X143835316Y-100157745D01*
X143971705Y-100106615D01*
X144088261Y-100019261D01*
X144175615Y-99902705D01*
X144226745Y-99766316D01*
X144233500Y-99704134D01*
X144233500Y-97907866D01*
X144226745Y-97845684D01*
X144175615Y-97709295D01*
X144088261Y-97592739D01*
X143971705Y-97505385D01*
X143835316Y-97454255D01*
X143773134Y-97447500D01*
X143733446Y-97447500D01*
X143665325Y-97427498D01*
X143618832Y-97373842D01*
X143608728Y-97303568D01*
X143638222Y-97238988D01*
X143661178Y-97218285D01*
X143664788Y-97215758D01*
X143673189Y-97208708D01*
X143817708Y-97064189D01*
X143824762Y-97055782D01*
X143941994Y-96888356D01*
X143947472Y-96878870D01*
X144033857Y-96693617D01*
X144037603Y-96683325D01*
X144076678Y-96537497D01*
X144076342Y-96523401D01*
X144068400Y-96520000D01*
X141686749Y-96520000D01*
X141673218Y-96523973D01*
X141671989Y-96532522D01*
X141712397Y-96683325D01*
X141716143Y-96693617D01*
X141802528Y-96878870D01*
X141808006Y-96888356D01*
X141925238Y-97055782D01*
X141932292Y-97064189D01*
X142076811Y-97208708D01*
X142085212Y-97215758D01*
X142088822Y-97218285D01*
X142133152Y-97273741D01*
X142140463Y-97344360D01*
X142108433Y-97407722D01*
X142047233Y-97443708D01*
X142016554Y-97447500D01*
X141976866Y-97447500D01*
X141914684Y-97454255D01*
X141778295Y-97505385D01*
X141661739Y-97592739D01*
X141574385Y-97709295D01*
X141523255Y-97845684D01*
X141516500Y-97907866D01*
X141516500Y-99704134D01*
X132541398Y-99704134D01*
X132552529Y-99619590D01*
X132554156Y-99553000D01*
X132535852Y-99330361D01*
X132481431Y-99113702D01*
X132392354Y-98908840D01*
X132308766Y-98779632D01*
X132273822Y-98725617D01*
X132273820Y-98725614D01*
X132271014Y-98721277D01*
X132120670Y-98556051D01*
X132116619Y-98552852D01*
X132116615Y-98552848D01*
X131949414Y-98420800D01*
X131949410Y-98420798D01*
X131945359Y-98417598D01*
X131923444Y-98405500D01*
X131841813Y-98360438D01*
X131771384Y-98321559D01*
X131721414Y-98271127D01*
X131706642Y-98201685D01*
X131731758Y-98135279D01*
X131779027Y-98097057D01*
X131803865Y-98085475D01*
X131813356Y-98079994D01*
X131980782Y-97962762D01*
X131989189Y-97955708D01*
X132133708Y-97811189D01*
X132140762Y-97802782D01*
X132257994Y-97635356D01*
X132263472Y-97625870D01*
X132349857Y-97440617D01*
X132353603Y-97430325D01*
X132392678Y-97284497D01*
X132392342Y-97270401D01*
X132384400Y-97267000D01*
X130002749Y-97267000D01*
X129989218Y-97270973D01*
X129987989Y-97279522D01*
X130028397Y-97430325D01*
X130032143Y-97440617D01*
X130118528Y-97625870D01*
X130124006Y-97635356D01*
X130241238Y-97802782D01*
X130248292Y-97811189D01*
X130392811Y-97955708D01*
X130401218Y-97962762D01*
X130568644Y-98079994D01*
X130578130Y-98085472D01*
X130604896Y-98097953D01*
X130658181Y-98144871D01*
X130677642Y-98213148D01*
X130657100Y-98281108D01*
X130609827Y-98323910D01*
X130464607Y-98399507D01*
X130460474Y-98402610D01*
X130460471Y-98402612D01*
X130290100Y-98530530D01*
X130285965Y-98533635D01*
X130131629Y-98695138D01*
X130128715Y-98699410D01*
X130128714Y-98699411D01*
X130116404Y-98717457D01*
X130005743Y-98879680D01*
X129963732Y-98970185D01*
X129938403Y-99024753D01*
X129911688Y-99082305D01*
X129851989Y-99297570D01*
X129828251Y-99519695D01*
X129828548Y-99524848D01*
X129828548Y-99524851D01*
X129829978Y-99549646D01*
X129841110Y-99742715D01*
X129842247Y-99747759D01*
X129842826Y-99751881D01*
X129832501Y-99822123D01*
X129807148Y-99858514D01*
X129395472Y-100270190D01*
X129381059Y-100282577D01*
X129363436Y-100295546D01*
X129358692Y-100301129D01*
X129358693Y-100301129D01*
X129329021Y-100336055D01*
X129322091Y-100343571D01*
X129316347Y-100349315D01*
X129314073Y-100352189D01*
X129314067Y-100352196D01*
X129298628Y-100371711D01*
X129295837Y-100375115D01*
X129253055Y-100425472D01*
X129253052Y-100425476D01*
X129248316Y-100431051D01*
X129244988Y-100437568D01*
X129241611Y-100442632D01*
X129238384Y-100447856D01*
X129233840Y-100453600D01*
X129230741Y-100460231D01*
X129202768Y-100520082D01*
X129200837Y-100524033D01*
X129167457Y-100589404D01*
X129165716Y-100596519D01*
X129163579Y-100602265D01*
X129161655Y-100608048D01*
X129158556Y-100614679D01*
X129157066Y-100621843D01*
X129143608Y-100686547D01*
X129142639Y-100690829D01*
X129125196Y-100762112D01*
X129124500Y-100773330D01*
X129124461Y-100773328D01*
X129124228Y-100777229D01*
X129123839Y-100781588D01*
X129122348Y-100788756D01*
X129122546Y-100796073D01*
X129124454Y-100866577D01*
X129124500Y-100869986D01*
X129124500Y-105333624D01*
X129123067Y-105352574D01*
X129120876Y-105366973D01*
X129120876Y-105366979D01*
X129119776Y-105374208D01*
X129120369Y-105381500D01*
X129120369Y-105381503D01*
X129124085Y-105427183D01*
X129124500Y-105437398D01*
X129124500Y-105445525D01*
X129127811Y-105473924D01*
X129128238Y-105478244D01*
X129134191Y-105551426D01*
X129136447Y-105558388D01*
X129137643Y-105564376D01*
X129139051Y-105570333D01*
X129139899Y-105577607D01*
X129142397Y-105584489D01*
X129142398Y-105584493D01*
X129164945Y-105646607D01*
X129166355Y-105650711D01*
X129188987Y-105720575D01*
X129192787Y-105726838D01*
X129195325Y-105732380D01*
X129198067Y-105737856D01*
X129200566Y-105744741D01*
X129204581Y-105750865D01*
X129240815Y-105806132D01*
X129243130Y-105809800D01*
X129281227Y-105872581D01*
X129284941Y-105876786D01*
X129284943Y-105876789D01*
X129288667Y-105881005D01*
X129288638Y-105881031D01*
X129291238Y-105883962D01*
X129294042Y-105887316D01*
X129298054Y-105893435D01*
X129303366Y-105898467D01*
X129354586Y-105946988D01*
X129357028Y-105949366D01*
X129424994Y-106017332D01*
X129459020Y-106079644D01*
X129453881Y-106150657D01*
X129424255Y-106229684D01*
X129417500Y-106291866D01*
X129417500Y-108388134D01*
X129424255Y-108450316D01*
X129475385Y-108586705D01*
X129562739Y-108703261D01*
X129679295Y-108790615D01*
X129815684Y-108841745D01*
X129877866Y-108848500D01*
X130937500Y-108848500D01*
X131005621Y-108868502D01*
X131052114Y-108922158D01*
X131063500Y-108974500D01*
X131063500Y-111224046D01*
X131063258Y-111231847D01*
X131059432Y-111293516D01*
X131060672Y-111300732D01*
X131061680Y-111306597D01*
X131063500Y-111327936D01*
X131063500Y-112016458D01*
X131043498Y-112084579D01*
X130989842Y-112131072D01*
X130970435Y-112137739D01*
X130965684Y-112138255D01*
X130958289Y-112141027D01*
X130958286Y-112141028D01*
X130843978Y-112183880D01*
X130829295Y-112189385D01*
X130712739Y-112276739D01*
X130707358Y-112283919D01*
X130707357Y-112283920D01*
X130687686Y-112310167D01*
X130630827Y-112352682D01*
X130560008Y-112357708D01*
X130513691Y-112337181D01*
X130490947Y-112320958D01*
X130395140Y-112274127D01*
X130376672Y-112268419D01*
X130316636Y-112259660D01*
X130307537Y-112259000D01*
X129798115Y-112259000D01*
X129782876Y-112263475D01*
X129781671Y-112264865D01*
X129780000Y-112272548D01*
X129780000Y-115002885D01*
X129784475Y-115018124D01*
X129785865Y-115019329D01*
X129793548Y-115021000D01*
X130307504Y-115021000D01*
X130316664Y-115020330D01*
X130377313Y-115011402D01*
X130395787Y-115005661D01*
X130491507Y-114958665D01*
X130513495Y-114942923D01*
X130580528Y-114919532D01*
X130649566Y-114936096D01*
X130687668Y-114969809D01*
X130712739Y-115003261D01*
X130829295Y-115090615D01*
X130965684Y-115141745D01*
X131027866Y-115148500D01*
X132624134Y-115148500D01*
X132686316Y-115141745D01*
X132822705Y-115090615D01*
X132844497Y-115074283D01*
X132900435Y-115032360D01*
X132966942Y-115007512D01*
X133036324Y-115022565D01*
X133051565Y-115032360D01*
X133122113Y-115085233D01*
X133122116Y-115085235D01*
X133129295Y-115090615D01*
X133154730Y-115100150D01*
X133211495Y-115142792D01*
X133236194Y-115209354D01*
X133236500Y-115218132D01*
X133236500Y-115630239D01*
X133216498Y-115698360D01*
X133162842Y-115744853D01*
X133092568Y-115754957D01*
X133070835Y-115749833D01*
X133053861Y-115744203D01*
X133047025Y-115743503D01*
X133047022Y-115743502D01*
X133003969Y-115739091D01*
X132949400Y-115733500D01*
X132348600Y-115733500D01*
X132345354Y-115733837D01*
X132345350Y-115733837D01*
X132249692Y-115743762D01*
X132249688Y-115743763D01*
X132242834Y-115744474D01*
X132236298Y-115746655D01*
X132236296Y-115746655D01*
X132114439Y-115787310D01*
X132075054Y-115800450D01*
X131924652Y-115893522D01*
X131799695Y-116018697D01*
X131795855Y-116024927D01*
X131795854Y-116024928D01*
X131731831Y-116128792D01*
X131679058Y-116176286D01*
X131608987Y-116187709D01*
X131543863Y-116159435D01*
X131516117Y-116126814D01*
X131505588Y-116109009D01*
X131495939Y-116096571D01*
X131394429Y-115995061D01*
X131381991Y-115985412D01*
X131258416Y-115912330D01*
X131243979Y-115906082D01*
X131104680Y-115865612D01*
X131092076Y-115863310D01*
X131065184Y-115861193D01*
X131060254Y-115861000D01*
X131021115Y-115861000D01*
X131005876Y-115865475D01*
X131004671Y-115866865D01*
X131003000Y-115874548D01*
X131003000Y-118054884D01*
X131007475Y-118070123D01*
X131008865Y-118071328D01*
X131016548Y-118072999D01*
X131060252Y-118072999D01*
X131065188Y-118072805D01*
X131092077Y-118070690D01*
X131104678Y-118068389D01*
X131243979Y-118027918D01*
X131258416Y-118021670D01*
X131381991Y-117948588D01*
X131394429Y-117938939D01*
X131495939Y-117837429D01*
X131505586Y-117824993D01*
X131516076Y-117807255D01*
X131567969Y-117758802D01*
X131637819Y-117746097D01*
X131703451Y-117773172D01*
X131731673Y-117805090D01*
X131800522Y-117916348D01*
X131925697Y-118041305D01*
X131931927Y-118045145D01*
X131931928Y-118045146D01*
X132035637Y-118109073D01*
X132076262Y-118134115D01*
X132156005Y-118160564D01*
X132237611Y-118187632D01*
X132237613Y-118187632D01*
X132244139Y-118189797D01*
X132250975Y-118190497D01*
X132250978Y-118190498D01*
X132294031Y-118194909D01*
X132348600Y-118200500D01*
X132949400Y-118200500D01*
X132952646Y-118200163D01*
X132952650Y-118200163D01*
X133048308Y-118190238D01*
X133048312Y-118190237D01*
X133055166Y-118189526D01*
X133096622Y-118175695D01*
X133167572Y-118173109D01*
X133228656Y-118209292D01*
X133260482Y-118272756D01*
X133262500Y-118295218D01*
X133262500Y-118651770D01*
X133242498Y-118719891D01*
X133188842Y-118766384D01*
X133166022Y-118774263D01*
X133152523Y-118777516D01*
X133152520Y-118777517D01*
X133146910Y-118778869D01*
X133141639Y-118781221D01*
X133141637Y-118781222D01*
X133130570Y-118786161D01*
X132954994Y-118864517D01*
X132950240Y-118867790D01*
X132950239Y-118867791D01*
X132825021Y-118954012D01*
X132781899Y-118983704D01*
X132633422Y-119132440D01*
X132514537Y-119305742D01*
X132429225Y-119497808D01*
X132380342Y-119702205D01*
X132379975Y-119707327D01*
X132373665Y-119795360D01*
X132373500Y-119797656D01*
X132373500Y-123744344D01*
X132380630Y-123841779D01*
X132381837Y-123846786D01*
X132381838Y-123846791D01*
X132381884Y-123846984D01*
X132381880Y-123847064D01*
X132382631Y-123851877D01*
X132381636Y-123852032D01*
X132378396Y-123917895D01*
X132337125Y-123975663D01*
X132271173Y-124001948D01*
X132259390Y-124002500D01*
X128502633Y-124002500D01*
X128434512Y-123982498D01*
X128413538Y-123965595D01*
X127797536Y-123349593D01*
X127763510Y-123287281D01*
X127768575Y-123216466D01*
X127811122Y-123159630D01*
X127864745Y-123136413D01*
X127869888Y-123135506D01*
X128067325Y-123082603D01*
X128077617Y-123078857D01*
X128262870Y-122992472D01*
X128272356Y-122986994D01*
X128439782Y-122869762D01*
X128448189Y-122862708D01*
X128592708Y-122718189D01*
X128599762Y-122709782D01*
X128716994Y-122542356D01*
X128722472Y-122532870D01*
X128808857Y-122347617D01*
X128812603Y-122337325D01*
X128851678Y-122191497D01*
X128851342Y-122177401D01*
X128843400Y-122174000D01*
X127522000Y-122174000D01*
X127453879Y-122153998D01*
X127407386Y-122100342D01*
X127396000Y-122048000D01*
X127396000Y-121647885D01*
X127904000Y-121647885D01*
X127908475Y-121663124D01*
X127909865Y-121664329D01*
X127917548Y-121666000D01*
X128838251Y-121666000D01*
X128851782Y-121662027D01*
X128853011Y-121653478D01*
X128812603Y-121502675D01*
X128808857Y-121492383D01*
X128722472Y-121307130D01*
X128716994Y-121297644D01*
X128599762Y-121130218D01*
X128592708Y-121121811D01*
X128448189Y-120977292D01*
X128439782Y-120970238D01*
X128272356Y-120853006D01*
X128262870Y-120847528D01*
X128077617Y-120761143D01*
X128067325Y-120757397D01*
X127921497Y-120718322D01*
X127907401Y-120718658D01*
X127904000Y-120726600D01*
X127904000Y-121647885D01*
X127396000Y-121647885D01*
X127396000Y-120731749D01*
X127392027Y-120718218D01*
X127383478Y-120716989D01*
X127232675Y-120757397D01*
X127222383Y-120761143D01*
X127037130Y-120847528D01*
X127027644Y-120853006D01*
X126860218Y-120970238D01*
X126851811Y-120977292D01*
X126707292Y-121121811D01*
X126700238Y-121130218D01*
X126583006Y-121297644D01*
X126577528Y-121307131D01*
X126565039Y-121333912D01*
X126518121Y-121387196D01*
X126449843Y-121406656D01*
X126381884Y-121386113D01*
X126335297Y-121330904D01*
X126311354Y-121275840D01*
X126211708Y-121121811D01*
X126192822Y-121092617D01*
X126192820Y-121092614D01*
X126190014Y-121088277D01*
X126039670Y-120923051D01*
X126035619Y-120919852D01*
X126035615Y-120919848D01*
X125868414Y-120787800D01*
X125868410Y-120787798D01*
X125864359Y-120784598D01*
X125668789Y-120676638D01*
X125663920Y-120674914D01*
X125663916Y-120674912D01*
X125463087Y-120603795D01*
X125463083Y-120603794D01*
X125458212Y-120602069D01*
X125453119Y-120601162D01*
X125453116Y-120601161D01*
X125243373Y-120563800D01*
X125243367Y-120563799D01*
X125238284Y-120562894D01*
X125164452Y-120561992D01*
X125020081Y-120560228D01*
X125020079Y-120560228D01*
X125014911Y-120560165D01*
X124794091Y-120593955D01*
X124581756Y-120663357D01*
X124531209Y-120689670D01*
X124460268Y-120726600D01*
X124383607Y-120766507D01*
X124379474Y-120769610D01*
X124379471Y-120769612D01*
X124209100Y-120897530D01*
X124204965Y-120900635D01*
X124165525Y-120941907D01*
X124081949Y-121029364D01*
X124050629Y-121062138D01*
X124030153Y-121092155D01*
X123975243Y-121137155D01*
X123904718Y-121145325D01*
X123840971Y-121114070D01*
X123804242Y-121053312D01*
X123800403Y-121030336D01*
X123800330Y-121029339D01*
X123791402Y-120968687D01*
X123785661Y-120950213D01*
X123738665Y-120854493D01*
X123726705Y-120837788D01*
X123651678Y-120762891D01*
X123634950Y-120750959D01*
X123539140Y-120704127D01*
X123520672Y-120698419D01*
X123460636Y-120689660D01*
X123451537Y-120689000D01*
X122842115Y-120689000D01*
X122826876Y-120693475D01*
X122825671Y-120694865D01*
X122824000Y-120702548D01*
X122824000Y-123132885D01*
X122828475Y-123148124D01*
X122829865Y-123149329D01*
X122837548Y-123151000D01*
X123451504Y-123151000D01*
X123460664Y-123150330D01*
X123521313Y-123141402D01*
X123539787Y-123135661D01*
X123635507Y-123088665D01*
X123652212Y-123076705D01*
X123727109Y-123001678D01*
X123739041Y-122984950D01*
X123785873Y-122889140D01*
X123791581Y-122870672D01*
X123801000Y-122806110D01*
X123802200Y-122806285D01*
X123825160Y-122744912D01*
X123882037Y-122702421D01*
X123952858Y-122697426D01*
X124015137Y-122731512D01*
X124021191Y-122738023D01*
X124152654Y-122889787D01*
X124156250Y-122893938D01*
X124328126Y-123036632D01*
X124521000Y-123149338D01*
X124525825Y-123151180D01*
X124525826Y-123151181D01*
X124540538Y-123156799D01*
X124729692Y-123229030D01*
X124734760Y-123230061D01*
X124734763Y-123230062D01*
X124842017Y-123251883D01*
X124948597Y-123273567D01*
X124953772Y-123273757D01*
X124953774Y-123273757D01*
X125165936Y-123281537D01*
X125233278Y-123304022D01*
X125250414Y-123318357D01*
X126684462Y-124752405D01*
X126718488Y-124814717D01*
X126713423Y-124885532D01*
X126670876Y-124942368D01*
X126604356Y-124967179D01*
X126595367Y-124967500D01*
X118284500Y-124967500D01*
X118216379Y-124947498D01*
X118169886Y-124893842D01*
X118158500Y-124841500D01*
X118158500Y-122801504D01*
X121339000Y-122801504D01*
X121339670Y-122810664D01*
X121348598Y-122871313D01*
X121354339Y-122889787D01*
X121401335Y-122985507D01*
X121413295Y-123002212D01*
X121488322Y-123077109D01*
X121505050Y-123089041D01*
X121600860Y-123135873D01*
X121619328Y-123141581D01*
X121679364Y-123150340D01*
X121688463Y-123151000D01*
X122297885Y-123151000D01*
X122313124Y-123146525D01*
X122314329Y-123145135D01*
X122316000Y-123137452D01*
X122316000Y-122192115D01*
X122311525Y-122176876D01*
X122310135Y-122175671D01*
X122302452Y-122174000D01*
X121357115Y-122174000D01*
X121341876Y-122178475D01*
X121340671Y-122179865D01*
X121339000Y-122187548D01*
X121339000Y-122801504D01*
X118158500Y-122801504D01*
X118158500Y-121647885D01*
X121339000Y-121647885D01*
X121343475Y-121663124D01*
X121344865Y-121664329D01*
X121352548Y-121666000D01*
X122297885Y-121666000D01*
X122313124Y-121661525D01*
X122314329Y-121660135D01*
X122316000Y-121652452D01*
X122316000Y-120707115D01*
X122311525Y-120691876D01*
X122310135Y-120690671D01*
X122302452Y-120689000D01*
X121688496Y-120689000D01*
X121679336Y-120689670D01*
X121618687Y-120698598D01*
X121600213Y-120704339D01*
X121504493Y-120751335D01*
X121487788Y-120763295D01*
X121412891Y-120838322D01*
X121400959Y-120855050D01*
X121354127Y-120950860D01*
X121348419Y-120969328D01*
X121339660Y-121029364D01*
X121339000Y-121038463D01*
X121339000Y-121647885D01*
X118158500Y-121647885D01*
X118158500Y-117503252D01*
X129868001Y-117503252D01*
X129868195Y-117508188D01*
X129870310Y-117535077D01*
X129872611Y-117547678D01*
X129913082Y-117686979D01*
X129919330Y-117701416D01*
X129992412Y-117824991D01*
X130002061Y-117837429D01*
X130103571Y-117938939D01*
X130116009Y-117948588D01*
X130239584Y-118021670D01*
X130254021Y-118027918D01*
X130393320Y-118068388D01*
X130405924Y-118070690D01*
X130432816Y-118072807D01*
X130437746Y-118073000D01*
X130476885Y-118073000D01*
X130492124Y-118068525D01*
X130493329Y-118067135D01*
X130495000Y-118059452D01*
X130495000Y-117239115D01*
X130490525Y-117223876D01*
X130489135Y-117222671D01*
X130481452Y-117221000D01*
X129886116Y-117221000D01*
X129870877Y-117225475D01*
X129869672Y-117226865D01*
X129868001Y-117234548D01*
X129868001Y-117503252D01*
X118158500Y-117503252D01*
X118158500Y-116694885D01*
X129868000Y-116694885D01*
X129872475Y-116710124D01*
X129873865Y-116711329D01*
X129881548Y-116713000D01*
X130476885Y-116713000D01*
X130492124Y-116708525D01*
X130493329Y-116707135D01*
X130495000Y-116699452D01*
X130495000Y-115879116D01*
X130490525Y-115863877D01*
X130489135Y-115862672D01*
X130481452Y-115861001D01*
X130437749Y-115861001D01*
X130432812Y-115861195D01*
X130405923Y-115863310D01*
X130393322Y-115865611D01*
X130254021Y-115906082D01*
X130239584Y-115912330D01*
X130116009Y-115985412D01*
X130103571Y-115995061D01*
X130002061Y-116096571D01*
X129992412Y-116109009D01*
X129919330Y-116232584D01*
X129913082Y-116247021D01*
X129872612Y-116386320D01*
X129870310Y-116398924D01*
X129868193Y-116425816D01*
X129868000Y-116430746D01*
X129868000Y-116694885D01*
X118158500Y-116694885D01*
X118158500Y-114671504D01*
X128395000Y-114671504D01*
X128395670Y-114680664D01*
X128404598Y-114741313D01*
X128410339Y-114759787D01*
X128457335Y-114855507D01*
X128469295Y-114872212D01*
X128544322Y-114947109D01*
X128561050Y-114959041D01*
X128656860Y-115005873D01*
X128675328Y-115011581D01*
X128735364Y-115020340D01*
X128744463Y-115021000D01*
X129253885Y-115021000D01*
X129269124Y-115016525D01*
X129270329Y-115015135D01*
X129272000Y-115007452D01*
X129272000Y-113912115D01*
X129267525Y-113896876D01*
X129266135Y-113895671D01*
X129258452Y-113894000D01*
X128413115Y-113894000D01*
X128397876Y-113898475D01*
X128396671Y-113899865D01*
X128395000Y-113907548D01*
X128395000Y-114671504D01*
X118158500Y-114671504D01*
X118158500Y-113367885D01*
X128395000Y-113367885D01*
X128399475Y-113383124D01*
X128400865Y-113384329D01*
X128408548Y-113386000D01*
X129253885Y-113386000D01*
X129269124Y-113381525D01*
X129270329Y-113380135D01*
X129272000Y-113372452D01*
X129272000Y-112277115D01*
X129267525Y-112261876D01*
X129266135Y-112260671D01*
X129258452Y-112259000D01*
X128744496Y-112259000D01*
X128735336Y-112259670D01*
X128674687Y-112268598D01*
X128656213Y-112274339D01*
X128560493Y-112321335D01*
X128543788Y-112333295D01*
X128468891Y-112408322D01*
X128456959Y-112425050D01*
X128410127Y-112520860D01*
X128404419Y-112539328D01*
X128395660Y-112599364D01*
X128395000Y-112608463D01*
X128395000Y-113367885D01*
X118158500Y-113367885D01*
X118158500Y-96741503D01*
X129989322Y-96741503D01*
X129989658Y-96755599D01*
X129997600Y-96759000D01*
X130918885Y-96759000D01*
X130934124Y-96754525D01*
X130935329Y-96753135D01*
X130937000Y-96745452D01*
X130937000Y-96740885D01*
X131445000Y-96740885D01*
X131449475Y-96756124D01*
X131450865Y-96757329D01*
X131458548Y-96759000D01*
X132379251Y-96759000D01*
X132392782Y-96755027D01*
X132394011Y-96746478D01*
X132353603Y-96595675D01*
X132349857Y-96585383D01*
X132263472Y-96400130D01*
X132257994Y-96390644D01*
X132140762Y-96223218D01*
X132133708Y-96214811D01*
X131989189Y-96070292D01*
X131980782Y-96063238D01*
X131882617Y-95994503D01*
X141673322Y-95994503D01*
X141673658Y-96008599D01*
X141681600Y-96012000D01*
X142602885Y-96012000D01*
X142618124Y-96007525D01*
X142619329Y-96006135D01*
X142621000Y-95998452D01*
X142621000Y-95993885D01*
X143129000Y-95993885D01*
X143133475Y-96009124D01*
X143134865Y-96010329D01*
X143142548Y-96012000D01*
X144063251Y-96012000D01*
X144076782Y-96008027D01*
X144078011Y-95999478D01*
X144037603Y-95848675D01*
X144033857Y-95838383D01*
X143947472Y-95653130D01*
X143941994Y-95643644D01*
X143824762Y-95476218D01*
X143817708Y-95467811D01*
X143673189Y-95323292D01*
X143664782Y-95316238D01*
X143497356Y-95199006D01*
X143487870Y-95193528D01*
X143302617Y-95107143D01*
X143292325Y-95103397D01*
X143146497Y-95064322D01*
X143132401Y-95064658D01*
X143129000Y-95072600D01*
X143129000Y-95993885D01*
X142621000Y-95993885D01*
X142621000Y-95077749D01*
X142617027Y-95064218D01*
X142608478Y-95062989D01*
X142457675Y-95103397D01*
X142447383Y-95107143D01*
X142262130Y-95193528D01*
X142252644Y-95199006D01*
X142085218Y-95316238D01*
X142076811Y-95323292D01*
X141932292Y-95467811D01*
X141925238Y-95476218D01*
X141808006Y-95643644D01*
X141802528Y-95653130D01*
X141716143Y-95838383D01*
X141712397Y-95848675D01*
X141673322Y-95994503D01*
X131882617Y-95994503D01*
X131813356Y-95946006D01*
X131803870Y-95940528D01*
X131618617Y-95854143D01*
X131608325Y-95850397D01*
X131462497Y-95811322D01*
X131448401Y-95811658D01*
X131445000Y-95819600D01*
X131445000Y-96740885D01*
X130937000Y-96740885D01*
X130937000Y-95824749D01*
X130933027Y-95811218D01*
X130924478Y-95809989D01*
X130773675Y-95850397D01*
X130763383Y-95854143D01*
X130578130Y-95940528D01*
X130568644Y-95946006D01*
X130401218Y-96063238D01*
X130392811Y-96070292D01*
X130248292Y-96214811D01*
X130241238Y-96223218D01*
X130124006Y-96390644D01*
X130118528Y-96400130D01*
X130032143Y-96585383D01*
X130028397Y-96595675D01*
X129989322Y-96741503D01*
X118158500Y-96741503D01*
X118158500Y-86394668D01*
X126402162Y-86394668D01*
X126407443Y-86401722D01*
X126575784Y-86500092D01*
X126585071Y-86504542D01*
X126787562Y-86581866D01*
X126797460Y-86584742D01*
X127009862Y-86627955D01*
X127020091Y-86629174D01*
X127236697Y-86637117D01*
X127246983Y-86636650D01*
X127461979Y-86609108D01*
X127472065Y-86606965D01*
X127679672Y-86544680D01*
X127689267Y-86540919D01*
X127883904Y-86445568D01*
X127892770Y-86440283D01*
X127944737Y-86403215D01*
X127951447Y-86394668D01*
X132902162Y-86394668D01*
X132907443Y-86401722D01*
X133075784Y-86500092D01*
X133085071Y-86504542D01*
X133287562Y-86581866D01*
X133297460Y-86584742D01*
X133509862Y-86627955D01*
X133520091Y-86629174D01*
X133736697Y-86637117D01*
X133746983Y-86636650D01*
X133961979Y-86609108D01*
X133972065Y-86606965D01*
X134179672Y-86544680D01*
X134189267Y-86540919D01*
X134383904Y-86445568D01*
X134392770Y-86440283D01*
X134444737Y-86403215D01*
X134451447Y-86394668D01*
X140880162Y-86394668D01*
X140885443Y-86401722D01*
X141053784Y-86500092D01*
X141063071Y-86504542D01*
X141265562Y-86581866D01*
X141275460Y-86584742D01*
X141487862Y-86627955D01*
X141498091Y-86629174D01*
X141714697Y-86637117D01*
X141724983Y-86636650D01*
X141939979Y-86609108D01*
X141950065Y-86606965D01*
X142157672Y-86544680D01*
X142167267Y-86540919D01*
X142361904Y-86445568D01*
X142370770Y-86440283D01*
X142422737Y-86403215D01*
X142429447Y-86394668D01*
X147380162Y-86394668D01*
X147385443Y-86401722D01*
X147553784Y-86500092D01*
X147563071Y-86504542D01*
X147765562Y-86581866D01*
X147775460Y-86584742D01*
X147987862Y-86627955D01*
X147998091Y-86629174D01*
X148214697Y-86637117D01*
X148224983Y-86636650D01*
X148439979Y-86609108D01*
X148450065Y-86606965D01*
X148657672Y-86544680D01*
X148667267Y-86540919D01*
X148861904Y-86445568D01*
X148870770Y-86440283D01*
X148922737Y-86403215D01*
X148931138Y-86392514D01*
X148924151Y-86379361D01*
X148169812Y-85625022D01*
X148155868Y-85617408D01*
X148154035Y-85617539D01*
X148147420Y-85621790D01*
X147386922Y-86382288D01*
X147380162Y-86394668D01*
X142429447Y-86394668D01*
X142431138Y-86392514D01*
X142424151Y-86379361D01*
X141669812Y-85625022D01*
X141655868Y-85617408D01*
X141654035Y-85617539D01*
X141647420Y-85621790D01*
X140886922Y-86382288D01*
X140880162Y-86394668D01*
X134451447Y-86394668D01*
X134453138Y-86392514D01*
X134446151Y-86379361D01*
X133691812Y-85625022D01*
X133677868Y-85617408D01*
X133676035Y-85617539D01*
X133669420Y-85621790D01*
X132908922Y-86382288D01*
X132902162Y-86394668D01*
X127951447Y-86394668D01*
X127953138Y-86392514D01*
X127946151Y-86379361D01*
X127191812Y-85625022D01*
X127177868Y-85617408D01*
X127176035Y-85617539D01*
X127169420Y-85621790D01*
X126408922Y-86382288D01*
X126402162Y-86394668D01*
X118158500Y-86394668D01*
X118158500Y-85224300D01*
X125793978Y-85224300D01*
X125806455Y-85440688D01*
X125807891Y-85450909D01*
X125855542Y-85662349D01*
X125858622Y-85672177D01*
X125940170Y-85873008D01*
X125944815Y-85882204D01*
X126028732Y-86019145D01*
X126039190Y-86028606D01*
X126047967Y-86024823D01*
X126806978Y-85265812D01*
X126813356Y-85254132D01*
X127543408Y-85254132D01*
X127543539Y-85255965D01*
X127547790Y-85262580D01*
X128305955Y-86020745D01*
X128317965Y-86027304D01*
X128329705Y-86018336D01*
X128363787Y-85970904D01*
X128369098Y-85962066D01*
X128465128Y-85767764D01*
X128468926Y-85758171D01*
X128531934Y-85550786D01*
X128534112Y-85540713D01*
X128562642Y-85324011D01*
X128563161Y-85317343D01*
X128564651Y-85256365D01*
X128564457Y-85249646D01*
X128562373Y-85224300D01*
X132293978Y-85224300D01*
X132306455Y-85440688D01*
X132307891Y-85450909D01*
X132355542Y-85662349D01*
X132358622Y-85672177D01*
X132440170Y-85873008D01*
X132444815Y-85882204D01*
X132528732Y-86019145D01*
X132539190Y-86028606D01*
X132547967Y-86024823D01*
X133306978Y-85265812D01*
X133313356Y-85254132D01*
X134043408Y-85254132D01*
X134043539Y-85255965D01*
X134047790Y-85262580D01*
X134805955Y-86020745D01*
X134817965Y-86027304D01*
X134829705Y-86018336D01*
X134863787Y-85970904D01*
X134869098Y-85962066D01*
X134965128Y-85767764D01*
X134968926Y-85758171D01*
X135031934Y-85550786D01*
X135034112Y-85540713D01*
X135062642Y-85324011D01*
X135063161Y-85317343D01*
X135064651Y-85256365D01*
X135064457Y-85249646D01*
X135062373Y-85224300D01*
X140271978Y-85224300D01*
X140284455Y-85440688D01*
X140285891Y-85450909D01*
X140333542Y-85662349D01*
X140336622Y-85672177D01*
X140418170Y-85873008D01*
X140422815Y-85882204D01*
X140506732Y-86019145D01*
X140517190Y-86028606D01*
X140525967Y-86024823D01*
X141284978Y-85265812D01*
X141291356Y-85254132D01*
X142021408Y-85254132D01*
X142021539Y-85255965D01*
X142025790Y-85262580D01*
X142783955Y-86020745D01*
X142795965Y-86027304D01*
X142807705Y-86018336D01*
X142841787Y-85970904D01*
X142847098Y-85962066D01*
X142943128Y-85767764D01*
X142946926Y-85758171D01*
X143009934Y-85550786D01*
X143012112Y-85540713D01*
X143040642Y-85324011D01*
X143041161Y-85317343D01*
X143042651Y-85256365D01*
X143042457Y-85249646D01*
X143040373Y-85224300D01*
X146771978Y-85224300D01*
X146784455Y-85440688D01*
X146785891Y-85450909D01*
X146833542Y-85662349D01*
X146836622Y-85672177D01*
X146918170Y-85873008D01*
X146922815Y-85882204D01*
X147006732Y-86019145D01*
X147017190Y-86028606D01*
X147025967Y-86024823D01*
X147784978Y-85265812D01*
X147791356Y-85254132D01*
X148521408Y-85254132D01*
X148521539Y-85255965D01*
X148525790Y-85262580D01*
X149283955Y-86020745D01*
X149295965Y-86027304D01*
X149307705Y-86018336D01*
X149341787Y-85970904D01*
X149347098Y-85962066D01*
X149443128Y-85767764D01*
X149446926Y-85758171D01*
X149509934Y-85550786D01*
X149512112Y-85540713D01*
X149540642Y-85324011D01*
X149541161Y-85317343D01*
X149542651Y-85256365D01*
X149542457Y-85249646D01*
X149524550Y-85031835D01*
X149522865Y-85021655D01*
X149470062Y-84811438D01*
X149466742Y-84801687D01*
X149380311Y-84602908D01*
X149375445Y-84593833D01*
X149306697Y-84487566D01*
X149296011Y-84478362D01*
X149286444Y-84482766D01*
X148529022Y-85240188D01*
X148521408Y-85254132D01*
X147791356Y-85254132D01*
X147792592Y-85251868D01*
X147792461Y-85250035D01*
X147788210Y-85243420D01*
X147030297Y-84485507D01*
X147018761Y-84479207D01*
X147006478Y-84488831D01*
X146955031Y-84564249D01*
X146949933Y-84573223D01*
X146858678Y-84769814D01*
X146855115Y-84779501D01*
X146797194Y-84988357D01*
X146795263Y-84998476D01*
X146772230Y-85214011D01*
X146771978Y-85224300D01*
X143040373Y-85224300D01*
X143024550Y-85031835D01*
X143022865Y-85021655D01*
X142970062Y-84811438D01*
X142966742Y-84801687D01*
X142880311Y-84602908D01*
X142875445Y-84593833D01*
X142806697Y-84487566D01*
X142796011Y-84478362D01*
X142786444Y-84482766D01*
X142029022Y-85240188D01*
X142021408Y-85254132D01*
X141291356Y-85254132D01*
X141292592Y-85251868D01*
X141292461Y-85250035D01*
X141288210Y-85243420D01*
X140530297Y-84485507D01*
X140518761Y-84479207D01*
X140506478Y-84488831D01*
X140455031Y-84564249D01*
X140449933Y-84573223D01*
X140358678Y-84769814D01*
X140355115Y-84779501D01*
X140297194Y-84988357D01*
X140295263Y-84998476D01*
X140272230Y-85214011D01*
X140271978Y-85224300D01*
X135062373Y-85224300D01*
X135046550Y-85031835D01*
X135044865Y-85021655D01*
X134992062Y-84811438D01*
X134988742Y-84801687D01*
X134902311Y-84602908D01*
X134897445Y-84593833D01*
X134828697Y-84487566D01*
X134818011Y-84478362D01*
X134808444Y-84482766D01*
X134051022Y-85240188D01*
X134043408Y-85254132D01*
X133313356Y-85254132D01*
X133314592Y-85251868D01*
X133314461Y-85250035D01*
X133310210Y-85243420D01*
X132552297Y-84485507D01*
X132540761Y-84479207D01*
X132528478Y-84488831D01*
X132477031Y-84564249D01*
X132471933Y-84573223D01*
X132380678Y-84769814D01*
X132377115Y-84779501D01*
X132319194Y-84988357D01*
X132317263Y-84998476D01*
X132294230Y-85214011D01*
X132293978Y-85224300D01*
X128562373Y-85224300D01*
X128546550Y-85031835D01*
X128544865Y-85021655D01*
X128492062Y-84811438D01*
X128488742Y-84801687D01*
X128402311Y-84602908D01*
X128397445Y-84593833D01*
X128328697Y-84487566D01*
X128318011Y-84478362D01*
X128308444Y-84482766D01*
X127551022Y-85240188D01*
X127543408Y-85254132D01*
X126813356Y-85254132D01*
X126814592Y-85251868D01*
X126814461Y-85250035D01*
X126810210Y-85243420D01*
X126052297Y-84485507D01*
X126040761Y-84479207D01*
X126028478Y-84488831D01*
X125977031Y-84564249D01*
X125971933Y-84573223D01*
X125880678Y-84769814D01*
X125877115Y-84779501D01*
X125819194Y-84988357D01*
X125817263Y-84998476D01*
X125794230Y-85214011D01*
X125793978Y-85224300D01*
X118158500Y-85224300D01*
X118158500Y-84112999D01*
X126403794Y-84112999D01*
X126410538Y-84125328D01*
X127166188Y-84880978D01*
X127180132Y-84888592D01*
X127181965Y-84888461D01*
X127188580Y-84884210D01*
X127948766Y-84124024D01*
X127954787Y-84112999D01*
X132903794Y-84112999D01*
X132910538Y-84125328D01*
X133666188Y-84880978D01*
X133680132Y-84888592D01*
X133681965Y-84888461D01*
X133688580Y-84884210D01*
X134448766Y-84124024D01*
X134454787Y-84112999D01*
X140881794Y-84112999D01*
X140888538Y-84125328D01*
X141644188Y-84880978D01*
X141658132Y-84888592D01*
X141659965Y-84888461D01*
X141666580Y-84884210D01*
X142426766Y-84124024D01*
X142432787Y-84112999D01*
X147381794Y-84112999D01*
X147388538Y-84125328D01*
X148144188Y-84880978D01*
X148158132Y-84888592D01*
X148159965Y-84888461D01*
X148166580Y-84884210D01*
X148926766Y-84124024D01*
X148933786Y-84111169D01*
X148926348Y-84100960D01*
X148919324Y-84096294D01*
X148729578Y-83991548D01*
X148720166Y-83987318D01*
X148515855Y-83914967D01*
X148505884Y-83912333D01*
X148292498Y-83874323D01*
X148282246Y-83873354D01*
X148065507Y-83870706D01*
X148055220Y-83871426D01*
X147840979Y-83904209D01*
X147830939Y-83906600D01*
X147624920Y-83973938D01*
X147615418Y-83977933D01*
X147423168Y-84078012D01*
X147414436Y-84083510D01*
X147390249Y-84101671D01*
X147381794Y-84112999D01*
X142432787Y-84112999D01*
X142433786Y-84111169D01*
X142426348Y-84100960D01*
X142419324Y-84096294D01*
X142229578Y-83991548D01*
X142220166Y-83987318D01*
X142015855Y-83914967D01*
X142005884Y-83912333D01*
X141792498Y-83874323D01*
X141782246Y-83873354D01*
X141565507Y-83870706D01*
X141555220Y-83871426D01*
X141340979Y-83904209D01*
X141330939Y-83906600D01*
X141124920Y-83973938D01*
X141115418Y-83977933D01*
X140923168Y-84078012D01*
X140914436Y-84083510D01*
X140890249Y-84101671D01*
X140881794Y-84112999D01*
X134454787Y-84112999D01*
X134455786Y-84111169D01*
X134448348Y-84100960D01*
X134441324Y-84096294D01*
X134251578Y-83991548D01*
X134242166Y-83987318D01*
X134037855Y-83914967D01*
X134027884Y-83912333D01*
X133814498Y-83874323D01*
X133804246Y-83873354D01*
X133587507Y-83870706D01*
X133577220Y-83871426D01*
X133362979Y-83904209D01*
X133352939Y-83906600D01*
X133146920Y-83973938D01*
X133137418Y-83977933D01*
X132945168Y-84078012D01*
X132936436Y-84083510D01*
X132912249Y-84101671D01*
X132903794Y-84112999D01*
X127954787Y-84112999D01*
X127955786Y-84111169D01*
X127948348Y-84100960D01*
X127941324Y-84096294D01*
X127751578Y-83991548D01*
X127742166Y-83987318D01*
X127537855Y-83914967D01*
X127527884Y-83912333D01*
X127314498Y-83874323D01*
X127304246Y-83873354D01*
X127087507Y-83870706D01*
X127077220Y-83871426D01*
X126862979Y-83904209D01*
X126852939Y-83906600D01*
X126646920Y-83973938D01*
X126637418Y-83977933D01*
X126445168Y-84078012D01*
X126436436Y-84083510D01*
X126412249Y-84101671D01*
X126403794Y-84112999D01*
X118158500Y-84112999D01*
X118158500Y-62301500D01*
X133495643Y-62301500D01*
X161398357Y-62301500D01*
X161398357Y-55554500D01*
X133495643Y-55554500D01*
X133495643Y-62301500D01*
X118158500Y-62301500D01*
X118158500Y-52110500D01*
X118178502Y-52042379D01*
X118232158Y-51995886D01*
X118284500Y-51984500D01*
X178015500Y-51984500D01*
X178083621Y-52004502D01*
G37*
%TD.AperFunction*%
%TA.AperFunction,Conductor*%
G36*
X164610512Y-113910501D02*
G01*
X164617095Y-113916630D01*
X171046786Y-120346321D01*
X171080812Y-120408633D01*
X171075747Y-120479448D01*
X171033200Y-120536284D01*
X170973648Y-120558448D01*
X170973911Y-120560165D01*
X170753091Y-120593955D01*
X170540756Y-120663357D01*
X170490209Y-120689670D01*
X170419268Y-120726600D01*
X170342607Y-120766507D01*
X170338474Y-120769610D01*
X170338471Y-120769612D01*
X170168100Y-120897530D01*
X170163965Y-120900635D01*
X170124525Y-120941907D01*
X170040949Y-121029364D01*
X170009629Y-121062138D01*
X169883743Y-121246680D01*
X169855683Y-121307130D01*
X169842895Y-121334680D01*
X169796071Y-121388047D01*
X169727828Y-121407628D01*
X169659832Y-121387205D01*
X169614413Y-121334881D01*
X169601475Y-121307135D01*
X169595994Y-121297644D01*
X169478762Y-121130218D01*
X169471708Y-121121811D01*
X169327189Y-120977292D01*
X169318782Y-120970238D01*
X169151356Y-120853006D01*
X169141870Y-120847528D01*
X168956617Y-120761143D01*
X168946325Y-120757397D01*
X168800497Y-120718322D01*
X168786401Y-120718658D01*
X168783000Y-120726600D01*
X168783000Y-122048000D01*
X168762998Y-122116121D01*
X168709342Y-122162614D01*
X168657000Y-122174000D01*
X167340749Y-122174000D01*
X167327218Y-122177973D01*
X167325989Y-122186522D01*
X167366397Y-122337325D01*
X167370143Y-122347617D01*
X167456528Y-122532870D01*
X167462006Y-122542356D01*
X167579238Y-122709782D01*
X167586292Y-122718189D01*
X167588508Y-122720405D01*
X167589172Y-122721622D01*
X167589823Y-122722397D01*
X167589667Y-122722528D01*
X167622534Y-122782717D01*
X167617469Y-122853532D01*
X167574922Y-122910368D01*
X167508402Y-122935179D01*
X167499413Y-122935500D01*
X165187500Y-122935500D01*
X165119379Y-122915498D01*
X165072886Y-122861842D01*
X165061500Y-122809500D01*
X165061500Y-121648503D01*
X167327322Y-121648503D01*
X167327658Y-121662599D01*
X167335600Y-121666000D01*
X168256885Y-121666000D01*
X168272124Y-121661525D01*
X168273329Y-121660135D01*
X168275000Y-121652452D01*
X168275000Y-120731749D01*
X168271027Y-120718218D01*
X168262478Y-120716989D01*
X168111675Y-120757397D01*
X168101383Y-120761143D01*
X167916130Y-120847528D01*
X167906644Y-120853006D01*
X167739218Y-120970238D01*
X167730811Y-120977292D01*
X167586292Y-121121811D01*
X167579238Y-121130218D01*
X167462006Y-121297644D01*
X167456528Y-121307130D01*
X167370143Y-121492383D01*
X167366397Y-121502675D01*
X167327322Y-121648503D01*
X165061500Y-121648503D01*
X165061500Y-121021866D01*
X165054745Y-120959684D01*
X165003615Y-120823295D01*
X164916261Y-120706739D01*
X164799705Y-120619385D01*
X164663316Y-120568255D01*
X164601134Y-120561500D01*
X164528000Y-120561500D01*
X164459879Y-120541498D01*
X164413386Y-120487842D01*
X164402000Y-120435500D01*
X164402000Y-114005725D01*
X164422002Y-113937604D01*
X164475658Y-113891111D01*
X164545932Y-113881007D01*
X164610512Y-113910501D01*
G37*
%TD.AperFunction*%
%TA.AperFunction,Conductor*%
G36*
X136316267Y-108122502D02*
G01*
X136362760Y-108176158D01*
X136367670Y-108188624D01*
X136374450Y-108208946D01*
X136467522Y-108359348D01*
X136592697Y-108484305D01*
X136598927Y-108488145D01*
X136598928Y-108488146D01*
X136702792Y-108552169D01*
X136750286Y-108604942D01*
X136761709Y-108675013D01*
X136733435Y-108740137D01*
X136700814Y-108767883D01*
X136683009Y-108778412D01*
X136670571Y-108788061D01*
X136569061Y-108889571D01*
X136559412Y-108902009D01*
X136486330Y-109025584D01*
X136480082Y-109040021D01*
X136439612Y-109179320D01*
X136437310Y-109191924D01*
X136435193Y-109218816D01*
X136435000Y-109223746D01*
X136435000Y-109262885D01*
X136439475Y-109278124D01*
X136440865Y-109279329D01*
X136448548Y-109281000D01*
X137669000Y-109281000D01*
X137737121Y-109301002D01*
X137783614Y-109354658D01*
X137795000Y-109407000D01*
X137795000Y-110397884D01*
X137799475Y-110413123D01*
X137800865Y-110414328D01*
X137808548Y-110415999D01*
X138077252Y-110415999D01*
X138082188Y-110415805D01*
X138109077Y-110413690D01*
X138121678Y-110411389D01*
X138260979Y-110370918D01*
X138275416Y-110364670D01*
X138398991Y-110291588D01*
X138411429Y-110281939D01*
X138512939Y-110180429D01*
X138522588Y-110167991D01*
X138595670Y-110044416D01*
X138605066Y-110022704D01*
X138607993Y-110023971D01*
X138638276Y-109976570D01*
X138702777Y-109946903D01*
X138773078Y-109956818D01*
X138810139Y-109982477D01*
X140444190Y-111616528D01*
X140456577Y-111630941D01*
X140469546Y-111648564D01*
X140475129Y-111653307D01*
X140510055Y-111682979D01*
X140517571Y-111689909D01*
X140523315Y-111695653D01*
X140526189Y-111697927D01*
X140526196Y-111697933D01*
X140545711Y-111713372D01*
X140549115Y-111716163D01*
X140599472Y-111758945D01*
X140599476Y-111758948D01*
X140605051Y-111763684D01*
X140611566Y-111767011D01*
X140616636Y-111770392D01*
X140621858Y-111773617D01*
X140627600Y-111778160D01*
X140694112Y-111809246D01*
X140698006Y-111811149D01*
X140763404Y-111844543D01*
X140770521Y-111846284D01*
X140776239Y-111848411D01*
X140782045Y-111850342D01*
X140788679Y-111853443D01*
X140795847Y-111854934D01*
X140795850Y-111854935D01*
X140840867Y-111864299D01*
X140860539Y-111868391D01*
X140864797Y-111869354D01*
X140936112Y-111886804D01*
X140941718Y-111887152D01*
X140941719Y-111887152D01*
X140947330Y-111887500D01*
X140947328Y-111887539D01*
X140951229Y-111887772D01*
X140955588Y-111888161D01*
X140962756Y-111889652D01*
X140970073Y-111889454D01*
X141032226Y-111887772D01*
X141040577Y-111887546D01*
X141043986Y-111887500D01*
X148116046Y-111887500D01*
X148123847Y-111887742D01*
X148185516Y-111891568D01*
X148198600Y-111889320D01*
X148219936Y-111887500D01*
X155507624Y-111887500D01*
X155526574Y-111888933D01*
X155540973Y-111891124D01*
X155540979Y-111891124D01*
X155548208Y-111892224D01*
X155555500Y-111891631D01*
X155555503Y-111891631D01*
X155601183Y-111887915D01*
X155611398Y-111887500D01*
X155619525Y-111887500D01*
X155623161Y-111887076D01*
X155623163Y-111887076D01*
X155626615Y-111886673D01*
X155647924Y-111884189D01*
X155652244Y-111883762D01*
X155725426Y-111877809D01*
X155732388Y-111875553D01*
X155738376Y-111874357D01*
X155744333Y-111872949D01*
X155751607Y-111872101D01*
X155758489Y-111869603D01*
X155758493Y-111869602D01*
X155820607Y-111847055D01*
X155824711Y-111845645D01*
X155894575Y-111823013D01*
X155900838Y-111819213D01*
X155906380Y-111816675D01*
X155911856Y-111813933D01*
X155918741Y-111811434D01*
X155980132Y-111771185D01*
X155983800Y-111768870D01*
X156046581Y-111730773D01*
X156050786Y-111727059D01*
X156050789Y-111727057D01*
X156055005Y-111723333D01*
X156055031Y-111723362D01*
X156057962Y-111720762D01*
X156061316Y-111717958D01*
X156067435Y-111713946D01*
X156120989Y-111657413D01*
X156123366Y-111654972D01*
X157262515Y-110515823D01*
X157325412Y-110481672D01*
X157374824Y-110471169D01*
X157374833Y-110471166D01*
X157381288Y-110469794D01*
X157502112Y-110416000D01*
X157549722Y-110394803D01*
X157549724Y-110394802D01*
X157555752Y-110392118D01*
X157710253Y-110279866D01*
X157765446Y-110218568D01*
X157833621Y-110142852D01*
X157833622Y-110142851D01*
X157838040Y-110137944D01*
X157900374Y-110029979D01*
X157930223Y-109978279D01*
X157930224Y-109978278D01*
X157933527Y-109972556D01*
X157992542Y-109790928D01*
X158012504Y-109601000D01*
X158002839Y-109509042D01*
X157993232Y-109417635D01*
X157993232Y-109417633D01*
X157992542Y-109411072D01*
X157963882Y-109322865D01*
X157963580Y-109321936D01*
X157961553Y-109250968D01*
X157998215Y-109190171D01*
X158061927Y-109158845D01*
X158083413Y-109157000D01*
X158154275Y-109157000D01*
X158222396Y-109177002D01*
X158243370Y-109193905D01*
X162967095Y-113917630D01*
X163001121Y-113979942D01*
X163004000Y-114006725D01*
X163004000Y-120435500D01*
X162983998Y-120503621D01*
X162930342Y-120550114D01*
X162878000Y-120561500D01*
X162804866Y-120561500D01*
X162742684Y-120568255D01*
X162606295Y-120619385D01*
X162489739Y-120706739D01*
X162402385Y-120823295D01*
X162399233Y-120831703D01*
X162357919Y-120941907D01*
X162315277Y-120998671D01*
X162248716Y-121023371D01*
X162179367Y-121008163D01*
X162146743Y-120982476D01*
X162096151Y-120926875D01*
X162096142Y-120926866D01*
X162092670Y-120923051D01*
X162088619Y-120919852D01*
X162088615Y-120919848D01*
X161921414Y-120787800D01*
X161921410Y-120787798D01*
X161917359Y-120784598D01*
X161721789Y-120676638D01*
X161716920Y-120674914D01*
X161716916Y-120674912D01*
X161516087Y-120603795D01*
X161516083Y-120603794D01*
X161511212Y-120602069D01*
X161506119Y-120601162D01*
X161506116Y-120601161D01*
X161296373Y-120563800D01*
X161296367Y-120563799D01*
X161291284Y-120562894D01*
X161259062Y-120562500D01*
X161112309Y-120560707D01*
X161044438Y-120539874D01*
X161024754Y-120523811D01*
X157784489Y-117283546D01*
X157771652Y-117268518D01*
X157763669Y-117257530D01*
X157728069Y-117225475D01*
X157713937Y-117212751D01*
X157709153Y-117208210D01*
X157695006Y-117194063D01*
X157679446Y-117181463D01*
X157674425Y-117177175D01*
X157629619Y-117136830D01*
X157629615Y-117136827D01*
X157624715Y-117132415D01*
X157619005Y-117129119D01*
X157619002Y-117129116D01*
X157612955Y-117125625D01*
X157596670Y-117114432D01*
X157586125Y-117105893D01*
X157526520Y-117075523D01*
X157520724Y-117072376D01*
X157514975Y-117069057D01*
X157462785Y-117038925D01*
X157449875Y-117034730D01*
X157431616Y-117027167D01*
X157419524Y-117021006D01*
X157354906Y-117003691D01*
X157348582Y-117001818D01*
X157339981Y-116999023D01*
X157284956Y-116981145D01*
X157278389Y-116980455D01*
X157278385Y-116980454D01*
X157272712Y-116979858D01*
X157271470Y-116979728D01*
X157252028Y-116976125D01*
X157238915Y-116972611D01*
X157232318Y-116972265D01*
X157232316Y-116972265D01*
X157172113Y-116969110D01*
X157165539Y-116968593D01*
X157148895Y-116966844D01*
X157148891Y-116966844D01*
X157145620Y-116966500D01*
X157125593Y-116966500D01*
X157118999Y-116966327D01*
X157058782Y-116963171D01*
X157058778Y-116963171D01*
X157052190Y-116962826D01*
X157045675Y-116963858D01*
X157045673Y-116963858D01*
X157038786Y-116964949D01*
X157019075Y-116966500D01*
X135141500Y-116966500D01*
X135073379Y-116946498D01*
X135026886Y-116892842D01*
X135015500Y-116840500D01*
X135015500Y-115912028D01*
X135035502Y-115843907D01*
X135089158Y-115797414D01*
X135159432Y-115787310D01*
X135224012Y-115816804D01*
X135230595Y-115822933D01*
X135468190Y-116060528D01*
X135480577Y-116074941D01*
X135493546Y-116092564D01*
X135499129Y-116097307D01*
X135534055Y-116126979D01*
X135541571Y-116133909D01*
X135547315Y-116139653D01*
X135550189Y-116141927D01*
X135550196Y-116141933D01*
X135569711Y-116157372D01*
X135573115Y-116160163D01*
X135623472Y-116202945D01*
X135623476Y-116202948D01*
X135629051Y-116207684D01*
X135635568Y-116211012D01*
X135640632Y-116214389D01*
X135645856Y-116217616D01*
X135651600Y-116222160D01*
X135658231Y-116225259D01*
X135718082Y-116253232D01*
X135722033Y-116255163D01*
X135755298Y-116272149D01*
X135787404Y-116288543D01*
X135794519Y-116290284D01*
X135800265Y-116292421D01*
X135806048Y-116294345D01*
X135812679Y-116297444D01*
X135884557Y-116312394D01*
X135888829Y-116313361D01*
X135960112Y-116330804D01*
X135965711Y-116331151D01*
X135965715Y-116331152D01*
X135971330Y-116331500D01*
X135971328Y-116331539D01*
X135975229Y-116331772D01*
X135979588Y-116332161D01*
X135986756Y-116333652D01*
X135994073Y-116333454D01*
X136064577Y-116331546D01*
X136067986Y-116331500D01*
X136476669Y-116331500D01*
X136544790Y-116351502D01*
X136564699Y-116370040D01*
X136566008Y-116368731D01*
X136572358Y-116375081D01*
X136577739Y-116382261D01*
X136694295Y-116469615D01*
X136830684Y-116520745D01*
X136892866Y-116527500D01*
X138189134Y-116527500D01*
X138251316Y-116520745D01*
X138387705Y-116469615D01*
X138504261Y-116382261D01*
X138591615Y-116265705D01*
X138642745Y-116129316D01*
X138649500Y-116067134D01*
X138649500Y-115070866D01*
X138642745Y-115008684D01*
X138591615Y-114872295D01*
X138504261Y-114755739D01*
X138387705Y-114668385D01*
X138251316Y-114617255D01*
X138189134Y-114610500D01*
X136892866Y-114610500D01*
X136830684Y-114617255D01*
X136694295Y-114668385D01*
X136577739Y-114755739D01*
X136572358Y-114762919D01*
X136566008Y-114769269D01*
X136563359Y-114766620D01*
X136520711Y-114798552D01*
X136476669Y-114806500D01*
X136423028Y-114806500D01*
X136354907Y-114786498D01*
X136333933Y-114769595D01*
X135421405Y-113857067D01*
X135387379Y-113794755D01*
X135384500Y-113767972D01*
X135384500Y-112591866D01*
X135377745Y-112529684D01*
X135326615Y-112393295D01*
X135239261Y-112276739D01*
X135192008Y-112241325D01*
X135149495Y-112184466D01*
X135144470Y-112113648D01*
X135178529Y-112051355D01*
X135240861Y-112017365D01*
X135267575Y-112014500D01*
X136155972Y-112014500D01*
X136224093Y-112034502D01*
X136245067Y-112051405D01*
X136395595Y-112201933D01*
X136429621Y-112264245D01*
X136432500Y-112291028D01*
X136432500Y-112767134D01*
X136439255Y-112829316D01*
X136490385Y-112965705D01*
X136577739Y-113082261D01*
X136694295Y-113169615D01*
X136830684Y-113220745D01*
X136892866Y-113227500D01*
X138189134Y-113227500D01*
X138251316Y-113220745D01*
X138387705Y-113169615D01*
X138504261Y-113082261D01*
X138591615Y-112965705D01*
X138642745Y-112829316D01*
X138649500Y-112767134D01*
X138649500Y-111770866D01*
X138642745Y-111708684D01*
X138591615Y-111572295D01*
X138504261Y-111455739D01*
X138387705Y-111368385D01*
X138251316Y-111317255D01*
X138189134Y-111310500D01*
X137713028Y-111310500D01*
X137644907Y-111290498D01*
X137623932Y-111273595D01*
X137110806Y-110760468D01*
X137098420Y-110746055D01*
X137089795Y-110734335D01*
X137085454Y-110728436D01*
X137044945Y-110694021D01*
X137037429Y-110687091D01*
X137031685Y-110681347D01*
X137028811Y-110679073D01*
X137028804Y-110679067D01*
X137009289Y-110663628D01*
X137005885Y-110660837D01*
X136979033Y-110638024D01*
X136940069Y-110578675D01*
X136939377Y-110507682D01*
X136977176Y-110447584D01*
X137041467Y-110417463D01*
X137060613Y-110416000D01*
X137268885Y-110416000D01*
X137284124Y-110411525D01*
X137285329Y-110410135D01*
X137287000Y-110402452D01*
X137287000Y-109807115D01*
X137282525Y-109791876D01*
X137281135Y-109790671D01*
X137273452Y-109789000D01*
X136453116Y-109789000D01*
X136437877Y-109793475D01*
X136436672Y-109794865D01*
X136435001Y-109802548D01*
X136435001Y-109846252D01*
X136435195Y-109851188D01*
X136437310Y-109878077D01*
X136439611Y-109890678D01*
X136480082Y-110029979D01*
X136486330Y-110044416D01*
X136559412Y-110167991D01*
X136569061Y-110180429D01*
X136661379Y-110272747D01*
X136695405Y-110335059D01*
X136690340Y-110405874D01*
X136647793Y-110462710D01*
X136575692Y-110487796D01*
X136528997Y-110489060D01*
X136514422Y-110489454D01*
X136511014Y-110489500D01*
X132714500Y-110489500D01*
X132646379Y-110469498D01*
X132599886Y-110415842D01*
X132588500Y-110363500D01*
X132588500Y-108974500D01*
X132608502Y-108906379D01*
X132662158Y-108859886D01*
X132714500Y-108848500D01*
X133774134Y-108848500D01*
X133836316Y-108841745D01*
X133972705Y-108790615D01*
X134089261Y-108703261D01*
X134176615Y-108586705D01*
X134227745Y-108450316D01*
X134234500Y-108388134D01*
X134234500Y-108228500D01*
X134254502Y-108160379D01*
X134308158Y-108113886D01*
X134360500Y-108102500D01*
X136248146Y-108102500D01*
X136316267Y-108122502D01*
G37*
%TD.AperFunction*%
%TD*%
M02*
