M48
; DRILL file {KiCad (5.1.9)-1} date 01/25/22 19:09:41
; FORMAT={-:-/ absolute / inch / decimal}
; #@! TF.CreationDate,2022-01-25T19:09:41-05:00
; #@! TF.GenerationSoftware,Kicad,Pcbnew,(5.1.9)-1
; #@! TF.FileFunction,Plated,1,2,PTH
FMAT,2
INCH
T1C0.0157
T2C0.0394
%
G90
G05
T1
X5.25Y-3.3
X5.3Y-3.4
X5.35Y-3.275
X5.5Y-3.5
X5.55Y-3.25
X5.825Y-3.975
X5.925Y-3.425
T2
X5.075Y-3.075
X5.075Y-3.175
X5.075Y-3.425
X5.075Y-3.525
X5.075Y-3.725
X5.075Y-3.825
X5.8Y-3.35
X5.8Y-3.45
X5.8Y-3.55
X6.0Y-3.675
X6.0Y-3.775
X6.0Y-3.875
X6.0Y-3.975
X6.0Y-4.075
X6.0Y-4.175
X6.25Y-3.075
X6.25Y-3.175
X6.25Y-3.275
X6.45Y-3.075
X6.45Y-3.175
X6.45Y-3.275
X6.65Y-3.075
X6.65Y-3.175
X6.65Y-3.275
X6.7Y-3.775
X6.7Y-3.875
X6.7Y-3.975
X6.7Y-4.075
T0
M30
