%TF.GenerationSoftware,KiCad,Pcbnew,(5.1.9)-1*%
%TF.CreationDate,2022-01-25T19:09:39-05:00*%
%TF.ProjectId,gimbal,67696d62-616c-42e6-9b69-6361645f7063,rev?*%
%TF.SameCoordinates,Original*%
%TF.FileFunction,Paste,Top*%
%TF.FilePolarity,Positive*%
%FSLAX46Y46*%
G04 Gerber Fmt 4.6, Leading zero omitted, Abs format (unit mm)*
G04 Created by KiCad (PCBNEW (5.1.9)-1) date 2022-01-25 19:09:39*
%MOMM*%
%LPD*%
G01*
G04 APERTURE LIST*
%ADD10R,2.000000X1.500000*%
%ADD11R,2.000000X3.800000*%
%ADD12R,1.200000X0.900000*%
G04 APERTURE END LIST*
%TO.C,U2*%
G36*
G01*
X139930000Y-91590000D02*
X139930000Y-91290000D01*
G75*
G02*
X140080000Y-91140000I150000J0D01*
G01*
X141730000Y-91140000D01*
G75*
G02*
X141880000Y-91290000I0J-150000D01*
G01*
X141880000Y-91590000D01*
G75*
G02*
X141730000Y-91740000I-150000J0D01*
G01*
X140080000Y-91740000D01*
G75*
G02*
X139930000Y-91590000I0J150000D01*
G01*
G37*
G36*
G01*
X139930000Y-92860000D02*
X139930000Y-92560000D01*
G75*
G02*
X140080000Y-92410000I150000J0D01*
G01*
X141730000Y-92410000D01*
G75*
G02*
X141880000Y-92560000I0J-150000D01*
G01*
X141880000Y-92860000D01*
G75*
G02*
X141730000Y-93010000I-150000J0D01*
G01*
X140080000Y-93010000D01*
G75*
G02*
X139930000Y-92860000I0J150000D01*
G01*
G37*
G36*
G01*
X139930000Y-94130000D02*
X139930000Y-93830000D01*
G75*
G02*
X140080000Y-93680000I150000J0D01*
G01*
X141730000Y-93680000D01*
G75*
G02*
X141880000Y-93830000I0J-150000D01*
G01*
X141880000Y-94130000D01*
G75*
G02*
X141730000Y-94280000I-150000J0D01*
G01*
X140080000Y-94280000D01*
G75*
G02*
X139930000Y-94130000I0J150000D01*
G01*
G37*
G36*
G01*
X139930000Y-95400000D02*
X139930000Y-95100000D01*
G75*
G02*
X140080000Y-94950000I150000J0D01*
G01*
X141730000Y-94950000D01*
G75*
G02*
X141880000Y-95100000I0J-150000D01*
G01*
X141880000Y-95400000D01*
G75*
G02*
X141730000Y-95550000I-150000J0D01*
G01*
X140080000Y-95550000D01*
G75*
G02*
X139930000Y-95400000I0J150000D01*
G01*
G37*
G36*
G01*
X139930000Y-96670000D02*
X139930000Y-96370000D01*
G75*
G02*
X140080000Y-96220000I150000J0D01*
G01*
X141730000Y-96220000D01*
G75*
G02*
X141880000Y-96370000I0J-150000D01*
G01*
X141880000Y-96670000D01*
G75*
G02*
X141730000Y-96820000I-150000J0D01*
G01*
X140080000Y-96820000D01*
G75*
G02*
X139930000Y-96670000I0J150000D01*
G01*
G37*
G36*
G01*
X139930000Y-97940000D02*
X139930000Y-97640000D01*
G75*
G02*
X140080000Y-97490000I150000J0D01*
G01*
X141730000Y-97490000D01*
G75*
G02*
X141880000Y-97640000I0J-150000D01*
G01*
X141880000Y-97940000D01*
G75*
G02*
X141730000Y-98090000I-150000J0D01*
G01*
X140080000Y-98090000D01*
G75*
G02*
X139930000Y-97940000I0J150000D01*
G01*
G37*
G36*
G01*
X139930000Y-99210000D02*
X139930000Y-98910000D01*
G75*
G02*
X140080000Y-98760000I150000J0D01*
G01*
X141730000Y-98760000D01*
G75*
G02*
X141880000Y-98910000I0J-150000D01*
G01*
X141880000Y-99210000D01*
G75*
G02*
X141730000Y-99360000I-150000J0D01*
G01*
X140080000Y-99360000D01*
G75*
G02*
X139930000Y-99210000I0J150000D01*
G01*
G37*
G36*
G01*
X134980000Y-99210000D02*
X134980000Y-98910000D01*
G75*
G02*
X135130000Y-98760000I150000J0D01*
G01*
X136780000Y-98760000D01*
G75*
G02*
X136930000Y-98910000I0J-150000D01*
G01*
X136930000Y-99210000D01*
G75*
G02*
X136780000Y-99360000I-150000J0D01*
G01*
X135130000Y-99360000D01*
G75*
G02*
X134980000Y-99210000I0J150000D01*
G01*
G37*
G36*
G01*
X134980000Y-97940000D02*
X134980000Y-97640000D01*
G75*
G02*
X135130000Y-97490000I150000J0D01*
G01*
X136780000Y-97490000D01*
G75*
G02*
X136930000Y-97640000I0J-150000D01*
G01*
X136930000Y-97940000D01*
G75*
G02*
X136780000Y-98090000I-150000J0D01*
G01*
X135130000Y-98090000D01*
G75*
G02*
X134980000Y-97940000I0J150000D01*
G01*
G37*
G36*
G01*
X134980000Y-96670000D02*
X134980000Y-96370000D01*
G75*
G02*
X135130000Y-96220000I150000J0D01*
G01*
X136780000Y-96220000D01*
G75*
G02*
X136930000Y-96370000I0J-150000D01*
G01*
X136930000Y-96670000D01*
G75*
G02*
X136780000Y-96820000I-150000J0D01*
G01*
X135130000Y-96820000D01*
G75*
G02*
X134980000Y-96670000I0J150000D01*
G01*
G37*
G36*
G01*
X134980000Y-95400000D02*
X134980000Y-95100000D01*
G75*
G02*
X135130000Y-94950000I150000J0D01*
G01*
X136780000Y-94950000D01*
G75*
G02*
X136930000Y-95100000I0J-150000D01*
G01*
X136930000Y-95400000D01*
G75*
G02*
X136780000Y-95550000I-150000J0D01*
G01*
X135130000Y-95550000D01*
G75*
G02*
X134980000Y-95400000I0J150000D01*
G01*
G37*
G36*
G01*
X134980000Y-94130000D02*
X134980000Y-93830000D01*
G75*
G02*
X135130000Y-93680000I150000J0D01*
G01*
X136780000Y-93680000D01*
G75*
G02*
X136930000Y-93830000I0J-150000D01*
G01*
X136930000Y-94130000D01*
G75*
G02*
X136780000Y-94280000I-150000J0D01*
G01*
X135130000Y-94280000D01*
G75*
G02*
X134980000Y-94130000I0J150000D01*
G01*
G37*
G36*
G01*
X134980000Y-92860000D02*
X134980000Y-92560000D01*
G75*
G02*
X135130000Y-92410000I150000J0D01*
G01*
X136780000Y-92410000D01*
G75*
G02*
X136930000Y-92560000I0J-150000D01*
G01*
X136930000Y-92860000D01*
G75*
G02*
X136780000Y-93010000I-150000J0D01*
G01*
X135130000Y-93010000D01*
G75*
G02*
X134980000Y-92860000I0J150000D01*
G01*
G37*
G36*
G01*
X134980000Y-91590000D02*
X134980000Y-91290000D01*
G75*
G02*
X135130000Y-91140000I150000J0D01*
G01*
X136780000Y-91140000D01*
G75*
G02*
X136930000Y-91290000I0J-150000D01*
G01*
X136930000Y-91590000D01*
G75*
G02*
X136780000Y-91740000I-150000J0D01*
G01*
X135130000Y-91740000D01*
G75*
G02*
X134980000Y-91590000I0J150000D01*
G01*
G37*
%TD*%
D10*
%TO.C,U1*%
X143485000Y-82310000D03*
X143485000Y-77710000D03*
X143485000Y-80010000D03*
D11*
X137185000Y-80010000D03*
%TD*%
%TO.C,R1*%
G36*
G01*
X144154999Y-96150000D02*
X145405001Y-96150000D01*
G75*
G02*
X145655000Y-96399999I0J-249999D01*
G01*
X145655000Y-97025001D01*
G75*
G02*
X145405001Y-97275000I-249999J0D01*
G01*
X144154999Y-97275000D01*
G75*
G02*
X143905000Y-97025001I0J249999D01*
G01*
X143905000Y-96399999D01*
G75*
G02*
X144154999Y-96150000I249999J0D01*
G01*
G37*
G36*
G01*
X144154999Y-93225000D02*
X145405001Y-93225000D01*
G75*
G02*
X145655000Y-93474999I0J-249999D01*
G01*
X145655000Y-94100001D01*
G75*
G02*
X145405001Y-94350000I-249999J0D01*
G01*
X144154999Y-94350000D01*
G75*
G02*
X143905000Y-94100001I0J249999D01*
G01*
X143905000Y-93474999D01*
G75*
G02*
X144154999Y-93225000I249999J0D01*
G01*
G37*
%TD*%
D12*
%TO.C,D1*%
X147955000Y-81025000D03*
X147955000Y-77725000D03*
%TD*%
%TO.C,C2*%
G36*
G01*
X138880000Y-86835000D02*
X138880000Y-85885000D01*
G75*
G02*
X139130000Y-85635000I250000J0D01*
G01*
X139630000Y-85635000D01*
G75*
G02*
X139880000Y-85885000I0J-250000D01*
G01*
X139880000Y-86835000D01*
G75*
G02*
X139630000Y-87085000I-250000J0D01*
G01*
X139130000Y-87085000D01*
G75*
G02*
X138880000Y-86835000I0J250000D01*
G01*
G37*
G36*
G01*
X136980000Y-86835000D02*
X136980000Y-85885000D01*
G75*
G02*
X137230000Y-85635000I250000J0D01*
G01*
X137730000Y-85635000D01*
G75*
G02*
X137980000Y-85885000I0J-250000D01*
G01*
X137980000Y-86835000D01*
G75*
G02*
X137730000Y-87085000I-250000J0D01*
G01*
X137230000Y-87085000D01*
G75*
G02*
X136980000Y-86835000I0J250000D01*
G01*
G37*
%TD*%
%TO.C,C1*%
G36*
G01*
X132875000Y-80460000D02*
X133825000Y-80460000D01*
G75*
G02*
X134075000Y-80710000I0J-250000D01*
G01*
X134075000Y-81210000D01*
G75*
G02*
X133825000Y-81460000I-250000J0D01*
G01*
X132875000Y-81460000D01*
G75*
G02*
X132625000Y-81210000I0J250000D01*
G01*
X132625000Y-80710000D01*
G75*
G02*
X132875000Y-80460000I250000J0D01*
G01*
G37*
G36*
G01*
X132875000Y-78560000D02*
X133825000Y-78560000D01*
G75*
G02*
X134075000Y-78810000I0J-250000D01*
G01*
X134075000Y-79310000D01*
G75*
G02*
X133825000Y-79560000I-250000J0D01*
G01*
X132875000Y-79560000D01*
G75*
G02*
X132625000Y-79310000I0J250000D01*
G01*
X132625000Y-78810000D01*
G75*
G02*
X132875000Y-78560000I250000J0D01*
G01*
G37*
%TD*%
M02*
