%TF.GenerationSoftware,KiCad,Pcbnew,6.0.7-f9a2dced07~116~ubuntu22.04.1*%
%TF.CreationDate,2022-09-10T20:20:37-04:00*%
%TF.ProjectId,gimbal,67696d62-616c-42e6-9b69-6361645f7063,rev?*%
%TF.SameCoordinates,Original*%
%TF.FileFunction,Legend,Top*%
%TF.FilePolarity,Positive*%
%FSLAX46Y46*%
G04 Gerber Fmt 4.6, Leading zero omitted, Abs format (unit mm)*
G04 Created by KiCad (PCBNEW 6.0.7-f9a2dced07~116~ubuntu22.04.1) date 2022-09-10 20:20:37*
%MOMM*%
%LPD*%
G01*
G04 APERTURE LIST*
%ADD10C,0.150000*%
%ADD11C,0.300000*%
%ADD12C,0.120000*%
G04 APERTURE END LIST*
D10*
X123112785Y-74761380D02*
X122636595Y-74761380D01*
X122588976Y-75237571D01*
X122636595Y-75189952D01*
X122731833Y-75142333D01*
X122969928Y-75142333D01*
X123065166Y-75189952D01*
X123112785Y-75237571D01*
X123160404Y-75332809D01*
X123160404Y-75570904D01*
X123112785Y-75666142D01*
X123065166Y-75713761D01*
X122969928Y-75761380D01*
X122731833Y-75761380D01*
X122636595Y-75713761D01*
X122588976Y-75666142D01*
X123588976Y-75380428D02*
X124350880Y-75380428D01*
X124731833Y-74761380D02*
X125398500Y-74761380D01*
X124969928Y-75761380D01*
X125779452Y-75666142D02*
X125827071Y-75713761D01*
X125779452Y-75761380D01*
X125731833Y-75713761D01*
X125779452Y-75666142D01*
X125779452Y-75761380D01*
X126208023Y-74856619D02*
X126255642Y-74809000D01*
X126350880Y-74761380D01*
X126588976Y-74761380D01*
X126684214Y-74809000D01*
X126731833Y-74856619D01*
X126779452Y-74951857D01*
X126779452Y-75047095D01*
X126731833Y-75189952D01*
X126160404Y-75761380D01*
X126779452Y-75761380D01*
X127065166Y-74761380D02*
X127398500Y-75761380D01*
X127731833Y-74761380D01*
X128827071Y-75761380D02*
X128827071Y-74761380D01*
X129303261Y-75761380D02*
X129303261Y-74761380D01*
X129874690Y-75761380D01*
X129874690Y-74761380D01*
X130350880Y-75761380D02*
X130350880Y-74761380D01*
X130731833Y-74761380D01*
X130827071Y-74809000D01*
X130874690Y-74856619D01*
X130922309Y-74951857D01*
X130922309Y-75094714D01*
X130874690Y-75189952D01*
X130827071Y-75237571D01*
X130731833Y-75285190D01*
X130350880Y-75285190D01*
X131350880Y-74761380D02*
X131350880Y-75570904D01*
X131398500Y-75666142D01*
X131446119Y-75713761D01*
X131541357Y-75761380D01*
X131731833Y-75761380D01*
X131827071Y-75713761D01*
X131874690Y-75666142D01*
X131922309Y-75570904D01*
X131922309Y-74761380D01*
X132255642Y-74761380D02*
X132827071Y-74761380D01*
X132541357Y-75761380D02*
X132541357Y-74761380D01*
X122541357Y-76371380D02*
X123208023Y-77371380D01*
X123208023Y-76371380D02*
X122541357Y-77371380D01*
X124303261Y-77323761D02*
X124446119Y-77371380D01*
X124684214Y-77371380D01*
X124779452Y-77323761D01*
X124827071Y-77276142D01*
X124874690Y-77180904D01*
X124874690Y-77085666D01*
X124827071Y-76990428D01*
X124779452Y-76942809D01*
X124684214Y-76895190D01*
X124493738Y-76847571D01*
X124398500Y-76799952D01*
X124350880Y-76752333D01*
X124303261Y-76657095D01*
X124303261Y-76561857D01*
X124350880Y-76466619D01*
X124398500Y-76419000D01*
X124493738Y-76371380D01*
X124731833Y-76371380D01*
X124874690Y-76419000D01*
X125684214Y-77323761D02*
X125588976Y-77371380D01*
X125398500Y-77371380D01*
X125303261Y-77323761D01*
X125255642Y-77228523D01*
X125255642Y-76847571D01*
X125303261Y-76752333D01*
X125398500Y-76704714D01*
X125588976Y-76704714D01*
X125684214Y-76752333D01*
X125731833Y-76847571D01*
X125731833Y-76942809D01*
X125255642Y-77038047D01*
X126160404Y-77371380D02*
X126160404Y-76704714D01*
X126160404Y-76895190D02*
X126208023Y-76799952D01*
X126255642Y-76752333D01*
X126350880Y-76704714D01*
X126446119Y-76704714D01*
X126684214Y-76704714D02*
X126922309Y-77371380D01*
X127160404Y-76704714D01*
X127684214Y-77371380D02*
X127588976Y-77323761D01*
X127541357Y-77276142D01*
X127493738Y-77180904D01*
X127493738Y-76895190D01*
X127541357Y-76799952D01*
X127588976Y-76752333D01*
X127684214Y-76704714D01*
X127827071Y-76704714D01*
X127922309Y-76752333D01*
X127969928Y-76799952D01*
X128017547Y-76895190D01*
X128017547Y-77180904D01*
X127969928Y-77276142D01*
X127922309Y-77323761D01*
X127827071Y-77371380D01*
X127684214Y-77371380D01*
X129208023Y-76990428D02*
X129969928Y-76990428D01*
X131398500Y-76371380D02*
X131493738Y-76371380D01*
X131588976Y-76419000D01*
X131636595Y-76466619D01*
X131684214Y-76561857D01*
X131731833Y-76752333D01*
X131731833Y-76990428D01*
X131684214Y-77180904D01*
X131636595Y-77276142D01*
X131588976Y-77323761D01*
X131493738Y-77371380D01*
X131398500Y-77371380D01*
X131303261Y-77323761D01*
X131255642Y-77276142D01*
X131208023Y-77180904D01*
X131160404Y-76990428D01*
X131160404Y-76752333D01*
X131208023Y-76561857D01*
X131255642Y-76466619D01*
X131303261Y-76419000D01*
X131398500Y-76371380D01*
X122827071Y-78505190D02*
X122827071Y-78981380D01*
X122493738Y-77981380D02*
X122827071Y-78505190D01*
X123160404Y-77981380D01*
X124208023Y-78933761D02*
X124350880Y-78981380D01*
X124588976Y-78981380D01*
X124684214Y-78933761D01*
X124731833Y-78886142D01*
X124779452Y-78790904D01*
X124779452Y-78695666D01*
X124731833Y-78600428D01*
X124684214Y-78552809D01*
X124588976Y-78505190D01*
X124398500Y-78457571D01*
X124303261Y-78409952D01*
X124255642Y-78362333D01*
X124208023Y-78267095D01*
X124208023Y-78171857D01*
X124255642Y-78076619D01*
X124303261Y-78029000D01*
X124398500Y-77981380D01*
X124636595Y-77981380D01*
X124779452Y-78029000D01*
X125588976Y-78933761D02*
X125493738Y-78981380D01*
X125303261Y-78981380D01*
X125208023Y-78933761D01*
X125160404Y-78838523D01*
X125160404Y-78457571D01*
X125208023Y-78362333D01*
X125303261Y-78314714D01*
X125493738Y-78314714D01*
X125588976Y-78362333D01*
X125636595Y-78457571D01*
X125636595Y-78552809D01*
X125160404Y-78648047D01*
X126065166Y-78981380D02*
X126065166Y-78314714D01*
X126065166Y-78505190D02*
X126112785Y-78409952D01*
X126160404Y-78362333D01*
X126255642Y-78314714D01*
X126350880Y-78314714D01*
X126588976Y-78314714D02*
X126827071Y-78981380D01*
X127065166Y-78314714D01*
X127588976Y-78981380D02*
X127493738Y-78933761D01*
X127446119Y-78886142D01*
X127398500Y-78790904D01*
X127398500Y-78505190D01*
X127446119Y-78409952D01*
X127493738Y-78362333D01*
X127588976Y-78314714D01*
X127731833Y-78314714D01*
X127827071Y-78362333D01*
X127874690Y-78409952D01*
X127922309Y-78505190D01*
X127922309Y-78790904D01*
X127874690Y-78886142D01*
X127827071Y-78933761D01*
X127731833Y-78981380D01*
X127588976Y-78981380D01*
X129112785Y-78600428D02*
X129874690Y-78600428D01*
X131636595Y-78981380D02*
X131065166Y-78981380D01*
X131350880Y-78981380D02*
X131350880Y-77981380D01*
X131255642Y-78124238D01*
X131160404Y-78219476D01*
X131065166Y-78267095D01*
X122636595Y-79591380D02*
X122636595Y-80400904D01*
X122684214Y-80496142D01*
X122731833Y-80543761D01*
X122827071Y-80591380D01*
X123017547Y-80591380D01*
X123112785Y-80543761D01*
X123160404Y-80496142D01*
X123208023Y-80400904D01*
X123208023Y-79591380D01*
X123636595Y-80305666D02*
X124112785Y-80305666D01*
X123541357Y-80591380D02*
X123874690Y-79591380D01*
X124208023Y-80591380D01*
X125112785Y-80591380D02*
X124779452Y-80115190D01*
X124541357Y-80591380D02*
X124541357Y-79591380D01*
X124922309Y-79591380D01*
X125017547Y-79639000D01*
X125065166Y-79686619D01*
X125112785Y-79781857D01*
X125112785Y-79924714D01*
X125065166Y-80019952D01*
X125017547Y-80067571D01*
X124922309Y-80115190D01*
X124541357Y-80115190D01*
X125398500Y-79591380D02*
X125969928Y-79591380D01*
X125684214Y-80591380D02*
X125684214Y-79591380D01*
X126969928Y-79591380D02*
X127588976Y-79591380D01*
X127255642Y-79972333D01*
X127398500Y-79972333D01*
X127493738Y-80019952D01*
X127541357Y-80067571D01*
X127588976Y-80162809D01*
X127588976Y-80400904D01*
X127541357Y-80496142D01*
X127493738Y-80543761D01*
X127398500Y-80591380D01*
X127112785Y-80591380D01*
X127017547Y-80543761D01*
X126969928Y-80496142D01*
X128017547Y-80496142D02*
X128065166Y-80543761D01*
X128017547Y-80591380D01*
X127969928Y-80543761D01*
X128017547Y-80496142D01*
X128017547Y-80591380D01*
X128398500Y-79591380D02*
X129017547Y-79591380D01*
X128684214Y-79972333D01*
X128827071Y-79972333D01*
X128922309Y-80019952D01*
X128969928Y-80067571D01*
X129017547Y-80162809D01*
X129017547Y-80400904D01*
X128969928Y-80496142D01*
X128922309Y-80543761D01*
X128827071Y-80591380D01*
X128541357Y-80591380D01*
X128446119Y-80543761D01*
X128398500Y-80496142D01*
X129303261Y-79591380D02*
X129636595Y-80591380D01*
X129969928Y-79591380D01*
X131541357Y-80591380D02*
X131065166Y-80591380D01*
X131065166Y-79591380D01*
X132017547Y-80591380D02*
X131922309Y-80543761D01*
X131874690Y-80496142D01*
X131827071Y-80400904D01*
X131827071Y-80115190D01*
X131874690Y-80019952D01*
X131922309Y-79972333D01*
X132017547Y-79924714D01*
X132160404Y-79924714D01*
X132255642Y-79972333D01*
X132303261Y-80019952D01*
X132350880Y-80115190D01*
X132350880Y-80400904D01*
X132303261Y-80496142D01*
X132255642Y-80543761D01*
X132160404Y-80591380D01*
X132017547Y-80591380D01*
X133208023Y-79924714D02*
X133208023Y-80734238D01*
X133160404Y-80829476D01*
X133112785Y-80877095D01*
X133017547Y-80924714D01*
X132874690Y-80924714D01*
X132779452Y-80877095D01*
X133208023Y-80543761D02*
X133112785Y-80591380D01*
X132922309Y-80591380D01*
X132827071Y-80543761D01*
X132779452Y-80496142D01*
X132731833Y-80400904D01*
X132731833Y-80115190D01*
X132779452Y-80019952D01*
X132827071Y-79972333D01*
X132922309Y-79924714D01*
X133112785Y-79924714D01*
X133208023Y-79972333D01*
X133684214Y-80591380D02*
X133684214Y-79924714D01*
X133684214Y-79591380D02*
X133636595Y-79639000D01*
X133684214Y-79686619D01*
X133731833Y-79639000D01*
X133684214Y-79591380D01*
X133684214Y-79686619D01*
X134588976Y-80543761D02*
X134493738Y-80591380D01*
X134303261Y-80591380D01*
X134208023Y-80543761D01*
X134160404Y-80496142D01*
X134112785Y-80400904D01*
X134112785Y-80115190D01*
X134160404Y-80019952D01*
X134208023Y-79972333D01*
X134303261Y-79924714D01*
X134493738Y-79924714D01*
X134588976Y-79972333D01*
X135065166Y-80543761D02*
X135065166Y-80591380D01*
X135017547Y-80686619D01*
X134969928Y-80734238D01*
X136112785Y-79591380D02*
X136684214Y-79591380D01*
X136398500Y-80591380D02*
X136398500Y-79591380D01*
X136922309Y-79591380D02*
X137588976Y-80591380D01*
X137588976Y-79591380D02*
X136922309Y-80591380D01*
X138922309Y-79591380D02*
X139112785Y-79591380D01*
X139208023Y-79639000D01*
X139303261Y-79734238D01*
X139350880Y-79924714D01*
X139350880Y-80258047D01*
X139303261Y-80448523D01*
X139208023Y-80543761D01*
X139112785Y-80591380D01*
X138922309Y-80591380D01*
X138827071Y-80543761D01*
X138731833Y-80448523D01*
X138684214Y-80258047D01*
X138684214Y-79924714D01*
X138731833Y-79734238D01*
X138827071Y-79639000D01*
X138922309Y-79591380D01*
X139779452Y-79924714D02*
X139779452Y-80591380D01*
X139779452Y-80019952D02*
X139827071Y-79972333D01*
X139922309Y-79924714D01*
X140065166Y-79924714D01*
X140160404Y-79972333D01*
X140208023Y-80067571D01*
X140208023Y-80591380D01*
X140827071Y-80591380D02*
X140731833Y-80543761D01*
X140684214Y-80448523D01*
X140684214Y-79591380D01*
X141112785Y-79924714D02*
X141350880Y-80591380D01*
X141588976Y-79924714D02*
X141350880Y-80591380D01*
X141255642Y-80829476D01*
X141208023Y-80877095D01*
X141112785Y-80924714D01*
X140247619Y-92237761D02*
X139438095Y-92237761D01*
X139342857Y-92285380D01*
X139295238Y-92333000D01*
X139247619Y-92428238D01*
X139247619Y-92618714D01*
X139295238Y-92713952D01*
X139342857Y-92761571D01*
X139438095Y-92809190D01*
X140247619Y-92809190D01*
X139533333Y-93237761D02*
X139533333Y-93713952D01*
X139247619Y-93142523D02*
X140247619Y-93475857D01*
X139247619Y-93809190D01*
X139247619Y-94713952D02*
X139723809Y-94380619D01*
X139247619Y-94142523D02*
X140247619Y-94142523D01*
X140247619Y-94523476D01*
X140200000Y-94618714D01*
X140152380Y-94666333D01*
X140057142Y-94713952D01*
X139914285Y-94713952D01*
X139819047Y-94666333D01*
X139771428Y-94618714D01*
X139723809Y-94523476D01*
X139723809Y-94142523D01*
X140247619Y-94999666D02*
X140247619Y-95571095D01*
X139247619Y-95285380D02*
X140247619Y-95285380D01*
X121642619Y-125039380D02*
X121642619Y-124039380D01*
X122023571Y-124039380D01*
X122118809Y-124087000D01*
X122166428Y-124134619D01*
X122214047Y-124229857D01*
X122214047Y-124372714D01*
X122166428Y-124467952D01*
X122118809Y-124515571D01*
X122023571Y-124563190D01*
X121642619Y-124563190D01*
X122833095Y-124039380D02*
X123023571Y-124039380D01*
X123118809Y-124087000D01*
X123214047Y-124182238D01*
X123261666Y-124372714D01*
X123261666Y-124706047D01*
X123214047Y-124896523D01*
X123118809Y-124991761D01*
X123023571Y-125039380D01*
X122833095Y-125039380D01*
X122737857Y-124991761D01*
X122642619Y-124896523D01*
X122595000Y-124706047D01*
X122595000Y-124372714D01*
X122642619Y-124182238D01*
X122737857Y-124087000D01*
X122833095Y-124039380D01*
X123595000Y-124039380D02*
X123833095Y-125039380D01*
X124023571Y-124325095D01*
X124214047Y-125039380D01*
X124452142Y-124039380D01*
X124833095Y-124515571D02*
X125166428Y-124515571D01*
X125309285Y-125039380D02*
X124833095Y-125039380D01*
X124833095Y-124039380D01*
X125309285Y-124039380D01*
X126309285Y-125039380D02*
X125975952Y-124563190D01*
X125737857Y-125039380D02*
X125737857Y-124039380D01*
X126118809Y-124039380D01*
X126214047Y-124087000D01*
X126261666Y-124134619D01*
X126309285Y-124229857D01*
X126309285Y-124372714D01*
X126261666Y-124467952D01*
X126214047Y-124515571D01*
X126118809Y-124563190D01*
X125737857Y-124563190D01*
X127499761Y-125039380D02*
X127499761Y-124039380D01*
X127975952Y-125039380D02*
X127975952Y-124039380D01*
X128547380Y-125039380D01*
X128547380Y-124039380D01*
X125547380Y-119933404D02*
X124547380Y-119933404D01*
X124547380Y-119552452D01*
X124595000Y-119457214D01*
X124642619Y-119409595D01*
X124737857Y-119361976D01*
X124880714Y-119361976D01*
X124975952Y-119409595D01*
X125023571Y-119457214D01*
X125071190Y-119552452D01*
X125071190Y-119933404D01*
X124547380Y-119028642D02*
X125547380Y-118790547D01*
X124833095Y-118600071D01*
X125547380Y-118409595D01*
X124547380Y-118171500D01*
X125547380Y-117219119D02*
X125071190Y-117552452D01*
X125547380Y-117790547D02*
X124547380Y-117790547D01*
X124547380Y-117409595D01*
X124595000Y-117314357D01*
X124642619Y-117266738D01*
X124737857Y-117219119D01*
X124880714Y-117219119D01*
X124975952Y-117266738D01*
X125023571Y-117314357D01*
X125071190Y-117409595D01*
X125071190Y-117790547D01*
X127135000Y-119409595D02*
X127087380Y-119504833D01*
X127087380Y-119647690D01*
X127135000Y-119790547D01*
X127230238Y-119885785D01*
X127325476Y-119933404D01*
X127515952Y-119981023D01*
X127658809Y-119981023D01*
X127849285Y-119933404D01*
X127944523Y-119885785D01*
X128039761Y-119790547D01*
X128087380Y-119647690D01*
X128087380Y-119552452D01*
X128039761Y-119409595D01*
X127992142Y-119361976D01*
X127658809Y-119361976D01*
X127658809Y-119552452D01*
X128087380Y-118933404D02*
X127087380Y-118933404D01*
X128087380Y-118361976D01*
X127087380Y-118361976D01*
X128087380Y-117885785D02*
X127087380Y-117885785D01*
X127087380Y-117647690D01*
X127135000Y-117504833D01*
X127230238Y-117409595D01*
X127325476Y-117361976D01*
X127515952Y-117314357D01*
X127658809Y-117314357D01*
X127849285Y-117361976D01*
X127944523Y-117409595D01*
X128039761Y-117504833D01*
X128087380Y-117647690D01*
X128087380Y-117885785D01*
X122055000Y-119409595D02*
X122007380Y-119504833D01*
X122007380Y-119647690D01*
X122055000Y-119790547D01*
X122150238Y-119885785D01*
X122245476Y-119933404D01*
X122435952Y-119981023D01*
X122578809Y-119981023D01*
X122769285Y-119933404D01*
X122864523Y-119885785D01*
X122959761Y-119790547D01*
X123007380Y-119647690D01*
X123007380Y-119552452D01*
X122959761Y-119409595D01*
X122912142Y-119361976D01*
X122578809Y-119361976D01*
X122578809Y-119552452D01*
X123007380Y-118933404D02*
X122007380Y-118933404D01*
X123007380Y-118361976D01*
X122007380Y-118361976D01*
X123007380Y-117885785D02*
X122007380Y-117885785D01*
X122007380Y-117647690D01*
X122055000Y-117504833D01*
X122150238Y-117409595D01*
X122245476Y-117361976D01*
X122435952Y-117314357D01*
X122578809Y-117314357D01*
X122769285Y-117361976D01*
X122864523Y-117409595D01*
X122959761Y-117504833D01*
X123007380Y-117647690D01*
X123007380Y-117885785D01*
X171536380Y-119933404D02*
X170536380Y-119933404D01*
X170536380Y-119552452D01*
X170584000Y-119457214D01*
X170631619Y-119409595D01*
X170726857Y-119361976D01*
X170869714Y-119361976D01*
X170964952Y-119409595D01*
X171012571Y-119457214D01*
X171060190Y-119552452D01*
X171060190Y-119933404D01*
X170536380Y-119028642D02*
X171536380Y-118790547D01*
X170822095Y-118600071D01*
X171536380Y-118409595D01*
X170536380Y-118171500D01*
X171536380Y-117219119D02*
X171060190Y-117552452D01*
X171536380Y-117790547D02*
X170536380Y-117790547D01*
X170536380Y-117409595D01*
X170584000Y-117314357D01*
X170631619Y-117266738D01*
X170726857Y-117219119D01*
X170869714Y-117219119D01*
X170964952Y-117266738D01*
X171012571Y-117314357D01*
X171060190Y-117409595D01*
X171060190Y-117790547D01*
X168322095Y-124563190D02*
X168322095Y-125039380D01*
X167988761Y-124039380D02*
X168322095Y-124563190D01*
X168655428Y-124039380D01*
X169703047Y-124991761D02*
X169845904Y-125039380D01*
X170084000Y-125039380D01*
X170179238Y-124991761D01*
X170226857Y-124944142D01*
X170274476Y-124848904D01*
X170274476Y-124753666D01*
X170226857Y-124658428D01*
X170179238Y-124610809D01*
X170084000Y-124563190D01*
X169893523Y-124515571D01*
X169798285Y-124467952D01*
X169750666Y-124420333D01*
X169703047Y-124325095D01*
X169703047Y-124229857D01*
X169750666Y-124134619D01*
X169798285Y-124087000D01*
X169893523Y-124039380D01*
X170131619Y-124039380D01*
X170274476Y-124087000D01*
X170703047Y-124515571D02*
X171036380Y-124515571D01*
X171179238Y-125039380D02*
X170703047Y-125039380D01*
X170703047Y-124039380D01*
X171179238Y-124039380D01*
X172179238Y-125039380D02*
X171845904Y-124563190D01*
X171607809Y-125039380D02*
X171607809Y-124039380D01*
X171988761Y-124039380D01*
X172084000Y-124087000D01*
X172131619Y-124134619D01*
X172179238Y-124229857D01*
X172179238Y-124372714D01*
X172131619Y-124467952D01*
X172084000Y-124515571D01*
X171988761Y-124563190D01*
X171607809Y-124563190D01*
X172464952Y-124039380D02*
X172798285Y-125039380D01*
X173131619Y-124039380D01*
X173655428Y-124039380D02*
X173845904Y-124039380D01*
X173941142Y-124087000D01*
X174036380Y-124182238D01*
X174084000Y-124372714D01*
X174084000Y-124706047D01*
X174036380Y-124896523D01*
X173941142Y-124991761D01*
X173845904Y-125039380D01*
X173655428Y-125039380D01*
X173560190Y-124991761D01*
X173464952Y-124896523D01*
X173417333Y-124706047D01*
X173417333Y-124372714D01*
X173464952Y-124182238D01*
X173560190Y-124087000D01*
X173655428Y-124039380D01*
X158082761Y-124039380D02*
X158749428Y-125039380D01*
X158749428Y-124039380D02*
X158082761Y-125039380D01*
X159844666Y-124991761D02*
X159987523Y-125039380D01*
X160225619Y-125039380D01*
X160320857Y-124991761D01*
X160368476Y-124944142D01*
X160416095Y-124848904D01*
X160416095Y-124753666D01*
X160368476Y-124658428D01*
X160320857Y-124610809D01*
X160225619Y-124563190D01*
X160035142Y-124515571D01*
X159939904Y-124467952D01*
X159892285Y-124420333D01*
X159844666Y-124325095D01*
X159844666Y-124229857D01*
X159892285Y-124134619D01*
X159939904Y-124087000D01*
X160035142Y-124039380D01*
X160273238Y-124039380D01*
X160416095Y-124087000D01*
X160844666Y-124515571D02*
X161178000Y-124515571D01*
X161320857Y-125039380D02*
X160844666Y-125039380D01*
X160844666Y-124039380D01*
X161320857Y-124039380D01*
X162320857Y-125039380D02*
X161987523Y-124563190D01*
X161749428Y-125039380D02*
X161749428Y-124039380D01*
X162130380Y-124039380D01*
X162225619Y-124087000D01*
X162273238Y-124134619D01*
X162320857Y-124229857D01*
X162320857Y-124372714D01*
X162273238Y-124467952D01*
X162225619Y-124515571D01*
X162130380Y-124563190D01*
X161749428Y-124563190D01*
X162606571Y-124039380D02*
X162939904Y-125039380D01*
X163273238Y-124039380D01*
X163797047Y-124039380D02*
X163987523Y-124039380D01*
X164082761Y-124087000D01*
X164178000Y-124182238D01*
X164225619Y-124372714D01*
X164225619Y-124706047D01*
X164178000Y-124896523D01*
X164082761Y-124991761D01*
X163987523Y-125039380D01*
X163797047Y-125039380D01*
X163701809Y-124991761D01*
X163606571Y-124896523D01*
X163558952Y-124706047D01*
X163558952Y-124372714D01*
X163606571Y-124182238D01*
X163701809Y-124087000D01*
X163797047Y-124039380D01*
X168044000Y-119409595D02*
X167996380Y-119504833D01*
X167996380Y-119647690D01*
X168044000Y-119790547D01*
X168139238Y-119885785D01*
X168234476Y-119933404D01*
X168424952Y-119981023D01*
X168567809Y-119981023D01*
X168758285Y-119933404D01*
X168853523Y-119885785D01*
X168948761Y-119790547D01*
X168996380Y-119647690D01*
X168996380Y-119552452D01*
X168948761Y-119409595D01*
X168901142Y-119361976D01*
X168567809Y-119361976D01*
X168567809Y-119552452D01*
X168996380Y-118933404D02*
X167996380Y-118933404D01*
X168996380Y-118361976D01*
X167996380Y-118361976D01*
X168996380Y-117885785D02*
X167996380Y-117885785D01*
X167996380Y-117647690D01*
X168044000Y-117504833D01*
X168139238Y-117409595D01*
X168234476Y-117361976D01*
X168424952Y-117314357D01*
X168567809Y-117314357D01*
X168758285Y-117361976D01*
X168853523Y-117409595D01*
X168948761Y-117504833D01*
X168996380Y-117647690D01*
X168996380Y-117885785D01*
X158138000Y-119409595D02*
X158090380Y-119504833D01*
X158090380Y-119647690D01*
X158138000Y-119790547D01*
X158233238Y-119885785D01*
X158328476Y-119933404D01*
X158518952Y-119981023D01*
X158661809Y-119981023D01*
X158852285Y-119933404D01*
X158947523Y-119885785D01*
X159042761Y-119790547D01*
X159090380Y-119647690D01*
X159090380Y-119552452D01*
X159042761Y-119409595D01*
X158995142Y-119361976D01*
X158661809Y-119361976D01*
X158661809Y-119552452D01*
X159090380Y-118933404D02*
X158090380Y-118933404D01*
X159090380Y-118361976D01*
X158090380Y-118361976D01*
X159090380Y-117885785D02*
X158090380Y-117885785D01*
X158090380Y-117647690D01*
X158138000Y-117504833D01*
X158233238Y-117409595D01*
X158328476Y-117361976D01*
X158518952Y-117314357D01*
X158661809Y-117314357D01*
X158852285Y-117361976D01*
X158947523Y-117409595D01*
X159042761Y-117504833D01*
X159090380Y-117647690D01*
X159090380Y-117885785D01*
X164122761Y-119981023D02*
X164170380Y-119838166D01*
X164170380Y-119600071D01*
X164122761Y-119504833D01*
X164075142Y-119457214D01*
X163979904Y-119409595D01*
X163884666Y-119409595D01*
X163789428Y-119457214D01*
X163741809Y-119504833D01*
X163694190Y-119600071D01*
X163646571Y-119790547D01*
X163598952Y-119885785D01*
X163551333Y-119933404D01*
X163456095Y-119981023D01*
X163360857Y-119981023D01*
X163265619Y-119933404D01*
X163218000Y-119885785D01*
X163170380Y-119790547D01*
X163170380Y-119552452D01*
X163218000Y-119409595D01*
X164170380Y-118981023D02*
X163170380Y-118981023D01*
X163218000Y-117981023D02*
X163170380Y-118076261D01*
X163170380Y-118219119D01*
X163218000Y-118361976D01*
X163313238Y-118457214D01*
X163408476Y-118504833D01*
X163598952Y-118552452D01*
X163741809Y-118552452D01*
X163932285Y-118504833D01*
X164027523Y-118457214D01*
X164122761Y-118361976D01*
X164170380Y-118219119D01*
X164170380Y-118123880D01*
X164122761Y-117981023D01*
X164075142Y-117933404D01*
X163741809Y-117933404D01*
X163741809Y-118123880D01*
X174013761Y-119981023D02*
X174061380Y-119838166D01*
X174061380Y-119600071D01*
X174013761Y-119504833D01*
X173966142Y-119457214D01*
X173870904Y-119409595D01*
X173775666Y-119409595D01*
X173680428Y-119457214D01*
X173632809Y-119504833D01*
X173585190Y-119600071D01*
X173537571Y-119790547D01*
X173489952Y-119885785D01*
X173442333Y-119933404D01*
X173347095Y-119981023D01*
X173251857Y-119981023D01*
X173156619Y-119933404D01*
X173109000Y-119885785D01*
X173061380Y-119790547D01*
X173061380Y-119552452D01*
X173109000Y-119409595D01*
X174061380Y-118981023D02*
X173061380Y-118981023D01*
X173109000Y-117981023D02*
X173061380Y-118076261D01*
X173061380Y-118219119D01*
X173109000Y-118361976D01*
X173204238Y-118457214D01*
X173299476Y-118504833D01*
X173489952Y-118552452D01*
X173632809Y-118552452D01*
X173823285Y-118504833D01*
X173918523Y-118457214D01*
X174013761Y-118361976D01*
X174061380Y-118219119D01*
X174061380Y-118123880D01*
X174013761Y-117981023D01*
X173966142Y-117933404D01*
X173632809Y-117933404D01*
X173632809Y-118123880D01*
X160790238Y-91241571D02*
X160933095Y-91289190D01*
X160980714Y-91336809D01*
X161028333Y-91432047D01*
X161028333Y-91574904D01*
X160980714Y-91670142D01*
X160933095Y-91717761D01*
X160837857Y-91765380D01*
X160456904Y-91765380D01*
X160456904Y-90765380D01*
X160790238Y-90765380D01*
X160885476Y-90813000D01*
X160933095Y-90860619D01*
X160980714Y-90955857D01*
X160980714Y-91051095D01*
X160933095Y-91146333D01*
X160885476Y-91193952D01*
X160790238Y-91241571D01*
X160456904Y-91241571D01*
X161456904Y-91765380D02*
X161456904Y-90765380D01*
X162028333Y-91765380D01*
X162028333Y-90765380D01*
X162695000Y-90765380D02*
X162885476Y-90765380D01*
X162980714Y-90813000D01*
X163075952Y-90908238D01*
X163123571Y-91098714D01*
X163123571Y-91432047D01*
X163075952Y-91622523D01*
X162980714Y-91717761D01*
X162885476Y-91765380D01*
X162695000Y-91765380D01*
X162599761Y-91717761D01*
X162504523Y-91622523D01*
X162456904Y-91432047D01*
X162456904Y-91098714D01*
X162504523Y-90908238D01*
X162599761Y-90813000D01*
X162695000Y-90765380D01*
X163742619Y-90765380D02*
X163837857Y-90765380D01*
X163933095Y-90813000D01*
X163980714Y-90860619D01*
X164028333Y-90955857D01*
X164075952Y-91146333D01*
X164075952Y-91384428D01*
X164028333Y-91574904D01*
X163980714Y-91670142D01*
X163933095Y-91717761D01*
X163837857Y-91765380D01*
X163742619Y-91765380D01*
X163647380Y-91717761D01*
X163599761Y-91670142D01*
X163552142Y-91574904D01*
X163504523Y-91384428D01*
X163504523Y-91146333D01*
X163552142Y-90955857D01*
X163599761Y-90860619D01*
X163647380Y-90813000D01*
X163742619Y-90765380D01*
X164980714Y-90765380D02*
X164504523Y-90765380D01*
X164456904Y-91241571D01*
X164504523Y-91193952D01*
X164599761Y-91146333D01*
X164837857Y-91146333D01*
X164933095Y-91193952D01*
X164980714Y-91241571D01*
X165028333Y-91336809D01*
X165028333Y-91574904D01*
X164980714Y-91670142D01*
X164933095Y-91717761D01*
X164837857Y-91765380D01*
X164599761Y-91765380D01*
X164504523Y-91717761D01*
X164456904Y-91670142D01*
X165933095Y-90765380D02*
X165456904Y-90765380D01*
X165409285Y-91241571D01*
X165456904Y-91193952D01*
X165552142Y-91146333D01*
X165790238Y-91146333D01*
X165885476Y-91193952D01*
X165933095Y-91241571D01*
X165980714Y-91336809D01*
X165980714Y-91574904D01*
X165933095Y-91670142D01*
X165885476Y-91717761D01*
X165790238Y-91765380D01*
X165552142Y-91765380D01*
X165456904Y-91717761D01*
X165409285Y-91670142D01*
X126823452Y-99020380D02*
X127442500Y-99020380D01*
X127109166Y-99401333D01*
X127252023Y-99401333D01*
X127347261Y-99448952D01*
X127394880Y-99496571D01*
X127442500Y-99591809D01*
X127442500Y-99829904D01*
X127394880Y-99925142D01*
X127347261Y-99972761D01*
X127252023Y-100020380D01*
X126966309Y-100020380D01*
X126871071Y-99972761D01*
X126823452Y-99925142D01*
X127728214Y-99020380D02*
X128061547Y-100020380D01*
X128394880Y-99020380D01*
X128632976Y-99020380D02*
X129252023Y-99020380D01*
X128918690Y-99401333D01*
X129061547Y-99401333D01*
X129156785Y-99448952D01*
X129204404Y-99496571D01*
X129252023Y-99591809D01*
X129252023Y-99829904D01*
X129204404Y-99925142D01*
X129156785Y-99972761D01*
X129061547Y-100020380D01*
X128775833Y-100020380D01*
X128680595Y-99972761D01*
X128632976Y-99925142D01*
X127156785Y-96528000D02*
X127061547Y-96480380D01*
X126918690Y-96480380D01*
X126775833Y-96528000D01*
X126680595Y-96623238D01*
X126632976Y-96718476D01*
X126585357Y-96908952D01*
X126585357Y-97051809D01*
X126632976Y-97242285D01*
X126680595Y-97337523D01*
X126775833Y-97432761D01*
X126918690Y-97480380D01*
X127013928Y-97480380D01*
X127156785Y-97432761D01*
X127204404Y-97385142D01*
X127204404Y-97051809D01*
X127013928Y-97051809D01*
X127632976Y-97480380D02*
X127632976Y-96480380D01*
X128204404Y-97480380D01*
X128204404Y-96480380D01*
X128680595Y-97480380D02*
X128680595Y-96480380D01*
X128918690Y-96480380D01*
X129061547Y-96528000D01*
X129156785Y-96623238D01*
X129204404Y-96718476D01*
X129252023Y-96908952D01*
X129252023Y-97051809D01*
X129204404Y-97242285D01*
X129156785Y-97337523D01*
X129061547Y-97432761D01*
X128918690Y-97480380D01*
X128680595Y-97480380D01*
X126156785Y-101560380D02*
X126156785Y-102369904D01*
X126204404Y-102465142D01*
X126252023Y-102512761D01*
X126347261Y-102560380D01*
X126537738Y-102560380D01*
X126632976Y-102512761D01*
X126680595Y-102465142D01*
X126728214Y-102369904D01*
X126728214Y-101560380D01*
X127204404Y-102560380D02*
X127204404Y-101560380D01*
X127585357Y-101560380D01*
X127680595Y-101608000D01*
X127728214Y-101655619D01*
X127775833Y-101750857D01*
X127775833Y-101893714D01*
X127728214Y-101988952D01*
X127680595Y-102036571D01*
X127585357Y-102084190D01*
X127204404Y-102084190D01*
X128204404Y-102560380D02*
X128204404Y-101560380D01*
X128442500Y-101560380D01*
X128585357Y-101608000D01*
X128680595Y-101703238D01*
X128728214Y-101798476D01*
X128775833Y-101988952D01*
X128775833Y-102131809D01*
X128728214Y-102322285D01*
X128680595Y-102417523D01*
X128585357Y-102512761D01*
X128442500Y-102560380D01*
X128204404Y-102560380D01*
X129204404Y-102560380D02*
X129204404Y-101560380D01*
X161630380Y-119933404D02*
X160630380Y-119933404D01*
X160630380Y-119552452D01*
X160678000Y-119457214D01*
X160725619Y-119409595D01*
X160820857Y-119361976D01*
X160963714Y-119361976D01*
X161058952Y-119409595D01*
X161106571Y-119457214D01*
X161154190Y-119552452D01*
X161154190Y-119933404D01*
X160630380Y-119028642D02*
X161630380Y-118790547D01*
X160916095Y-118600071D01*
X161630380Y-118409595D01*
X160630380Y-118171500D01*
X161630380Y-117219119D02*
X161154190Y-117552452D01*
X161630380Y-117790547D02*
X160630380Y-117790547D01*
X160630380Y-117409595D01*
X160678000Y-117314357D01*
X160725619Y-117266738D01*
X160820857Y-117219119D01*
X160963714Y-117219119D01*
X161058952Y-117266738D01*
X161106571Y-117314357D01*
X161154190Y-117409595D01*
X161154190Y-117790547D01*
X144877404Y-91936000D02*
X144782166Y-91888380D01*
X144639309Y-91888380D01*
X144496452Y-91936000D01*
X144401214Y-92031238D01*
X144353595Y-92126476D01*
X144305976Y-92316952D01*
X144305976Y-92459809D01*
X144353595Y-92650285D01*
X144401214Y-92745523D01*
X144496452Y-92840761D01*
X144639309Y-92888380D01*
X144734547Y-92888380D01*
X144877404Y-92840761D01*
X144925023Y-92793142D01*
X144925023Y-92459809D01*
X144734547Y-92459809D01*
X145353595Y-92888380D02*
X145353595Y-91888380D01*
X145925023Y-92888380D01*
X145925023Y-91888380D01*
X146401214Y-92888380D02*
X146401214Y-91888380D01*
X146639309Y-91888380D01*
X146782166Y-91936000D01*
X146877404Y-92031238D01*
X146925023Y-92126476D01*
X146972642Y-92316952D01*
X146972642Y-92459809D01*
X146925023Y-92650285D01*
X146877404Y-92745523D01*
X146782166Y-92840761D01*
X146639309Y-92888380D01*
X146401214Y-92888380D01*
X144337738Y-94555380D02*
X144909166Y-94555380D01*
X144623452Y-95555380D02*
X144623452Y-94555380D01*
X145147261Y-94555380D02*
X145813928Y-95555380D01*
X145813928Y-94555380D02*
X145147261Y-95555380D01*
D11*
X124273809Y-63725000D02*
X124083333Y-63629761D01*
X123797619Y-63629761D01*
X123511904Y-63725000D01*
X123321428Y-63915476D01*
X123226190Y-64105952D01*
X123130952Y-64486904D01*
X123130952Y-64772619D01*
X123226190Y-65153571D01*
X123321428Y-65344047D01*
X123511904Y-65534523D01*
X123797619Y-65629761D01*
X123988095Y-65629761D01*
X124273809Y-65534523D01*
X124369047Y-65439285D01*
X124369047Y-64772619D01*
X123988095Y-64772619D01*
X125226190Y-65629761D02*
X125226190Y-64296428D01*
X125226190Y-63629761D02*
X125130952Y-63725000D01*
X125226190Y-63820238D01*
X125321428Y-63725000D01*
X125226190Y-63629761D01*
X125226190Y-63820238D01*
X126178571Y-65629761D02*
X126178571Y-64296428D01*
X126178571Y-64486904D02*
X126273809Y-64391666D01*
X126464285Y-64296428D01*
X126750000Y-64296428D01*
X126940476Y-64391666D01*
X127035714Y-64582142D01*
X127035714Y-65629761D01*
X127035714Y-64582142D02*
X127130952Y-64391666D01*
X127321428Y-64296428D01*
X127607142Y-64296428D01*
X127797619Y-64391666D01*
X127892857Y-64582142D01*
X127892857Y-65629761D01*
X128845238Y-65629761D02*
X128845238Y-63629761D01*
X128845238Y-64391666D02*
X129035714Y-64296428D01*
X129416666Y-64296428D01*
X129607142Y-64391666D01*
X129702380Y-64486904D01*
X129797619Y-64677380D01*
X129797619Y-65248809D01*
X129702380Y-65439285D01*
X129607142Y-65534523D01*
X129416666Y-65629761D01*
X129035714Y-65629761D01*
X128845238Y-65534523D01*
X131511904Y-65629761D02*
X131511904Y-64582142D01*
X131416666Y-64391666D01*
X131226190Y-64296428D01*
X130845238Y-64296428D01*
X130654761Y-64391666D01*
X131511904Y-65534523D02*
X131321428Y-65629761D01*
X130845238Y-65629761D01*
X130654761Y-65534523D01*
X130559523Y-65344047D01*
X130559523Y-65153571D01*
X130654761Y-64963095D01*
X130845238Y-64867857D01*
X131321428Y-64867857D01*
X131511904Y-64772619D01*
X132750000Y-65629761D02*
X132559523Y-65534523D01*
X132464285Y-65344047D01*
X132464285Y-63629761D01*
X134940476Y-65534523D02*
X135226190Y-65629761D01*
X135702380Y-65629761D01*
X135892857Y-65534523D01*
X135988095Y-65439285D01*
X136083333Y-65248809D01*
X136083333Y-65058333D01*
X135988095Y-64867857D01*
X135892857Y-64772619D01*
X135702380Y-64677380D01*
X135321428Y-64582142D01*
X135130952Y-64486904D01*
X135035714Y-64391666D01*
X134940476Y-64201190D01*
X134940476Y-64010714D01*
X135035714Y-63820238D01*
X135130952Y-63725000D01*
X135321428Y-63629761D01*
X135797619Y-63629761D01*
X136083333Y-63725000D01*
X137702380Y-65534523D02*
X137511904Y-65629761D01*
X137130952Y-65629761D01*
X136940476Y-65534523D01*
X136845238Y-65344047D01*
X136845238Y-64582142D01*
X136940476Y-64391666D01*
X137130952Y-64296428D01*
X137511904Y-64296428D01*
X137702380Y-64391666D01*
X137797619Y-64582142D01*
X137797619Y-64772619D01*
X136845238Y-64963095D01*
X138654761Y-65629761D02*
X138654761Y-64296428D01*
X138654761Y-64677380D02*
X138750000Y-64486904D01*
X138845238Y-64391666D01*
X139035714Y-64296428D01*
X139226190Y-64296428D01*
X139702380Y-64296428D02*
X140178571Y-65629761D01*
X140654761Y-64296428D01*
X141702380Y-65629761D02*
X141511904Y-65534523D01*
X141416666Y-65439285D01*
X141321428Y-65248809D01*
X141321428Y-64677380D01*
X141416666Y-64486904D01*
X141511904Y-64391666D01*
X141702380Y-64296428D01*
X141988095Y-64296428D01*
X142178571Y-64391666D01*
X142273809Y-64486904D01*
X142369047Y-64677380D01*
X142369047Y-65248809D01*
X142273809Y-65439285D01*
X142178571Y-65534523D01*
X141988095Y-65629761D01*
X141702380Y-65629761D01*
X145892857Y-65439285D02*
X145797619Y-65534523D01*
X145511904Y-65629761D01*
X145321428Y-65629761D01*
X145035714Y-65534523D01*
X144845238Y-65344047D01*
X144750000Y-65153571D01*
X144654761Y-64772619D01*
X144654761Y-64486904D01*
X144750000Y-64105952D01*
X144845238Y-63915476D01*
X145035714Y-63725000D01*
X145321428Y-63629761D01*
X145511904Y-63629761D01*
X145797619Y-63725000D01*
X145892857Y-63820238D01*
X147035714Y-65629761D02*
X146845238Y-65534523D01*
X146750000Y-65439285D01*
X146654761Y-65248809D01*
X146654761Y-64677380D01*
X146750000Y-64486904D01*
X146845238Y-64391666D01*
X147035714Y-64296428D01*
X147321428Y-64296428D01*
X147511904Y-64391666D01*
X147607142Y-64486904D01*
X147702380Y-64677380D01*
X147702380Y-65248809D01*
X147607142Y-65439285D01*
X147511904Y-65534523D01*
X147321428Y-65629761D01*
X147035714Y-65629761D01*
X148559523Y-64296428D02*
X148559523Y-65629761D01*
X148559523Y-64486904D02*
X148654761Y-64391666D01*
X148845238Y-64296428D01*
X149130952Y-64296428D01*
X149321428Y-64391666D01*
X149416666Y-64582142D01*
X149416666Y-65629761D01*
X150083333Y-64296428D02*
X150845238Y-64296428D01*
X150369047Y-63629761D02*
X150369047Y-65344047D01*
X150464285Y-65534523D01*
X150654761Y-65629761D01*
X150845238Y-65629761D01*
X151511904Y-65629761D02*
X151511904Y-64296428D01*
X151511904Y-64677380D02*
X151607142Y-64486904D01*
X151702380Y-64391666D01*
X151892857Y-64296428D01*
X152083333Y-64296428D01*
X153035714Y-65629761D02*
X152845238Y-65534523D01*
X152750000Y-65439285D01*
X152654761Y-65248809D01*
X152654761Y-64677380D01*
X152750000Y-64486904D01*
X152845238Y-64391666D01*
X153035714Y-64296428D01*
X153321428Y-64296428D01*
X153511904Y-64391666D01*
X153607142Y-64486904D01*
X153702380Y-64677380D01*
X153702380Y-65248809D01*
X153607142Y-65439285D01*
X153511904Y-65534523D01*
X153321428Y-65629761D01*
X153035714Y-65629761D01*
X154845238Y-65629761D02*
X154654761Y-65534523D01*
X154559523Y-65344047D01*
X154559523Y-63629761D01*
X123130952Y-68278333D02*
X124083333Y-68278333D01*
X122940476Y-68849761D02*
X123607142Y-66849761D01*
X124273809Y-68849761D01*
X125226190Y-68849761D02*
X125035714Y-68754523D01*
X124940476Y-68564047D01*
X124940476Y-66849761D01*
X126845238Y-68849761D02*
X126845238Y-67802142D01*
X126750000Y-67611666D01*
X126559523Y-67516428D01*
X126178571Y-67516428D01*
X125988095Y-67611666D01*
X126845238Y-68754523D02*
X126654761Y-68849761D01*
X126178571Y-68849761D01*
X125988095Y-68754523D01*
X125892857Y-68564047D01*
X125892857Y-68373571D01*
X125988095Y-68183095D01*
X126178571Y-68087857D01*
X126654761Y-68087857D01*
X126845238Y-67992619D01*
X127797619Y-67516428D02*
X127797619Y-68849761D01*
X127797619Y-67706904D02*
X127892857Y-67611666D01*
X128083333Y-67516428D01*
X128369047Y-67516428D01*
X128559523Y-67611666D01*
X128654761Y-67802142D01*
X128654761Y-68849761D01*
X131130952Y-68849761D02*
X131130952Y-66849761D01*
X131130952Y-67802142D02*
X132273809Y-67802142D01*
X132273809Y-68849761D02*
X132273809Y-66849761D01*
X133226190Y-68659285D02*
X133321428Y-68754523D01*
X133226190Y-68849761D01*
X133130952Y-68754523D01*
X133226190Y-68659285D01*
X133226190Y-68849761D01*
X123035714Y-70736428D02*
X123511904Y-72069761D01*
X123988095Y-70736428D01*
X124654761Y-70260238D02*
X124750000Y-70165000D01*
X124940476Y-70069761D01*
X125416666Y-70069761D01*
X125607142Y-70165000D01*
X125702380Y-70260238D01*
X125797619Y-70450714D01*
X125797619Y-70641190D01*
X125702380Y-70926904D01*
X124559523Y-72069761D01*
X125797619Y-72069761D01*
D10*
%TO.C,D1*%
X140025380Y-114657095D02*
X139025380Y-114657095D01*
X139025380Y-114419000D01*
X139073000Y-114276142D01*
X139168238Y-114180904D01*
X139263476Y-114133285D01*
X139453952Y-114085666D01*
X139596809Y-114085666D01*
X139787285Y-114133285D01*
X139882523Y-114180904D01*
X139977761Y-114276142D01*
X140025380Y-114419000D01*
X140025380Y-114657095D01*
X140025380Y-113133285D02*
X140025380Y-113704714D01*
X140025380Y-113419000D02*
X139025380Y-113419000D01*
X139168238Y-113514238D01*
X139263476Y-113609476D01*
X139311095Y-113704714D01*
%TO.C,C2*%
X139676142Y-108751666D02*
X139723761Y-108799285D01*
X139771380Y-108942142D01*
X139771380Y-109037380D01*
X139723761Y-109180238D01*
X139628523Y-109275476D01*
X139533285Y-109323095D01*
X139342809Y-109370714D01*
X139199952Y-109370714D01*
X139009476Y-109323095D01*
X138914238Y-109275476D01*
X138819000Y-109180238D01*
X138771380Y-109037380D01*
X138771380Y-108942142D01*
X138819000Y-108799285D01*
X138866619Y-108751666D01*
X138866619Y-108370714D02*
X138819000Y-108323095D01*
X138771380Y-108227857D01*
X138771380Y-107989761D01*
X138819000Y-107894523D01*
X138866619Y-107846904D01*
X138961857Y-107799285D01*
X139057095Y-107799285D01*
X139199952Y-107846904D01*
X139771380Y-108418333D01*
X139771380Y-107799285D01*
%TO.C,C1*%
X131532333Y-119004142D02*
X131484714Y-119051761D01*
X131341857Y-119099380D01*
X131246619Y-119099380D01*
X131103761Y-119051761D01*
X131008523Y-118956523D01*
X130960904Y-118861285D01*
X130913285Y-118670809D01*
X130913285Y-118527952D01*
X130960904Y-118337476D01*
X131008523Y-118242238D01*
X131103761Y-118147000D01*
X131246619Y-118099380D01*
X131341857Y-118099380D01*
X131484714Y-118147000D01*
X131532333Y-118194619D01*
X132484714Y-119099380D02*
X131913285Y-119099380D01*
X132199000Y-119099380D02*
X132199000Y-118099380D01*
X132103761Y-118242238D01*
X132008523Y-118337476D01*
X131913285Y-118385095D01*
%TO.C,U2*%
X144907095Y-110650380D02*
X144907095Y-111459904D01*
X144954714Y-111555142D01*
X145002333Y-111602761D01*
X145097571Y-111650380D01*
X145288047Y-111650380D01*
X145383285Y-111602761D01*
X145430904Y-111555142D01*
X145478523Y-111459904D01*
X145478523Y-110650380D01*
X145907095Y-110745619D02*
X145954714Y-110698000D01*
X146049952Y-110650380D01*
X146288047Y-110650380D01*
X146383285Y-110698000D01*
X146430904Y-110745619D01*
X146478523Y-110840857D01*
X146478523Y-110936095D01*
X146430904Y-111078952D01*
X145859476Y-111650380D01*
X146478523Y-111650380D01*
%TO.C,J2*%
X129667190Y-94135380D02*
X129667190Y-94944904D01*
X129714809Y-95040142D01*
X129762428Y-95087761D01*
X129857666Y-95135380D01*
X130048142Y-95135380D01*
X130143380Y-95087761D01*
X130191000Y-95040142D01*
X130238619Y-94944904D01*
X130238619Y-94135380D01*
X130714809Y-95135380D02*
X130714809Y-94135380D01*
X131095761Y-94135380D01*
X131191000Y-94183000D01*
X131238619Y-94230619D01*
X131286238Y-94325857D01*
X131286238Y-94468714D01*
X131238619Y-94563952D01*
X131191000Y-94611571D01*
X131095761Y-94659190D01*
X130714809Y-94659190D01*
X131714809Y-95135380D02*
X131714809Y-94135380D01*
X131952904Y-94135380D01*
X132095761Y-94183000D01*
X132191000Y-94278238D01*
X132238619Y-94373476D01*
X132286238Y-94563952D01*
X132286238Y-94706809D01*
X132238619Y-94897285D01*
X132191000Y-94992523D01*
X132095761Y-95087761D01*
X131952904Y-95135380D01*
X131714809Y-95135380D01*
X132714809Y-95135380D02*
X132714809Y-94135380D01*
%TO.C,J7*%
X171751666Y-84625380D02*
X171751666Y-85339666D01*
X171704047Y-85482523D01*
X171608809Y-85577761D01*
X171465952Y-85625380D01*
X171370714Y-85625380D01*
X172132619Y-84625380D02*
X172799285Y-84625380D01*
X172370714Y-85625380D01*
%TO.C,J3*%
X153971666Y-82085380D02*
X153971666Y-82799666D01*
X153924047Y-82942523D01*
X153828809Y-83037761D01*
X153685952Y-83085380D01*
X153590714Y-83085380D01*
X154352619Y-82085380D02*
X154971666Y-82085380D01*
X154638333Y-82466333D01*
X154781190Y-82466333D01*
X154876428Y-82513952D01*
X154924047Y-82561571D01*
X154971666Y-82656809D01*
X154971666Y-82894904D01*
X154924047Y-82990142D01*
X154876428Y-83037761D01*
X154781190Y-83085380D01*
X154495476Y-83085380D01*
X154400238Y-83037761D01*
X154352619Y-82990142D01*
%TO.C,U1*%
X126833380Y-108076904D02*
X127642904Y-108076904D01*
X127738142Y-108029285D01*
X127785761Y-107981666D01*
X127833380Y-107886428D01*
X127833380Y-107695952D01*
X127785761Y-107600714D01*
X127738142Y-107553095D01*
X127642904Y-107505476D01*
X126833380Y-107505476D01*
X127833380Y-106505476D02*
X127833380Y-107076904D01*
X127833380Y-106791190D02*
X126833380Y-106791190D01*
X126976238Y-106886428D01*
X127071476Y-106981666D01*
X127119095Y-107076904D01*
%TO.C,R1*%
X137628333Y-101375380D02*
X137295000Y-100899190D01*
X137056904Y-101375380D02*
X137056904Y-100375380D01*
X137437857Y-100375380D01*
X137533095Y-100423000D01*
X137580714Y-100470619D01*
X137628333Y-100565857D01*
X137628333Y-100708714D01*
X137580714Y-100803952D01*
X137533095Y-100851571D01*
X137437857Y-100899190D01*
X137056904Y-100899190D01*
X138580714Y-101375380D02*
X138009285Y-101375380D01*
X138295000Y-101375380D02*
X138295000Y-100375380D01*
X138199761Y-100518238D01*
X138104523Y-100613476D01*
X138009285Y-100661095D01*
%TO.C,SW1*%
X137858666Y-118365761D02*
X138001523Y-118413380D01*
X138239619Y-118413380D01*
X138334857Y-118365761D01*
X138382476Y-118318142D01*
X138430095Y-118222904D01*
X138430095Y-118127666D01*
X138382476Y-118032428D01*
X138334857Y-117984809D01*
X138239619Y-117937190D01*
X138049142Y-117889571D01*
X137953904Y-117841952D01*
X137906285Y-117794333D01*
X137858666Y-117699095D01*
X137858666Y-117603857D01*
X137906285Y-117508619D01*
X137953904Y-117461000D01*
X138049142Y-117413380D01*
X138287238Y-117413380D01*
X138430095Y-117461000D01*
X138763428Y-117413380D02*
X139001523Y-118413380D01*
X139192000Y-117699095D01*
X139382476Y-118413380D01*
X139620571Y-117413380D01*
X140525333Y-118413380D02*
X139953904Y-118413380D01*
X140239619Y-118413380D02*
X140239619Y-117413380D01*
X140144380Y-117556238D01*
X140049142Y-117651476D01*
X139953904Y-117699095D01*
X130696833Y-121223380D02*
X130887309Y-121223380D01*
X130982547Y-121271000D01*
X131077785Y-121366238D01*
X131125404Y-121556714D01*
X131125404Y-121890047D01*
X131077785Y-122080523D01*
X130982547Y-122175761D01*
X130887309Y-122223380D01*
X130696833Y-122223380D01*
X130601595Y-122175761D01*
X130506357Y-122080523D01*
X130458738Y-121890047D01*
X130458738Y-121556714D01*
X130506357Y-121366238D01*
X130601595Y-121271000D01*
X130696833Y-121223380D01*
X131553976Y-122223380D02*
X131553976Y-121223380D01*
X132125404Y-122223380D01*
X132125404Y-121223380D01*
X146449071Y-121245380D02*
X146639547Y-121245380D01*
X146734785Y-121293000D01*
X146830023Y-121388238D01*
X146877642Y-121578714D01*
X146877642Y-121912047D01*
X146830023Y-122102523D01*
X146734785Y-122197761D01*
X146639547Y-122245380D01*
X146449071Y-122245380D01*
X146353833Y-122197761D01*
X146258595Y-122102523D01*
X146210976Y-121912047D01*
X146210976Y-121578714D01*
X146258595Y-121388238D01*
X146353833Y-121293000D01*
X146449071Y-121245380D01*
X147639547Y-121721571D02*
X147306214Y-121721571D01*
X147306214Y-122245380D02*
X147306214Y-121245380D01*
X147782404Y-121245380D01*
X148496690Y-121721571D02*
X148163357Y-121721571D01*
X148163357Y-122245380D02*
X148163357Y-121245380D01*
X148639547Y-121245380D01*
%TO.C,H1*%
X151384095Y-118426380D02*
X151384095Y-117426380D01*
X151384095Y-117902571D02*
X151955523Y-117902571D01*
X151955523Y-118426380D02*
X151955523Y-117426380D01*
X152955523Y-118426380D02*
X152384095Y-118426380D01*
X152669809Y-118426380D02*
X152669809Y-117426380D01*
X152574571Y-117569238D01*
X152479333Y-117664476D01*
X152384095Y-117712095D01*
D12*
%TO.C,J4*%
X165033000Y-120590000D02*
X165033000Y-121920000D01*
X163703000Y-120590000D02*
X165033000Y-120590000D01*
X162433000Y-120590000D02*
X162433000Y-123250000D01*
X162433000Y-123250000D02*
X157293000Y-123250000D01*
X162433000Y-120590000D02*
X157293000Y-120590000D01*
X157293000Y-120590000D02*
X157293000Y-123250000D01*
%TO.C,D1*%
X136541000Y-116169000D02*
X138541000Y-116169000D01*
X138541000Y-116169000D02*
X138541000Y-112269000D01*
X136541000Y-116169000D02*
X136541000Y-112269000D01*
%TO.C,C2*%
X138276000Y-108323748D02*
X138276000Y-108846252D01*
X136806000Y-108323748D02*
X136806000Y-108846252D01*
%TO.C,C1*%
X131960252Y-117702000D02*
X131437748Y-117702000D01*
X131960252Y-116232000D02*
X131437748Y-116232000D01*
%TO.C,U2*%
X145669000Y-101483000D02*
X143719000Y-101483000D01*
X145669000Y-101483000D02*
X147619000Y-101483000D01*
X145669000Y-110353000D02*
X143719000Y-110353000D01*
X145669000Y-110353000D02*
X149119000Y-110353000D01*
%TO.C,J2*%
X132521000Y-95683000D02*
X129861000Y-95683000D01*
X132521000Y-100823000D02*
X132521000Y-95683000D01*
X129861000Y-100823000D02*
X129861000Y-95683000D01*
X132521000Y-100823000D02*
X129861000Y-100823000D01*
X132521000Y-102093000D02*
X132521000Y-103423000D01*
X132521000Y-103423000D02*
X131191000Y-103423000D01*
%TO.C,J7*%
X170755000Y-96453000D02*
X173415000Y-96453000D01*
X170755000Y-88773000D02*
X170755000Y-96453000D01*
X173415000Y-88773000D02*
X173415000Y-96453000D01*
X170755000Y-88773000D02*
X173415000Y-88773000D01*
X170755000Y-87503000D02*
X170755000Y-86173000D01*
X170755000Y-86173000D02*
X172085000Y-86173000D01*
%TO.C,J6*%
X174939000Y-120590000D02*
X174939000Y-121920000D01*
X173609000Y-120590000D02*
X174939000Y-120590000D01*
X172339000Y-120590000D02*
X172339000Y-123250000D01*
X172339000Y-123250000D02*
X167199000Y-123250000D01*
X172339000Y-120590000D02*
X167199000Y-120590000D01*
X167199000Y-120590000D02*
X167199000Y-123250000D01*
%TO.C,J5*%
X143697000Y-96326000D02*
X142367000Y-96326000D01*
X143697000Y-94996000D02*
X143697000Y-96326000D01*
X143697000Y-93726000D02*
X141037000Y-93726000D01*
X141037000Y-93726000D02*
X141037000Y-91126000D01*
X143697000Y-93726000D02*
X143697000Y-91126000D01*
X143697000Y-91126000D02*
X141037000Y-91126000D01*
%TO.C,J3*%
X152975000Y-98993000D02*
X155635000Y-98993000D01*
X152975000Y-86233000D02*
X152975000Y-98993000D01*
X155635000Y-86233000D02*
X155635000Y-98993000D01*
X152975000Y-86233000D02*
X155635000Y-86233000D01*
X152975000Y-84963000D02*
X152975000Y-83633000D01*
X152975000Y-83633000D02*
X154305000Y-83633000D01*
%TO.C,U1*%
X135236000Y-108580000D02*
X133976000Y-108580000D01*
X128416000Y-108580000D02*
X129676000Y-108580000D01*
X135236000Y-112340000D02*
X135236000Y-108580000D01*
X128416000Y-114590000D02*
X128416000Y-108580000D01*
%TO.C,R1*%
X137067936Y-101833000D02*
X138522064Y-101833000D01*
X137067936Y-103653000D02*
X138522064Y-103653000D01*
%TO.C,J1*%
X128980000Y-123250000D02*
X128980000Y-120590000D01*
X123840000Y-123250000D02*
X128980000Y-123250000D01*
X122570000Y-123250000D02*
X121240000Y-123250000D01*
X123840000Y-120590000D02*
X128980000Y-120590000D01*
X121240000Y-123250000D02*
X121240000Y-121920000D01*
X123840000Y-123250000D02*
X123840000Y-120590000D01*
%TO.C,SW1*%
X132842000Y-125311000D02*
X145542000Y-125311000D01*
%TD*%
M02*
