%TF.GenerationSoftware,KiCad,Pcbnew,6.0.7-f9a2dced07~116~ubuntu22.04.1*%
%TF.CreationDate,2022-09-10T20:20:37-04:00*%
%TF.ProjectId,gimbal,67696d62-616c-42e6-9b69-6361645f7063,rev?*%
%TF.SameCoordinates,Original*%
%TF.FileFunction,Copper,L2,Bot*%
%TF.FilePolarity,Positive*%
%FSLAX46Y46*%
G04 Gerber Fmt 4.6, Leading zero omitted, Abs format (unit mm)*
G04 Created by KiCad (PCBNEW 6.0.7-f9a2dced07~116~ubuntu22.04.1) date 2022-09-10 20:20:37*
%MOMM*%
%LPD*%
G01*
G04 APERTURE LIST*
%TA.AperFunction,ComponentPad*%
%ADD10R,1.700000X1.700000*%
%TD*%
%TA.AperFunction,ComponentPad*%
%ADD11O,1.700000X1.700000*%
%TD*%
%TA.AperFunction,ViaPad*%
%ADD12C,0.800000*%
%TD*%
%TA.AperFunction,Conductor*%
%ADD13C,0.508000*%
%TD*%
%TA.AperFunction,Conductor*%
%ADD14C,0.381000*%
%TD*%
G04 APERTURE END LIST*
D10*
%TO.P,J4,1,Pin_1*%
%TO.N,/Servo_X*%
X163703000Y-121920000D03*
D11*
%TO.P,J4,2,Pin_2*%
%TO.N,VCC*%
X161163000Y-121920000D03*
%TO.P,J4,3,Pin_3*%
%TO.N,GND*%
X158623000Y-121920000D03*
%TD*%
%TO.P,J2,3,Pin_3*%
%TO.N,GND*%
X131191000Y-97013000D03*
%TO.P,J2,2,Pin_2*%
%TO.N,+3V3*%
X131191000Y-99553000D03*
D10*
%TO.P,J2,1,Pin_1*%
%TO.N,/UPDI*%
X131191000Y-102093000D03*
%TD*%
D11*
%TO.P,J7,4,Pin_4*%
%TO.N,unconnected-(J7-Pad4)*%
X172085000Y-95123000D03*
%TO.P,J7,3,Pin_3*%
%TO.N,unconnected-(J7-Pad3)*%
X172085000Y-92583000D03*
%TO.P,J7,2,Pin_2*%
%TO.N,unconnected-(J7-Pad2)*%
X172085000Y-90043000D03*
D10*
%TO.P,J7,1,Pin_1*%
%TO.N,unconnected-(J7-Pad1)*%
X172085000Y-87503000D03*
%TD*%
%TO.P,J6,1,Pin_1*%
%TO.N,/Servo_Y*%
X173609000Y-121920000D03*
D11*
%TO.P,J6,2,Pin_2*%
%TO.N,VCC*%
X171069000Y-121920000D03*
%TO.P,J6,3,Pin_3*%
%TO.N,GND*%
X168529000Y-121920000D03*
%TD*%
D10*
%TO.P,J5,1,Pin_1*%
%TO.N,/TX*%
X142367000Y-94996000D03*
D11*
%TO.P,J5,2,Pin_2*%
%TO.N,GND*%
X142367000Y-92456000D03*
%TD*%
%TO.P,J3,6,Pin_6*%
%TO.N,unconnected-(J3-Pad6)*%
X154305000Y-97663000D03*
%TO.P,J3,5,Pin_5*%
%TO.N,/SCL*%
X154305000Y-95123000D03*
%TO.P,J3,4,Pin_4*%
%TO.N,/SDA*%
X154305000Y-92583000D03*
%TO.P,J3,3,Pin_3*%
%TO.N,GND*%
X154305000Y-90043000D03*
%TO.P,J3,2,Pin_2*%
%TO.N,unconnected-(J3-Pad2)*%
X154305000Y-87503000D03*
D10*
%TO.P,J3,1,Pin_1*%
%TO.N,+3V3*%
X154305000Y-84963000D03*
%TD*%
%TO.P,J1,1,Pin_1*%
%TO.N,GND*%
X122570000Y-121920000D03*
D11*
%TO.P,J1,2,Pin_2*%
%TO.N,Net-(J1-Pad2)*%
X125110000Y-121920000D03*
%TO.P,J1,3,Pin_3*%
%TO.N,GND*%
X127650000Y-121920000D03*
%TD*%
D12*
%TO.N,GND*%
X129526000Y-115744000D03*
X145161000Y-109728000D03*
X135890000Y-109601000D03*
%TO.N,+3V3*%
X157099000Y-109601000D03*
X157099000Y-105791000D03*
%TO.N,/TX*%
X147955000Y-100965000D03*
%TD*%
D13*
%TO.N,+3V3*%
X157099000Y-105791000D02*
X157099000Y-109601000D01*
D14*
%TO.N,/TX*%
X147955000Y-100965000D02*
X147955000Y-100584000D01*
X147955000Y-100584000D02*
X142367000Y-94996000D01*
%TD*%
%TA.AperFunction,Conductor*%
%TO.N,GND*%
G36*
X178083621Y-52004502D02*
G01*
X178130114Y-52058158D01*
X178141500Y-52110500D01*
X178141500Y-124841500D01*
X178121498Y-124909621D01*
X178067842Y-124956114D01*
X178015500Y-124967500D01*
X118284500Y-124967500D01*
X118216379Y-124947498D01*
X118169886Y-124893842D01*
X118158500Y-124841500D01*
X118158500Y-122801504D01*
X121339000Y-122801504D01*
X121339670Y-122810664D01*
X121348598Y-122871313D01*
X121354339Y-122889787D01*
X121401335Y-122985507D01*
X121413295Y-123002212D01*
X121488322Y-123077109D01*
X121505050Y-123089041D01*
X121600860Y-123135873D01*
X121619328Y-123141581D01*
X121679364Y-123150340D01*
X121688463Y-123151000D01*
X122297885Y-123151000D01*
X122313124Y-123146525D01*
X122314329Y-123145135D01*
X122316000Y-123137452D01*
X122316000Y-123132885D01*
X122824000Y-123132885D01*
X122828475Y-123148124D01*
X122829865Y-123149329D01*
X122837548Y-123151000D01*
X123451504Y-123151000D01*
X123460664Y-123150330D01*
X123521313Y-123141402D01*
X123539787Y-123135661D01*
X123635507Y-123088665D01*
X123652212Y-123076705D01*
X123727109Y-123001678D01*
X123739041Y-122984950D01*
X123785873Y-122889140D01*
X123791581Y-122870672D01*
X123801000Y-122806110D01*
X123802200Y-122806285D01*
X123825160Y-122744912D01*
X123882037Y-122702421D01*
X123952858Y-122697426D01*
X124015137Y-122731512D01*
X124021191Y-122738023D01*
X124152654Y-122889787D01*
X124156250Y-122893938D01*
X124328126Y-123036632D01*
X124521000Y-123149338D01*
X124525825Y-123151180D01*
X124525826Y-123151181D01*
X124540538Y-123156799D01*
X124729692Y-123229030D01*
X124734760Y-123230061D01*
X124734763Y-123230062D01*
X124842017Y-123251883D01*
X124948597Y-123273567D01*
X124953772Y-123273757D01*
X124953774Y-123273757D01*
X125166673Y-123281564D01*
X125166677Y-123281564D01*
X125171837Y-123281753D01*
X125176957Y-123281097D01*
X125176959Y-123281097D01*
X125388288Y-123254025D01*
X125388289Y-123254025D01*
X125393416Y-123253368D01*
X125398366Y-123251883D01*
X125602429Y-123190661D01*
X125602434Y-123190659D01*
X125607384Y-123189174D01*
X125807994Y-123090896D01*
X125989860Y-122961173D01*
X126148096Y-122803489D01*
X126199817Y-122731512D01*
X126275435Y-122626277D01*
X126278453Y-122622077D01*
X126280746Y-122617438D01*
X126337482Y-122502641D01*
X126385596Y-122450434D01*
X126454297Y-122432527D01*
X126521773Y-122454605D01*
X126564634Y-122505218D01*
X126577528Y-122532870D01*
X126583006Y-122542356D01*
X126700238Y-122709782D01*
X126707292Y-122718189D01*
X126851811Y-122862708D01*
X126860218Y-122869762D01*
X127027644Y-122986994D01*
X127037130Y-122992472D01*
X127222383Y-123078857D01*
X127232675Y-123082603D01*
X127378503Y-123121678D01*
X127392599Y-123121342D01*
X127396000Y-123113400D01*
X127396000Y-123108251D01*
X127904000Y-123108251D01*
X127907973Y-123121782D01*
X127916522Y-123123011D01*
X128067325Y-123082603D01*
X128077617Y-123078857D01*
X128262870Y-122992472D01*
X128272356Y-122986994D01*
X128439782Y-122869762D01*
X128448189Y-122862708D01*
X128592708Y-122718189D01*
X128599762Y-122709782D01*
X128716994Y-122542356D01*
X128722472Y-122532870D01*
X128808857Y-122347617D01*
X128812603Y-122337325D01*
X128820808Y-122306703D01*
X150036743Y-122306703D01*
X150074268Y-122591734D01*
X150150129Y-122869036D01*
X150151813Y-122872984D01*
X150259769Y-123126081D01*
X150262923Y-123133476D01*
X150274693Y-123153142D01*
X150346148Y-123272534D01*
X150410561Y-123380161D01*
X150590313Y-123604528D01*
X150798851Y-123802423D01*
X151032317Y-123970186D01*
X151036112Y-123972195D01*
X151036113Y-123972196D01*
X151057869Y-123983715D01*
X151286392Y-124104712D01*
X151556373Y-124203511D01*
X151837264Y-124264755D01*
X151865841Y-124267004D01*
X152060282Y-124282307D01*
X152060291Y-124282307D01*
X152062739Y-124282500D01*
X152218271Y-124282500D01*
X152220407Y-124282354D01*
X152220418Y-124282354D01*
X152428548Y-124268165D01*
X152428554Y-124268164D01*
X152432825Y-124267873D01*
X152437020Y-124267004D01*
X152437022Y-124267004D01*
X152573584Y-124238723D01*
X152714342Y-124209574D01*
X152985343Y-124113607D01*
X153240812Y-123981750D01*
X153244313Y-123979289D01*
X153244317Y-123979287D01*
X153358417Y-123899096D01*
X153476023Y-123816441D01*
X153686622Y-123620740D01*
X153868713Y-123398268D01*
X154018927Y-123153142D01*
X154024081Y-123141402D01*
X154132757Y-122893830D01*
X154134483Y-122889898D01*
X154213244Y-122613406D01*
X154251071Y-122347617D01*
X154253146Y-122333036D01*
X154253146Y-122333034D01*
X154253751Y-122328784D01*
X154253845Y-122310951D01*
X154254497Y-122186522D01*
X157419989Y-122186522D01*
X157460397Y-122337325D01*
X157464143Y-122347617D01*
X157550528Y-122532870D01*
X157556006Y-122542356D01*
X157673238Y-122709782D01*
X157680292Y-122718189D01*
X157824811Y-122862708D01*
X157833218Y-122869762D01*
X158000644Y-122986994D01*
X158010130Y-122992472D01*
X158195383Y-123078857D01*
X158205675Y-123082603D01*
X158351503Y-123121678D01*
X158365599Y-123121342D01*
X158369000Y-123113400D01*
X158369000Y-123108251D01*
X158877000Y-123108251D01*
X158880973Y-123121782D01*
X158889522Y-123123011D01*
X159040325Y-123082603D01*
X159050617Y-123078857D01*
X159235870Y-122992472D01*
X159245356Y-122986994D01*
X159412782Y-122869762D01*
X159421189Y-122862708D01*
X159565708Y-122718189D01*
X159572762Y-122709782D01*
X159689994Y-122542356D01*
X159695471Y-122532871D01*
X159706974Y-122508202D01*
X159753891Y-122454916D01*
X159822168Y-122435454D01*
X159890128Y-122455995D01*
X159937912Y-122514044D01*
X159944297Y-122529767D01*
X159946266Y-122534616D01*
X159948965Y-122539020D01*
X160053608Y-122709782D01*
X160062987Y-122725088D01*
X160209250Y-122893938D01*
X160381126Y-123036632D01*
X160574000Y-123149338D01*
X160578825Y-123151180D01*
X160578826Y-123151181D01*
X160593538Y-123156799D01*
X160782692Y-123229030D01*
X160787760Y-123230061D01*
X160787763Y-123230062D01*
X160895017Y-123251883D01*
X161001597Y-123273567D01*
X161006772Y-123273757D01*
X161006774Y-123273757D01*
X161219673Y-123281564D01*
X161219677Y-123281564D01*
X161224837Y-123281753D01*
X161229957Y-123281097D01*
X161229959Y-123281097D01*
X161441288Y-123254025D01*
X161441289Y-123254025D01*
X161446416Y-123253368D01*
X161451366Y-123251883D01*
X161655429Y-123190661D01*
X161655434Y-123190659D01*
X161660384Y-123189174D01*
X161860994Y-123090896D01*
X162042860Y-122961173D01*
X162151091Y-122853319D01*
X162213462Y-122819404D01*
X162284268Y-122824592D01*
X162341030Y-122867238D01*
X162358012Y-122898341D01*
X162402385Y-123016705D01*
X162489739Y-123133261D01*
X162606295Y-123220615D01*
X162742684Y-123271745D01*
X162804866Y-123278500D01*
X164601134Y-123278500D01*
X164663316Y-123271745D01*
X164799705Y-123220615D01*
X164916261Y-123133261D01*
X165003615Y-123016705D01*
X165054745Y-122880316D01*
X165061500Y-122818134D01*
X165061500Y-122186522D01*
X167325989Y-122186522D01*
X167366397Y-122337325D01*
X167370143Y-122347617D01*
X167456528Y-122532870D01*
X167462006Y-122542356D01*
X167579238Y-122709782D01*
X167586292Y-122718189D01*
X167730811Y-122862708D01*
X167739218Y-122869762D01*
X167906644Y-122986994D01*
X167916130Y-122992472D01*
X168101383Y-123078857D01*
X168111675Y-123082603D01*
X168257503Y-123121678D01*
X168271599Y-123121342D01*
X168275000Y-123113400D01*
X168275000Y-123108251D01*
X168783000Y-123108251D01*
X168786973Y-123121782D01*
X168795522Y-123123011D01*
X168946325Y-123082603D01*
X168956617Y-123078857D01*
X169141870Y-122992472D01*
X169151356Y-122986994D01*
X169318782Y-122869762D01*
X169327189Y-122862708D01*
X169471708Y-122718189D01*
X169478762Y-122709782D01*
X169595994Y-122542356D01*
X169601471Y-122532871D01*
X169612974Y-122508202D01*
X169659891Y-122454916D01*
X169728168Y-122435454D01*
X169796128Y-122455995D01*
X169843912Y-122514044D01*
X169850297Y-122529767D01*
X169852266Y-122534616D01*
X169854965Y-122539020D01*
X169959608Y-122709782D01*
X169968987Y-122725088D01*
X170115250Y-122893938D01*
X170287126Y-123036632D01*
X170480000Y-123149338D01*
X170484825Y-123151180D01*
X170484826Y-123151181D01*
X170499538Y-123156799D01*
X170688692Y-123229030D01*
X170693760Y-123230061D01*
X170693763Y-123230062D01*
X170801017Y-123251883D01*
X170907597Y-123273567D01*
X170912772Y-123273757D01*
X170912774Y-123273757D01*
X171125673Y-123281564D01*
X171125677Y-123281564D01*
X171130837Y-123281753D01*
X171135957Y-123281097D01*
X171135959Y-123281097D01*
X171347288Y-123254025D01*
X171347289Y-123254025D01*
X171352416Y-123253368D01*
X171357366Y-123251883D01*
X171561429Y-123190661D01*
X171561434Y-123190659D01*
X171566384Y-123189174D01*
X171766994Y-123090896D01*
X171948860Y-122961173D01*
X172057091Y-122853319D01*
X172119462Y-122819404D01*
X172190268Y-122824592D01*
X172247030Y-122867238D01*
X172264012Y-122898341D01*
X172308385Y-123016705D01*
X172395739Y-123133261D01*
X172512295Y-123220615D01*
X172648684Y-123271745D01*
X172710866Y-123278500D01*
X174507134Y-123278500D01*
X174569316Y-123271745D01*
X174705705Y-123220615D01*
X174822261Y-123133261D01*
X174909615Y-123016705D01*
X174960745Y-122880316D01*
X174967500Y-122818134D01*
X174967500Y-121021866D01*
X174960745Y-120959684D01*
X174909615Y-120823295D01*
X174822261Y-120706739D01*
X174705705Y-120619385D01*
X174569316Y-120568255D01*
X174507134Y-120561500D01*
X172710866Y-120561500D01*
X172648684Y-120568255D01*
X172512295Y-120619385D01*
X172395739Y-120706739D01*
X172308385Y-120823295D01*
X172305233Y-120831703D01*
X172263919Y-120941907D01*
X172221277Y-120998671D01*
X172154716Y-121023371D01*
X172085367Y-121008163D01*
X172052743Y-120982476D01*
X172002151Y-120926875D01*
X172002142Y-120926866D01*
X171998670Y-120923051D01*
X171994619Y-120919852D01*
X171994615Y-120919848D01*
X171827414Y-120787800D01*
X171827410Y-120787798D01*
X171823359Y-120784598D01*
X171627789Y-120676638D01*
X171622920Y-120674914D01*
X171622916Y-120674912D01*
X171422087Y-120603795D01*
X171422083Y-120603794D01*
X171417212Y-120602069D01*
X171412119Y-120601162D01*
X171412116Y-120601161D01*
X171202373Y-120563800D01*
X171202367Y-120563799D01*
X171197284Y-120562894D01*
X171123452Y-120561992D01*
X170979081Y-120560228D01*
X170979079Y-120560228D01*
X170973911Y-120560165D01*
X170753091Y-120593955D01*
X170540756Y-120663357D01*
X170490209Y-120689670D01*
X170419268Y-120726600D01*
X170342607Y-120766507D01*
X170338474Y-120769610D01*
X170338471Y-120769612D01*
X170168100Y-120897530D01*
X170163965Y-120900635D01*
X170124525Y-120941907D01*
X170040949Y-121029364D01*
X170009629Y-121062138D01*
X169883743Y-121246680D01*
X169855683Y-121307130D01*
X169842895Y-121334680D01*
X169796071Y-121388047D01*
X169727828Y-121407628D01*
X169659832Y-121387205D01*
X169614413Y-121334881D01*
X169601475Y-121307135D01*
X169595994Y-121297644D01*
X169478762Y-121130218D01*
X169471708Y-121121811D01*
X169327189Y-120977292D01*
X169318782Y-120970238D01*
X169151356Y-120853006D01*
X169141870Y-120847528D01*
X168956617Y-120761143D01*
X168946325Y-120757397D01*
X168800497Y-120718322D01*
X168786401Y-120718658D01*
X168783000Y-120726600D01*
X168783000Y-123108251D01*
X168275000Y-123108251D01*
X168275000Y-122192115D01*
X168270525Y-122176876D01*
X168269135Y-122175671D01*
X168261452Y-122174000D01*
X167340749Y-122174000D01*
X167327218Y-122177973D01*
X167325989Y-122186522D01*
X165061500Y-122186522D01*
X165061500Y-121648503D01*
X167327322Y-121648503D01*
X167327658Y-121662599D01*
X167335600Y-121666000D01*
X168256885Y-121666000D01*
X168272124Y-121661525D01*
X168273329Y-121660135D01*
X168275000Y-121652452D01*
X168275000Y-120731749D01*
X168271027Y-120718218D01*
X168262478Y-120716989D01*
X168111675Y-120757397D01*
X168101383Y-120761143D01*
X167916130Y-120847528D01*
X167906644Y-120853006D01*
X167739218Y-120970238D01*
X167730811Y-120977292D01*
X167586292Y-121121811D01*
X167579238Y-121130218D01*
X167462006Y-121297644D01*
X167456528Y-121307130D01*
X167370143Y-121492383D01*
X167366397Y-121502675D01*
X167327322Y-121648503D01*
X165061500Y-121648503D01*
X165061500Y-121021866D01*
X165054745Y-120959684D01*
X165003615Y-120823295D01*
X164916261Y-120706739D01*
X164799705Y-120619385D01*
X164663316Y-120568255D01*
X164601134Y-120561500D01*
X162804866Y-120561500D01*
X162742684Y-120568255D01*
X162606295Y-120619385D01*
X162489739Y-120706739D01*
X162402385Y-120823295D01*
X162399233Y-120831703D01*
X162357919Y-120941907D01*
X162315277Y-120998671D01*
X162248716Y-121023371D01*
X162179367Y-121008163D01*
X162146743Y-120982476D01*
X162096151Y-120926875D01*
X162096142Y-120926866D01*
X162092670Y-120923051D01*
X162088619Y-120919852D01*
X162088615Y-120919848D01*
X161921414Y-120787800D01*
X161921410Y-120787798D01*
X161917359Y-120784598D01*
X161721789Y-120676638D01*
X161716920Y-120674914D01*
X161716916Y-120674912D01*
X161516087Y-120603795D01*
X161516083Y-120603794D01*
X161511212Y-120602069D01*
X161506119Y-120601162D01*
X161506116Y-120601161D01*
X161296373Y-120563800D01*
X161296367Y-120563799D01*
X161291284Y-120562894D01*
X161217452Y-120561992D01*
X161073081Y-120560228D01*
X161073079Y-120560228D01*
X161067911Y-120560165D01*
X160847091Y-120593955D01*
X160634756Y-120663357D01*
X160584209Y-120689670D01*
X160513268Y-120726600D01*
X160436607Y-120766507D01*
X160432474Y-120769610D01*
X160432471Y-120769612D01*
X160262100Y-120897530D01*
X160257965Y-120900635D01*
X160218525Y-120941907D01*
X160134949Y-121029364D01*
X160103629Y-121062138D01*
X159977743Y-121246680D01*
X159949683Y-121307130D01*
X159936895Y-121334680D01*
X159890071Y-121388047D01*
X159821828Y-121407628D01*
X159753832Y-121387205D01*
X159708413Y-121334881D01*
X159695475Y-121307135D01*
X159689994Y-121297644D01*
X159572762Y-121130218D01*
X159565708Y-121121811D01*
X159421189Y-120977292D01*
X159412782Y-120970238D01*
X159245356Y-120853006D01*
X159235870Y-120847528D01*
X159050617Y-120761143D01*
X159040325Y-120757397D01*
X158894497Y-120718322D01*
X158880401Y-120718658D01*
X158877000Y-120726600D01*
X158877000Y-123108251D01*
X158369000Y-123108251D01*
X158369000Y-122192115D01*
X158364525Y-122176876D01*
X158363135Y-122175671D01*
X158355452Y-122174000D01*
X157434749Y-122174000D01*
X157421218Y-122177973D01*
X157419989Y-122186522D01*
X154254497Y-122186522D01*
X154255235Y-122045583D01*
X154255235Y-122045576D01*
X154255257Y-122041297D01*
X154217732Y-121756266D01*
X154201618Y-121697361D01*
X154188251Y-121648503D01*
X157421322Y-121648503D01*
X157421658Y-121662599D01*
X157429600Y-121666000D01*
X158350885Y-121666000D01*
X158366124Y-121661525D01*
X158367329Y-121660135D01*
X158369000Y-121652452D01*
X158369000Y-120731749D01*
X158365027Y-120718218D01*
X158356478Y-120716989D01*
X158205675Y-120757397D01*
X158195383Y-120761143D01*
X158010130Y-120847528D01*
X158000644Y-120853006D01*
X157833218Y-120970238D01*
X157824811Y-120977292D01*
X157680292Y-121121811D01*
X157673238Y-121130218D01*
X157556006Y-121297644D01*
X157550528Y-121307130D01*
X157464143Y-121492383D01*
X157460397Y-121502675D01*
X157421322Y-121648503D01*
X154188251Y-121648503D01*
X154188082Y-121647885D01*
X154141871Y-121478964D01*
X154102728Y-121387196D01*
X154030763Y-121218476D01*
X154030761Y-121218472D01*
X154029077Y-121214524D01*
X153913774Y-121021866D01*
X153883643Y-120971521D01*
X153883640Y-120971517D01*
X153881439Y-120967839D01*
X153701687Y-120743472D01*
X153576602Y-120624771D01*
X153496258Y-120548527D01*
X153496255Y-120548525D01*
X153493149Y-120545577D01*
X153259683Y-120377814D01*
X153237843Y-120366250D01*
X153214654Y-120353972D01*
X153005608Y-120243288D01*
X152735627Y-120144489D01*
X152454736Y-120083245D01*
X152423685Y-120080801D01*
X152231718Y-120065693D01*
X152231709Y-120065693D01*
X152229261Y-120065500D01*
X152073729Y-120065500D01*
X152071593Y-120065646D01*
X152071582Y-120065646D01*
X151863452Y-120079835D01*
X151863446Y-120079836D01*
X151859175Y-120080127D01*
X151854980Y-120080996D01*
X151854978Y-120080996D01*
X151718417Y-120109276D01*
X151577658Y-120138426D01*
X151306657Y-120234393D01*
X151051188Y-120366250D01*
X151047687Y-120368711D01*
X151047683Y-120368713D01*
X151037594Y-120375804D01*
X150815977Y-120531559D01*
X150773502Y-120571029D01*
X150614635Y-120718658D01*
X150605378Y-120727260D01*
X150423287Y-120949732D01*
X150273073Y-121194858D01*
X150271347Y-121198791D01*
X150271346Y-121198792D01*
X150161379Y-121449305D01*
X150157517Y-121458102D01*
X150078756Y-121734594D01*
X150038249Y-122019216D01*
X150038227Y-122023505D01*
X150038226Y-122023512D01*
X150036765Y-122302417D01*
X150036743Y-122306703D01*
X128820808Y-122306703D01*
X128851678Y-122191497D01*
X128851342Y-122177401D01*
X128843400Y-122174000D01*
X127922115Y-122174000D01*
X127906876Y-122178475D01*
X127905671Y-122179865D01*
X127904000Y-122187548D01*
X127904000Y-123108251D01*
X127396000Y-123108251D01*
X127396000Y-121647885D01*
X127904000Y-121647885D01*
X127908475Y-121663124D01*
X127909865Y-121664329D01*
X127917548Y-121666000D01*
X128838251Y-121666000D01*
X128851782Y-121662027D01*
X128853011Y-121653478D01*
X128812603Y-121502675D01*
X128808857Y-121492383D01*
X128722472Y-121307130D01*
X128716994Y-121297644D01*
X128599762Y-121130218D01*
X128592708Y-121121811D01*
X128448189Y-120977292D01*
X128439782Y-120970238D01*
X128272356Y-120853006D01*
X128262870Y-120847528D01*
X128077617Y-120761143D01*
X128067325Y-120757397D01*
X127921497Y-120718322D01*
X127907401Y-120718658D01*
X127904000Y-120726600D01*
X127904000Y-121647885D01*
X127396000Y-121647885D01*
X127396000Y-120731749D01*
X127392027Y-120718218D01*
X127383478Y-120716989D01*
X127232675Y-120757397D01*
X127222383Y-120761143D01*
X127037130Y-120847528D01*
X127027644Y-120853006D01*
X126860218Y-120970238D01*
X126851811Y-120977292D01*
X126707292Y-121121811D01*
X126700238Y-121130218D01*
X126583006Y-121297644D01*
X126577528Y-121307131D01*
X126565039Y-121333912D01*
X126518121Y-121387196D01*
X126449843Y-121406656D01*
X126381884Y-121386113D01*
X126335297Y-121330904D01*
X126311354Y-121275840D01*
X126211708Y-121121811D01*
X126192822Y-121092617D01*
X126192820Y-121092614D01*
X126190014Y-121088277D01*
X126039670Y-120923051D01*
X126035619Y-120919852D01*
X126035615Y-120919848D01*
X125868414Y-120787800D01*
X125868410Y-120787798D01*
X125864359Y-120784598D01*
X125668789Y-120676638D01*
X125663920Y-120674914D01*
X125663916Y-120674912D01*
X125463087Y-120603795D01*
X125463083Y-120603794D01*
X125458212Y-120602069D01*
X125453119Y-120601162D01*
X125453116Y-120601161D01*
X125243373Y-120563800D01*
X125243367Y-120563799D01*
X125238284Y-120562894D01*
X125164452Y-120561992D01*
X125020081Y-120560228D01*
X125020079Y-120560228D01*
X125014911Y-120560165D01*
X124794091Y-120593955D01*
X124581756Y-120663357D01*
X124531209Y-120689670D01*
X124460268Y-120726600D01*
X124383607Y-120766507D01*
X124379474Y-120769610D01*
X124379471Y-120769612D01*
X124209100Y-120897530D01*
X124204965Y-120900635D01*
X124165525Y-120941907D01*
X124081949Y-121029364D01*
X124050629Y-121062138D01*
X124030153Y-121092155D01*
X123975243Y-121137155D01*
X123904718Y-121145325D01*
X123840971Y-121114070D01*
X123804242Y-121053312D01*
X123800403Y-121030336D01*
X123800330Y-121029339D01*
X123791402Y-120968687D01*
X123785661Y-120950213D01*
X123738665Y-120854493D01*
X123726705Y-120837788D01*
X123651678Y-120762891D01*
X123634950Y-120750959D01*
X123539140Y-120704127D01*
X123520672Y-120698419D01*
X123460636Y-120689660D01*
X123451537Y-120689000D01*
X122842115Y-120689000D01*
X122826876Y-120693475D01*
X122825671Y-120694865D01*
X122824000Y-120702548D01*
X122824000Y-123132885D01*
X122316000Y-123132885D01*
X122316000Y-122192115D01*
X122311525Y-122176876D01*
X122310135Y-122175671D01*
X122302452Y-122174000D01*
X121357115Y-122174000D01*
X121341876Y-122178475D01*
X121340671Y-122179865D01*
X121339000Y-122187548D01*
X121339000Y-122801504D01*
X118158500Y-122801504D01*
X118158500Y-121647885D01*
X121339000Y-121647885D01*
X121343475Y-121663124D01*
X121344865Y-121664329D01*
X121352548Y-121666000D01*
X122297885Y-121666000D01*
X122313124Y-121661525D01*
X122314329Y-121660135D01*
X122316000Y-121652452D01*
X122316000Y-120707115D01*
X122311525Y-120691876D01*
X122310135Y-120690671D01*
X122302452Y-120689000D01*
X121688496Y-120689000D01*
X121679336Y-120689670D01*
X121618687Y-120698598D01*
X121600213Y-120704339D01*
X121504493Y-120751335D01*
X121487788Y-120763295D01*
X121412891Y-120838322D01*
X121400959Y-120855050D01*
X121354127Y-120950860D01*
X121348419Y-120969328D01*
X121339660Y-121029364D01*
X121339000Y-121038463D01*
X121339000Y-121647885D01*
X118158500Y-121647885D01*
X118158500Y-109601000D01*
X156185496Y-109601000D01*
X156205458Y-109790928D01*
X156264473Y-109972556D01*
X156359960Y-110137944D01*
X156487747Y-110279866D01*
X156642248Y-110392118D01*
X156648276Y-110394802D01*
X156648278Y-110394803D01*
X156810681Y-110467109D01*
X156816712Y-110469794D01*
X156910113Y-110489647D01*
X156997056Y-110508128D01*
X156997061Y-110508128D01*
X157003513Y-110509500D01*
X157194487Y-110509500D01*
X157200939Y-110508128D01*
X157200944Y-110508128D01*
X157287887Y-110489647D01*
X157381288Y-110469794D01*
X157387319Y-110467109D01*
X157549722Y-110394803D01*
X157549724Y-110394802D01*
X157555752Y-110392118D01*
X157710253Y-110279866D01*
X157838040Y-110137944D01*
X157933527Y-109972556D01*
X157992542Y-109790928D01*
X158012504Y-109601000D01*
X157992542Y-109411072D01*
X157933527Y-109229444D01*
X157878381Y-109133928D01*
X157861500Y-109070929D01*
X157861500Y-106321071D01*
X157878381Y-106258071D01*
X157930223Y-106168279D01*
X157930224Y-106168278D01*
X157933527Y-106162556D01*
X157992542Y-105980928D01*
X158012504Y-105791000D01*
X157992542Y-105601072D01*
X157933527Y-105419444D01*
X157838040Y-105254056D01*
X157710253Y-105112134D01*
X157555752Y-104999882D01*
X157549724Y-104997198D01*
X157549722Y-104997197D01*
X157387319Y-104924891D01*
X157387318Y-104924891D01*
X157381288Y-104922206D01*
X157287887Y-104902353D01*
X157200944Y-104883872D01*
X157200939Y-104883872D01*
X157194487Y-104882500D01*
X157003513Y-104882500D01*
X156997061Y-104883872D01*
X156997056Y-104883872D01*
X156910113Y-104902353D01*
X156816712Y-104922206D01*
X156810682Y-104924891D01*
X156810681Y-104924891D01*
X156648278Y-104997197D01*
X156648276Y-104997198D01*
X156642248Y-104999882D01*
X156487747Y-105112134D01*
X156359960Y-105254056D01*
X156264473Y-105419444D01*
X156205458Y-105601072D01*
X156185496Y-105791000D01*
X156205458Y-105980928D01*
X156264473Y-106162556D01*
X156267776Y-106168278D01*
X156267777Y-106168279D01*
X156319619Y-106258071D01*
X156336500Y-106321071D01*
X156336500Y-109070929D01*
X156319619Y-109133928D01*
X156264473Y-109229444D01*
X156205458Y-109411072D01*
X156185496Y-109601000D01*
X118158500Y-109601000D01*
X118158500Y-99519695D01*
X129828251Y-99519695D01*
X129828548Y-99524848D01*
X129828548Y-99524851D01*
X129834011Y-99619590D01*
X129841110Y-99742715D01*
X129842247Y-99747761D01*
X129842248Y-99747767D01*
X129862119Y-99835939D01*
X129890222Y-99960639D01*
X129974266Y-100167616D01*
X130090987Y-100358088D01*
X130237250Y-100526938D01*
X130241230Y-100530242D01*
X130245981Y-100534187D01*
X130285616Y-100593090D01*
X130287113Y-100664071D01*
X130249997Y-100724593D01*
X130209724Y-100749112D01*
X130094295Y-100792385D01*
X129977739Y-100879739D01*
X129890385Y-100996295D01*
X129839255Y-101132684D01*
X129832500Y-101194866D01*
X129832500Y-102991134D01*
X129839255Y-103053316D01*
X129890385Y-103189705D01*
X129977739Y-103306261D01*
X130094295Y-103393615D01*
X130230684Y-103444745D01*
X130292866Y-103451500D01*
X132089134Y-103451500D01*
X132151316Y-103444745D01*
X132287705Y-103393615D01*
X132404261Y-103306261D01*
X132491615Y-103189705D01*
X132542745Y-103053316D01*
X132549500Y-102991134D01*
X132549500Y-101194866D01*
X132542745Y-101132684D01*
X132491615Y-100996295D01*
X132404261Y-100879739D01*
X132287705Y-100792385D01*
X132259048Y-100781642D01*
X132169203Y-100747960D01*
X132112439Y-100705318D01*
X132087739Y-100638756D01*
X132102947Y-100569408D01*
X132124493Y-100540727D01*
X132225435Y-100440137D01*
X132229096Y-100436489D01*
X132288594Y-100353689D01*
X132356435Y-100259277D01*
X132359453Y-100255077D01*
X132362762Y-100248383D01*
X132456136Y-100059453D01*
X132456137Y-100059451D01*
X132458430Y-100054811D01*
X132523370Y-99841069D01*
X132552529Y-99619590D01*
X132554156Y-99553000D01*
X132535852Y-99330361D01*
X132481431Y-99113702D01*
X132392354Y-98908840D01*
X132308766Y-98779632D01*
X132273822Y-98725617D01*
X132273820Y-98725614D01*
X132271014Y-98721277D01*
X132120670Y-98556051D01*
X132116619Y-98552852D01*
X132116615Y-98552848D01*
X131949414Y-98420800D01*
X131949410Y-98420798D01*
X131945359Y-98417598D01*
X131908260Y-98397118D01*
X131841813Y-98360438D01*
X131771384Y-98321559D01*
X131721414Y-98271127D01*
X131706642Y-98201685D01*
X131731758Y-98135279D01*
X131779027Y-98097057D01*
X131803865Y-98085475D01*
X131813356Y-98079994D01*
X131980782Y-97962762D01*
X131989189Y-97955708D01*
X132133708Y-97811189D01*
X132140762Y-97802782D01*
X132257994Y-97635356D01*
X132263472Y-97625870D01*
X132349857Y-97440617D01*
X132353603Y-97430325D01*
X132392678Y-97284497D01*
X132392342Y-97270401D01*
X132384400Y-97267000D01*
X130002749Y-97267000D01*
X129989218Y-97270973D01*
X129987989Y-97279522D01*
X130028397Y-97430325D01*
X130032143Y-97440617D01*
X130118528Y-97625870D01*
X130124006Y-97635356D01*
X130241238Y-97802782D01*
X130248292Y-97811189D01*
X130392811Y-97955708D01*
X130401218Y-97962762D01*
X130568644Y-98079994D01*
X130578130Y-98085472D01*
X130604896Y-98097953D01*
X130658181Y-98144871D01*
X130677642Y-98213148D01*
X130657100Y-98281108D01*
X130609827Y-98323910D01*
X130464607Y-98399507D01*
X130460474Y-98402610D01*
X130460471Y-98402612D01*
X130290100Y-98530530D01*
X130285965Y-98533635D01*
X130131629Y-98695138D01*
X130128715Y-98699410D01*
X130128714Y-98699411D01*
X130116404Y-98717457D01*
X130005743Y-98879680D01*
X129990003Y-98913590D01*
X129938403Y-99024753D01*
X129911688Y-99082305D01*
X129851989Y-99297570D01*
X129828251Y-99519695D01*
X118158500Y-99519695D01*
X118158500Y-96741503D01*
X129989322Y-96741503D01*
X129989658Y-96755599D01*
X129997600Y-96759000D01*
X130918885Y-96759000D01*
X130934124Y-96754525D01*
X130935329Y-96753135D01*
X130937000Y-96745452D01*
X130937000Y-96740885D01*
X131445000Y-96740885D01*
X131449475Y-96756124D01*
X131450865Y-96757329D01*
X131458548Y-96759000D01*
X132379251Y-96759000D01*
X132392782Y-96755027D01*
X132394011Y-96746478D01*
X132353603Y-96595675D01*
X132349857Y-96585383D01*
X132263472Y-96400130D01*
X132257994Y-96390644D01*
X132140762Y-96223218D01*
X132133708Y-96214811D01*
X131989189Y-96070292D01*
X131980782Y-96063238D01*
X131813356Y-95946006D01*
X131803870Y-95940528D01*
X131704378Y-95894134D01*
X141008500Y-95894134D01*
X141015255Y-95956316D01*
X141066385Y-96092705D01*
X141153739Y-96209261D01*
X141270295Y-96296615D01*
X141406684Y-96347745D01*
X141468866Y-96354500D01*
X142684775Y-96354500D01*
X142752896Y-96374502D01*
X142773870Y-96391405D01*
X147030507Y-100648042D01*
X147064533Y-100710354D01*
X147064659Y-100763334D01*
X147063499Y-100768790D01*
X147061458Y-100775072D01*
X147060768Y-100781635D01*
X147060767Y-100781642D01*
X147042186Y-100958435D01*
X147041496Y-100965000D01*
X147061458Y-101154928D01*
X147120473Y-101336556D01*
X147215960Y-101501944D01*
X147343747Y-101643866D01*
X147498248Y-101756118D01*
X147504276Y-101758802D01*
X147504278Y-101758803D01*
X147666681Y-101831109D01*
X147672712Y-101833794D01*
X147766112Y-101853647D01*
X147853056Y-101872128D01*
X147853061Y-101872128D01*
X147859513Y-101873500D01*
X148050487Y-101873500D01*
X148056939Y-101872128D01*
X148056944Y-101872128D01*
X148143887Y-101853647D01*
X148237288Y-101833794D01*
X148243319Y-101831109D01*
X148405722Y-101758803D01*
X148405724Y-101758802D01*
X148411752Y-101756118D01*
X148566253Y-101643866D01*
X148694040Y-101501944D01*
X148789527Y-101336556D01*
X148848542Y-101154928D01*
X148868504Y-100965000D01*
X148867814Y-100958435D01*
X148849232Y-100781635D01*
X148849232Y-100781633D01*
X148848542Y-100775072D01*
X148789527Y-100593444D01*
X148694040Y-100428056D01*
X148689620Y-100423147D01*
X148689617Y-100423143D01*
X148622548Y-100348655D01*
X148598319Y-100308884D01*
X148581693Y-100264885D01*
X148581688Y-100264875D01*
X148579006Y-100257778D01*
X148574709Y-100251526D01*
X148573066Y-100248383D01*
X148565971Y-100235635D01*
X148564130Y-100232523D01*
X148561077Y-100225567D01*
X148522732Y-100175593D01*
X148518861Y-100170266D01*
X148487481Y-100124607D01*
X148487480Y-100124605D01*
X148483179Y-100118348D01*
X148437320Y-100077489D01*
X148432045Y-100072509D01*
X146162318Y-97802782D01*
X145989231Y-97629695D01*
X152942251Y-97629695D01*
X152942548Y-97634848D01*
X152942548Y-97634851D01*
X152948011Y-97729590D01*
X152955110Y-97852715D01*
X152956247Y-97857761D01*
X152956248Y-97857767D01*
X152976119Y-97945939D01*
X153004222Y-98070639D01*
X153088266Y-98277616D01*
X153107889Y-98309638D01*
X153172517Y-98415101D01*
X153204987Y-98468088D01*
X153351250Y-98636938D01*
X153523126Y-98779632D01*
X153716000Y-98892338D01*
X153924692Y-98972030D01*
X153929760Y-98973061D01*
X153929763Y-98973062D01*
X154037017Y-98994883D01*
X154143597Y-99016567D01*
X154148772Y-99016757D01*
X154148774Y-99016757D01*
X154361673Y-99024564D01*
X154361677Y-99024564D01*
X154366837Y-99024753D01*
X154371957Y-99024097D01*
X154371959Y-99024097D01*
X154583288Y-98997025D01*
X154583289Y-98997025D01*
X154588416Y-98996368D01*
X154593366Y-98994883D01*
X154797429Y-98933661D01*
X154797434Y-98933659D01*
X154802384Y-98932174D01*
X155002994Y-98833896D01*
X155184860Y-98704173D01*
X155343096Y-98546489D01*
X155349647Y-98537373D01*
X155470435Y-98369277D01*
X155473453Y-98365077D01*
X155493799Y-98323911D01*
X155570136Y-98169453D01*
X155570137Y-98169451D01*
X155572430Y-98164811D01*
X155604900Y-98057940D01*
X155635865Y-97956023D01*
X155635865Y-97956021D01*
X155637370Y-97951069D01*
X155666529Y-97729590D01*
X155668156Y-97663000D01*
X155649852Y-97440361D01*
X155595431Y-97223702D01*
X155506354Y-97018840D01*
X155385014Y-96831277D01*
X155234670Y-96666051D01*
X155230619Y-96662852D01*
X155230615Y-96662848D01*
X155063414Y-96530800D01*
X155063410Y-96530798D01*
X155059359Y-96527598D01*
X155018053Y-96504796D01*
X154968084Y-96454364D01*
X154953312Y-96384921D01*
X154978428Y-96318516D01*
X155005780Y-96291909D01*
X155049603Y-96260650D01*
X155184860Y-96164173D01*
X155343096Y-96006489D01*
X155402594Y-95923689D01*
X155470435Y-95829277D01*
X155473453Y-95825077D01*
X155572430Y-95624811D01*
X155637370Y-95411069D01*
X155666529Y-95189590D01*
X155668156Y-95123000D01*
X155665418Y-95089695D01*
X170722251Y-95089695D01*
X170722548Y-95094848D01*
X170722548Y-95094851D01*
X170728011Y-95189590D01*
X170735110Y-95312715D01*
X170736247Y-95317761D01*
X170736248Y-95317767D01*
X170756119Y-95405939D01*
X170784222Y-95530639D01*
X170868266Y-95737616D01*
X170870965Y-95742020D01*
X170966262Y-95897531D01*
X170984987Y-95928088D01*
X171131250Y-96096938D01*
X171303126Y-96239632D01*
X171496000Y-96352338D01*
X171500825Y-96354180D01*
X171500826Y-96354181D01*
X171573612Y-96381975D01*
X171704692Y-96432030D01*
X171709760Y-96433061D01*
X171709763Y-96433062D01*
X171814466Y-96454364D01*
X171923597Y-96476567D01*
X171928772Y-96476757D01*
X171928774Y-96476757D01*
X172141673Y-96484564D01*
X172141677Y-96484564D01*
X172146837Y-96484753D01*
X172151957Y-96484097D01*
X172151959Y-96484097D01*
X172363288Y-96457025D01*
X172363289Y-96457025D01*
X172368416Y-96456368D01*
X172375096Y-96454364D01*
X172577429Y-96393661D01*
X172577434Y-96393659D01*
X172582384Y-96392174D01*
X172782994Y-96293896D01*
X172964860Y-96164173D01*
X173123096Y-96006489D01*
X173182594Y-95923689D01*
X173250435Y-95829277D01*
X173253453Y-95825077D01*
X173352430Y-95624811D01*
X173417370Y-95411069D01*
X173446529Y-95189590D01*
X173448156Y-95123000D01*
X173429852Y-94900361D01*
X173375431Y-94683702D01*
X173286354Y-94478840D01*
X173165014Y-94291277D01*
X173014670Y-94126051D01*
X173010619Y-94122852D01*
X173010615Y-94122848D01*
X172843414Y-93990800D01*
X172843410Y-93990798D01*
X172839359Y-93987598D01*
X172798053Y-93964796D01*
X172748084Y-93914364D01*
X172733312Y-93844921D01*
X172758428Y-93778516D01*
X172785780Y-93751909D01*
X172829603Y-93720650D01*
X172964860Y-93624173D01*
X172971559Y-93617498D01*
X173119435Y-93470137D01*
X173123096Y-93466489D01*
X173166736Y-93405758D01*
X173250435Y-93289277D01*
X173253453Y-93285077D01*
X173352430Y-93084811D01*
X173417370Y-92871069D01*
X173446529Y-92649590D01*
X173448156Y-92583000D01*
X173429852Y-92360361D01*
X173375431Y-92143702D01*
X173286354Y-91938840D01*
X173165014Y-91751277D01*
X173014670Y-91586051D01*
X173010619Y-91582852D01*
X173010615Y-91582848D01*
X172843414Y-91450800D01*
X172843410Y-91450798D01*
X172839359Y-91447598D01*
X172798053Y-91424796D01*
X172748084Y-91374364D01*
X172733312Y-91304921D01*
X172758428Y-91238516D01*
X172785780Y-91211909D01*
X172851153Y-91165279D01*
X172964860Y-91084173D01*
X173123096Y-90926489D01*
X173182594Y-90843689D01*
X173250435Y-90749277D01*
X173253453Y-90745077D01*
X173292854Y-90665356D01*
X173350136Y-90549453D01*
X173350137Y-90549451D01*
X173352430Y-90544811D01*
X173417370Y-90331069D01*
X173446529Y-90109590D01*
X173448156Y-90043000D01*
X173429852Y-89820361D01*
X173375431Y-89603702D01*
X173286354Y-89398840D01*
X173165014Y-89211277D01*
X173161532Y-89207450D01*
X173017798Y-89049488D01*
X172986746Y-88985642D01*
X172995141Y-88915143D01*
X173040317Y-88860375D01*
X173066761Y-88846706D01*
X173173297Y-88806767D01*
X173181705Y-88803615D01*
X173298261Y-88716261D01*
X173385615Y-88599705D01*
X173436745Y-88463316D01*
X173443500Y-88401134D01*
X173443500Y-86604866D01*
X173436745Y-86542684D01*
X173385615Y-86406295D01*
X173298261Y-86289739D01*
X173181705Y-86202385D01*
X173045316Y-86151255D01*
X172983134Y-86144500D01*
X171186866Y-86144500D01*
X171124684Y-86151255D01*
X170988295Y-86202385D01*
X170871739Y-86289739D01*
X170784385Y-86406295D01*
X170733255Y-86542684D01*
X170726500Y-86604866D01*
X170726500Y-88401134D01*
X170733255Y-88463316D01*
X170784385Y-88599705D01*
X170871739Y-88716261D01*
X170988295Y-88803615D01*
X170996704Y-88806767D01*
X170996705Y-88806768D01*
X171105451Y-88847535D01*
X171162216Y-88890176D01*
X171186916Y-88956738D01*
X171171709Y-89026087D01*
X171152316Y-89052568D01*
X171025629Y-89185138D01*
X170899743Y-89369680D01*
X170805688Y-89572305D01*
X170745989Y-89787570D01*
X170722251Y-90009695D01*
X170722548Y-90014848D01*
X170722548Y-90014851D01*
X170728011Y-90109590D01*
X170735110Y-90232715D01*
X170736247Y-90237761D01*
X170736248Y-90237767D01*
X170756119Y-90325939D01*
X170784222Y-90450639D01*
X170868266Y-90657616D01*
X170870965Y-90662020D01*
X170975608Y-90832782D01*
X170984987Y-90848088D01*
X171131250Y-91016938D01*
X171303126Y-91159632D01*
X171312790Y-91165279D01*
X171376445Y-91202476D01*
X171425169Y-91254114D01*
X171438240Y-91323897D01*
X171411509Y-91389669D01*
X171371055Y-91423027D01*
X171358607Y-91429507D01*
X171354474Y-91432610D01*
X171354471Y-91432612D01*
X171184100Y-91560530D01*
X171179965Y-91563635D01*
X171025629Y-91725138D01*
X170899743Y-91909680D01*
X170805688Y-92112305D01*
X170745989Y-92327570D01*
X170722251Y-92549695D01*
X170722548Y-92554848D01*
X170722548Y-92554851D01*
X170728011Y-92649590D01*
X170735110Y-92772715D01*
X170736247Y-92777761D01*
X170736248Y-92777767D01*
X170756119Y-92865939D01*
X170784222Y-92990639D01*
X170868266Y-93197616D01*
X170984987Y-93388088D01*
X171131250Y-93556938D01*
X171303126Y-93699632D01*
X171373595Y-93740811D01*
X171376445Y-93742476D01*
X171425169Y-93794114D01*
X171438240Y-93863897D01*
X171411509Y-93929669D01*
X171371055Y-93963027D01*
X171358607Y-93969507D01*
X171354474Y-93972610D01*
X171354471Y-93972612D01*
X171184100Y-94100530D01*
X171179965Y-94103635D01*
X171025629Y-94265138D01*
X170899743Y-94449680D01*
X170805688Y-94652305D01*
X170745989Y-94867570D01*
X170722251Y-95089695D01*
X155665418Y-95089695D01*
X155649852Y-94900361D01*
X155595431Y-94683702D01*
X155506354Y-94478840D01*
X155385014Y-94291277D01*
X155234670Y-94126051D01*
X155230619Y-94122852D01*
X155230615Y-94122848D01*
X155063414Y-93990800D01*
X155063410Y-93990798D01*
X155059359Y-93987598D01*
X155018053Y-93964796D01*
X154968084Y-93914364D01*
X154953312Y-93844921D01*
X154978428Y-93778516D01*
X155005780Y-93751909D01*
X155049603Y-93720650D01*
X155184860Y-93624173D01*
X155191559Y-93617498D01*
X155339435Y-93470137D01*
X155343096Y-93466489D01*
X155386736Y-93405758D01*
X155470435Y-93289277D01*
X155473453Y-93285077D01*
X155572430Y-93084811D01*
X155637370Y-92871069D01*
X155666529Y-92649590D01*
X155668156Y-92583000D01*
X155649852Y-92360361D01*
X155595431Y-92143702D01*
X155506354Y-91938840D01*
X155385014Y-91751277D01*
X155234670Y-91586051D01*
X155230619Y-91582852D01*
X155230615Y-91582848D01*
X155063414Y-91450800D01*
X155063410Y-91450798D01*
X155059359Y-91447598D01*
X155022260Y-91427118D01*
X154926695Y-91374364D01*
X154885384Y-91351559D01*
X154835414Y-91301127D01*
X154820642Y-91231685D01*
X154845758Y-91165279D01*
X154893027Y-91127057D01*
X154917865Y-91115475D01*
X154927356Y-91109994D01*
X155094782Y-90992762D01*
X155103189Y-90985708D01*
X155247708Y-90841189D01*
X155254762Y-90832782D01*
X155371994Y-90665356D01*
X155377472Y-90655870D01*
X155463857Y-90470617D01*
X155467603Y-90460325D01*
X155506678Y-90314497D01*
X155506342Y-90300401D01*
X155498400Y-90297000D01*
X153116749Y-90297000D01*
X153103218Y-90300973D01*
X153101989Y-90309522D01*
X153142397Y-90460325D01*
X153146143Y-90470617D01*
X153232528Y-90655870D01*
X153238006Y-90665356D01*
X153355238Y-90832782D01*
X153362292Y-90841189D01*
X153506811Y-90985708D01*
X153515218Y-90992762D01*
X153682644Y-91109994D01*
X153692130Y-91115472D01*
X153718896Y-91127953D01*
X153772181Y-91174871D01*
X153791642Y-91243148D01*
X153771100Y-91311108D01*
X153723827Y-91353910D01*
X153578607Y-91429507D01*
X153574474Y-91432610D01*
X153574471Y-91432612D01*
X153404100Y-91560530D01*
X153399965Y-91563635D01*
X153245629Y-91725138D01*
X153119743Y-91909680D01*
X153025688Y-92112305D01*
X152965989Y-92327570D01*
X152942251Y-92549695D01*
X152942548Y-92554848D01*
X152942548Y-92554851D01*
X152948011Y-92649590D01*
X152955110Y-92772715D01*
X152956247Y-92777761D01*
X152956248Y-92777767D01*
X152976119Y-92865939D01*
X153004222Y-92990639D01*
X153088266Y-93197616D01*
X153204987Y-93388088D01*
X153351250Y-93556938D01*
X153523126Y-93699632D01*
X153593595Y-93740811D01*
X153596445Y-93742476D01*
X153645169Y-93794114D01*
X153658240Y-93863897D01*
X153631509Y-93929669D01*
X153591055Y-93963027D01*
X153578607Y-93969507D01*
X153574474Y-93972610D01*
X153574471Y-93972612D01*
X153404100Y-94100530D01*
X153399965Y-94103635D01*
X153245629Y-94265138D01*
X153119743Y-94449680D01*
X153025688Y-94652305D01*
X152965989Y-94867570D01*
X152942251Y-95089695D01*
X152942548Y-95094848D01*
X152942548Y-95094851D01*
X152948011Y-95189590D01*
X152955110Y-95312715D01*
X152956247Y-95317761D01*
X152956248Y-95317767D01*
X152976119Y-95405939D01*
X153004222Y-95530639D01*
X153088266Y-95737616D01*
X153090965Y-95742020D01*
X153186262Y-95897531D01*
X153204987Y-95928088D01*
X153351250Y-96096938D01*
X153523126Y-96239632D01*
X153593595Y-96280811D01*
X153596445Y-96282476D01*
X153645169Y-96334114D01*
X153658240Y-96403897D01*
X153631509Y-96469669D01*
X153591055Y-96503027D01*
X153578607Y-96509507D01*
X153574474Y-96512610D01*
X153574471Y-96512612D01*
X153404100Y-96640530D01*
X153399965Y-96643635D01*
X153396393Y-96647373D01*
X153289720Y-96759000D01*
X153245629Y-96805138D01*
X153119743Y-96989680D01*
X153025688Y-97192305D01*
X152965989Y-97407570D01*
X152942251Y-97629695D01*
X145989231Y-97629695D01*
X143762405Y-95402870D01*
X143728379Y-95340558D01*
X143725500Y-95313775D01*
X143725500Y-94097866D01*
X143718745Y-94035684D01*
X143667615Y-93899295D01*
X143580261Y-93782739D01*
X143463705Y-93695385D01*
X143327316Y-93644255D01*
X143265134Y-93637500D01*
X143225446Y-93637500D01*
X143157325Y-93617498D01*
X143110832Y-93563842D01*
X143100728Y-93493568D01*
X143130222Y-93428988D01*
X143153178Y-93408285D01*
X143156788Y-93405758D01*
X143165189Y-93398708D01*
X143309708Y-93254189D01*
X143316762Y-93245782D01*
X143433994Y-93078356D01*
X143439472Y-93068870D01*
X143525857Y-92883617D01*
X143529603Y-92873325D01*
X143568678Y-92727497D01*
X143568342Y-92713401D01*
X143560400Y-92710000D01*
X141178749Y-92710000D01*
X141165218Y-92713973D01*
X141163989Y-92722522D01*
X141204397Y-92873325D01*
X141208143Y-92883617D01*
X141294528Y-93068870D01*
X141300006Y-93078356D01*
X141417238Y-93245782D01*
X141424292Y-93254189D01*
X141568811Y-93398708D01*
X141577212Y-93405758D01*
X141580822Y-93408285D01*
X141625152Y-93463741D01*
X141632463Y-93534360D01*
X141600433Y-93597722D01*
X141539233Y-93633708D01*
X141508554Y-93637500D01*
X141468866Y-93637500D01*
X141406684Y-93644255D01*
X141270295Y-93695385D01*
X141153739Y-93782739D01*
X141066385Y-93899295D01*
X141015255Y-94035684D01*
X141008500Y-94097866D01*
X141008500Y-95894134D01*
X131704378Y-95894134D01*
X131618617Y-95854143D01*
X131608325Y-95850397D01*
X131462497Y-95811322D01*
X131448401Y-95811658D01*
X131445000Y-95819600D01*
X131445000Y-96740885D01*
X130937000Y-96740885D01*
X130937000Y-95824749D01*
X130933027Y-95811218D01*
X130924478Y-95809989D01*
X130773675Y-95850397D01*
X130763383Y-95854143D01*
X130578130Y-95940528D01*
X130568644Y-95946006D01*
X130401218Y-96063238D01*
X130392811Y-96070292D01*
X130248292Y-96214811D01*
X130241238Y-96223218D01*
X130124006Y-96390644D01*
X130118528Y-96400130D01*
X130032143Y-96585383D01*
X130028397Y-96595675D01*
X129989322Y-96741503D01*
X118158500Y-96741503D01*
X118158500Y-92184503D01*
X141165322Y-92184503D01*
X141165658Y-92198599D01*
X141173600Y-92202000D01*
X142094885Y-92202000D01*
X142110124Y-92197525D01*
X142111329Y-92196135D01*
X142113000Y-92188452D01*
X142113000Y-92183885D01*
X142621000Y-92183885D01*
X142625475Y-92199124D01*
X142626865Y-92200329D01*
X142634548Y-92202000D01*
X143555251Y-92202000D01*
X143568782Y-92198027D01*
X143570011Y-92189478D01*
X143529603Y-92038675D01*
X143525857Y-92028383D01*
X143439472Y-91843130D01*
X143433994Y-91833644D01*
X143316762Y-91666218D01*
X143309708Y-91657811D01*
X143165189Y-91513292D01*
X143156782Y-91506238D01*
X142989356Y-91389006D01*
X142979870Y-91383528D01*
X142794617Y-91297143D01*
X142784325Y-91293397D01*
X142638497Y-91254322D01*
X142624401Y-91254658D01*
X142621000Y-91262600D01*
X142621000Y-92183885D01*
X142113000Y-92183885D01*
X142113000Y-91267749D01*
X142109027Y-91254218D01*
X142100478Y-91252989D01*
X141949675Y-91293397D01*
X141939383Y-91297143D01*
X141754130Y-91383528D01*
X141744644Y-91389006D01*
X141577218Y-91506238D01*
X141568811Y-91513292D01*
X141424292Y-91657811D01*
X141417238Y-91666218D01*
X141300006Y-91833644D01*
X141294528Y-91843130D01*
X141208143Y-92028383D01*
X141204397Y-92038675D01*
X141165322Y-92184503D01*
X118158500Y-92184503D01*
X118158500Y-87469695D01*
X152942251Y-87469695D01*
X152942548Y-87474848D01*
X152942548Y-87474851D01*
X152948011Y-87569590D01*
X152955110Y-87692715D01*
X152956247Y-87697761D01*
X152956248Y-87697767D01*
X152976119Y-87785939D01*
X153004222Y-87910639D01*
X153088266Y-88117616D01*
X153204987Y-88308088D01*
X153351250Y-88476938D01*
X153523126Y-88619632D01*
X153716000Y-88732338D01*
X153717133Y-88732770D01*
X153769068Y-88779476D01*
X153787811Y-88847953D01*
X153766556Y-88915694D01*
X153715081Y-88959826D01*
X153692134Y-88970526D01*
X153682644Y-88976006D01*
X153515218Y-89093238D01*
X153506811Y-89100292D01*
X153362292Y-89244811D01*
X153355238Y-89253218D01*
X153238006Y-89420644D01*
X153232528Y-89430130D01*
X153146143Y-89615383D01*
X153142397Y-89625675D01*
X153103322Y-89771503D01*
X153103658Y-89785599D01*
X153111600Y-89789000D01*
X155493251Y-89789000D01*
X155506782Y-89785027D01*
X155508011Y-89776478D01*
X155467603Y-89625675D01*
X155463857Y-89615383D01*
X155377472Y-89430130D01*
X155371994Y-89420644D01*
X155254762Y-89253218D01*
X155247708Y-89244811D01*
X155103189Y-89100292D01*
X155094782Y-89093238D01*
X154927356Y-88976006D01*
X154917866Y-88970526D01*
X154890141Y-88957598D01*
X154836856Y-88910682D01*
X154817394Y-88842405D01*
X154837935Y-88774445D01*
X154887957Y-88730252D01*
X154889019Y-88729732D01*
X155002994Y-88673896D01*
X155184860Y-88544173D01*
X155343096Y-88386489D01*
X155402594Y-88303689D01*
X155470435Y-88209277D01*
X155473453Y-88205077D01*
X155572430Y-88004811D01*
X155637370Y-87791069D01*
X155666529Y-87569590D01*
X155668156Y-87503000D01*
X155649852Y-87280361D01*
X155595431Y-87063702D01*
X155506354Y-86858840D01*
X155385014Y-86671277D01*
X155381532Y-86667450D01*
X155237798Y-86509488D01*
X155206746Y-86445642D01*
X155215141Y-86375143D01*
X155260317Y-86320375D01*
X155286761Y-86306706D01*
X155393297Y-86266767D01*
X155401705Y-86263615D01*
X155518261Y-86176261D01*
X155605615Y-86059705D01*
X155656745Y-85923316D01*
X155663500Y-85861134D01*
X155663500Y-84064866D01*
X155656745Y-84002684D01*
X155605615Y-83866295D01*
X155518261Y-83749739D01*
X155401705Y-83662385D01*
X155265316Y-83611255D01*
X155203134Y-83604500D01*
X153406866Y-83604500D01*
X153344684Y-83611255D01*
X153208295Y-83662385D01*
X153091739Y-83749739D01*
X153004385Y-83866295D01*
X152953255Y-84002684D01*
X152946500Y-84064866D01*
X152946500Y-85861134D01*
X152953255Y-85923316D01*
X153004385Y-86059705D01*
X153091739Y-86176261D01*
X153208295Y-86263615D01*
X153216704Y-86266767D01*
X153216705Y-86266768D01*
X153325451Y-86307535D01*
X153382216Y-86350176D01*
X153406916Y-86416738D01*
X153391709Y-86486087D01*
X153372316Y-86512568D01*
X153245629Y-86645138D01*
X153119743Y-86829680D01*
X153025688Y-87032305D01*
X152965989Y-87247570D01*
X152942251Y-87469695D01*
X118158500Y-87469695D01*
X118158500Y-52110500D01*
X118178502Y-52042379D01*
X118232158Y-51995886D01*
X118284500Y-51984500D01*
X178015500Y-51984500D01*
X178083621Y-52004502D01*
G37*
%TD.AperFunction*%
%TD*%
M02*
