%TF.GenerationSoftware,KiCad,Pcbnew,(5.1.9)-1*%
%TF.CreationDate,2022-01-25T19:09:39-05:00*%
%TF.ProjectId,gimbal,67696d62-616c-42e6-9b69-6361645f7063,rev?*%
%TF.SameCoordinates,Original*%
%TF.FileFunction,Copper,L1,Top*%
%TF.FilePolarity,Positive*%
%FSLAX46Y46*%
G04 Gerber Fmt 4.6, Leading zero omitted, Abs format (unit mm)*
G04 Created by KiCad (PCBNEW (5.1.9)-1) date 2022-01-25 19:09:39*
%MOMM*%
%LPD*%
G01*
G04 APERTURE LIST*
%TA.AperFunction,SMDPad,CuDef*%
%ADD10R,2.000000X1.500000*%
%TD*%
%TA.AperFunction,SMDPad,CuDef*%
%ADD11R,2.000000X3.800000*%
%TD*%
%TA.AperFunction,ComponentPad*%
%ADD12O,1.700000X1.700000*%
%TD*%
%TA.AperFunction,ComponentPad*%
%ADD13R,1.700000X1.700000*%
%TD*%
%TA.AperFunction,SMDPad,CuDef*%
%ADD14R,1.200000X0.900000*%
%TD*%
%TA.AperFunction,ViaPad*%
%ADD15C,0.800000*%
%TD*%
%TA.AperFunction,Conductor*%
%ADD16C,1.016000*%
%TD*%
%TA.AperFunction,Conductor*%
%ADD17C,0.762000*%
%TD*%
%TA.AperFunction,Conductor*%
%ADD18C,0.381000*%
%TD*%
%TA.AperFunction,Conductor*%
%ADD19C,0.254000*%
%TD*%
%TA.AperFunction,Conductor*%
%ADD20C,0.100000*%
%TD*%
G04 APERTURE END LIST*
%TO.P,U2,14*%
%TO.N,GND*%
%TA.AperFunction,SMDPad,CuDef*%
G36*
G01*
X139930000Y-91590000D02*
X139930000Y-91290000D01*
G75*
G02*
X140080000Y-91140000I150000J0D01*
G01*
X141730000Y-91140000D01*
G75*
G02*
X141880000Y-91290000I0J-150000D01*
G01*
X141880000Y-91590000D01*
G75*
G02*
X141730000Y-91740000I-150000J0D01*
G01*
X140080000Y-91740000D01*
G75*
G02*
X139930000Y-91590000I0J150000D01*
G01*
G37*
%TD.AperFunction*%
%TO.P,U2,13*%
%TO.N,/Servo_Z*%
%TA.AperFunction,SMDPad,CuDef*%
G36*
G01*
X139930000Y-92860000D02*
X139930000Y-92560000D01*
G75*
G02*
X140080000Y-92410000I150000J0D01*
G01*
X141730000Y-92410000D01*
G75*
G02*
X141880000Y-92560000I0J-150000D01*
G01*
X141880000Y-92860000D01*
G75*
G02*
X141730000Y-93010000I-150000J0D01*
G01*
X140080000Y-93010000D01*
G75*
G02*
X139930000Y-92860000I0J150000D01*
G01*
G37*
%TD.AperFunction*%
%TO.P,U2,12*%
%TO.N,N/C*%
%TA.AperFunction,SMDPad,CuDef*%
G36*
G01*
X139930000Y-94130000D02*
X139930000Y-93830000D01*
G75*
G02*
X140080000Y-93680000I150000J0D01*
G01*
X141730000Y-93680000D01*
G75*
G02*
X141880000Y-93830000I0J-150000D01*
G01*
X141880000Y-94130000D01*
G75*
G02*
X141730000Y-94280000I-150000J0D01*
G01*
X140080000Y-94280000D01*
G75*
G02*
X139930000Y-94130000I0J150000D01*
G01*
G37*
%TD.AperFunction*%
%TO.P,U2,11*%
%TA.AperFunction,SMDPad,CuDef*%
G36*
G01*
X139930000Y-95400000D02*
X139930000Y-95100000D01*
G75*
G02*
X140080000Y-94950000I150000J0D01*
G01*
X141730000Y-94950000D01*
G75*
G02*
X141880000Y-95100000I0J-150000D01*
G01*
X141880000Y-95400000D01*
G75*
G02*
X141730000Y-95550000I-150000J0D01*
G01*
X140080000Y-95550000D01*
G75*
G02*
X139930000Y-95400000I0J150000D01*
G01*
G37*
%TD.AperFunction*%
%TO.P,U2,10*%
%TO.N,Net-(R1-Pad2)*%
%TA.AperFunction,SMDPad,CuDef*%
G36*
G01*
X139930000Y-96670000D02*
X139930000Y-96370000D01*
G75*
G02*
X140080000Y-96220000I150000J0D01*
G01*
X141730000Y-96220000D01*
G75*
G02*
X141880000Y-96370000I0J-150000D01*
G01*
X141880000Y-96670000D01*
G75*
G02*
X141730000Y-96820000I-150000J0D01*
G01*
X140080000Y-96820000D01*
G75*
G02*
X139930000Y-96670000I0J150000D01*
G01*
G37*
%TD.AperFunction*%
%TO.P,U2,9*%
%TO.N,/SCL*%
%TA.AperFunction,SMDPad,CuDef*%
G36*
G01*
X139930000Y-97940000D02*
X139930000Y-97640000D01*
G75*
G02*
X140080000Y-97490000I150000J0D01*
G01*
X141730000Y-97490000D01*
G75*
G02*
X141880000Y-97640000I0J-150000D01*
G01*
X141880000Y-97940000D01*
G75*
G02*
X141730000Y-98090000I-150000J0D01*
G01*
X140080000Y-98090000D01*
G75*
G02*
X139930000Y-97940000I0J150000D01*
G01*
G37*
%TD.AperFunction*%
%TO.P,U2,8*%
%TO.N,/SDA*%
%TA.AperFunction,SMDPad,CuDef*%
G36*
G01*
X139930000Y-99210000D02*
X139930000Y-98910000D01*
G75*
G02*
X140080000Y-98760000I150000J0D01*
G01*
X141730000Y-98760000D01*
G75*
G02*
X141880000Y-98910000I0J-150000D01*
G01*
X141880000Y-99210000D01*
G75*
G02*
X141730000Y-99360000I-150000J0D01*
G01*
X140080000Y-99360000D01*
G75*
G02*
X139930000Y-99210000I0J150000D01*
G01*
G37*
%TD.AperFunction*%
%TO.P,U2,7*%
%TO.N,/TX*%
%TA.AperFunction,SMDPad,CuDef*%
G36*
G01*
X134980000Y-99210000D02*
X134980000Y-98910000D01*
G75*
G02*
X135130000Y-98760000I150000J0D01*
G01*
X136780000Y-98760000D01*
G75*
G02*
X136930000Y-98910000I0J-150000D01*
G01*
X136930000Y-99210000D01*
G75*
G02*
X136780000Y-99360000I-150000J0D01*
G01*
X135130000Y-99360000D01*
G75*
G02*
X134980000Y-99210000I0J150000D01*
G01*
G37*
%TD.AperFunction*%
%TO.P,U2,6*%
%TO.N,N/C*%
%TA.AperFunction,SMDPad,CuDef*%
G36*
G01*
X134980000Y-97940000D02*
X134980000Y-97640000D01*
G75*
G02*
X135130000Y-97490000I150000J0D01*
G01*
X136780000Y-97490000D01*
G75*
G02*
X136930000Y-97640000I0J-150000D01*
G01*
X136930000Y-97940000D01*
G75*
G02*
X136780000Y-98090000I-150000J0D01*
G01*
X135130000Y-98090000D01*
G75*
G02*
X134980000Y-97940000I0J150000D01*
G01*
G37*
%TD.AperFunction*%
%TO.P,U2,5*%
%TA.AperFunction,SMDPad,CuDef*%
G36*
G01*
X134980000Y-96670000D02*
X134980000Y-96370000D01*
G75*
G02*
X135130000Y-96220000I150000J0D01*
G01*
X136780000Y-96220000D01*
G75*
G02*
X136930000Y-96370000I0J-150000D01*
G01*
X136930000Y-96670000D01*
G75*
G02*
X136780000Y-96820000I-150000J0D01*
G01*
X135130000Y-96820000D01*
G75*
G02*
X134980000Y-96670000I0J150000D01*
G01*
G37*
%TD.AperFunction*%
%TO.P,U2,4*%
%TO.N,/NOTIF*%
%TA.AperFunction,SMDPad,CuDef*%
G36*
G01*
X134980000Y-95400000D02*
X134980000Y-95100000D01*
G75*
G02*
X135130000Y-94950000I150000J0D01*
G01*
X136780000Y-94950000D01*
G75*
G02*
X136930000Y-95100000I0J-150000D01*
G01*
X136930000Y-95400000D01*
G75*
G02*
X136780000Y-95550000I-150000J0D01*
G01*
X135130000Y-95550000D01*
G75*
G02*
X134980000Y-95400000I0J150000D01*
G01*
G37*
%TD.AperFunction*%
%TO.P,U2,3*%
%TO.N,/Servo_Y*%
%TA.AperFunction,SMDPad,CuDef*%
G36*
G01*
X134980000Y-94130000D02*
X134980000Y-93830000D01*
G75*
G02*
X135130000Y-93680000I150000J0D01*
G01*
X136780000Y-93680000D01*
G75*
G02*
X136930000Y-93830000I0J-150000D01*
G01*
X136930000Y-94130000D01*
G75*
G02*
X136780000Y-94280000I-150000J0D01*
G01*
X135130000Y-94280000D01*
G75*
G02*
X134980000Y-94130000I0J150000D01*
G01*
G37*
%TD.AperFunction*%
%TO.P,U2,2*%
%TO.N,/Servo_X*%
%TA.AperFunction,SMDPad,CuDef*%
G36*
G01*
X134980000Y-92860000D02*
X134980000Y-92560000D01*
G75*
G02*
X135130000Y-92410000I150000J0D01*
G01*
X136780000Y-92410000D01*
G75*
G02*
X136930000Y-92560000I0J-150000D01*
G01*
X136930000Y-92860000D01*
G75*
G02*
X136780000Y-93010000I-150000J0D01*
G01*
X135130000Y-93010000D01*
G75*
G02*
X134980000Y-92860000I0J150000D01*
G01*
G37*
%TD.AperFunction*%
%TO.P,U2,1*%
%TO.N,+3V3*%
%TA.AperFunction,SMDPad,CuDef*%
G36*
G01*
X134980000Y-91590000D02*
X134980000Y-91290000D01*
G75*
G02*
X135130000Y-91140000I150000J0D01*
G01*
X136780000Y-91140000D01*
G75*
G02*
X136930000Y-91290000I0J-150000D01*
G01*
X136930000Y-91590000D01*
G75*
G02*
X136780000Y-91740000I-150000J0D01*
G01*
X135130000Y-91740000D01*
G75*
G02*
X134980000Y-91590000I0J150000D01*
G01*
G37*
%TD.AperFunction*%
%TD*%
D10*
%TO.P,U1,1*%
%TO.N,GND*%
X143485000Y-82310000D03*
%TO.P,U1,3*%
%TO.N,VCC*%
X143485000Y-77710000D03*
%TO.P,U1,2*%
%TO.N,+3V3*%
X143485000Y-80010000D03*
D11*
X137185000Y-80010000D03*
%TD*%
%TO.P,R1,2*%
%TO.N,Net-(R1-Pad2)*%
%TA.AperFunction,SMDPad,CuDef*%
G36*
G01*
X144154999Y-96150000D02*
X145405001Y-96150000D01*
G75*
G02*
X145655000Y-96399999I0J-249999D01*
G01*
X145655000Y-97025001D01*
G75*
G02*
X145405001Y-97275000I-249999J0D01*
G01*
X144154999Y-97275000D01*
G75*
G02*
X143905000Y-97025001I0J249999D01*
G01*
X143905000Y-96399999D01*
G75*
G02*
X144154999Y-96150000I249999J0D01*
G01*
G37*
%TD.AperFunction*%
%TO.P,R1,1*%
%TO.N,/UPDI*%
%TA.AperFunction,SMDPad,CuDef*%
G36*
G01*
X144154999Y-93225000D02*
X145405001Y-93225000D01*
G75*
G02*
X145655000Y-93474999I0J-249999D01*
G01*
X145655000Y-94100001D01*
G75*
G02*
X145405001Y-94350000I-249999J0D01*
G01*
X144154999Y-94350000D01*
G75*
G02*
X143905000Y-94100001I0J249999D01*
G01*
X143905000Y-93474999D01*
G75*
G02*
X144154999Y-93225000I249999J0D01*
G01*
G37*
%TD.AperFunction*%
%TD*%
D12*
%TO.P,J9,3*%
%TO.N,GND*%
X168910000Y-83185000D03*
%TO.P,J9,2*%
%TO.N,VCC*%
X168910000Y-80645000D03*
D13*
%TO.P,J9,1*%
%TO.N,/Servo_Z*%
X168910000Y-78105000D03*
%TD*%
D12*
%TO.P,J8,4*%
%TO.N,N/C*%
X170180000Y-103505000D03*
%TO.P,J8,3*%
X170180000Y-100965000D03*
%TO.P,J8,2*%
X170180000Y-98425000D03*
D13*
%TO.P,J8,1*%
X170180000Y-95885000D03*
%TD*%
D12*
%TO.P,J7,3*%
%TO.N,GND*%
X163830000Y-83185000D03*
%TO.P,J7,2*%
%TO.N,VCC*%
X163830000Y-80645000D03*
D13*
%TO.P,J7,1*%
%TO.N,/Servo_Y*%
X163830000Y-78105000D03*
%TD*%
D12*
%TO.P,J6,2*%
%TO.N,GND*%
X128905000Y-89535000D03*
D13*
%TO.P,J6,1*%
%TO.N,/NOTIF*%
X128905000Y-86995000D03*
%TD*%
D12*
%TO.P,J5,2*%
%TO.N,GND*%
X128905000Y-97155000D03*
D13*
%TO.P,J5,1*%
%TO.N,/TX*%
X128905000Y-94615000D03*
%TD*%
D12*
%TO.P,J4,3*%
%TO.N,GND*%
X158750000Y-83185000D03*
%TO.P,J4,2*%
%TO.N,VCC*%
X158750000Y-80645000D03*
D13*
%TO.P,J4,1*%
%TO.N,/Servo_X*%
X158750000Y-78105000D03*
%TD*%
D12*
%TO.P,J3,6*%
%TO.N,N/C*%
X152400000Y-106045000D03*
%TO.P,J3,5*%
%TO.N,/SCL*%
X152400000Y-103505000D03*
%TO.P,J3,4*%
%TO.N,/SDA*%
X152400000Y-100965000D03*
%TO.P,J3,3*%
%TO.N,GND*%
X152400000Y-98425000D03*
%TO.P,J3,2*%
%TO.N,N/C*%
X152400000Y-95885000D03*
D13*
%TO.P,J3,1*%
%TO.N,+3V3*%
X152400000Y-93345000D03*
%TD*%
D12*
%TO.P,J2,3*%
%TO.N,GND*%
X147320000Y-85090000D03*
%TO.P,J2,2*%
%TO.N,+3V3*%
X147320000Y-87630000D03*
D13*
%TO.P,J2,1*%
%TO.N,/UPDI*%
X147320000Y-90170000D03*
%TD*%
D12*
%TO.P,J1,2*%
%TO.N,GND*%
X128905000Y-80645000D03*
D13*
%TO.P,J1,1*%
%TO.N,VCC*%
X128905000Y-78105000D03*
%TD*%
D14*
%TO.P,D1,2*%
%TO.N,+3V3*%
X147955000Y-81025000D03*
%TO.P,D1,1*%
%TO.N,VCC*%
X147955000Y-77725000D03*
%TD*%
%TO.P,C2,2*%
%TO.N,GND*%
%TA.AperFunction,SMDPad,CuDef*%
G36*
G01*
X138880000Y-86835000D02*
X138880000Y-85885000D01*
G75*
G02*
X139130000Y-85635000I250000J0D01*
G01*
X139630000Y-85635000D01*
G75*
G02*
X139880000Y-85885000I0J-250000D01*
G01*
X139880000Y-86835000D01*
G75*
G02*
X139630000Y-87085000I-250000J0D01*
G01*
X139130000Y-87085000D01*
G75*
G02*
X138880000Y-86835000I0J250000D01*
G01*
G37*
%TD.AperFunction*%
%TO.P,C2,1*%
%TO.N,+3V3*%
%TA.AperFunction,SMDPad,CuDef*%
G36*
G01*
X136980000Y-86835000D02*
X136980000Y-85885000D01*
G75*
G02*
X137230000Y-85635000I250000J0D01*
G01*
X137730000Y-85635000D01*
G75*
G02*
X137980000Y-85885000I0J-250000D01*
G01*
X137980000Y-86835000D01*
G75*
G02*
X137730000Y-87085000I-250000J0D01*
G01*
X137230000Y-87085000D01*
G75*
G02*
X136980000Y-86835000I0J250000D01*
G01*
G37*
%TD.AperFunction*%
%TD*%
%TO.P,C1,2*%
%TO.N,GND*%
%TA.AperFunction,SMDPad,CuDef*%
G36*
G01*
X132875000Y-80460000D02*
X133825000Y-80460000D01*
G75*
G02*
X134075000Y-80710000I0J-250000D01*
G01*
X134075000Y-81210000D01*
G75*
G02*
X133825000Y-81460000I-250000J0D01*
G01*
X132875000Y-81460000D01*
G75*
G02*
X132625000Y-81210000I0J250000D01*
G01*
X132625000Y-80710000D01*
G75*
G02*
X132875000Y-80460000I250000J0D01*
G01*
G37*
%TD.AperFunction*%
%TO.P,C1,1*%
%TO.N,VCC*%
%TA.AperFunction,SMDPad,CuDef*%
G36*
G01*
X132875000Y-78560000D02*
X133825000Y-78560000D01*
G75*
G02*
X134075000Y-78810000I0J-250000D01*
G01*
X134075000Y-79310000D01*
G75*
G02*
X133825000Y-79560000I-250000J0D01*
G01*
X132875000Y-79560000D01*
G75*
G02*
X132625000Y-79310000I0J250000D01*
G01*
X132625000Y-78810000D01*
G75*
G02*
X132875000Y-78560000I250000J0D01*
G01*
G37*
%TD.AperFunction*%
%TD*%
D15*
%TO.N,GND*%
X140970000Y-82550000D03*
X139700000Y-88900000D03*
X133350000Y-83820000D03*
%TO.N,/SDA*%
X147955000Y-100965000D03*
%TO.N,/Servo_X*%
X134620000Y-86360000D03*
%TO.N,/Servo_Y*%
X135890000Y-83185000D03*
%TO.N,/Servo_Z*%
X150495000Y-86995000D03*
%TD*%
D16*
%TO.N,VCC*%
X132395000Y-78105000D02*
X133350000Y-79060000D01*
X128905000Y-78105000D02*
X132395000Y-78105000D01*
X143176999Y-77401999D02*
X143485000Y-77710000D01*
X135008001Y-77401999D02*
X143176999Y-77401999D01*
X133350000Y-79060000D02*
X135008001Y-77401999D01*
X143500000Y-77725000D02*
X143485000Y-77710000D01*
X147955000Y-77725000D02*
X143500000Y-77725000D01*
X150875000Y-80645000D02*
X158750000Y-80645000D01*
X147955000Y-77725000D02*
X150875000Y-80645000D01*
X158750000Y-80645000D02*
X168910000Y-80645000D01*
%TO.N,+3V3*%
X137185000Y-80010000D02*
X143485000Y-80010000D01*
X146940000Y-80010000D02*
X147955000Y-81025000D01*
X143485000Y-80010000D02*
X146940000Y-80010000D01*
D17*
X137185000Y-86065000D02*
X137480000Y-86360000D01*
X135955000Y-87885000D02*
X137480000Y-86360000D01*
X135955000Y-91440000D02*
X135955000Y-87885000D01*
X152400000Y-93345000D02*
X152400000Y-89280000D01*
X152400000Y-85470000D02*
X147955000Y-81025000D01*
X152400000Y-89280000D02*
X152400000Y-85470000D01*
X144120000Y-84430000D02*
X137185000Y-84430000D01*
X137185000Y-84430000D02*
X137185000Y-86065000D01*
X147320000Y-87630000D02*
X144120000Y-84430000D01*
X137185000Y-80010000D02*
X137185000Y-84430000D01*
D18*
%TO.N,/UPDI*%
X144780000Y-92710000D02*
X147320000Y-90170000D01*
X144780000Y-93787500D02*
X144780000Y-92710000D01*
%TO.N,/SCL*%
X147955000Y-99060000D02*
X152400000Y-103505000D01*
X143510000Y-99060000D02*
X147955000Y-99060000D01*
X142240000Y-97790000D02*
X143510000Y-99060000D01*
X140905000Y-97790000D02*
X142240000Y-97790000D01*
%TO.N,/SDA*%
X147955000Y-100965000D02*
X147955000Y-100965000D01*
X142810000Y-100965000D02*
X147955000Y-100965000D01*
X140905000Y-99060000D02*
X142810000Y-100965000D01*
%TO.N,/Servo_X*%
X134980000Y-92710000D02*
X134220001Y-91950001D01*
X134220001Y-86759999D02*
X134620000Y-86360000D01*
X134220001Y-91950001D02*
X134220001Y-86759999D01*
X135955000Y-92710000D02*
X134980000Y-92710000D01*
%TO.N,/TX*%
X130535000Y-94615000D02*
X128905000Y-94615000D01*
X134980000Y-99060000D02*
X130535000Y-94615000D01*
X135955000Y-99060000D02*
X134980000Y-99060000D01*
%TO.N,/NOTIF*%
X134980000Y-95250000D02*
X132080000Y-92350000D01*
X135955000Y-95250000D02*
X134980000Y-95250000D01*
X132080000Y-90170000D02*
X128905000Y-86995000D01*
X132080000Y-92350000D02*
X132080000Y-90170000D01*
%TO.N,/Servo_Y*%
X134980000Y-93980000D02*
X133350000Y-92350000D01*
X135955000Y-93980000D02*
X134980000Y-93980000D01*
X133350000Y-92350000D02*
X133350000Y-85725000D01*
X133350000Y-85725000D02*
X135890000Y-83185000D01*
X135890000Y-83185000D02*
X135890000Y-83185000D01*
%TO.N,/Servo_Z*%
X145719499Y-88870501D02*
X148619499Y-88870501D01*
X141880000Y-92710000D02*
X145719499Y-88870501D01*
X140905000Y-92710000D02*
X141880000Y-92710000D01*
X148619499Y-88870501D02*
X150495000Y-86995000D01*
X150495000Y-86995000D02*
X150495000Y-86995000D01*
%TO.N,Net-(R1-Pad2)*%
X144587500Y-96520000D02*
X144780000Y-96712500D01*
X140905000Y-96520000D02*
X144587500Y-96520000D01*
%TD*%
D19*
%TO.N,GND*%
X172593000Y-113640000D02*
X126492000Y-113640000D01*
X126492000Y-97511890D01*
X127463524Y-97511890D01*
X127508175Y-97659099D01*
X127633359Y-97921920D01*
X127807412Y-98155269D01*
X128023645Y-98350178D01*
X128273748Y-98499157D01*
X128548109Y-98596481D01*
X128778000Y-98475814D01*
X128778000Y-97282000D01*
X129032000Y-97282000D01*
X129032000Y-98475814D01*
X129261891Y-98596481D01*
X129536252Y-98499157D01*
X129786355Y-98350178D01*
X130002588Y-98155269D01*
X130176641Y-97921920D01*
X130301825Y-97659099D01*
X130346476Y-97511890D01*
X130225155Y-97282000D01*
X129032000Y-97282000D01*
X128778000Y-97282000D01*
X127584845Y-97282000D01*
X127463524Y-97511890D01*
X126492000Y-97511890D01*
X126492000Y-89891890D01*
X127463524Y-89891890D01*
X127508175Y-90039099D01*
X127633359Y-90301920D01*
X127807412Y-90535269D01*
X128023645Y-90730178D01*
X128273748Y-90879157D01*
X128548109Y-90976481D01*
X128778000Y-90855814D01*
X128778000Y-89662000D01*
X127584845Y-89662000D01*
X127463524Y-89891890D01*
X126492000Y-89891890D01*
X126492000Y-81001890D01*
X127463524Y-81001890D01*
X127508175Y-81149099D01*
X127633359Y-81411920D01*
X127807412Y-81645269D01*
X128023645Y-81840178D01*
X128273748Y-81989157D01*
X128548109Y-82086481D01*
X128778000Y-81965814D01*
X128778000Y-80772000D01*
X129032000Y-80772000D01*
X129032000Y-81965814D01*
X129261891Y-82086481D01*
X129536252Y-81989157D01*
X129786355Y-81840178D01*
X130002588Y-81645269D01*
X130140778Y-81460000D01*
X131986928Y-81460000D01*
X131999188Y-81584482D01*
X132035498Y-81704180D01*
X132094463Y-81814494D01*
X132173815Y-81911185D01*
X132270506Y-81990537D01*
X132380820Y-82049502D01*
X132500518Y-82085812D01*
X132625000Y-82098072D01*
X133064250Y-82095000D01*
X133223000Y-81936250D01*
X133223000Y-81087000D01*
X133477000Y-81087000D01*
X133477000Y-81936250D01*
X133635750Y-82095000D01*
X134075000Y-82098072D01*
X134199482Y-82085812D01*
X134319180Y-82049502D01*
X134429494Y-81990537D01*
X134526185Y-81911185D01*
X134605537Y-81814494D01*
X134664502Y-81704180D01*
X134700812Y-81584482D01*
X134713072Y-81460000D01*
X134710000Y-81245750D01*
X134551250Y-81087000D01*
X133477000Y-81087000D01*
X133223000Y-81087000D01*
X132148750Y-81087000D01*
X131990000Y-81245750D01*
X131986928Y-81460000D01*
X130140778Y-81460000D01*
X130176641Y-81411920D01*
X130301825Y-81149099D01*
X130346476Y-81001890D01*
X130225155Y-80772000D01*
X129032000Y-80772000D01*
X128778000Y-80772000D01*
X127584845Y-80772000D01*
X127463524Y-81001890D01*
X126492000Y-81001890D01*
X126492000Y-77255000D01*
X127416928Y-77255000D01*
X127416928Y-78955000D01*
X127429188Y-79079482D01*
X127465498Y-79199180D01*
X127524463Y-79309494D01*
X127603815Y-79406185D01*
X127700506Y-79485537D01*
X127810820Y-79544502D01*
X127891466Y-79568966D01*
X127807412Y-79644731D01*
X127633359Y-79878080D01*
X127508175Y-80140901D01*
X127463524Y-80288110D01*
X127584845Y-80518000D01*
X128778000Y-80518000D01*
X128778000Y-80498000D01*
X129032000Y-80498000D01*
X129032000Y-80518000D01*
X130225155Y-80518000D01*
X130346476Y-80288110D01*
X130301825Y-80140901D01*
X130176641Y-79878080D01*
X130002588Y-79644731D01*
X129918534Y-79568966D01*
X129999180Y-79544502D01*
X130109494Y-79485537D01*
X130206185Y-79406185D01*
X130285537Y-79309494D01*
X130318407Y-79248000D01*
X131921555Y-79248000D01*
X131987297Y-79313742D01*
X132003992Y-79483254D01*
X132054528Y-79649850D01*
X132136595Y-79803386D01*
X132247038Y-79937962D01*
X132253594Y-79943342D01*
X132173815Y-80008815D01*
X132094463Y-80105506D01*
X132035498Y-80215820D01*
X131999188Y-80335518D01*
X131986928Y-80460000D01*
X131990000Y-80674250D01*
X132148750Y-80833000D01*
X133223000Y-80833000D01*
X133223000Y-80813000D01*
X133477000Y-80813000D01*
X133477000Y-80833000D01*
X134551250Y-80833000D01*
X134710000Y-80674250D01*
X134713072Y-80460000D01*
X134700812Y-80335518D01*
X134664502Y-80215820D01*
X134605537Y-80105506D01*
X134526185Y-80008815D01*
X134446406Y-79943342D01*
X134452962Y-79937962D01*
X134563405Y-79803386D01*
X134645472Y-79649850D01*
X134696008Y-79483254D01*
X134712703Y-79313742D01*
X135481447Y-78544999D01*
X135546928Y-78544999D01*
X135546928Y-81910000D01*
X135559188Y-82034482D01*
X135595498Y-82154180D01*
X135611984Y-82185024D01*
X135588102Y-82189774D01*
X135399744Y-82267795D01*
X135230226Y-82381063D01*
X135086063Y-82525226D01*
X134972795Y-82694744D01*
X134894774Y-82883102D01*
X134862572Y-83044996D01*
X132794961Y-85112607D01*
X132763460Y-85138459D01*
X132721863Y-85189146D01*
X132660301Y-85264158D01*
X132583647Y-85407567D01*
X132536445Y-85563174D01*
X132520506Y-85725000D01*
X132524501Y-85765560D01*
X132524500Y-89447067D01*
X130393072Y-87315640D01*
X130393072Y-86145000D01*
X130380812Y-86020518D01*
X130344502Y-85900820D01*
X130285537Y-85790506D01*
X130206185Y-85693815D01*
X130109494Y-85614463D01*
X129999180Y-85555498D01*
X129879482Y-85519188D01*
X129755000Y-85506928D01*
X128055000Y-85506928D01*
X127930518Y-85519188D01*
X127810820Y-85555498D01*
X127700506Y-85614463D01*
X127603815Y-85693815D01*
X127524463Y-85790506D01*
X127465498Y-85900820D01*
X127429188Y-86020518D01*
X127416928Y-86145000D01*
X127416928Y-87845000D01*
X127429188Y-87969482D01*
X127465498Y-88089180D01*
X127524463Y-88199494D01*
X127603815Y-88296185D01*
X127700506Y-88375537D01*
X127810820Y-88434502D01*
X127891466Y-88458966D01*
X127807412Y-88534731D01*
X127633359Y-88768080D01*
X127508175Y-89030901D01*
X127463524Y-89178110D01*
X127584845Y-89408000D01*
X128778000Y-89408000D01*
X128778000Y-89388000D01*
X129032000Y-89388000D01*
X129032000Y-89408000D01*
X129052000Y-89408000D01*
X129052000Y-89662000D01*
X129032000Y-89662000D01*
X129032000Y-90855814D01*
X129261891Y-90976481D01*
X129536252Y-90879157D01*
X129786355Y-90730178D01*
X130002588Y-90535269D01*
X130176641Y-90301920D01*
X130301825Y-90039099D01*
X130346476Y-89891890D01*
X130225156Y-89662002D01*
X130390000Y-89662002D01*
X130390000Y-89647433D01*
X131254501Y-90511934D01*
X131254500Y-92309449D01*
X131250506Y-92350000D01*
X131254500Y-92390550D01*
X131254500Y-92390552D01*
X131266444Y-92511825D01*
X131305234Y-92639700D01*
X131313647Y-92667433D01*
X131390301Y-92810842D01*
X131420007Y-92847038D01*
X131493459Y-92936541D01*
X131524966Y-92962398D01*
X134367606Y-95805039D01*
X134393459Y-95836541D01*
X134488926Y-95914888D01*
X134474742Y-95932171D01*
X134401916Y-96068418D01*
X134357071Y-96216255D01*
X134341928Y-96370000D01*
X134341928Y-96670000D01*
X134357071Y-96823745D01*
X134401916Y-96971582D01*
X134474742Y-97107829D01*
X134513454Y-97155000D01*
X134474742Y-97202171D01*
X134410253Y-97322820D01*
X131147398Y-94059966D01*
X131121541Y-94028459D01*
X130995842Y-93925301D01*
X130852434Y-93848647D01*
X130696826Y-93801444D01*
X130575553Y-93789500D01*
X130575550Y-93789500D01*
X130535000Y-93785506D01*
X130494450Y-93789500D01*
X130393072Y-93789500D01*
X130393072Y-93765000D01*
X130380812Y-93640518D01*
X130344502Y-93520820D01*
X130285537Y-93410506D01*
X130206185Y-93313815D01*
X130109494Y-93234463D01*
X129999180Y-93175498D01*
X129879482Y-93139188D01*
X129755000Y-93126928D01*
X128055000Y-93126928D01*
X127930518Y-93139188D01*
X127810820Y-93175498D01*
X127700506Y-93234463D01*
X127603815Y-93313815D01*
X127524463Y-93410506D01*
X127465498Y-93520820D01*
X127429188Y-93640518D01*
X127416928Y-93765000D01*
X127416928Y-95465000D01*
X127429188Y-95589482D01*
X127465498Y-95709180D01*
X127524463Y-95819494D01*
X127603815Y-95916185D01*
X127700506Y-95995537D01*
X127810820Y-96054502D01*
X127891466Y-96078966D01*
X127807412Y-96154731D01*
X127633359Y-96388080D01*
X127508175Y-96650901D01*
X127463524Y-96798110D01*
X127584845Y-97028000D01*
X128778000Y-97028000D01*
X128778000Y-97008000D01*
X129032000Y-97008000D01*
X129032000Y-97028000D01*
X130225155Y-97028000D01*
X130346476Y-96798110D01*
X130301825Y-96650901D01*
X130176641Y-96388080D01*
X130002588Y-96154731D01*
X129918534Y-96078966D01*
X129999180Y-96054502D01*
X130109494Y-95995537D01*
X130206185Y-95916185D01*
X130285537Y-95819494D01*
X130344502Y-95709180D01*
X130371790Y-95619222D01*
X134367607Y-99615040D01*
X134393459Y-99646541D01*
X134457596Y-99699177D01*
X134519157Y-99749699D01*
X134551995Y-99767251D01*
X134611515Y-99799065D01*
X134692171Y-99865258D01*
X134828418Y-99938084D01*
X134976255Y-99982929D01*
X135130000Y-99998072D01*
X136780000Y-99998072D01*
X136933745Y-99982929D01*
X137081582Y-99938084D01*
X137217829Y-99865258D01*
X137337251Y-99767251D01*
X137435258Y-99647829D01*
X137508084Y-99511582D01*
X137552929Y-99363745D01*
X137568072Y-99210000D01*
X137568072Y-98910000D01*
X137552929Y-98756255D01*
X137508084Y-98608418D01*
X137435258Y-98472171D01*
X137396546Y-98425000D01*
X137435258Y-98377829D01*
X137508084Y-98241582D01*
X137552929Y-98093745D01*
X137568072Y-97940000D01*
X137568072Y-97640000D01*
X137552929Y-97486255D01*
X137508084Y-97338418D01*
X137435258Y-97202171D01*
X137396546Y-97155000D01*
X137435258Y-97107829D01*
X137508084Y-96971582D01*
X137552929Y-96823745D01*
X137568072Y-96670000D01*
X137568072Y-96370000D01*
X137552929Y-96216255D01*
X137508084Y-96068418D01*
X137435258Y-95932171D01*
X137396546Y-95885000D01*
X137435258Y-95837829D01*
X137508084Y-95701582D01*
X137552929Y-95553745D01*
X137568072Y-95400000D01*
X137568072Y-95100000D01*
X137552929Y-94946255D01*
X137508084Y-94798418D01*
X137435258Y-94662171D01*
X137396546Y-94615000D01*
X137435258Y-94567829D01*
X137508084Y-94431582D01*
X137552929Y-94283745D01*
X137568072Y-94130000D01*
X137568072Y-93830000D01*
X137552929Y-93676255D01*
X137508084Y-93528418D01*
X137435258Y-93392171D01*
X137396546Y-93345000D01*
X137435258Y-93297829D01*
X137508084Y-93161582D01*
X137552929Y-93013745D01*
X137568072Y-92860000D01*
X137568072Y-92560000D01*
X137552929Y-92406255D01*
X137508084Y-92258418D01*
X137435258Y-92122171D01*
X137396546Y-92075000D01*
X137435258Y-92027829D01*
X137508084Y-91891582D01*
X137552929Y-91743745D01*
X137568072Y-91590000D01*
X137568072Y-91290000D01*
X137553298Y-91140000D01*
X139291928Y-91140000D01*
X139295000Y-91154250D01*
X139453750Y-91313000D01*
X140778000Y-91313000D01*
X140778000Y-90663750D01*
X140619250Y-90505000D01*
X139930000Y-90501928D01*
X139805518Y-90514188D01*
X139685820Y-90550498D01*
X139575506Y-90609463D01*
X139478815Y-90688815D01*
X139399463Y-90785506D01*
X139340498Y-90895820D01*
X139304188Y-91015518D01*
X139291928Y-91140000D01*
X137553298Y-91140000D01*
X137552929Y-91136255D01*
X137508084Y-90988418D01*
X137435258Y-90852171D01*
X137337251Y-90732749D01*
X137217829Y-90634742D01*
X137081582Y-90561916D01*
X136971000Y-90528372D01*
X136971000Y-88305840D01*
X137553769Y-87723072D01*
X137730000Y-87723072D01*
X137903254Y-87706008D01*
X138069850Y-87655472D01*
X138223386Y-87573405D01*
X138357962Y-87462962D01*
X138363342Y-87456406D01*
X138428815Y-87536185D01*
X138525506Y-87615537D01*
X138635820Y-87674502D01*
X138755518Y-87710812D01*
X138880000Y-87723072D01*
X139094250Y-87720000D01*
X139253000Y-87561250D01*
X139253000Y-86487000D01*
X139507000Y-86487000D01*
X139507000Y-87561250D01*
X139665750Y-87720000D01*
X139880000Y-87723072D01*
X140004482Y-87710812D01*
X140124180Y-87674502D01*
X140234494Y-87615537D01*
X140331185Y-87536185D01*
X140410537Y-87439494D01*
X140469502Y-87329180D01*
X140505812Y-87209482D01*
X140518072Y-87085000D01*
X140515000Y-86645750D01*
X140356250Y-86487000D01*
X139507000Y-86487000D01*
X139253000Y-86487000D01*
X139233000Y-86487000D01*
X139233000Y-86233000D01*
X139253000Y-86233000D01*
X139253000Y-86213000D01*
X139507000Y-86213000D01*
X139507000Y-86233000D01*
X140356250Y-86233000D01*
X140515000Y-86074250D01*
X140518072Y-85635000D01*
X140505812Y-85510518D01*
X140486241Y-85446000D01*
X143699160Y-85446000D01*
X145835000Y-87581841D01*
X145835000Y-87776260D01*
X145888456Y-88045001D01*
X145760049Y-88045001D01*
X145719499Y-88041007D01*
X145678948Y-88045001D01*
X145678946Y-88045001D01*
X145557673Y-88056945D01*
X145402065Y-88104148D01*
X145258656Y-88180802D01*
X145164457Y-88258109D01*
X145164454Y-88258112D01*
X145132958Y-88283960D01*
X145107110Y-88315456D01*
X142482826Y-90939742D01*
X142469502Y-90895820D01*
X142410537Y-90785506D01*
X142331185Y-90688815D01*
X142234494Y-90609463D01*
X142124180Y-90550498D01*
X142004482Y-90514188D01*
X141880000Y-90501928D01*
X141190750Y-90505000D01*
X141032000Y-90663750D01*
X141032000Y-91313000D01*
X141052000Y-91313000D01*
X141052000Y-91567000D01*
X141032000Y-91567000D01*
X141032000Y-91587000D01*
X140778000Y-91587000D01*
X140778000Y-91567000D01*
X139453750Y-91567000D01*
X139295000Y-91725750D01*
X139291928Y-91740000D01*
X139304188Y-91864482D01*
X139340498Y-91984180D01*
X139399463Y-92094494D01*
X139423730Y-92124064D01*
X139351916Y-92258418D01*
X139307071Y-92406255D01*
X139291928Y-92560000D01*
X139291928Y-92860000D01*
X139307071Y-93013745D01*
X139351916Y-93161582D01*
X139424742Y-93297829D01*
X139463454Y-93345000D01*
X139424742Y-93392171D01*
X139351916Y-93528418D01*
X139307071Y-93676255D01*
X139291928Y-93830000D01*
X139291928Y-94130000D01*
X139307071Y-94283745D01*
X139351916Y-94431582D01*
X139424742Y-94567829D01*
X139463454Y-94615000D01*
X139424742Y-94662171D01*
X139351916Y-94798418D01*
X139307071Y-94946255D01*
X139291928Y-95100000D01*
X139291928Y-95400000D01*
X139307071Y-95553745D01*
X139351916Y-95701582D01*
X139424742Y-95837829D01*
X139463454Y-95885000D01*
X139424742Y-95932171D01*
X139351916Y-96068418D01*
X139307071Y-96216255D01*
X139291928Y-96370000D01*
X139291928Y-96670000D01*
X139307071Y-96823745D01*
X139351916Y-96971582D01*
X139424742Y-97107829D01*
X139463454Y-97155000D01*
X139424742Y-97202171D01*
X139351916Y-97338418D01*
X139307071Y-97486255D01*
X139291928Y-97640000D01*
X139291928Y-97940000D01*
X139307071Y-98093745D01*
X139351916Y-98241582D01*
X139424742Y-98377829D01*
X139463454Y-98425000D01*
X139424742Y-98472171D01*
X139351916Y-98608418D01*
X139307071Y-98756255D01*
X139291928Y-98910000D01*
X139291928Y-99210000D01*
X139307071Y-99363745D01*
X139351916Y-99511582D01*
X139424742Y-99647829D01*
X139522749Y-99767251D01*
X139642171Y-99865258D01*
X139778418Y-99938084D01*
X139926255Y-99982929D01*
X140080000Y-99998072D01*
X140675640Y-99998072D01*
X142197611Y-101520045D01*
X142223459Y-101551541D01*
X142254955Y-101577389D01*
X142254958Y-101577392D01*
X142349157Y-101654699D01*
X142492566Y-101731353D01*
X142648174Y-101778556D01*
X142769447Y-101790500D01*
X142769449Y-101790500D01*
X142810000Y-101794494D01*
X142850550Y-101790500D01*
X147327497Y-101790500D01*
X147464744Y-101882205D01*
X147653102Y-101960226D01*
X147853061Y-102000000D01*
X148056939Y-102000000D01*
X148256898Y-101960226D01*
X148445256Y-101882205D01*
X148614774Y-101768937D01*
X148758937Y-101624774D01*
X148872205Y-101455256D01*
X148950226Y-101266898D01*
X148957566Y-101229998D01*
X150943422Y-103215855D01*
X150915000Y-103358740D01*
X150915000Y-103651260D01*
X150972068Y-103938158D01*
X151084010Y-104208411D01*
X151246525Y-104451632D01*
X151453368Y-104658475D01*
X151627760Y-104775000D01*
X151453368Y-104891525D01*
X151246525Y-105098368D01*
X151084010Y-105341589D01*
X150972068Y-105611842D01*
X150915000Y-105898740D01*
X150915000Y-106191260D01*
X150972068Y-106478158D01*
X151084010Y-106748411D01*
X151246525Y-106991632D01*
X151453368Y-107198475D01*
X151696589Y-107360990D01*
X151966842Y-107472932D01*
X152253740Y-107530000D01*
X152546260Y-107530000D01*
X152833158Y-107472932D01*
X153103411Y-107360990D01*
X153346632Y-107198475D01*
X153553475Y-106991632D01*
X153715990Y-106748411D01*
X153827932Y-106478158D01*
X153885000Y-106191260D01*
X153885000Y-105898740D01*
X153827932Y-105611842D01*
X153715990Y-105341589D01*
X153553475Y-105098368D01*
X153346632Y-104891525D01*
X153172240Y-104775000D01*
X153346632Y-104658475D01*
X153553475Y-104451632D01*
X153715990Y-104208411D01*
X153827932Y-103938158D01*
X153885000Y-103651260D01*
X153885000Y-103358740D01*
X153827932Y-103071842D01*
X153715990Y-102801589D01*
X153553475Y-102558368D01*
X153346632Y-102351525D01*
X153172240Y-102235000D01*
X153346632Y-102118475D01*
X153553475Y-101911632D01*
X153715990Y-101668411D01*
X153827932Y-101398158D01*
X153885000Y-101111260D01*
X153885000Y-100818740D01*
X153827932Y-100531842D01*
X153715990Y-100261589D01*
X153553475Y-100018368D01*
X153346632Y-99811525D01*
X153164466Y-99689805D01*
X153281355Y-99620178D01*
X153497588Y-99425269D01*
X153671641Y-99191920D01*
X153796825Y-98929099D01*
X153841476Y-98781890D01*
X153720155Y-98552000D01*
X152527000Y-98552000D01*
X152527000Y-98572000D01*
X152273000Y-98572000D01*
X152273000Y-98552000D01*
X151079845Y-98552000D01*
X150958524Y-98781890D01*
X151003175Y-98929099D01*
X151128359Y-99191920D01*
X151302412Y-99425269D01*
X151518645Y-99620178D01*
X151635534Y-99689805D01*
X151453368Y-99811525D01*
X151246525Y-100018368D01*
X151084010Y-100261589D01*
X150972068Y-100531842D01*
X150915000Y-100818740D01*
X150915000Y-100852567D01*
X148567398Y-98504966D01*
X148541541Y-98473459D01*
X148415842Y-98370301D01*
X148272434Y-98293647D01*
X148116826Y-98246444D01*
X147995553Y-98234500D01*
X147995550Y-98234500D01*
X147955000Y-98230506D01*
X147914450Y-98234500D01*
X143851933Y-98234500D01*
X142962932Y-97345500D01*
X143328658Y-97345500D01*
X143334528Y-97364851D01*
X143416595Y-97518387D01*
X143527038Y-97652962D01*
X143661613Y-97763405D01*
X143815149Y-97845472D01*
X143981745Y-97896008D01*
X144154999Y-97913072D01*
X145405001Y-97913072D01*
X145578255Y-97896008D01*
X145744851Y-97845472D01*
X145898387Y-97763405D01*
X146032962Y-97652962D01*
X146143405Y-97518387D01*
X146225472Y-97364851D01*
X146276008Y-97198255D01*
X146293072Y-97025001D01*
X146293072Y-96399999D01*
X146276008Y-96226745D01*
X146225472Y-96060149D01*
X146143405Y-95906613D01*
X146032962Y-95772038D01*
X145898387Y-95661595D01*
X145744851Y-95579528D01*
X145578255Y-95528992D01*
X145405001Y-95511928D01*
X144154999Y-95511928D01*
X143981745Y-95528992D01*
X143815149Y-95579528D01*
X143661613Y-95661595D01*
X143621518Y-95694500D01*
X142460232Y-95694500D01*
X142502929Y-95553745D01*
X142518072Y-95400000D01*
X142518072Y-95100000D01*
X142502929Y-94946255D01*
X142458084Y-94798418D01*
X142385258Y-94662171D01*
X142346546Y-94615000D01*
X142385258Y-94567829D01*
X142458084Y-94431582D01*
X142502929Y-94283745D01*
X142518072Y-94130000D01*
X142518072Y-93830000D01*
X142502929Y-93676255D01*
X142458084Y-93528418D01*
X142385258Y-93392171D01*
X142371074Y-93374888D01*
X142466541Y-93296541D01*
X142492398Y-93265034D01*
X145831928Y-89925506D01*
X145831928Y-90490639D01*
X144224961Y-92097607D01*
X144193460Y-92123459D01*
X144167610Y-92154958D01*
X144167609Y-92154959D01*
X144090301Y-92249158D01*
X144013647Y-92392567D01*
X143966445Y-92548174D01*
X143960307Y-92610495D01*
X143815149Y-92654528D01*
X143661613Y-92736595D01*
X143527038Y-92847038D01*
X143416595Y-92981613D01*
X143334528Y-93135149D01*
X143283992Y-93301745D01*
X143266928Y-93474999D01*
X143266928Y-94100001D01*
X143283992Y-94273255D01*
X143334528Y-94439851D01*
X143416595Y-94593387D01*
X143527038Y-94727962D01*
X143661613Y-94838405D01*
X143815149Y-94920472D01*
X143981745Y-94971008D01*
X144154999Y-94988072D01*
X145405001Y-94988072D01*
X145578255Y-94971008D01*
X145744851Y-94920472D01*
X145898387Y-94838405D01*
X146032962Y-94727962D01*
X146143405Y-94593387D01*
X146225472Y-94439851D01*
X146276008Y-94273255D01*
X146293072Y-94100001D01*
X146293072Y-93474999D01*
X146276008Y-93301745D01*
X146225472Y-93135149D01*
X146143405Y-92981613D01*
X146032962Y-92847038D01*
X145910718Y-92746715D01*
X146999361Y-91658072D01*
X148170000Y-91658072D01*
X148294482Y-91645812D01*
X148414180Y-91609502D01*
X148524494Y-91550537D01*
X148621185Y-91471185D01*
X148700537Y-91374494D01*
X148759502Y-91264180D01*
X148795812Y-91144482D01*
X148808072Y-91020000D01*
X148808072Y-89675943D01*
X148936933Y-89636854D01*
X149080341Y-89560200D01*
X149206040Y-89457042D01*
X149231897Y-89425535D01*
X150635004Y-88022428D01*
X150796898Y-87990226D01*
X150985256Y-87912205D01*
X151154774Y-87798937D01*
X151298937Y-87654774D01*
X151384000Y-87527467D01*
X151384000Y-89329901D01*
X151384001Y-89329911D01*
X151384000Y-91881782D01*
X151305820Y-91905498D01*
X151195506Y-91964463D01*
X151098815Y-92043815D01*
X151019463Y-92140506D01*
X150960498Y-92250820D01*
X150924188Y-92370518D01*
X150911928Y-92495000D01*
X150911928Y-94195000D01*
X150924188Y-94319482D01*
X150960498Y-94439180D01*
X151019463Y-94549494D01*
X151098815Y-94646185D01*
X151195506Y-94725537D01*
X151305820Y-94784502D01*
X151378380Y-94806513D01*
X151246525Y-94938368D01*
X151084010Y-95181589D01*
X150972068Y-95451842D01*
X150915000Y-95738740D01*
X150915000Y-96031260D01*
X150972068Y-96318158D01*
X151084010Y-96588411D01*
X151246525Y-96831632D01*
X151453368Y-97038475D01*
X151635534Y-97160195D01*
X151518645Y-97229822D01*
X151302412Y-97424731D01*
X151128359Y-97658080D01*
X151003175Y-97920901D01*
X150958524Y-98068110D01*
X151079845Y-98298000D01*
X152273000Y-98298000D01*
X152273000Y-98278000D01*
X152527000Y-98278000D01*
X152527000Y-98298000D01*
X153720155Y-98298000D01*
X153841476Y-98068110D01*
X153796825Y-97920901D01*
X153671641Y-97658080D01*
X153497588Y-97424731D01*
X153281355Y-97229822D01*
X153164466Y-97160195D01*
X153346632Y-97038475D01*
X153553475Y-96831632D01*
X153715990Y-96588411D01*
X153827932Y-96318158D01*
X153885000Y-96031260D01*
X153885000Y-95738740D01*
X153827932Y-95451842D01*
X153715990Y-95181589D01*
X153618043Y-95035000D01*
X168691928Y-95035000D01*
X168691928Y-96735000D01*
X168704188Y-96859482D01*
X168740498Y-96979180D01*
X168799463Y-97089494D01*
X168878815Y-97186185D01*
X168975506Y-97265537D01*
X169085820Y-97324502D01*
X169158380Y-97346513D01*
X169026525Y-97478368D01*
X168864010Y-97721589D01*
X168752068Y-97991842D01*
X168695000Y-98278740D01*
X168695000Y-98571260D01*
X168752068Y-98858158D01*
X168864010Y-99128411D01*
X169026525Y-99371632D01*
X169233368Y-99578475D01*
X169407760Y-99695000D01*
X169233368Y-99811525D01*
X169026525Y-100018368D01*
X168864010Y-100261589D01*
X168752068Y-100531842D01*
X168695000Y-100818740D01*
X168695000Y-101111260D01*
X168752068Y-101398158D01*
X168864010Y-101668411D01*
X169026525Y-101911632D01*
X169233368Y-102118475D01*
X169407760Y-102235000D01*
X169233368Y-102351525D01*
X169026525Y-102558368D01*
X168864010Y-102801589D01*
X168752068Y-103071842D01*
X168695000Y-103358740D01*
X168695000Y-103651260D01*
X168752068Y-103938158D01*
X168864010Y-104208411D01*
X169026525Y-104451632D01*
X169233368Y-104658475D01*
X169476589Y-104820990D01*
X169746842Y-104932932D01*
X170033740Y-104990000D01*
X170326260Y-104990000D01*
X170613158Y-104932932D01*
X170883411Y-104820990D01*
X171126632Y-104658475D01*
X171333475Y-104451632D01*
X171495990Y-104208411D01*
X171607932Y-103938158D01*
X171665000Y-103651260D01*
X171665000Y-103358740D01*
X171607932Y-103071842D01*
X171495990Y-102801589D01*
X171333475Y-102558368D01*
X171126632Y-102351525D01*
X170952240Y-102235000D01*
X171126632Y-102118475D01*
X171333475Y-101911632D01*
X171495990Y-101668411D01*
X171607932Y-101398158D01*
X171665000Y-101111260D01*
X171665000Y-100818740D01*
X171607932Y-100531842D01*
X171495990Y-100261589D01*
X171333475Y-100018368D01*
X171126632Y-99811525D01*
X170952240Y-99695000D01*
X171126632Y-99578475D01*
X171333475Y-99371632D01*
X171495990Y-99128411D01*
X171607932Y-98858158D01*
X171665000Y-98571260D01*
X171665000Y-98278740D01*
X171607932Y-97991842D01*
X171495990Y-97721589D01*
X171333475Y-97478368D01*
X171201620Y-97346513D01*
X171274180Y-97324502D01*
X171384494Y-97265537D01*
X171481185Y-97186185D01*
X171560537Y-97089494D01*
X171619502Y-96979180D01*
X171655812Y-96859482D01*
X171668072Y-96735000D01*
X171668072Y-95035000D01*
X171655812Y-94910518D01*
X171619502Y-94790820D01*
X171560537Y-94680506D01*
X171481185Y-94583815D01*
X171384494Y-94504463D01*
X171274180Y-94445498D01*
X171154482Y-94409188D01*
X171030000Y-94396928D01*
X169330000Y-94396928D01*
X169205518Y-94409188D01*
X169085820Y-94445498D01*
X168975506Y-94504463D01*
X168878815Y-94583815D01*
X168799463Y-94680506D01*
X168740498Y-94790820D01*
X168704188Y-94910518D01*
X168691928Y-95035000D01*
X153618043Y-95035000D01*
X153553475Y-94938368D01*
X153421620Y-94806513D01*
X153494180Y-94784502D01*
X153604494Y-94725537D01*
X153701185Y-94646185D01*
X153780537Y-94549494D01*
X153839502Y-94439180D01*
X153875812Y-94319482D01*
X153888072Y-94195000D01*
X153888072Y-92495000D01*
X153875812Y-92370518D01*
X153839502Y-92250820D01*
X153780537Y-92140506D01*
X153701185Y-92043815D01*
X153604494Y-91964463D01*
X153494180Y-91905498D01*
X153416000Y-91881782D01*
X153416000Y-85519893D01*
X153420914Y-85469999D01*
X153416000Y-85420105D01*
X153416000Y-85420098D01*
X153401298Y-85270829D01*
X153343202Y-85079313D01*
X153248860Y-84902810D01*
X153121896Y-84748104D01*
X153083133Y-84716292D01*
X151908731Y-83541890D01*
X157308524Y-83541890D01*
X157353175Y-83689099D01*
X157478359Y-83951920D01*
X157652412Y-84185269D01*
X157868645Y-84380178D01*
X158118748Y-84529157D01*
X158393109Y-84626481D01*
X158623000Y-84505814D01*
X158623000Y-83312000D01*
X158877000Y-83312000D01*
X158877000Y-84505814D01*
X159106891Y-84626481D01*
X159381252Y-84529157D01*
X159631355Y-84380178D01*
X159847588Y-84185269D01*
X160021641Y-83951920D01*
X160146825Y-83689099D01*
X160191476Y-83541890D01*
X162388524Y-83541890D01*
X162433175Y-83689099D01*
X162558359Y-83951920D01*
X162732412Y-84185269D01*
X162948645Y-84380178D01*
X163198748Y-84529157D01*
X163473109Y-84626481D01*
X163703000Y-84505814D01*
X163703000Y-83312000D01*
X163957000Y-83312000D01*
X163957000Y-84505814D01*
X164186891Y-84626481D01*
X164461252Y-84529157D01*
X164711355Y-84380178D01*
X164927588Y-84185269D01*
X165101641Y-83951920D01*
X165226825Y-83689099D01*
X165271476Y-83541890D01*
X167468524Y-83541890D01*
X167513175Y-83689099D01*
X167638359Y-83951920D01*
X167812412Y-84185269D01*
X168028645Y-84380178D01*
X168278748Y-84529157D01*
X168553109Y-84626481D01*
X168783000Y-84505814D01*
X168783000Y-83312000D01*
X169037000Y-83312000D01*
X169037000Y-84505814D01*
X169266891Y-84626481D01*
X169541252Y-84529157D01*
X169791355Y-84380178D01*
X170007588Y-84185269D01*
X170181641Y-83951920D01*
X170306825Y-83689099D01*
X170351476Y-83541890D01*
X170230155Y-83312000D01*
X169037000Y-83312000D01*
X168783000Y-83312000D01*
X167589845Y-83312000D01*
X167468524Y-83541890D01*
X165271476Y-83541890D01*
X165150155Y-83312000D01*
X163957000Y-83312000D01*
X163703000Y-83312000D01*
X162509845Y-83312000D01*
X162388524Y-83541890D01*
X160191476Y-83541890D01*
X160070155Y-83312000D01*
X158877000Y-83312000D01*
X158623000Y-83312000D01*
X157429845Y-83312000D01*
X157308524Y-83541890D01*
X151908731Y-83541890D01*
X149193072Y-80826232D01*
X149193072Y-80579518D01*
X150027077Y-81413523D01*
X150062867Y-81457133D01*
X150236911Y-81599968D01*
X150321664Y-81645269D01*
X150435476Y-81706103D01*
X150650932Y-81771461D01*
X150671517Y-81773488D01*
X150818854Y-81788000D01*
X150818861Y-81788000D01*
X150875000Y-81793529D01*
X150931139Y-81788000D01*
X157792893Y-81788000D01*
X157803368Y-81798475D01*
X157985534Y-81920195D01*
X157868645Y-81989822D01*
X157652412Y-82184731D01*
X157478359Y-82418080D01*
X157353175Y-82680901D01*
X157308524Y-82828110D01*
X157429845Y-83058000D01*
X158623000Y-83058000D01*
X158623000Y-83038000D01*
X158877000Y-83038000D01*
X158877000Y-83058000D01*
X160070155Y-83058000D01*
X160191476Y-82828110D01*
X160146825Y-82680901D01*
X160021641Y-82418080D01*
X159847588Y-82184731D01*
X159631355Y-81989822D01*
X159514466Y-81920195D01*
X159696632Y-81798475D01*
X159707107Y-81788000D01*
X162872893Y-81788000D01*
X162883368Y-81798475D01*
X163065534Y-81920195D01*
X162948645Y-81989822D01*
X162732412Y-82184731D01*
X162558359Y-82418080D01*
X162433175Y-82680901D01*
X162388524Y-82828110D01*
X162509845Y-83058000D01*
X163703000Y-83058000D01*
X163703000Y-83038000D01*
X163957000Y-83038000D01*
X163957000Y-83058000D01*
X165150155Y-83058000D01*
X165271476Y-82828110D01*
X165226825Y-82680901D01*
X165101641Y-82418080D01*
X164927588Y-82184731D01*
X164711355Y-81989822D01*
X164594466Y-81920195D01*
X164776632Y-81798475D01*
X164787107Y-81788000D01*
X167952893Y-81788000D01*
X167963368Y-81798475D01*
X168145534Y-81920195D01*
X168028645Y-81989822D01*
X167812412Y-82184731D01*
X167638359Y-82418080D01*
X167513175Y-82680901D01*
X167468524Y-82828110D01*
X167589845Y-83058000D01*
X168783000Y-83058000D01*
X168783000Y-83038000D01*
X169037000Y-83038000D01*
X169037000Y-83058000D01*
X170230155Y-83058000D01*
X170351476Y-82828110D01*
X170306825Y-82680901D01*
X170181641Y-82418080D01*
X170007588Y-82184731D01*
X169791355Y-81989822D01*
X169674466Y-81920195D01*
X169856632Y-81798475D01*
X170063475Y-81591632D01*
X170225990Y-81348411D01*
X170337932Y-81078158D01*
X170395000Y-80791260D01*
X170395000Y-80498740D01*
X170337932Y-80211842D01*
X170225990Y-79941589D01*
X170063475Y-79698368D01*
X169931620Y-79566513D01*
X170004180Y-79544502D01*
X170114494Y-79485537D01*
X170211185Y-79406185D01*
X170290537Y-79309494D01*
X170349502Y-79199180D01*
X170385812Y-79079482D01*
X170398072Y-78955000D01*
X170398072Y-77255000D01*
X170385812Y-77130518D01*
X170349502Y-77010820D01*
X170290537Y-76900506D01*
X170211185Y-76803815D01*
X170114494Y-76724463D01*
X170004180Y-76665498D01*
X169884482Y-76629188D01*
X169760000Y-76616928D01*
X168060000Y-76616928D01*
X167935518Y-76629188D01*
X167815820Y-76665498D01*
X167705506Y-76724463D01*
X167608815Y-76803815D01*
X167529463Y-76900506D01*
X167470498Y-77010820D01*
X167434188Y-77130518D01*
X167421928Y-77255000D01*
X167421928Y-78955000D01*
X167434188Y-79079482D01*
X167470498Y-79199180D01*
X167529463Y-79309494D01*
X167608815Y-79406185D01*
X167705506Y-79485537D01*
X167736306Y-79502000D01*
X165003694Y-79502000D01*
X165034494Y-79485537D01*
X165131185Y-79406185D01*
X165210537Y-79309494D01*
X165269502Y-79199180D01*
X165305812Y-79079482D01*
X165318072Y-78955000D01*
X165318072Y-77255000D01*
X165305812Y-77130518D01*
X165269502Y-77010820D01*
X165210537Y-76900506D01*
X165131185Y-76803815D01*
X165034494Y-76724463D01*
X164924180Y-76665498D01*
X164804482Y-76629188D01*
X164680000Y-76616928D01*
X162980000Y-76616928D01*
X162855518Y-76629188D01*
X162735820Y-76665498D01*
X162625506Y-76724463D01*
X162528815Y-76803815D01*
X162449463Y-76900506D01*
X162390498Y-77010820D01*
X162354188Y-77130518D01*
X162341928Y-77255000D01*
X162341928Y-78955000D01*
X162354188Y-79079482D01*
X162390498Y-79199180D01*
X162449463Y-79309494D01*
X162528815Y-79406185D01*
X162625506Y-79485537D01*
X162656306Y-79502000D01*
X159923694Y-79502000D01*
X159954494Y-79485537D01*
X160051185Y-79406185D01*
X160130537Y-79309494D01*
X160189502Y-79199180D01*
X160225812Y-79079482D01*
X160238072Y-78955000D01*
X160238072Y-77255000D01*
X160225812Y-77130518D01*
X160189502Y-77010820D01*
X160130537Y-76900506D01*
X160051185Y-76803815D01*
X159954494Y-76724463D01*
X159844180Y-76665498D01*
X159724482Y-76629188D01*
X159600000Y-76616928D01*
X157900000Y-76616928D01*
X157775518Y-76629188D01*
X157655820Y-76665498D01*
X157545506Y-76724463D01*
X157448815Y-76803815D01*
X157369463Y-76900506D01*
X157310498Y-77010820D01*
X157274188Y-77130518D01*
X157261928Y-77255000D01*
X157261928Y-78955000D01*
X157274188Y-79079482D01*
X157310498Y-79199180D01*
X157369463Y-79309494D01*
X157448815Y-79406185D01*
X157545506Y-79485537D01*
X157576306Y-79502000D01*
X151348446Y-79502000D01*
X149193072Y-77346627D01*
X149193072Y-77275000D01*
X149180812Y-77150518D01*
X149144502Y-77030820D01*
X149085537Y-76920506D01*
X149006185Y-76823815D01*
X148909494Y-76744463D01*
X148799180Y-76685498D01*
X148679482Y-76649188D01*
X148555000Y-76636928D01*
X148305618Y-76636928D01*
X148179067Y-76598539D01*
X148011146Y-76582000D01*
X148011139Y-76582000D01*
X147955000Y-76576471D01*
X147898861Y-76582000D01*
X144996246Y-76582000D01*
X144936185Y-76508815D01*
X144839494Y-76429463D01*
X144729180Y-76370498D01*
X144609482Y-76334188D01*
X144485000Y-76321928D01*
X143553993Y-76321928D01*
X143401066Y-76275538D01*
X143233145Y-76258999D01*
X143233138Y-76258999D01*
X143176999Y-76253470D01*
X143120860Y-76258999D01*
X135064140Y-76258999D01*
X135008001Y-76253470D01*
X134951862Y-76258999D01*
X134951855Y-76258999D01*
X134783934Y-76275538D01*
X134568477Y-76340896D01*
X134513096Y-76370498D01*
X134369912Y-76447031D01*
X134195868Y-76589866D01*
X134160078Y-76633476D01*
X133350000Y-77443555D01*
X133242927Y-77336482D01*
X133207133Y-77292867D01*
X133033089Y-77150032D01*
X132834523Y-77043897D01*
X132619067Y-76978539D01*
X132451146Y-76962000D01*
X132451139Y-76962000D01*
X132395000Y-76956471D01*
X132338861Y-76962000D01*
X130318407Y-76962000D01*
X130285537Y-76900506D01*
X130206185Y-76803815D01*
X130109494Y-76724463D01*
X129999180Y-76665498D01*
X129879482Y-76629188D01*
X129755000Y-76616928D01*
X128055000Y-76616928D01*
X127930518Y-76629188D01*
X127810820Y-76665498D01*
X127700506Y-76724463D01*
X127603815Y-76803815D01*
X127524463Y-76900506D01*
X127465498Y-77010820D01*
X127429188Y-77130518D01*
X127416928Y-77255000D01*
X126492000Y-77255000D01*
X126492000Y-75590000D01*
X172593000Y-75590000D01*
X172593000Y-113640000D01*
%TA.AperFunction,Conductor*%
D20*
G36*
X172593000Y-113640000D02*
G01*
X126492000Y-113640000D01*
X126492000Y-97511890D01*
X127463524Y-97511890D01*
X127508175Y-97659099D01*
X127633359Y-97921920D01*
X127807412Y-98155269D01*
X128023645Y-98350178D01*
X128273748Y-98499157D01*
X128548109Y-98596481D01*
X128778000Y-98475814D01*
X128778000Y-97282000D01*
X129032000Y-97282000D01*
X129032000Y-98475814D01*
X129261891Y-98596481D01*
X129536252Y-98499157D01*
X129786355Y-98350178D01*
X130002588Y-98155269D01*
X130176641Y-97921920D01*
X130301825Y-97659099D01*
X130346476Y-97511890D01*
X130225155Y-97282000D01*
X129032000Y-97282000D01*
X128778000Y-97282000D01*
X127584845Y-97282000D01*
X127463524Y-97511890D01*
X126492000Y-97511890D01*
X126492000Y-89891890D01*
X127463524Y-89891890D01*
X127508175Y-90039099D01*
X127633359Y-90301920D01*
X127807412Y-90535269D01*
X128023645Y-90730178D01*
X128273748Y-90879157D01*
X128548109Y-90976481D01*
X128778000Y-90855814D01*
X128778000Y-89662000D01*
X127584845Y-89662000D01*
X127463524Y-89891890D01*
X126492000Y-89891890D01*
X126492000Y-81001890D01*
X127463524Y-81001890D01*
X127508175Y-81149099D01*
X127633359Y-81411920D01*
X127807412Y-81645269D01*
X128023645Y-81840178D01*
X128273748Y-81989157D01*
X128548109Y-82086481D01*
X128778000Y-81965814D01*
X128778000Y-80772000D01*
X129032000Y-80772000D01*
X129032000Y-81965814D01*
X129261891Y-82086481D01*
X129536252Y-81989157D01*
X129786355Y-81840178D01*
X130002588Y-81645269D01*
X130140778Y-81460000D01*
X131986928Y-81460000D01*
X131999188Y-81584482D01*
X132035498Y-81704180D01*
X132094463Y-81814494D01*
X132173815Y-81911185D01*
X132270506Y-81990537D01*
X132380820Y-82049502D01*
X132500518Y-82085812D01*
X132625000Y-82098072D01*
X133064250Y-82095000D01*
X133223000Y-81936250D01*
X133223000Y-81087000D01*
X133477000Y-81087000D01*
X133477000Y-81936250D01*
X133635750Y-82095000D01*
X134075000Y-82098072D01*
X134199482Y-82085812D01*
X134319180Y-82049502D01*
X134429494Y-81990537D01*
X134526185Y-81911185D01*
X134605537Y-81814494D01*
X134664502Y-81704180D01*
X134700812Y-81584482D01*
X134713072Y-81460000D01*
X134710000Y-81245750D01*
X134551250Y-81087000D01*
X133477000Y-81087000D01*
X133223000Y-81087000D01*
X132148750Y-81087000D01*
X131990000Y-81245750D01*
X131986928Y-81460000D01*
X130140778Y-81460000D01*
X130176641Y-81411920D01*
X130301825Y-81149099D01*
X130346476Y-81001890D01*
X130225155Y-80772000D01*
X129032000Y-80772000D01*
X128778000Y-80772000D01*
X127584845Y-80772000D01*
X127463524Y-81001890D01*
X126492000Y-81001890D01*
X126492000Y-77255000D01*
X127416928Y-77255000D01*
X127416928Y-78955000D01*
X127429188Y-79079482D01*
X127465498Y-79199180D01*
X127524463Y-79309494D01*
X127603815Y-79406185D01*
X127700506Y-79485537D01*
X127810820Y-79544502D01*
X127891466Y-79568966D01*
X127807412Y-79644731D01*
X127633359Y-79878080D01*
X127508175Y-80140901D01*
X127463524Y-80288110D01*
X127584845Y-80518000D01*
X128778000Y-80518000D01*
X128778000Y-80498000D01*
X129032000Y-80498000D01*
X129032000Y-80518000D01*
X130225155Y-80518000D01*
X130346476Y-80288110D01*
X130301825Y-80140901D01*
X130176641Y-79878080D01*
X130002588Y-79644731D01*
X129918534Y-79568966D01*
X129999180Y-79544502D01*
X130109494Y-79485537D01*
X130206185Y-79406185D01*
X130285537Y-79309494D01*
X130318407Y-79248000D01*
X131921555Y-79248000D01*
X131987297Y-79313742D01*
X132003992Y-79483254D01*
X132054528Y-79649850D01*
X132136595Y-79803386D01*
X132247038Y-79937962D01*
X132253594Y-79943342D01*
X132173815Y-80008815D01*
X132094463Y-80105506D01*
X132035498Y-80215820D01*
X131999188Y-80335518D01*
X131986928Y-80460000D01*
X131990000Y-80674250D01*
X132148750Y-80833000D01*
X133223000Y-80833000D01*
X133223000Y-80813000D01*
X133477000Y-80813000D01*
X133477000Y-80833000D01*
X134551250Y-80833000D01*
X134710000Y-80674250D01*
X134713072Y-80460000D01*
X134700812Y-80335518D01*
X134664502Y-80215820D01*
X134605537Y-80105506D01*
X134526185Y-80008815D01*
X134446406Y-79943342D01*
X134452962Y-79937962D01*
X134563405Y-79803386D01*
X134645472Y-79649850D01*
X134696008Y-79483254D01*
X134712703Y-79313742D01*
X135481447Y-78544999D01*
X135546928Y-78544999D01*
X135546928Y-81910000D01*
X135559188Y-82034482D01*
X135595498Y-82154180D01*
X135611984Y-82185024D01*
X135588102Y-82189774D01*
X135399744Y-82267795D01*
X135230226Y-82381063D01*
X135086063Y-82525226D01*
X134972795Y-82694744D01*
X134894774Y-82883102D01*
X134862572Y-83044996D01*
X132794961Y-85112607D01*
X132763460Y-85138459D01*
X132721863Y-85189146D01*
X132660301Y-85264158D01*
X132583647Y-85407567D01*
X132536445Y-85563174D01*
X132520506Y-85725000D01*
X132524501Y-85765560D01*
X132524500Y-89447067D01*
X130393072Y-87315640D01*
X130393072Y-86145000D01*
X130380812Y-86020518D01*
X130344502Y-85900820D01*
X130285537Y-85790506D01*
X130206185Y-85693815D01*
X130109494Y-85614463D01*
X129999180Y-85555498D01*
X129879482Y-85519188D01*
X129755000Y-85506928D01*
X128055000Y-85506928D01*
X127930518Y-85519188D01*
X127810820Y-85555498D01*
X127700506Y-85614463D01*
X127603815Y-85693815D01*
X127524463Y-85790506D01*
X127465498Y-85900820D01*
X127429188Y-86020518D01*
X127416928Y-86145000D01*
X127416928Y-87845000D01*
X127429188Y-87969482D01*
X127465498Y-88089180D01*
X127524463Y-88199494D01*
X127603815Y-88296185D01*
X127700506Y-88375537D01*
X127810820Y-88434502D01*
X127891466Y-88458966D01*
X127807412Y-88534731D01*
X127633359Y-88768080D01*
X127508175Y-89030901D01*
X127463524Y-89178110D01*
X127584845Y-89408000D01*
X128778000Y-89408000D01*
X128778000Y-89388000D01*
X129032000Y-89388000D01*
X129032000Y-89408000D01*
X129052000Y-89408000D01*
X129052000Y-89662000D01*
X129032000Y-89662000D01*
X129032000Y-90855814D01*
X129261891Y-90976481D01*
X129536252Y-90879157D01*
X129786355Y-90730178D01*
X130002588Y-90535269D01*
X130176641Y-90301920D01*
X130301825Y-90039099D01*
X130346476Y-89891890D01*
X130225156Y-89662002D01*
X130390000Y-89662002D01*
X130390000Y-89647433D01*
X131254501Y-90511934D01*
X131254500Y-92309449D01*
X131250506Y-92350000D01*
X131254500Y-92390550D01*
X131254500Y-92390552D01*
X131266444Y-92511825D01*
X131305234Y-92639700D01*
X131313647Y-92667433D01*
X131390301Y-92810842D01*
X131420007Y-92847038D01*
X131493459Y-92936541D01*
X131524966Y-92962398D01*
X134367606Y-95805039D01*
X134393459Y-95836541D01*
X134488926Y-95914888D01*
X134474742Y-95932171D01*
X134401916Y-96068418D01*
X134357071Y-96216255D01*
X134341928Y-96370000D01*
X134341928Y-96670000D01*
X134357071Y-96823745D01*
X134401916Y-96971582D01*
X134474742Y-97107829D01*
X134513454Y-97155000D01*
X134474742Y-97202171D01*
X134410253Y-97322820D01*
X131147398Y-94059966D01*
X131121541Y-94028459D01*
X130995842Y-93925301D01*
X130852434Y-93848647D01*
X130696826Y-93801444D01*
X130575553Y-93789500D01*
X130575550Y-93789500D01*
X130535000Y-93785506D01*
X130494450Y-93789500D01*
X130393072Y-93789500D01*
X130393072Y-93765000D01*
X130380812Y-93640518D01*
X130344502Y-93520820D01*
X130285537Y-93410506D01*
X130206185Y-93313815D01*
X130109494Y-93234463D01*
X129999180Y-93175498D01*
X129879482Y-93139188D01*
X129755000Y-93126928D01*
X128055000Y-93126928D01*
X127930518Y-93139188D01*
X127810820Y-93175498D01*
X127700506Y-93234463D01*
X127603815Y-93313815D01*
X127524463Y-93410506D01*
X127465498Y-93520820D01*
X127429188Y-93640518D01*
X127416928Y-93765000D01*
X127416928Y-95465000D01*
X127429188Y-95589482D01*
X127465498Y-95709180D01*
X127524463Y-95819494D01*
X127603815Y-95916185D01*
X127700506Y-95995537D01*
X127810820Y-96054502D01*
X127891466Y-96078966D01*
X127807412Y-96154731D01*
X127633359Y-96388080D01*
X127508175Y-96650901D01*
X127463524Y-96798110D01*
X127584845Y-97028000D01*
X128778000Y-97028000D01*
X128778000Y-97008000D01*
X129032000Y-97008000D01*
X129032000Y-97028000D01*
X130225155Y-97028000D01*
X130346476Y-96798110D01*
X130301825Y-96650901D01*
X130176641Y-96388080D01*
X130002588Y-96154731D01*
X129918534Y-96078966D01*
X129999180Y-96054502D01*
X130109494Y-95995537D01*
X130206185Y-95916185D01*
X130285537Y-95819494D01*
X130344502Y-95709180D01*
X130371790Y-95619222D01*
X134367607Y-99615040D01*
X134393459Y-99646541D01*
X134457596Y-99699177D01*
X134519157Y-99749699D01*
X134551995Y-99767251D01*
X134611515Y-99799065D01*
X134692171Y-99865258D01*
X134828418Y-99938084D01*
X134976255Y-99982929D01*
X135130000Y-99998072D01*
X136780000Y-99998072D01*
X136933745Y-99982929D01*
X137081582Y-99938084D01*
X137217829Y-99865258D01*
X137337251Y-99767251D01*
X137435258Y-99647829D01*
X137508084Y-99511582D01*
X137552929Y-99363745D01*
X137568072Y-99210000D01*
X137568072Y-98910000D01*
X137552929Y-98756255D01*
X137508084Y-98608418D01*
X137435258Y-98472171D01*
X137396546Y-98425000D01*
X137435258Y-98377829D01*
X137508084Y-98241582D01*
X137552929Y-98093745D01*
X137568072Y-97940000D01*
X137568072Y-97640000D01*
X137552929Y-97486255D01*
X137508084Y-97338418D01*
X137435258Y-97202171D01*
X137396546Y-97155000D01*
X137435258Y-97107829D01*
X137508084Y-96971582D01*
X137552929Y-96823745D01*
X137568072Y-96670000D01*
X137568072Y-96370000D01*
X137552929Y-96216255D01*
X137508084Y-96068418D01*
X137435258Y-95932171D01*
X137396546Y-95885000D01*
X137435258Y-95837829D01*
X137508084Y-95701582D01*
X137552929Y-95553745D01*
X137568072Y-95400000D01*
X137568072Y-95100000D01*
X137552929Y-94946255D01*
X137508084Y-94798418D01*
X137435258Y-94662171D01*
X137396546Y-94615000D01*
X137435258Y-94567829D01*
X137508084Y-94431582D01*
X137552929Y-94283745D01*
X137568072Y-94130000D01*
X137568072Y-93830000D01*
X137552929Y-93676255D01*
X137508084Y-93528418D01*
X137435258Y-93392171D01*
X137396546Y-93345000D01*
X137435258Y-93297829D01*
X137508084Y-93161582D01*
X137552929Y-93013745D01*
X137568072Y-92860000D01*
X137568072Y-92560000D01*
X137552929Y-92406255D01*
X137508084Y-92258418D01*
X137435258Y-92122171D01*
X137396546Y-92075000D01*
X137435258Y-92027829D01*
X137508084Y-91891582D01*
X137552929Y-91743745D01*
X137568072Y-91590000D01*
X137568072Y-91290000D01*
X137553298Y-91140000D01*
X139291928Y-91140000D01*
X139295000Y-91154250D01*
X139453750Y-91313000D01*
X140778000Y-91313000D01*
X140778000Y-90663750D01*
X140619250Y-90505000D01*
X139930000Y-90501928D01*
X139805518Y-90514188D01*
X139685820Y-90550498D01*
X139575506Y-90609463D01*
X139478815Y-90688815D01*
X139399463Y-90785506D01*
X139340498Y-90895820D01*
X139304188Y-91015518D01*
X139291928Y-91140000D01*
X137553298Y-91140000D01*
X137552929Y-91136255D01*
X137508084Y-90988418D01*
X137435258Y-90852171D01*
X137337251Y-90732749D01*
X137217829Y-90634742D01*
X137081582Y-90561916D01*
X136971000Y-90528372D01*
X136971000Y-88305840D01*
X137553769Y-87723072D01*
X137730000Y-87723072D01*
X137903254Y-87706008D01*
X138069850Y-87655472D01*
X138223386Y-87573405D01*
X138357962Y-87462962D01*
X138363342Y-87456406D01*
X138428815Y-87536185D01*
X138525506Y-87615537D01*
X138635820Y-87674502D01*
X138755518Y-87710812D01*
X138880000Y-87723072D01*
X139094250Y-87720000D01*
X139253000Y-87561250D01*
X139253000Y-86487000D01*
X139507000Y-86487000D01*
X139507000Y-87561250D01*
X139665750Y-87720000D01*
X139880000Y-87723072D01*
X140004482Y-87710812D01*
X140124180Y-87674502D01*
X140234494Y-87615537D01*
X140331185Y-87536185D01*
X140410537Y-87439494D01*
X140469502Y-87329180D01*
X140505812Y-87209482D01*
X140518072Y-87085000D01*
X140515000Y-86645750D01*
X140356250Y-86487000D01*
X139507000Y-86487000D01*
X139253000Y-86487000D01*
X139233000Y-86487000D01*
X139233000Y-86233000D01*
X139253000Y-86233000D01*
X139253000Y-86213000D01*
X139507000Y-86213000D01*
X139507000Y-86233000D01*
X140356250Y-86233000D01*
X140515000Y-86074250D01*
X140518072Y-85635000D01*
X140505812Y-85510518D01*
X140486241Y-85446000D01*
X143699160Y-85446000D01*
X145835000Y-87581841D01*
X145835000Y-87776260D01*
X145888456Y-88045001D01*
X145760049Y-88045001D01*
X145719499Y-88041007D01*
X145678948Y-88045001D01*
X145678946Y-88045001D01*
X145557673Y-88056945D01*
X145402065Y-88104148D01*
X145258656Y-88180802D01*
X145164457Y-88258109D01*
X145164454Y-88258112D01*
X145132958Y-88283960D01*
X145107110Y-88315456D01*
X142482826Y-90939742D01*
X142469502Y-90895820D01*
X142410537Y-90785506D01*
X142331185Y-90688815D01*
X142234494Y-90609463D01*
X142124180Y-90550498D01*
X142004482Y-90514188D01*
X141880000Y-90501928D01*
X141190750Y-90505000D01*
X141032000Y-90663750D01*
X141032000Y-91313000D01*
X141052000Y-91313000D01*
X141052000Y-91567000D01*
X141032000Y-91567000D01*
X141032000Y-91587000D01*
X140778000Y-91587000D01*
X140778000Y-91567000D01*
X139453750Y-91567000D01*
X139295000Y-91725750D01*
X139291928Y-91740000D01*
X139304188Y-91864482D01*
X139340498Y-91984180D01*
X139399463Y-92094494D01*
X139423730Y-92124064D01*
X139351916Y-92258418D01*
X139307071Y-92406255D01*
X139291928Y-92560000D01*
X139291928Y-92860000D01*
X139307071Y-93013745D01*
X139351916Y-93161582D01*
X139424742Y-93297829D01*
X139463454Y-93345000D01*
X139424742Y-93392171D01*
X139351916Y-93528418D01*
X139307071Y-93676255D01*
X139291928Y-93830000D01*
X139291928Y-94130000D01*
X139307071Y-94283745D01*
X139351916Y-94431582D01*
X139424742Y-94567829D01*
X139463454Y-94615000D01*
X139424742Y-94662171D01*
X139351916Y-94798418D01*
X139307071Y-94946255D01*
X139291928Y-95100000D01*
X139291928Y-95400000D01*
X139307071Y-95553745D01*
X139351916Y-95701582D01*
X139424742Y-95837829D01*
X139463454Y-95885000D01*
X139424742Y-95932171D01*
X139351916Y-96068418D01*
X139307071Y-96216255D01*
X139291928Y-96370000D01*
X139291928Y-96670000D01*
X139307071Y-96823745D01*
X139351916Y-96971582D01*
X139424742Y-97107829D01*
X139463454Y-97155000D01*
X139424742Y-97202171D01*
X139351916Y-97338418D01*
X139307071Y-97486255D01*
X139291928Y-97640000D01*
X139291928Y-97940000D01*
X139307071Y-98093745D01*
X139351916Y-98241582D01*
X139424742Y-98377829D01*
X139463454Y-98425000D01*
X139424742Y-98472171D01*
X139351916Y-98608418D01*
X139307071Y-98756255D01*
X139291928Y-98910000D01*
X139291928Y-99210000D01*
X139307071Y-99363745D01*
X139351916Y-99511582D01*
X139424742Y-99647829D01*
X139522749Y-99767251D01*
X139642171Y-99865258D01*
X139778418Y-99938084D01*
X139926255Y-99982929D01*
X140080000Y-99998072D01*
X140675640Y-99998072D01*
X142197611Y-101520045D01*
X142223459Y-101551541D01*
X142254955Y-101577389D01*
X142254958Y-101577392D01*
X142349157Y-101654699D01*
X142492566Y-101731353D01*
X142648174Y-101778556D01*
X142769447Y-101790500D01*
X142769449Y-101790500D01*
X142810000Y-101794494D01*
X142850550Y-101790500D01*
X147327497Y-101790500D01*
X147464744Y-101882205D01*
X147653102Y-101960226D01*
X147853061Y-102000000D01*
X148056939Y-102000000D01*
X148256898Y-101960226D01*
X148445256Y-101882205D01*
X148614774Y-101768937D01*
X148758937Y-101624774D01*
X148872205Y-101455256D01*
X148950226Y-101266898D01*
X148957566Y-101229998D01*
X150943422Y-103215855D01*
X150915000Y-103358740D01*
X150915000Y-103651260D01*
X150972068Y-103938158D01*
X151084010Y-104208411D01*
X151246525Y-104451632D01*
X151453368Y-104658475D01*
X151627760Y-104775000D01*
X151453368Y-104891525D01*
X151246525Y-105098368D01*
X151084010Y-105341589D01*
X150972068Y-105611842D01*
X150915000Y-105898740D01*
X150915000Y-106191260D01*
X150972068Y-106478158D01*
X151084010Y-106748411D01*
X151246525Y-106991632D01*
X151453368Y-107198475D01*
X151696589Y-107360990D01*
X151966842Y-107472932D01*
X152253740Y-107530000D01*
X152546260Y-107530000D01*
X152833158Y-107472932D01*
X153103411Y-107360990D01*
X153346632Y-107198475D01*
X153553475Y-106991632D01*
X153715990Y-106748411D01*
X153827932Y-106478158D01*
X153885000Y-106191260D01*
X153885000Y-105898740D01*
X153827932Y-105611842D01*
X153715990Y-105341589D01*
X153553475Y-105098368D01*
X153346632Y-104891525D01*
X153172240Y-104775000D01*
X153346632Y-104658475D01*
X153553475Y-104451632D01*
X153715990Y-104208411D01*
X153827932Y-103938158D01*
X153885000Y-103651260D01*
X153885000Y-103358740D01*
X153827932Y-103071842D01*
X153715990Y-102801589D01*
X153553475Y-102558368D01*
X153346632Y-102351525D01*
X153172240Y-102235000D01*
X153346632Y-102118475D01*
X153553475Y-101911632D01*
X153715990Y-101668411D01*
X153827932Y-101398158D01*
X153885000Y-101111260D01*
X153885000Y-100818740D01*
X153827932Y-100531842D01*
X153715990Y-100261589D01*
X153553475Y-100018368D01*
X153346632Y-99811525D01*
X153164466Y-99689805D01*
X153281355Y-99620178D01*
X153497588Y-99425269D01*
X153671641Y-99191920D01*
X153796825Y-98929099D01*
X153841476Y-98781890D01*
X153720155Y-98552000D01*
X152527000Y-98552000D01*
X152527000Y-98572000D01*
X152273000Y-98572000D01*
X152273000Y-98552000D01*
X151079845Y-98552000D01*
X150958524Y-98781890D01*
X151003175Y-98929099D01*
X151128359Y-99191920D01*
X151302412Y-99425269D01*
X151518645Y-99620178D01*
X151635534Y-99689805D01*
X151453368Y-99811525D01*
X151246525Y-100018368D01*
X151084010Y-100261589D01*
X150972068Y-100531842D01*
X150915000Y-100818740D01*
X150915000Y-100852567D01*
X148567398Y-98504966D01*
X148541541Y-98473459D01*
X148415842Y-98370301D01*
X148272434Y-98293647D01*
X148116826Y-98246444D01*
X147995553Y-98234500D01*
X147995550Y-98234500D01*
X147955000Y-98230506D01*
X147914450Y-98234500D01*
X143851933Y-98234500D01*
X142962932Y-97345500D01*
X143328658Y-97345500D01*
X143334528Y-97364851D01*
X143416595Y-97518387D01*
X143527038Y-97652962D01*
X143661613Y-97763405D01*
X143815149Y-97845472D01*
X143981745Y-97896008D01*
X144154999Y-97913072D01*
X145405001Y-97913072D01*
X145578255Y-97896008D01*
X145744851Y-97845472D01*
X145898387Y-97763405D01*
X146032962Y-97652962D01*
X146143405Y-97518387D01*
X146225472Y-97364851D01*
X146276008Y-97198255D01*
X146293072Y-97025001D01*
X146293072Y-96399999D01*
X146276008Y-96226745D01*
X146225472Y-96060149D01*
X146143405Y-95906613D01*
X146032962Y-95772038D01*
X145898387Y-95661595D01*
X145744851Y-95579528D01*
X145578255Y-95528992D01*
X145405001Y-95511928D01*
X144154999Y-95511928D01*
X143981745Y-95528992D01*
X143815149Y-95579528D01*
X143661613Y-95661595D01*
X143621518Y-95694500D01*
X142460232Y-95694500D01*
X142502929Y-95553745D01*
X142518072Y-95400000D01*
X142518072Y-95100000D01*
X142502929Y-94946255D01*
X142458084Y-94798418D01*
X142385258Y-94662171D01*
X142346546Y-94615000D01*
X142385258Y-94567829D01*
X142458084Y-94431582D01*
X142502929Y-94283745D01*
X142518072Y-94130000D01*
X142518072Y-93830000D01*
X142502929Y-93676255D01*
X142458084Y-93528418D01*
X142385258Y-93392171D01*
X142371074Y-93374888D01*
X142466541Y-93296541D01*
X142492398Y-93265034D01*
X145831928Y-89925506D01*
X145831928Y-90490639D01*
X144224961Y-92097607D01*
X144193460Y-92123459D01*
X144167610Y-92154958D01*
X144167609Y-92154959D01*
X144090301Y-92249158D01*
X144013647Y-92392567D01*
X143966445Y-92548174D01*
X143960307Y-92610495D01*
X143815149Y-92654528D01*
X143661613Y-92736595D01*
X143527038Y-92847038D01*
X143416595Y-92981613D01*
X143334528Y-93135149D01*
X143283992Y-93301745D01*
X143266928Y-93474999D01*
X143266928Y-94100001D01*
X143283992Y-94273255D01*
X143334528Y-94439851D01*
X143416595Y-94593387D01*
X143527038Y-94727962D01*
X143661613Y-94838405D01*
X143815149Y-94920472D01*
X143981745Y-94971008D01*
X144154999Y-94988072D01*
X145405001Y-94988072D01*
X145578255Y-94971008D01*
X145744851Y-94920472D01*
X145898387Y-94838405D01*
X146032962Y-94727962D01*
X146143405Y-94593387D01*
X146225472Y-94439851D01*
X146276008Y-94273255D01*
X146293072Y-94100001D01*
X146293072Y-93474999D01*
X146276008Y-93301745D01*
X146225472Y-93135149D01*
X146143405Y-92981613D01*
X146032962Y-92847038D01*
X145910718Y-92746715D01*
X146999361Y-91658072D01*
X148170000Y-91658072D01*
X148294482Y-91645812D01*
X148414180Y-91609502D01*
X148524494Y-91550537D01*
X148621185Y-91471185D01*
X148700537Y-91374494D01*
X148759502Y-91264180D01*
X148795812Y-91144482D01*
X148808072Y-91020000D01*
X148808072Y-89675943D01*
X148936933Y-89636854D01*
X149080341Y-89560200D01*
X149206040Y-89457042D01*
X149231897Y-89425535D01*
X150635004Y-88022428D01*
X150796898Y-87990226D01*
X150985256Y-87912205D01*
X151154774Y-87798937D01*
X151298937Y-87654774D01*
X151384000Y-87527467D01*
X151384000Y-89329901D01*
X151384001Y-89329911D01*
X151384000Y-91881782D01*
X151305820Y-91905498D01*
X151195506Y-91964463D01*
X151098815Y-92043815D01*
X151019463Y-92140506D01*
X150960498Y-92250820D01*
X150924188Y-92370518D01*
X150911928Y-92495000D01*
X150911928Y-94195000D01*
X150924188Y-94319482D01*
X150960498Y-94439180D01*
X151019463Y-94549494D01*
X151098815Y-94646185D01*
X151195506Y-94725537D01*
X151305820Y-94784502D01*
X151378380Y-94806513D01*
X151246525Y-94938368D01*
X151084010Y-95181589D01*
X150972068Y-95451842D01*
X150915000Y-95738740D01*
X150915000Y-96031260D01*
X150972068Y-96318158D01*
X151084010Y-96588411D01*
X151246525Y-96831632D01*
X151453368Y-97038475D01*
X151635534Y-97160195D01*
X151518645Y-97229822D01*
X151302412Y-97424731D01*
X151128359Y-97658080D01*
X151003175Y-97920901D01*
X150958524Y-98068110D01*
X151079845Y-98298000D01*
X152273000Y-98298000D01*
X152273000Y-98278000D01*
X152527000Y-98278000D01*
X152527000Y-98298000D01*
X153720155Y-98298000D01*
X153841476Y-98068110D01*
X153796825Y-97920901D01*
X153671641Y-97658080D01*
X153497588Y-97424731D01*
X153281355Y-97229822D01*
X153164466Y-97160195D01*
X153346632Y-97038475D01*
X153553475Y-96831632D01*
X153715990Y-96588411D01*
X153827932Y-96318158D01*
X153885000Y-96031260D01*
X153885000Y-95738740D01*
X153827932Y-95451842D01*
X153715990Y-95181589D01*
X153618043Y-95035000D01*
X168691928Y-95035000D01*
X168691928Y-96735000D01*
X168704188Y-96859482D01*
X168740498Y-96979180D01*
X168799463Y-97089494D01*
X168878815Y-97186185D01*
X168975506Y-97265537D01*
X169085820Y-97324502D01*
X169158380Y-97346513D01*
X169026525Y-97478368D01*
X168864010Y-97721589D01*
X168752068Y-97991842D01*
X168695000Y-98278740D01*
X168695000Y-98571260D01*
X168752068Y-98858158D01*
X168864010Y-99128411D01*
X169026525Y-99371632D01*
X169233368Y-99578475D01*
X169407760Y-99695000D01*
X169233368Y-99811525D01*
X169026525Y-100018368D01*
X168864010Y-100261589D01*
X168752068Y-100531842D01*
X168695000Y-100818740D01*
X168695000Y-101111260D01*
X168752068Y-101398158D01*
X168864010Y-101668411D01*
X169026525Y-101911632D01*
X169233368Y-102118475D01*
X169407760Y-102235000D01*
X169233368Y-102351525D01*
X169026525Y-102558368D01*
X168864010Y-102801589D01*
X168752068Y-103071842D01*
X168695000Y-103358740D01*
X168695000Y-103651260D01*
X168752068Y-103938158D01*
X168864010Y-104208411D01*
X169026525Y-104451632D01*
X169233368Y-104658475D01*
X169476589Y-104820990D01*
X169746842Y-104932932D01*
X170033740Y-104990000D01*
X170326260Y-104990000D01*
X170613158Y-104932932D01*
X170883411Y-104820990D01*
X171126632Y-104658475D01*
X171333475Y-104451632D01*
X171495990Y-104208411D01*
X171607932Y-103938158D01*
X171665000Y-103651260D01*
X171665000Y-103358740D01*
X171607932Y-103071842D01*
X171495990Y-102801589D01*
X171333475Y-102558368D01*
X171126632Y-102351525D01*
X170952240Y-102235000D01*
X171126632Y-102118475D01*
X171333475Y-101911632D01*
X171495990Y-101668411D01*
X171607932Y-101398158D01*
X171665000Y-101111260D01*
X171665000Y-100818740D01*
X171607932Y-100531842D01*
X171495990Y-100261589D01*
X171333475Y-100018368D01*
X171126632Y-99811525D01*
X170952240Y-99695000D01*
X171126632Y-99578475D01*
X171333475Y-99371632D01*
X171495990Y-99128411D01*
X171607932Y-98858158D01*
X171665000Y-98571260D01*
X171665000Y-98278740D01*
X171607932Y-97991842D01*
X171495990Y-97721589D01*
X171333475Y-97478368D01*
X171201620Y-97346513D01*
X171274180Y-97324502D01*
X171384494Y-97265537D01*
X171481185Y-97186185D01*
X171560537Y-97089494D01*
X171619502Y-96979180D01*
X171655812Y-96859482D01*
X171668072Y-96735000D01*
X171668072Y-95035000D01*
X171655812Y-94910518D01*
X171619502Y-94790820D01*
X171560537Y-94680506D01*
X171481185Y-94583815D01*
X171384494Y-94504463D01*
X171274180Y-94445498D01*
X171154482Y-94409188D01*
X171030000Y-94396928D01*
X169330000Y-94396928D01*
X169205518Y-94409188D01*
X169085820Y-94445498D01*
X168975506Y-94504463D01*
X168878815Y-94583815D01*
X168799463Y-94680506D01*
X168740498Y-94790820D01*
X168704188Y-94910518D01*
X168691928Y-95035000D01*
X153618043Y-95035000D01*
X153553475Y-94938368D01*
X153421620Y-94806513D01*
X153494180Y-94784502D01*
X153604494Y-94725537D01*
X153701185Y-94646185D01*
X153780537Y-94549494D01*
X153839502Y-94439180D01*
X153875812Y-94319482D01*
X153888072Y-94195000D01*
X153888072Y-92495000D01*
X153875812Y-92370518D01*
X153839502Y-92250820D01*
X153780537Y-92140506D01*
X153701185Y-92043815D01*
X153604494Y-91964463D01*
X153494180Y-91905498D01*
X153416000Y-91881782D01*
X153416000Y-85519893D01*
X153420914Y-85469999D01*
X153416000Y-85420105D01*
X153416000Y-85420098D01*
X153401298Y-85270829D01*
X153343202Y-85079313D01*
X153248860Y-84902810D01*
X153121896Y-84748104D01*
X153083133Y-84716292D01*
X151908731Y-83541890D01*
X157308524Y-83541890D01*
X157353175Y-83689099D01*
X157478359Y-83951920D01*
X157652412Y-84185269D01*
X157868645Y-84380178D01*
X158118748Y-84529157D01*
X158393109Y-84626481D01*
X158623000Y-84505814D01*
X158623000Y-83312000D01*
X158877000Y-83312000D01*
X158877000Y-84505814D01*
X159106891Y-84626481D01*
X159381252Y-84529157D01*
X159631355Y-84380178D01*
X159847588Y-84185269D01*
X160021641Y-83951920D01*
X160146825Y-83689099D01*
X160191476Y-83541890D01*
X162388524Y-83541890D01*
X162433175Y-83689099D01*
X162558359Y-83951920D01*
X162732412Y-84185269D01*
X162948645Y-84380178D01*
X163198748Y-84529157D01*
X163473109Y-84626481D01*
X163703000Y-84505814D01*
X163703000Y-83312000D01*
X163957000Y-83312000D01*
X163957000Y-84505814D01*
X164186891Y-84626481D01*
X164461252Y-84529157D01*
X164711355Y-84380178D01*
X164927588Y-84185269D01*
X165101641Y-83951920D01*
X165226825Y-83689099D01*
X165271476Y-83541890D01*
X167468524Y-83541890D01*
X167513175Y-83689099D01*
X167638359Y-83951920D01*
X167812412Y-84185269D01*
X168028645Y-84380178D01*
X168278748Y-84529157D01*
X168553109Y-84626481D01*
X168783000Y-84505814D01*
X168783000Y-83312000D01*
X169037000Y-83312000D01*
X169037000Y-84505814D01*
X169266891Y-84626481D01*
X169541252Y-84529157D01*
X169791355Y-84380178D01*
X170007588Y-84185269D01*
X170181641Y-83951920D01*
X170306825Y-83689099D01*
X170351476Y-83541890D01*
X170230155Y-83312000D01*
X169037000Y-83312000D01*
X168783000Y-83312000D01*
X167589845Y-83312000D01*
X167468524Y-83541890D01*
X165271476Y-83541890D01*
X165150155Y-83312000D01*
X163957000Y-83312000D01*
X163703000Y-83312000D01*
X162509845Y-83312000D01*
X162388524Y-83541890D01*
X160191476Y-83541890D01*
X160070155Y-83312000D01*
X158877000Y-83312000D01*
X158623000Y-83312000D01*
X157429845Y-83312000D01*
X157308524Y-83541890D01*
X151908731Y-83541890D01*
X149193072Y-80826232D01*
X149193072Y-80579518D01*
X150027077Y-81413523D01*
X150062867Y-81457133D01*
X150236911Y-81599968D01*
X150321664Y-81645269D01*
X150435476Y-81706103D01*
X150650932Y-81771461D01*
X150671517Y-81773488D01*
X150818854Y-81788000D01*
X150818861Y-81788000D01*
X150875000Y-81793529D01*
X150931139Y-81788000D01*
X157792893Y-81788000D01*
X157803368Y-81798475D01*
X157985534Y-81920195D01*
X157868645Y-81989822D01*
X157652412Y-82184731D01*
X157478359Y-82418080D01*
X157353175Y-82680901D01*
X157308524Y-82828110D01*
X157429845Y-83058000D01*
X158623000Y-83058000D01*
X158623000Y-83038000D01*
X158877000Y-83038000D01*
X158877000Y-83058000D01*
X160070155Y-83058000D01*
X160191476Y-82828110D01*
X160146825Y-82680901D01*
X160021641Y-82418080D01*
X159847588Y-82184731D01*
X159631355Y-81989822D01*
X159514466Y-81920195D01*
X159696632Y-81798475D01*
X159707107Y-81788000D01*
X162872893Y-81788000D01*
X162883368Y-81798475D01*
X163065534Y-81920195D01*
X162948645Y-81989822D01*
X162732412Y-82184731D01*
X162558359Y-82418080D01*
X162433175Y-82680901D01*
X162388524Y-82828110D01*
X162509845Y-83058000D01*
X163703000Y-83058000D01*
X163703000Y-83038000D01*
X163957000Y-83038000D01*
X163957000Y-83058000D01*
X165150155Y-83058000D01*
X165271476Y-82828110D01*
X165226825Y-82680901D01*
X165101641Y-82418080D01*
X164927588Y-82184731D01*
X164711355Y-81989822D01*
X164594466Y-81920195D01*
X164776632Y-81798475D01*
X164787107Y-81788000D01*
X167952893Y-81788000D01*
X167963368Y-81798475D01*
X168145534Y-81920195D01*
X168028645Y-81989822D01*
X167812412Y-82184731D01*
X167638359Y-82418080D01*
X167513175Y-82680901D01*
X167468524Y-82828110D01*
X167589845Y-83058000D01*
X168783000Y-83058000D01*
X168783000Y-83038000D01*
X169037000Y-83038000D01*
X169037000Y-83058000D01*
X170230155Y-83058000D01*
X170351476Y-82828110D01*
X170306825Y-82680901D01*
X170181641Y-82418080D01*
X170007588Y-82184731D01*
X169791355Y-81989822D01*
X169674466Y-81920195D01*
X169856632Y-81798475D01*
X170063475Y-81591632D01*
X170225990Y-81348411D01*
X170337932Y-81078158D01*
X170395000Y-80791260D01*
X170395000Y-80498740D01*
X170337932Y-80211842D01*
X170225990Y-79941589D01*
X170063475Y-79698368D01*
X169931620Y-79566513D01*
X170004180Y-79544502D01*
X170114494Y-79485537D01*
X170211185Y-79406185D01*
X170290537Y-79309494D01*
X170349502Y-79199180D01*
X170385812Y-79079482D01*
X170398072Y-78955000D01*
X170398072Y-77255000D01*
X170385812Y-77130518D01*
X170349502Y-77010820D01*
X170290537Y-76900506D01*
X170211185Y-76803815D01*
X170114494Y-76724463D01*
X170004180Y-76665498D01*
X169884482Y-76629188D01*
X169760000Y-76616928D01*
X168060000Y-76616928D01*
X167935518Y-76629188D01*
X167815820Y-76665498D01*
X167705506Y-76724463D01*
X167608815Y-76803815D01*
X167529463Y-76900506D01*
X167470498Y-77010820D01*
X167434188Y-77130518D01*
X167421928Y-77255000D01*
X167421928Y-78955000D01*
X167434188Y-79079482D01*
X167470498Y-79199180D01*
X167529463Y-79309494D01*
X167608815Y-79406185D01*
X167705506Y-79485537D01*
X167736306Y-79502000D01*
X165003694Y-79502000D01*
X165034494Y-79485537D01*
X165131185Y-79406185D01*
X165210537Y-79309494D01*
X165269502Y-79199180D01*
X165305812Y-79079482D01*
X165318072Y-78955000D01*
X165318072Y-77255000D01*
X165305812Y-77130518D01*
X165269502Y-77010820D01*
X165210537Y-76900506D01*
X165131185Y-76803815D01*
X165034494Y-76724463D01*
X164924180Y-76665498D01*
X164804482Y-76629188D01*
X164680000Y-76616928D01*
X162980000Y-76616928D01*
X162855518Y-76629188D01*
X162735820Y-76665498D01*
X162625506Y-76724463D01*
X162528815Y-76803815D01*
X162449463Y-76900506D01*
X162390498Y-77010820D01*
X162354188Y-77130518D01*
X162341928Y-77255000D01*
X162341928Y-78955000D01*
X162354188Y-79079482D01*
X162390498Y-79199180D01*
X162449463Y-79309494D01*
X162528815Y-79406185D01*
X162625506Y-79485537D01*
X162656306Y-79502000D01*
X159923694Y-79502000D01*
X159954494Y-79485537D01*
X160051185Y-79406185D01*
X160130537Y-79309494D01*
X160189502Y-79199180D01*
X160225812Y-79079482D01*
X160238072Y-78955000D01*
X160238072Y-77255000D01*
X160225812Y-77130518D01*
X160189502Y-77010820D01*
X160130537Y-76900506D01*
X160051185Y-76803815D01*
X159954494Y-76724463D01*
X159844180Y-76665498D01*
X159724482Y-76629188D01*
X159600000Y-76616928D01*
X157900000Y-76616928D01*
X157775518Y-76629188D01*
X157655820Y-76665498D01*
X157545506Y-76724463D01*
X157448815Y-76803815D01*
X157369463Y-76900506D01*
X157310498Y-77010820D01*
X157274188Y-77130518D01*
X157261928Y-77255000D01*
X157261928Y-78955000D01*
X157274188Y-79079482D01*
X157310498Y-79199180D01*
X157369463Y-79309494D01*
X157448815Y-79406185D01*
X157545506Y-79485537D01*
X157576306Y-79502000D01*
X151348446Y-79502000D01*
X149193072Y-77346627D01*
X149193072Y-77275000D01*
X149180812Y-77150518D01*
X149144502Y-77030820D01*
X149085537Y-76920506D01*
X149006185Y-76823815D01*
X148909494Y-76744463D01*
X148799180Y-76685498D01*
X148679482Y-76649188D01*
X148555000Y-76636928D01*
X148305618Y-76636928D01*
X148179067Y-76598539D01*
X148011146Y-76582000D01*
X148011139Y-76582000D01*
X147955000Y-76576471D01*
X147898861Y-76582000D01*
X144996246Y-76582000D01*
X144936185Y-76508815D01*
X144839494Y-76429463D01*
X144729180Y-76370498D01*
X144609482Y-76334188D01*
X144485000Y-76321928D01*
X143553993Y-76321928D01*
X143401066Y-76275538D01*
X143233145Y-76258999D01*
X143233138Y-76258999D01*
X143176999Y-76253470D01*
X143120860Y-76258999D01*
X135064140Y-76258999D01*
X135008001Y-76253470D01*
X134951862Y-76258999D01*
X134951855Y-76258999D01*
X134783934Y-76275538D01*
X134568477Y-76340896D01*
X134513096Y-76370498D01*
X134369912Y-76447031D01*
X134195868Y-76589866D01*
X134160078Y-76633476D01*
X133350000Y-77443555D01*
X133242927Y-77336482D01*
X133207133Y-77292867D01*
X133033089Y-77150032D01*
X132834523Y-77043897D01*
X132619067Y-76978539D01*
X132451146Y-76962000D01*
X132451139Y-76962000D01*
X132395000Y-76956471D01*
X132338861Y-76962000D01*
X130318407Y-76962000D01*
X130285537Y-76900506D01*
X130206185Y-76803815D01*
X130109494Y-76724463D01*
X129999180Y-76665498D01*
X129879482Y-76629188D01*
X129755000Y-76616928D01*
X128055000Y-76616928D01*
X127930518Y-76629188D01*
X127810820Y-76665498D01*
X127700506Y-76724463D01*
X127603815Y-76803815D01*
X127524463Y-76900506D01*
X127465498Y-77010820D01*
X127429188Y-77130518D01*
X127416928Y-77255000D01*
X126492000Y-77255000D01*
X126492000Y-75590000D01*
X172593000Y-75590000D01*
X172593000Y-113640000D01*
G37*
%TD.AperFunction*%
D19*
X141991809Y-81160000D02*
X141954463Y-81205506D01*
X141895498Y-81315820D01*
X141859188Y-81435518D01*
X141846928Y-81560000D01*
X141850000Y-82024250D01*
X142008750Y-82183000D01*
X143358000Y-82183000D01*
X143358000Y-82163000D01*
X143612000Y-82163000D01*
X143612000Y-82183000D01*
X144961250Y-82183000D01*
X145120000Y-82024250D01*
X145123072Y-81560000D01*
X145110812Y-81435518D01*
X145074502Y-81315820D01*
X145015537Y-81205506D01*
X144978191Y-81160000D01*
X144983936Y-81153000D01*
X146466555Y-81153000D01*
X146716928Y-81403374D01*
X146716928Y-81475000D01*
X146729188Y-81599482D01*
X146765498Y-81719180D01*
X146824463Y-81829494D01*
X146903815Y-81926185D01*
X147000506Y-82005537D01*
X147110820Y-82064502D01*
X147230518Y-82100812D01*
X147355000Y-82113072D01*
X147604383Y-82113072D01*
X147607037Y-82113877D01*
X151384001Y-85890842D01*
X151384001Y-86462533D01*
X151298937Y-86335226D01*
X151154774Y-86191063D01*
X150985256Y-86077795D01*
X150796898Y-85999774D01*
X150596939Y-85960000D01*
X150393061Y-85960000D01*
X150193102Y-85999774D01*
X150004744Y-86077795D01*
X149835226Y-86191063D01*
X149691063Y-86335226D01*
X149577795Y-86504744D01*
X149499774Y-86693102D01*
X149467572Y-86854996D01*
X148805000Y-87517568D01*
X148805000Y-87483740D01*
X148747932Y-87196842D01*
X148635990Y-86926589D01*
X148473475Y-86683368D01*
X148266632Y-86476525D01*
X148084466Y-86354805D01*
X148201355Y-86285178D01*
X148417588Y-86090269D01*
X148591641Y-85856920D01*
X148716825Y-85594099D01*
X148761476Y-85446890D01*
X148640155Y-85217000D01*
X147447000Y-85217000D01*
X147447000Y-85237000D01*
X147193000Y-85237000D01*
X147193000Y-85217000D01*
X147173000Y-85217000D01*
X147173000Y-84963000D01*
X147193000Y-84963000D01*
X147193000Y-83769186D01*
X147447000Y-83769186D01*
X147447000Y-84963000D01*
X148640155Y-84963000D01*
X148761476Y-84733110D01*
X148716825Y-84585901D01*
X148591641Y-84323080D01*
X148417588Y-84089731D01*
X148201355Y-83894822D01*
X147951252Y-83745843D01*
X147676891Y-83648519D01*
X147447000Y-83769186D01*
X147193000Y-83769186D01*
X146963109Y-83648519D01*
X146688748Y-83745843D01*
X146438645Y-83894822D01*
X146222412Y-84089731D01*
X146048359Y-84323080D01*
X145923175Y-84585901D01*
X145878524Y-84733110D01*
X145899279Y-84772439D01*
X144873712Y-83746872D01*
X144841896Y-83708104D01*
X144754196Y-83636130D01*
X144839494Y-83590537D01*
X144936185Y-83511185D01*
X145015537Y-83414494D01*
X145074502Y-83304180D01*
X145110812Y-83184482D01*
X145123072Y-83060000D01*
X145120000Y-82595750D01*
X144961250Y-82437000D01*
X143612000Y-82437000D01*
X143612000Y-82457000D01*
X143358000Y-82457000D01*
X143358000Y-82437000D01*
X142008750Y-82437000D01*
X141850000Y-82595750D01*
X141846928Y-83060000D01*
X141859188Y-83184482D01*
X141895498Y-83304180D01*
X141954199Y-83414000D01*
X138201000Y-83414000D01*
X138201000Y-82546496D01*
X138309482Y-82535812D01*
X138429180Y-82499502D01*
X138539494Y-82440537D01*
X138636185Y-82361185D01*
X138715537Y-82264494D01*
X138774502Y-82154180D01*
X138810812Y-82034482D01*
X138823072Y-81910000D01*
X138823072Y-81153000D01*
X141986064Y-81153000D01*
X141991809Y-81160000D01*
%TA.AperFunction,Conductor*%
D20*
G36*
X141991809Y-81160000D02*
G01*
X141954463Y-81205506D01*
X141895498Y-81315820D01*
X141859188Y-81435518D01*
X141846928Y-81560000D01*
X141850000Y-82024250D01*
X142008750Y-82183000D01*
X143358000Y-82183000D01*
X143358000Y-82163000D01*
X143612000Y-82163000D01*
X143612000Y-82183000D01*
X144961250Y-82183000D01*
X145120000Y-82024250D01*
X145123072Y-81560000D01*
X145110812Y-81435518D01*
X145074502Y-81315820D01*
X145015537Y-81205506D01*
X144978191Y-81160000D01*
X144983936Y-81153000D01*
X146466555Y-81153000D01*
X146716928Y-81403374D01*
X146716928Y-81475000D01*
X146729188Y-81599482D01*
X146765498Y-81719180D01*
X146824463Y-81829494D01*
X146903815Y-81926185D01*
X147000506Y-82005537D01*
X147110820Y-82064502D01*
X147230518Y-82100812D01*
X147355000Y-82113072D01*
X147604383Y-82113072D01*
X147607037Y-82113877D01*
X151384001Y-85890842D01*
X151384001Y-86462533D01*
X151298937Y-86335226D01*
X151154774Y-86191063D01*
X150985256Y-86077795D01*
X150796898Y-85999774D01*
X150596939Y-85960000D01*
X150393061Y-85960000D01*
X150193102Y-85999774D01*
X150004744Y-86077795D01*
X149835226Y-86191063D01*
X149691063Y-86335226D01*
X149577795Y-86504744D01*
X149499774Y-86693102D01*
X149467572Y-86854996D01*
X148805000Y-87517568D01*
X148805000Y-87483740D01*
X148747932Y-87196842D01*
X148635990Y-86926589D01*
X148473475Y-86683368D01*
X148266632Y-86476525D01*
X148084466Y-86354805D01*
X148201355Y-86285178D01*
X148417588Y-86090269D01*
X148591641Y-85856920D01*
X148716825Y-85594099D01*
X148761476Y-85446890D01*
X148640155Y-85217000D01*
X147447000Y-85217000D01*
X147447000Y-85237000D01*
X147193000Y-85237000D01*
X147193000Y-85217000D01*
X147173000Y-85217000D01*
X147173000Y-84963000D01*
X147193000Y-84963000D01*
X147193000Y-83769186D01*
X147447000Y-83769186D01*
X147447000Y-84963000D01*
X148640155Y-84963000D01*
X148761476Y-84733110D01*
X148716825Y-84585901D01*
X148591641Y-84323080D01*
X148417588Y-84089731D01*
X148201355Y-83894822D01*
X147951252Y-83745843D01*
X147676891Y-83648519D01*
X147447000Y-83769186D01*
X147193000Y-83769186D01*
X146963109Y-83648519D01*
X146688748Y-83745843D01*
X146438645Y-83894822D01*
X146222412Y-84089731D01*
X146048359Y-84323080D01*
X145923175Y-84585901D01*
X145878524Y-84733110D01*
X145899279Y-84772439D01*
X144873712Y-83746872D01*
X144841896Y-83708104D01*
X144754196Y-83636130D01*
X144839494Y-83590537D01*
X144936185Y-83511185D01*
X145015537Y-83414494D01*
X145074502Y-83304180D01*
X145110812Y-83184482D01*
X145123072Y-83060000D01*
X145120000Y-82595750D01*
X144961250Y-82437000D01*
X143612000Y-82437000D01*
X143612000Y-82457000D01*
X143358000Y-82457000D01*
X143358000Y-82437000D01*
X142008750Y-82437000D01*
X141850000Y-82595750D01*
X141846928Y-83060000D01*
X141859188Y-83184482D01*
X141895498Y-83304180D01*
X141954199Y-83414000D01*
X138201000Y-83414000D01*
X138201000Y-82546496D01*
X138309482Y-82535812D01*
X138429180Y-82499502D01*
X138539494Y-82440537D01*
X138636185Y-82361185D01*
X138715537Y-82264494D01*
X138774502Y-82154180D01*
X138810812Y-82034482D01*
X138823072Y-81910000D01*
X138823072Y-81153000D01*
X141986064Y-81153000D01*
X141991809Y-81160000D01*
G37*
%TD.AperFunction*%
%TD*%
M02*
