%TF.GenerationSoftware,KiCad,Pcbnew,6.0.7-f9a2dced07~116~ubuntu22.04.1*%
%TF.CreationDate,2022-09-21T22:21:55-04:00*%
%TF.ProjectId,gimbal,67696d62-616c-42e6-9b69-6361645f7063,rev?*%
%TF.SameCoordinates,Original*%
%TF.FileFunction,Copper,L2,Bot*%
%TF.FilePolarity,Positive*%
%FSLAX46Y46*%
G04 Gerber Fmt 4.6, Leading zero omitted, Abs format (unit mm)*
G04 Created by KiCad (PCBNEW 6.0.7-f9a2dced07~116~ubuntu22.04.1) date 2022-09-21 22:21:55*
%MOMM*%
%LPD*%
G01*
G04 APERTURE LIST*
%TA.AperFunction,ComponentPad*%
%ADD10R,1.700000X1.700000*%
%TD*%
%TA.AperFunction,ComponentPad*%
%ADD11O,1.700000X1.700000*%
%TD*%
%TA.AperFunction,ComponentPad*%
%ADD12C,2.000000*%
%TD*%
%TA.AperFunction,ComponentPad*%
%ADD13O,2.200000X3.500000*%
%TD*%
%TA.AperFunction,ComponentPad*%
%ADD14R,1.500000X2.500000*%
%TD*%
%TA.AperFunction,ComponentPad*%
%ADD15O,1.500000X2.500000*%
%TD*%
%TA.AperFunction,ViaPad*%
%ADD16C,0.800000*%
%TD*%
%TA.AperFunction,Conductor*%
%ADD17C,0.381000*%
%TD*%
%TA.AperFunction,Conductor*%
%ADD18C,0.508000*%
%TD*%
G04 APERTURE END LIST*
D10*
%TO.P,J2,1,Pin_1*%
%TO.N,Net-(J2-Pad1)*%
X131191000Y-102093000D03*
D11*
%TO.P,J2,2,Pin_2*%
%TO.N,+3V3*%
X131191000Y-99553000D03*
%TO.P,J2,3,Pin_3*%
%TO.N,GND*%
X131191000Y-97013000D03*
%TD*%
D10*
%TO.P,J3,1,Pin_1*%
%TO.N,+3V3*%
X154305000Y-84963000D03*
D11*
%TO.P,J3,2,Pin_2*%
%TO.N,unconnected-(J3-Pad2)*%
X154305000Y-87503000D03*
%TO.P,J3,3,Pin_3*%
%TO.N,GND*%
X154305000Y-90043000D03*
%TO.P,J3,4,Pin_4*%
%TO.N,/SDA*%
X154305000Y-92583000D03*
%TO.P,J3,5,Pin_5*%
%TO.N,/SCL*%
X154305000Y-95123000D03*
%TO.P,J3,6,Pin_6*%
%TO.N,unconnected-(J3-Pad6)*%
X154305000Y-97663000D03*
%TD*%
D10*
%TO.P,J4,1,Pin_1*%
%TO.N,/Servo_X*%
X163703000Y-121920000D03*
D11*
%TO.P,J4,2,Pin_2*%
%TO.N,VCC*%
X161163000Y-121920000D03*
%TO.P,J4,3,Pin_3*%
%TO.N,GND*%
X158623000Y-121920000D03*
%TD*%
D10*
%TO.P,J6,1,Pin_1*%
%TO.N,/Servo_Y*%
X173609000Y-121920000D03*
D11*
%TO.P,J6,2,Pin_2*%
%TO.N,VCC*%
X171069000Y-121920000D03*
%TO.P,J6,3,Pin_3*%
%TO.N,GND*%
X168529000Y-121920000D03*
%TD*%
D10*
%TO.P,J7,1,Pin_1*%
%TO.N,unconnected-(J7-Pad1)*%
X172085000Y-87503000D03*
D11*
%TO.P,J7,2,Pin_2*%
%TO.N,unconnected-(J7-Pad2)*%
X172085000Y-90043000D03*
%TO.P,J7,3,Pin_3*%
%TO.N,unconnected-(J7-Pad3)*%
X172085000Y-92583000D03*
%TO.P,J7,4,Pin_4*%
%TO.N,unconnected-(J7-Pad4)*%
X172085000Y-95123000D03*
%TD*%
D10*
%TO.P,J1,1,Pin_1*%
%TO.N,GND*%
X122570000Y-121920000D03*
D11*
%TO.P,J1,2,Pin_2*%
%TO.N,Net-(J1-Pad2)*%
X125110000Y-121920000D03*
%TO.P,J1,3,Pin_3*%
%TO.N,GND*%
X127650000Y-121920000D03*
%TD*%
D12*
%TO.P,SW2,1,1*%
%TO.N,/Center*%
X141657000Y-86360000D03*
X148157000Y-86360000D03*
%TO.P,SW2,2,2*%
%TO.N,GND*%
X141657000Y-81860000D03*
X148157000Y-81860000D03*
%TD*%
D13*
%TO.P,SW4,*%
%TO.N,*%
X145800000Y-94996000D03*
X137600000Y-94996000D03*
D14*
%TO.P,SW4,1,A*%
%TO.N,/UPDI*%
X139700000Y-94996000D03*
D15*
%TO.P,SW4,2,B*%
%TO.N,Net-(J2-Pad1)*%
X141700000Y-94996000D03*
%TO.P,SW4,3,C*%
%TO.N,/TX*%
X143700000Y-94996000D03*
%TD*%
D12*
%TO.P,SW3,1,1*%
%TO.N,/Side*%
X127179000Y-86360000D03*
X133679000Y-86360000D03*
%TO.P,SW3,2,2*%
%TO.N,GND*%
X127179000Y-81860000D03*
X133679000Y-81860000D03*
%TD*%
D16*
%TO.N,Net-(R3-Pad1)*%
X146304000Y-105664000D03*
X152400000Y-92964000D03*
%TO.N,Net-(R4-Pad1)*%
X131572000Y-105156000D03*
X128524000Y-105156000D03*
%TO.N,GND*%
X135890000Y-109601000D03*
X129526000Y-115744000D03*
X145161000Y-109728000D03*
%TO.N,+3V3*%
X157099000Y-105791000D03*
X157099000Y-109601000D03*
%TO.N,/TX*%
X147955000Y-100965000D03*
%TO.N,/Center*%
X151257000Y-94107000D03*
X151257000Y-98933000D03*
%TO.N,/Side*%
X150241000Y-94742000D03*
X150241000Y-99314000D03*
%TD*%
D17*
%TO.N,/TX*%
X143700000Y-98151000D02*
X146514000Y-100965000D01*
X146514000Y-100965000D02*
X147955000Y-100965000D01*
X143700000Y-94996000D02*
X143700000Y-98151000D01*
%TO.N,Net-(R3-Pad1)*%
X152400000Y-92964000D02*
X152400000Y-99568000D01*
X152400000Y-99568000D02*
X146304000Y-105664000D01*
%TO.N,Net-(R4-Pad1)*%
X128524000Y-105156000D02*
X131572000Y-105156000D01*
D18*
%TO.N,+3V3*%
X157099000Y-105791000D02*
X157099000Y-109601000D01*
D17*
%TO.N,/Center*%
X151257000Y-98933000D02*
X151257000Y-94107000D01*
%TO.N,/Side*%
X150241000Y-94742000D02*
X150241000Y-99314000D01*
%TD*%
%TA.AperFunction,Conductor*%
%TO.N,GND*%
G36*
X178083621Y-52004502D02*
G01*
X178130114Y-52058158D01*
X178141500Y-52110500D01*
X178141500Y-124841500D01*
X178121498Y-124909621D01*
X178067842Y-124956114D01*
X178015500Y-124967500D01*
X118284500Y-124967500D01*
X118216379Y-124947498D01*
X118169886Y-124893842D01*
X118158500Y-124841500D01*
X118158500Y-122801504D01*
X121339000Y-122801504D01*
X121339670Y-122810664D01*
X121348598Y-122871313D01*
X121354339Y-122889787D01*
X121401335Y-122985507D01*
X121413295Y-123002212D01*
X121488322Y-123077109D01*
X121505050Y-123089041D01*
X121600860Y-123135873D01*
X121619328Y-123141581D01*
X121679364Y-123150340D01*
X121688463Y-123151000D01*
X122297885Y-123151000D01*
X122313124Y-123146525D01*
X122314329Y-123145135D01*
X122316000Y-123137452D01*
X122316000Y-123132885D01*
X122824000Y-123132885D01*
X122828475Y-123148124D01*
X122829865Y-123149329D01*
X122837548Y-123151000D01*
X123451504Y-123151000D01*
X123460664Y-123150330D01*
X123521313Y-123141402D01*
X123539787Y-123135661D01*
X123635507Y-123088665D01*
X123652212Y-123076705D01*
X123727109Y-123001678D01*
X123739041Y-122984950D01*
X123785873Y-122889140D01*
X123791581Y-122870672D01*
X123801000Y-122806110D01*
X123802200Y-122806285D01*
X123825160Y-122744912D01*
X123882037Y-122702421D01*
X123952858Y-122697426D01*
X124015137Y-122731512D01*
X124021191Y-122738023D01*
X124152654Y-122889787D01*
X124156250Y-122893938D01*
X124328126Y-123036632D01*
X124521000Y-123149338D01*
X124525825Y-123151180D01*
X124525826Y-123151181D01*
X124540538Y-123156799D01*
X124729692Y-123229030D01*
X124734760Y-123230061D01*
X124734763Y-123230062D01*
X124842017Y-123251883D01*
X124948597Y-123273567D01*
X124953772Y-123273757D01*
X124953774Y-123273757D01*
X125166673Y-123281564D01*
X125166677Y-123281564D01*
X125171837Y-123281753D01*
X125176957Y-123281097D01*
X125176959Y-123281097D01*
X125388288Y-123254025D01*
X125388289Y-123254025D01*
X125393416Y-123253368D01*
X125398366Y-123251883D01*
X125602429Y-123190661D01*
X125602434Y-123190659D01*
X125607384Y-123189174D01*
X125807994Y-123090896D01*
X125989860Y-122961173D01*
X126148096Y-122803489D01*
X126199817Y-122731512D01*
X126275435Y-122626277D01*
X126278453Y-122622077D01*
X126280746Y-122617438D01*
X126337482Y-122502641D01*
X126385596Y-122450434D01*
X126454297Y-122432527D01*
X126521773Y-122454605D01*
X126564634Y-122505218D01*
X126577528Y-122532870D01*
X126583006Y-122542356D01*
X126700238Y-122709782D01*
X126707292Y-122718189D01*
X126851811Y-122862708D01*
X126860218Y-122869762D01*
X127027644Y-122986994D01*
X127037130Y-122992472D01*
X127222383Y-123078857D01*
X127232675Y-123082603D01*
X127378503Y-123121678D01*
X127392599Y-123121342D01*
X127396000Y-123113400D01*
X127396000Y-123108251D01*
X127904000Y-123108251D01*
X127907973Y-123121782D01*
X127916522Y-123123011D01*
X128067325Y-123082603D01*
X128077617Y-123078857D01*
X128262870Y-122992472D01*
X128272356Y-122986994D01*
X128439782Y-122869762D01*
X128448189Y-122862708D01*
X128592708Y-122718189D01*
X128599762Y-122709782D01*
X128716994Y-122542356D01*
X128722472Y-122532870D01*
X128808857Y-122347617D01*
X128812603Y-122337325D01*
X128820808Y-122306703D01*
X150036743Y-122306703D01*
X150074268Y-122591734D01*
X150150129Y-122869036D01*
X150151813Y-122872984D01*
X150259769Y-123126081D01*
X150262923Y-123133476D01*
X150274693Y-123153142D01*
X150346148Y-123272534D01*
X150410561Y-123380161D01*
X150590313Y-123604528D01*
X150798851Y-123802423D01*
X151032317Y-123970186D01*
X151036112Y-123972195D01*
X151036113Y-123972196D01*
X151057869Y-123983715D01*
X151286392Y-124104712D01*
X151556373Y-124203511D01*
X151837264Y-124264755D01*
X151865841Y-124267004D01*
X152060282Y-124282307D01*
X152060291Y-124282307D01*
X152062739Y-124282500D01*
X152218271Y-124282500D01*
X152220407Y-124282354D01*
X152220418Y-124282354D01*
X152428548Y-124268165D01*
X152428554Y-124268164D01*
X152432825Y-124267873D01*
X152437020Y-124267004D01*
X152437022Y-124267004D01*
X152573584Y-124238723D01*
X152714342Y-124209574D01*
X152985343Y-124113607D01*
X153240812Y-123981750D01*
X153244313Y-123979289D01*
X153244317Y-123979287D01*
X153358417Y-123899096D01*
X153476023Y-123816441D01*
X153686622Y-123620740D01*
X153868713Y-123398268D01*
X154018927Y-123153142D01*
X154024081Y-123141402D01*
X154132757Y-122893830D01*
X154134483Y-122889898D01*
X154213244Y-122613406D01*
X154251071Y-122347617D01*
X154253146Y-122333036D01*
X154253146Y-122333034D01*
X154253751Y-122328784D01*
X154253845Y-122310951D01*
X154254497Y-122186522D01*
X157419989Y-122186522D01*
X157460397Y-122337325D01*
X157464143Y-122347617D01*
X157550528Y-122532870D01*
X157556006Y-122542356D01*
X157673238Y-122709782D01*
X157680292Y-122718189D01*
X157824811Y-122862708D01*
X157833218Y-122869762D01*
X158000644Y-122986994D01*
X158010130Y-122992472D01*
X158195383Y-123078857D01*
X158205675Y-123082603D01*
X158351503Y-123121678D01*
X158365599Y-123121342D01*
X158369000Y-123113400D01*
X158369000Y-123108251D01*
X158877000Y-123108251D01*
X158880973Y-123121782D01*
X158889522Y-123123011D01*
X159040325Y-123082603D01*
X159050617Y-123078857D01*
X159235870Y-122992472D01*
X159245356Y-122986994D01*
X159412782Y-122869762D01*
X159421189Y-122862708D01*
X159565708Y-122718189D01*
X159572762Y-122709782D01*
X159689994Y-122542356D01*
X159695471Y-122532871D01*
X159706974Y-122508202D01*
X159753891Y-122454916D01*
X159822168Y-122435454D01*
X159890128Y-122455995D01*
X159937912Y-122514044D01*
X159944297Y-122529767D01*
X159946266Y-122534616D01*
X159948965Y-122539020D01*
X160053608Y-122709782D01*
X160062987Y-122725088D01*
X160209250Y-122893938D01*
X160381126Y-123036632D01*
X160574000Y-123149338D01*
X160578825Y-123151180D01*
X160578826Y-123151181D01*
X160593538Y-123156799D01*
X160782692Y-123229030D01*
X160787760Y-123230061D01*
X160787763Y-123230062D01*
X160895017Y-123251883D01*
X161001597Y-123273567D01*
X161006772Y-123273757D01*
X161006774Y-123273757D01*
X161219673Y-123281564D01*
X161219677Y-123281564D01*
X161224837Y-123281753D01*
X161229957Y-123281097D01*
X161229959Y-123281097D01*
X161441288Y-123254025D01*
X161441289Y-123254025D01*
X161446416Y-123253368D01*
X161451366Y-123251883D01*
X161655429Y-123190661D01*
X161655434Y-123190659D01*
X161660384Y-123189174D01*
X161860994Y-123090896D01*
X162042860Y-122961173D01*
X162151091Y-122853319D01*
X162213462Y-122819404D01*
X162284268Y-122824592D01*
X162341030Y-122867238D01*
X162358012Y-122898341D01*
X162402385Y-123016705D01*
X162489739Y-123133261D01*
X162606295Y-123220615D01*
X162742684Y-123271745D01*
X162804866Y-123278500D01*
X164601134Y-123278500D01*
X164663316Y-123271745D01*
X164799705Y-123220615D01*
X164916261Y-123133261D01*
X165003615Y-123016705D01*
X165054745Y-122880316D01*
X165061500Y-122818134D01*
X165061500Y-122186522D01*
X167325989Y-122186522D01*
X167366397Y-122337325D01*
X167370143Y-122347617D01*
X167456528Y-122532870D01*
X167462006Y-122542356D01*
X167579238Y-122709782D01*
X167586292Y-122718189D01*
X167730811Y-122862708D01*
X167739218Y-122869762D01*
X167906644Y-122986994D01*
X167916130Y-122992472D01*
X168101383Y-123078857D01*
X168111675Y-123082603D01*
X168257503Y-123121678D01*
X168271599Y-123121342D01*
X168275000Y-123113400D01*
X168275000Y-123108251D01*
X168783000Y-123108251D01*
X168786973Y-123121782D01*
X168795522Y-123123011D01*
X168946325Y-123082603D01*
X168956617Y-123078857D01*
X169141870Y-122992472D01*
X169151356Y-122986994D01*
X169318782Y-122869762D01*
X169327189Y-122862708D01*
X169471708Y-122718189D01*
X169478762Y-122709782D01*
X169595994Y-122542356D01*
X169601471Y-122532871D01*
X169612974Y-122508202D01*
X169659891Y-122454916D01*
X169728168Y-122435454D01*
X169796128Y-122455995D01*
X169843912Y-122514044D01*
X169850297Y-122529767D01*
X169852266Y-122534616D01*
X169854965Y-122539020D01*
X169959608Y-122709782D01*
X169968987Y-122725088D01*
X170115250Y-122893938D01*
X170287126Y-123036632D01*
X170480000Y-123149338D01*
X170484825Y-123151180D01*
X170484826Y-123151181D01*
X170499538Y-123156799D01*
X170688692Y-123229030D01*
X170693760Y-123230061D01*
X170693763Y-123230062D01*
X170801017Y-123251883D01*
X170907597Y-123273567D01*
X170912772Y-123273757D01*
X170912774Y-123273757D01*
X171125673Y-123281564D01*
X171125677Y-123281564D01*
X171130837Y-123281753D01*
X171135957Y-123281097D01*
X171135959Y-123281097D01*
X171347288Y-123254025D01*
X171347289Y-123254025D01*
X171352416Y-123253368D01*
X171357366Y-123251883D01*
X171561429Y-123190661D01*
X171561434Y-123190659D01*
X171566384Y-123189174D01*
X171766994Y-123090896D01*
X171948860Y-122961173D01*
X172057091Y-122853319D01*
X172119462Y-122819404D01*
X172190268Y-122824592D01*
X172247030Y-122867238D01*
X172264012Y-122898341D01*
X172308385Y-123016705D01*
X172395739Y-123133261D01*
X172512295Y-123220615D01*
X172648684Y-123271745D01*
X172710866Y-123278500D01*
X174507134Y-123278500D01*
X174569316Y-123271745D01*
X174705705Y-123220615D01*
X174822261Y-123133261D01*
X174909615Y-123016705D01*
X174960745Y-122880316D01*
X174967500Y-122818134D01*
X174967500Y-121021866D01*
X174960745Y-120959684D01*
X174909615Y-120823295D01*
X174822261Y-120706739D01*
X174705705Y-120619385D01*
X174569316Y-120568255D01*
X174507134Y-120561500D01*
X172710866Y-120561500D01*
X172648684Y-120568255D01*
X172512295Y-120619385D01*
X172395739Y-120706739D01*
X172308385Y-120823295D01*
X172305233Y-120831703D01*
X172263919Y-120941907D01*
X172221277Y-120998671D01*
X172154716Y-121023371D01*
X172085367Y-121008163D01*
X172052743Y-120982476D01*
X172002151Y-120926875D01*
X172002142Y-120926866D01*
X171998670Y-120923051D01*
X171994619Y-120919852D01*
X171994615Y-120919848D01*
X171827414Y-120787800D01*
X171827410Y-120787798D01*
X171823359Y-120784598D01*
X171627789Y-120676638D01*
X171622920Y-120674914D01*
X171622916Y-120674912D01*
X171422087Y-120603795D01*
X171422083Y-120603794D01*
X171417212Y-120602069D01*
X171412119Y-120601162D01*
X171412116Y-120601161D01*
X171202373Y-120563800D01*
X171202367Y-120563799D01*
X171197284Y-120562894D01*
X171123452Y-120561992D01*
X170979081Y-120560228D01*
X170979079Y-120560228D01*
X170973911Y-120560165D01*
X170753091Y-120593955D01*
X170540756Y-120663357D01*
X170490209Y-120689670D01*
X170419268Y-120726600D01*
X170342607Y-120766507D01*
X170338474Y-120769610D01*
X170338471Y-120769612D01*
X170168100Y-120897530D01*
X170163965Y-120900635D01*
X170124525Y-120941907D01*
X170040949Y-121029364D01*
X170009629Y-121062138D01*
X169883743Y-121246680D01*
X169855683Y-121307130D01*
X169842895Y-121334680D01*
X169796071Y-121388047D01*
X169727828Y-121407628D01*
X169659832Y-121387205D01*
X169614413Y-121334881D01*
X169601475Y-121307135D01*
X169595994Y-121297644D01*
X169478762Y-121130218D01*
X169471708Y-121121811D01*
X169327189Y-120977292D01*
X169318782Y-120970238D01*
X169151356Y-120853006D01*
X169141870Y-120847528D01*
X168956617Y-120761143D01*
X168946325Y-120757397D01*
X168800497Y-120718322D01*
X168786401Y-120718658D01*
X168783000Y-120726600D01*
X168783000Y-123108251D01*
X168275000Y-123108251D01*
X168275000Y-122192115D01*
X168270525Y-122176876D01*
X168269135Y-122175671D01*
X168261452Y-122174000D01*
X167340749Y-122174000D01*
X167327218Y-122177973D01*
X167325989Y-122186522D01*
X165061500Y-122186522D01*
X165061500Y-121648503D01*
X167327322Y-121648503D01*
X167327658Y-121662599D01*
X167335600Y-121666000D01*
X168256885Y-121666000D01*
X168272124Y-121661525D01*
X168273329Y-121660135D01*
X168275000Y-121652452D01*
X168275000Y-120731749D01*
X168271027Y-120718218D01*
X168262478Y-120716989D01*
X168111675Y-120757397D01*
X168101383Y-120761143D01*
X167916130Y-120847528D01*
X167906644Y-120853006D01*
X167739218Y-120970238D01*
X167730811Y-120977292D01*
X167586292Y-121121811D01*
X167579238Y-121130218D01*
X167462006Y-121297644D01*
X167456528Y-121307130D01*
X167370143Y-121492383D01*
X167366397Y-121502675D01*
X167327322Y-121648503D01*
X165061500Y-121648503D01*
X165061500Y-121021866D01*
X165054745Y-120959684D01*
X165003615Y-120823295D01*
X164916261Y-120706739D01*
X164799705Y-120619385D01*
X164663316Y-120568255D01*
X164601134Y-120561500D01*
X162804866Y-120561500D01*
X162742684Y-120568255D01*
X162606295Y-120619385D01*
X162489739Y-120706739D01*
X162402385Y-120823295D01*
X162399233Y-120831703D01*
X162357919Y-120941907D01*
X162315277Y-120998671D01*
X162248716Y-121023371D01*
X162179367Y-121008163D01*
X162146743Y-120982476D01*
X162096151Y-120926875D01*
X162096142Y-120926866D01*
X162092670Y-120923051D01*
X162088619Y-120919852D01*
X162088615Y-120919848D01*
X161921414Y-120787800D01*
X161921410Y-120787798D01*
X161917359Y-120784598D01*
X161721789Y-120676638D01*
X161716920Y-120674914D01*
X161716916Y-120674912D01*
X161516087Y-120603795D01*
X161516083Y-120603794D01*
X161511212Y-120602069D01*
X161506119Y-120601162D01*
X161506116Y-120601161D01*
X161296373Y-120563800D01*
X161296367Y-120563799D01*
X161291284Y-120562894D01*
X161217452Y-120561992D01*
X161073081Y-120560228D01*
X161073079Y-120560228D01*
X161067911Y-120560165D01*
X160847091Y-120593955D01*
X160634756Y-120663357D01*
X160584209Y-120689670D01*
X160513268Y-120726600D01*
X160436607Y-120766507D01*
X160432474Y-120769610D01*
X160432471Y-120769612D01*
X160262100Y-120897530D01*
X160257965Y-120900635D01*
X160218525Y-120941907D01*
X160134949Y-121029364D01*
X160103629Y-121062138D01*
X159977743Y-121246680D01*
X159949683Y-121307130D01*
X159936895Y-121334680D01*
X159890071Y-121388047D01*
X159821828Y-121407628D01*
X159753832Y-121387205D01*
X159708413Y-121334881D01*
X159695475Y-121307135D01*
X159689994Y-121297644D01*
X159572762Y-121130218D01*
X159565708Y-121121811D01*
X159421189Y-120977292D01*
X159412782Y-120970238D01*
X159245356Y-120853006D01*
X159235870Y-120847528D01*
X159050617Y-120761143D01*
X159040325Y-120757397D01*
X158894497Y-120718322D01*
X158880401Y-120718658D01*
X158877000Y-120726600D01*
X158877000Y-123108251D01*
X158369000Y-123108251D01*
X158369000Y-122192115D01*
X158364525Y-122176876D01*
X158363135Y-122175671D01*
X158355452Y-122174000D01*
X157434749Y-122174000D01*
X157421218Y-122177973D01*
X157419989Y-122186522D01*
X154254497Y-122186522D01*
X154255235Y-122045583D01*
X154255235Y-122045576D01*
X154255257Y-122041297D01*
X154217732Y-121756266D01*
X154201618Y-121697361D01*
X154188251Y-121648503D01*
X157421322Y-121648503D01*
X157421658Y-121662599D01*
X157429600Y-121666000D01*
X158350885Y-121666000D01*
X158366124Y-121661525D01*
X158367329Y-121660135D01*
X158369000Y-121652452D01*
X158369000Y-120731749D01*
X158365027Y-120718218D01*
X158356478Y-120716989D01*
X158205675Y-120757397D01*
X158195383Y-120761143D01*
X158010130Y-120847528D01*
X158000644Y-120853006D01*
X157833218Y-120970238D01*
X157824811Y-120977292D01*
X157680292Y-121121811D01*
X157673238Y-121130218D01*
X157556006Y-121297644D01*
X157550528Y-121307130D01*
X157464143Y-121492383D01*
X157460397Y-121502675D01*
X157421322Y-121648503D01*
X154188251Y-121648503D01*
X154188082Y-121647885D01*
X154141871Y-121478964D01*
X154102728Y-121387196D01*
X154030763Y-121218476D01*
X154030761Y-121218472D01*
X154029077Y-121214524D01*
X153913774Y-121021866D01*
X153883643Y-120971521D01*
X153883640Y-120971517D01*
X153881439Y-120967839D01*
X153701687Y-120743472D01*
X153576602Y-120624771D01*
X153496258Y-120548527D01*
X153496255Y-120548525D01*
X153493149Y-120545577D01*
X153259683Y-120377814D01*
X153237843Y-120366250D01*
X153214654Y-120353972D01*
X153005608Y-120243288D01*
X152735627Y-120144489D01*
X152454736Y-120083245D01*
X152423685Y-120080801D01*
X152231718Y-120065693D01*
X152231709Y-120065693D01*
X152229261Y-120065500D01*
X152073729Y-120065500D01*
X152071593Y-120065646D01*
X152071582Y-120065646D01*
X151863452Y-120079835D01*
X151863446Y-120079836D01*
X151859175Y-120080127D01*
X151854980Y-120080996D01*
X151854978Y-120080996D01*
X151718417Y-120109276D01*
X151577658Y-120138426D01*
X151306657Y-120234393D01*
X151051188Y-120366250D01*
X151047687Y-120368711D01*
X151047683Y-120368713D01*
X151037594Y-120375804D01*
X150815977Y-120531559D01*
X150773502Y-120571029D01*
X150614635Y-120718658D01*
X150605378Y-120727260D01*
X150423287Y-120949732D01*
X150273073Y-121194858D01*
X150271347Y-121198791D01*
X150271346Y-121198792D01*
X150161379Y-121449305D01*
X150157517Y-121458102D01*
X150078756Y-121734594D01*
X150038249Y-122019216D01*
X150038227Y-122023505D01*
X150038226Y-122023512D01*
X150036765Y-122302417D01*
X150036743Y-122306703D01*
X128820808Y-122306703D01*
X128851678Y-122191497D01*
X128851342Y-122177401D01*
X128843400Y-122174000D01*
X127922115Y-122174000D01*
X127906876Y-122178475D01*
X127905671Y-122179865D01*
X127904000Y-122187548D01*
X127904000Y-123108251D01*
X127396000Y-123108251D01*
X127396000Y-121647885D01*
X127904000Y-121647885D01*
X127908475Y-121663124D01*
X127909865Y-121664329D01*
X127917548Y-121666000D01*
X128838251Y-121666000D01*
X128851782Y-121662027D01*
X128853011Y-121653478D01*
X128812603Y-121502675D01*
X128808857Y-121492383D01*
X128722472Y-121307130D01*
X128716994Y-121297644D01*
X128599762Y-121130218D01*
X128592708Y-121121811D01*
X128448189Y-120977292D01*
X128439782Y-120970238D01*
X128272356Y-120853006D01*
X128262870Y-120847528D01*
X128077617Y-120761143D01*
X128067325Y-120757397D01*
X127921497Y-120718322D01*
X127907401Y-120718658D01*
X127904000Y-120726600D01*
X127904000Y-121647885D01*
X127396000Y-121647885D01*
X127396000Y-120731749D01*
X127392027Y-120718218D01*
X127383478Y-120716989D01*
X127232675Y-120757397D01*
X127222383Y-120761143D01*
X127037130Y-120847528D01*
X127027644Y-120853006D01*
X126860218Y-120970238D01*
X126851811Y-120977292D01*
X126707292Y-121121811D01*
X126700238Y-121130218D01*
X126583006Y-121297644D01*
X126577528Y-121307131D01*
X126565039Y-121333912D01*
X126518121Y-121387196D01*
X126449843Y-121406656D01*
X126381884Y-121386113D01*
X126335297Y-121330904D01*
X126311354Y-121275840D01*
X126211708Y-121121811D01*
X126192822Y-121092617D01*
X126192820Y-121092614D01*
X126190014Y-121088277D01*
X126039670Y-120923051D01*
X126035619Y-120919852D01*
X126035615Y-120919848D01*
X125868414Y-120787800D01*
X125868410Y-120787798D01*
X125864359Y-120784598D01*
X125668789Y-120676638D01*
X125663920Y-120674914D01*
X125663916Y-120674912D01*
X125463087Y-120603795D01*
X125463083Y-120603794D01*
X125458212Y-120602069D01*
X125453119Y-120601162D01*
X125453116Y-120601161D01*
X125243373Y-120563800D01*
X125243367Y-120563799D01*
X125238284Y-120562894D01*
X125164452Y-120561992D01*
X125020081Y-120560228D01*
X125020079Y-120560228D01*
X125014911Y-120560165D01*
X124794091Y-120593955D01*
X124581756Y-120663357D01*
X124531209Y-120689670D01*
X124460268Y-120726600D01*
X124383607Y-120766507D01*
X124379474Y-120769610D01*
X124379471Y-120769612D01*
X124209100Y-120897530D01*
X124204965Y-120900635D01*
X124165525Y-120941907D01*
X124081949Y-121029364D01*
X124050629Y-121062138D01*
X124030153Y-121092155D01*
X123975243Y-121137155D01*
X123904718Y-121145325D01*
X123840971Y-121114070D01*
X123804242Y-121053312D01*
X123800403Y-121030336D01*
X123800330Y-121029339D01*
X123791402Y-120968687D01*
X123785661Y-120950213D01*
X123738665Y-120854493D01*
X123726705Y-120837788D01*
X123651678Y-120762891D01*
X123634950Y-120750959D01*
X123539140Y-120704127D01*
X123520672Y-120698419D01*
X123460636Y-120689660D01*
X123451537Y-120689000D01*
X122842115Y-120689000D01*
X122826876Y-120693475D01*
X122825671Y-120694865D01*
X122824000Y-120702548D01*
X122824000Y-123132885D01*
X122316000Y-123132885D01*
X122316000Y-122192115D01*
X122311525Y-122176876D01*
X122310135Y-122175671D01*
X122302452Y-122174000D01*
X121357115Y-122174000D01*
X121341876Y-122178475D01*
X121340671Y-122179865D01*
X121339000Y-122187548D01*
X121339000Y-122801504D01*
X118158500Y-122801504D01*
X118158500Y-121647885D01*
X121339000Y-121647885D01*
X121343475Y-121663124D01*
X121344865Y-121664329D01*
X121352548Y-121666000D01*
X122297885Y-121666000D01*
X122313124Y-121661525D01*
X122314329Y-121660135D01*
X122316000Y-121652452D01*
X122316000Y-120707115D01*
X122311525Y-120691876D01*
X122310135Y-120690671D01*
X122302452Y-120689000D01*
X121688496Y-120689000D01*
X121679336Y-120689670D01*
X121618687Y-120698598D01*
X121600213Y-120704339D01*
X121504493Y-120751335D01*
X121487788Y-120763295D01*
X121412891Y-120838322D01*
X121400959Y-120855050D01*
X121354127Y-120950860D01*
X121348419Y-120969328D01*
X121339660Y-121029364D01*
X121339000Y-121038463D01*
X121339000Y-121647885D01*
X118158500Y-121647885D01*
X118158500Y-109601000D01*
X156185496Y-109601000D01*
X156205458Y-109790928D01*
X156264473Y-109972556D01*
X156359960Y-110137944D01*
X156487747Y-110279866D01*
X156642248Y-110392118D01*
X156648276Y-110394802D01*
X156648278Y-110394803D01*
X156810681Y-110467109D01*
X156816712Y-110469794D01*
X156910113Y-110489647D01*
X156997056Y-110508128D01*
X156997061Y-110508128D01*
X157003513Y-110509500D01*
X157194487Y-110509500D01*
X157200939Y-110508128D01*
X157200944Y-110508128D01*
X157287887Y-110489647D01*
X157381288Y-110469794D01*
X157387319Y-110467109D01*
X157549722Y-110394803D01*
X157549724Y-110394802D01*
X157555752Y-110392118D01*
X157710253Y-110279866D01*
X157838040Y-110137944D01*
X157933527Y-109972556D01*
X157992542Y-109790928D01*
X158012504Y-109601000D01*
X157992542Y-109411072D01*
X157933527Y-109229444D01*
X157878381Y-109133928D01*
X157861500Y-109070929D01*
X157861500Y-106321071D01*
X157878381Y-106258071D01*
X157930223Y-106168279D01*
X157930224Y-106168278D01*
X157933527Y-106162556D01*
X157992542Y-105980928D01*
X157995814Y-105949803D01*
X158011814Y-105797565D01*
X158012504Y-105791000D01*
X157992542Y-105601072D01*
X157933527Y-105419444D01*
X157838040Y-105254056D01*
X157710253Y-105112134D01*
X157555752Y-104999882D01*
X157549724Y-104997198D01*
X157549722Y-104997197D01*
X157387319Y-104924891D01*
X157387318Y-104924891D01*
X157381288Y-104922206D01*
X157287887Y-104902353D01*
X157200944Y-104883872D01*
X157200939Y-104883872D01*
X157194487Y-104882500D01*
X157003513Y-104882500D01*
X156997061Y-104883872D01*
X156997056Y-104883872D01*
X156910113Y-104902353D01*
X156816712Y-104922206D01*
X156810682Y-104924891D01*
X156810681Y-104924891D01*
X156648278Y-104997197D01*
X156648276Y-104997198D01*
X156642248Y-104999882D01*
X156487747Y-105112134D01*
X156359960Y-105254056D01*
X156264473Y-105419444D01*
X156205458Y-105601072D01*
X156185496Y-105791000D01*
X156186186Y-105797565D01*
X156202187Y-105949803D01*
X156205458Y-105980928D01*
X156264473Y-106162556D01*
X156267776Y-106168278D01*
X156267777Y-106168279D01*
X156319619Y-106258071D01*
X156336500Y-106321071D01*
X156336500Y-109070929D01*
X156319619Y-109133928D01*
X156264473Y-109229444D01*
X156205458Y-109411072D01*
X156185496Y-109601000D01*
X118158500Y-109601000D01*
X118158500Y-105156000D01*
X127610496Y-105156000D01*
X127630458Y-105345928D01*
X127689473Y-105527556D01*
X127784960Y-105692944D01*
X127789378Y-105697851D01*
X127789379Y-105697852D01*
X127815228Y-105726560D01*
X127912747Y-105834866D01*
X128067248Y-105947118D01*
X128073276Y-105949802D01*
X128073278Y-105949803D01*
X128235681Y-106022109D01*
X128241712Y-106024794D01*
X128335113Y-106044647D01*
X128422056Y-106063128D01*
X128422061Y-106063128D01*
X128428513Y-106064500D01*
X128619487Y-106064500D01*
X128625939Y-106063128D01*
X128625944Y-106063128D01*
X128712887Y-106044647D01*
X128806288Y-106024794D01*
X128812319Y-106022109D01*
X128974722Y-105949803D01*
X128974724Y-105949802D01*
X128980752Y-105947118D01*
X129074420Y-105879064D01*
X129141288Y-105855206D01*
X129148481Y-105855000D01*
X130947519Y-105855000D01*
X131015640Y-105875002D01*
X131021580Y-105879064D01*
X131115248Y-105947118D01*
X131121276Y-105949802D01*
X131121278Y-105949803D01*
X131283681Y-106022109D01*
X131289712Y-106024794D01*
X131383113Y-106044647D01*
X131470056Y-106063128D01*
X131470061Y-106063128D01*
X131476513Y-106064500D01*
X131667487Y-106064500D01*
X131673939Y-106063128D01*
X131673944Y-106063128D01*
X131760887Y-106044647D01*
X131854288Y-106024794D01*
X131860319Y-106022109D01*
X132022722Y-105949803D01*
X132022724Y-105949802D01*
X132028752Y-105947118D01*
X132183253Y-105834866D01*
X132280772Y-105726560D01*
X132306621Y-105697852D01*
X132306622Y-105697851D01*
X132311040Y-105692944D01*
X132327751Y-105664000D01*
X145390496Y-105664000D01*
X145391186Y-105670565D01*
X145408863Y-105838749D01*
X145410458Y-105853928D01*
X145469473Y-106035556D01*
X145564960Y-106200944D01*
X145692747Y-106342866D01*
X145847248Y-106455118D01*
X145853276Y-106457802D01*
X145853278Y-106457803D01*
X146015681Y-106530109D01*
X146021712Y-106532794D01*
X146115113Y-106552647D01*
X146202056Y-106571128D01*
X146202061Y-106571128D01*
X146208513Y-106572500D01*
X146399487Y-106572500D01*
X146405939Y-106571128D01*
X146405944Y-106571128D01*
X146492888Y-106552647D01*
X146586288Y-106532794D01*
X146592319Y-106530109D01*
X146754722Y-106457803D01*
X146754724Y-106457802D01*
X146760752Y-106455118D01*
X146915253Y-106342866D01*
X147043040Y-106200944D01*
X147138527Y-106035556D01*
X147166390Y-105949803D01*
X147195502Y-105860207D01*
X147195502Y-105860205D01*
X147197542Y-105853928D01*
X147204028Y-105792217D01*
X147231041Y-105726560D01*
X147240243Y-105716292D01*
X152874038Y-100082497D01*
X152880304Y-100076643D01*
X152903394Y-100056500D01*
X152923274Y-100039158D01*
X152959494Y-99987622D01*
X152963427Y-99982326D01*
X152997606Y-99938737D01*
X152997608Y-99938734D01*
X153002292Y-99932760D01*
X153005418Y-99925836D01*
X153007256Y-99922801D01*
X153014500Y-99910102D01*
X153016188Y-99906954D01*
X153020556Y-99900739D01*
X153043438Y-99842050D01*
X153045978Y-99836005D01*
X153071913Y-99778565D01*
X153073298Y-99771092D01*
X153074369Y-99767674D01*
X153078354Y-99753685D01*
X153079251Y-99750193D01*
X153082012Y-99743111D01*
X153088836Y-99691279D01*
X153090233Y-99680670D01*
X153091265Y-99674157D01*
X153101361Y-99619682D01*
X153101361Y-99619680D01*
X153102745Y-99612213D01*
X153099209Y-99550887D01*
X153099000Y-99543635D01*
X153099000Y-98683634D01*
X153119002Y-98615513D01*
X153172658Y-98569020D01*
X153242932Y-98558916D01*
X153307512Y-98588410D01*
X153320237Y-98601136D01*
X153347865Y-98633031D01*
X153347869Y-98633035D01*
X153351250Y-98636938D01*
X153523126Y-98779632D01*
X153716000Y-98892338D01*
X153924692Y-98972030D01*
X153929760Y-98973061D01*
X153929763Y-98973062D01*
X154037017Y-98994883D01*
X154143597Y-99016567D01*
X154148772Y-99016757D01*
X154148774Y-99016757D01*
X154361673Y-99024564D01*
X154361677Y-99024564D01*
X154366837Y-99024753D01*
X154371957Y-99024097D01*
X154371959Y-99024097D01*
X154583288Y-98997025D01*
X154583289Y-98997025D01*
X154588416Y-98996368D01*
X154593366Y-98994883D01*
X154797429Y-98933661D01*
X154797434Y-98933659D01*
X154802384Y-98932174D01*
X155002994Y-98833896D01*
X155184860Y-98704173D01*
X155343096Y-98546489D01*
X155349647Y-98537373D01*
X155470435Y-98369277D01*
X155473453Y-98365077D01*
X155493799Y-98323911D01*
X155570136Y-98169453D01*
X155570137Y-98169451D01*
X155572430Y-98164811D01*
X155604900Y-98057940D01*
X155635865Y-97956023D01*
X155635865Y-97956021D01*
X155637370Y-97951069D01*
X155666529Y-97729590D01*
X155668156Y-97663000D01*
X155649852Y-97440361D01*
X155595431Y-97223702D01*
X155506354Y-97018840D01*
X155385014Y-96831277D01*
X155234670Y-96666051D01*
X155230611Y-96662845D01*
X155063414Y-96530800D01*
X155063410Y-96530798D01*
X155059359Y-96527598D01*
X155018053Y-96504796D01*
X154968084Y-96454364D01*
X154953312Y-96384921D01*
X154978428Y-96318516D01*
X155005780Y-96291909D01*
X155049603Y-96260650D01*
X155184860Y-96164173D01*
X155209340Y-96139779D01*
X155339435Y-96010137D01*
X155343096Y-96006489D01*
X155402594Y-95923689D01*
X155470435Y-95829277D01*
X155473453Y-95825077D01*
X155529510Y-95711655D01*
X155570136Y-95629453D01*
X155570137Y-95629451D01*
X155572430Y-95624811D01*
X155637370Y-95411069D01*
X155666529Y-95189590D01*
X155668156Y-95123000D01*
X155665418Y-95089695D01*
X170722251Y-95089695D01*
X170722548Y-95094848D01*
X170722548Y-95094851D01*
X170733654Y-95287468D01*
X170735110Y-95312715D01*
X170736247Y-95317761D01*
X170736248Y-95317767D01*
X170743845Y-95351476D01*
X170784222Y-95530639D01*
X170822461Y-95624811D01*
X170855725Y-95706730D01*
X170868266Y-95737616D01*
X170870965Y-95742020D01*
X170963773Y-95893469D01*
X170984987Y-95928088D01*
X171131250Y-96096938D01*
X171303126Y-96239632D01*
X171496000Y-96352338D01*
X171500825Y-96354180D01*
X171500826Y-96354181D01*
X171573612Y-96381975D01*
X171704692Y-96432030D01*
X171709760Y-96433061D01*
X171709763Y-96433062D01*
X171814466Y-96454364D01*
X171923597Y-96476567D01*
X171928772Y-96476757D01*
X171928774Y-96476757D01*
X172141673Y-96484564D01*
X172141677Y-96484564D01*
X172146837Y-96484753D01*
X172151957Y-96484097D01*
X172151959Y-96484097D01*
X172363288Y-96457025D01*
X172363289Y-96457025D01*
X172368416Y-96456368D01*
X172375096Y-96454364D01*
X172577429Y-96393661D01*
X172577434Y-96393659D01*
X172582384Y-96392174D01*
X172782994Y-96293896D01*
X172964860Y-96164173D01*
X172989340Y-96139779D01*
X173119435Y-96010137D01*
X173123096Y-96006489D01*
X173182594Y-95923689D01*
X173250435Y-95829277D01*
X173253453Y-95825077D01*
X173309510Y-95711655D01*
X173350136Y-95629453D01*
X173350137Y-95629451D01*
X173352430Y-95624811D01*
X173417370Y-95411069D01*
X173446529Y-95189590D01*
X173448156Y-95123000D01*
X173429852Y-94900361D01*
X173375431Y-94683702D01*
X173286354Y-94478840D01*
X173246906Y-94417862D01*
X173167822Y-94295617D01*
X173167820Y-94295614D01*
X173165014Y-94291277D01*
X173014670Y-94126051D01*
X173010619Y-94122852D01*
X173010615Y-94122848D01*
X172843414Y-93990800D01*
X172843410Y-93990798D01*
X172839359Y-93987598D01*
X172798053Y-93964796D01*
X172748084Y-93914364D01*
X172733312Y-93844921D01*
X172758428Y-93778516D01*
X172785780Y-93751909D01*
X172829603Y-93720650D01*
X172964860Y-93624173D01*
X172970983Y-93618072D01*
X173075411Y-93514008D01*
X173123096Y-93466489D01*
X173180605Y-93386457D01*
X173250435Y-93289277D01*
X173253453Y-93285077D01*
X173264458Y-93262811D01*
X173350136Y-93089453D01*
X173350137Y-93089451D01*
X173352430Y-93084811D01*
X173417370Y-92871069D01*
X173446529Y-92649590D01*
X173448156Y-92583000D01*
X173429852Y-92360361D01*
X173375431Y-92143702D01*
X173286354Y-91938840D01*
X173165014Y-91751277D01*
X173014670Y-91586051D01*
X173010619Y-91582852D01*
X173010615Y-91582848D01*
X172843414Y-91450800D01*
X172843410Y-91450798D01*
X172839359Y-91447598D01*
X172798053Y-91424796D01*
X172748084Y-91374364D01*
X172733312Y-91304921D01*
X172758428Y-91238516D01*
X172785780Y-91211909D01*
X172851153Y-91165279D01*
X172964860Y-91084173D01*
X173123096Y-90926489D01*
X173182594Y-90843689D01*
X173250435Y-90749277D01*
X173253453Y-90745077D01*
X173292854Y-90665356D01*
X173350136Y-90549453D01*
X173350137Y-90549451D01*
X173352430Y-90544811D01*
X173417370Y-90331069D01*
X173446529Y-90109590D01*
X173448156Y-90043000D01*
X173429852Y-89820361D01*
X173375431Y-89603702D01*
X173286354Y-89398840D01*
X173165014Y-89211277D01*
X173161532Y-89207450D01*
X173017798Y-89049488D01*
X172986746Y-88985642D01*
X172995141Y-88915143D01*
X173040317Y-88860375D01*
X173066761Y-88846706D01*
X173173297Y-88806767D01*
X173181705Y-88803615D01*
X173298261Y-88716261D01*
X173385615Y-88599705D01*
X173436745Y-88463316D01*
X173443500Y-88401134D01*
X173443500Y-86604866D01*
X173436745Y-86542684D01*
X173385615Y-86406295D01*
X173298261Y-86289739D01*
X173181705Y-86202385D01*
X173045316Y-86151255D01*
X172983134Y-86144500D01*
X171186866Y-86144500D01*
X171124684Y-86151255D01*
X170988295Y-86202385D01*
X170871739Y-86289739D01*
X170784385Y-86406295D01*
X170733255Y-86542684D01*
X170726500Y-86604866D01*
X170726500Y-88401134D01*
X170733255Y-88463316D01*
X170784385Y-88599705D01*
X170871739Y-88716261D01*
X170988295Y-88803615D01*
X170996704Y-88806767D01*
X170996705Y-88806768D01*
X171105451Y-88847535D01*
X171162216Y-88890176D01*
X171186916Y-88956738D01*
X171171709Y-89026087D01*
X171152316Y-89052568D01*
X171025629Y-89185138D01*
X170899743Y-89369680D01*
X170805688Y-89572305D01*
X170745989Y-89787570D01*
X170722251Y-90009695D01*
X170722548Y-90014848D01*
X170722548Y-90014851D01*
X170728011Y-90109590D01*
X170735110Y-90232715D01*
X170736247Y-90237761D01*
X170736248Y-90237767D01*
X170756119Y-90325939D01*
X170784222Y-90450639D01*
X170868266Y-90657616D01*
X170870965Y-90662020D01*
X170975608Y-90832782D01*
X170984987Y-90848088D01*
X171131250Y-91016938D01*
X171303126Y-91159632D01*
X171312790Y-91165279D01*
X171376445Y-91202476D01*
X171425169Y-91254114D01*
X171438240Y-91323897D01*
X171411509Y-91389669D01*
X171371055Y-91423027D01*
X171358607Y-91429507D01*
X171354474Y-91432610D01*
X171354471Y-91432612D01*
X171330247Y-91450800D01*
X171179965Y-91563635D01*
X171025629Y-91725138D01*
X170899743Y-91909680D01*
X170884003Y-91943590D01*
X170812379Y-92097891D01*
X170805688Y-92112305D01*
X170745989Y-92327570D01*
X170722251Y-92549695D01*
X170722548Y-92554848D01*
X170722548Y-92554851D01*
X170728011Y-92649590D01*
X170735110Y-92772715D01*
X170736247Y-92777761D01*
X170736248Y-92777767D01*
X170744276Y-92813389D01*
X170784222Y-92990639D01*
X170868266Y-93197616D01*
X170874301Y-93207464D01*
X170978412Y-93377358D01*
X170984987Y-93388088D01*
X171131250Y-93556938D01*
X171303126Y-93699632D01*
X171364411Y-93735444D01*
X171376445Y-93742476D01*
X171425169Y-93794114D01*
X171438240Y-93863897D01*
X171411509Y-93929669D01*
X171371055Y-93963027D01*
X171358607Y-93969507D01*
X171354474Y-93972610D01*
X171354471Y-93972612D01*
X171184100Y-94100530D01*
X171179965Y-94103635D01*
X171025629Y-94265138D01*
X170899743Y-94449680D01*
X170805688Y-94652305D01*
X170745989Y-94867570D01*
X170722251Y-95089695D01*
X155665418Y-95089695D01*
X155649852Y-94900361D01*
X155595431Y-94683702D01*
X155506354Y-94478840D01*
X155466906Y-94417862D01*
X155387822Y-94295617D01*
X155387820Y-94295614D01*
X155385014Y-94291277D01*
X155234670Y-94126051D01*
X155230619Y-94122852D01*
X155230615Y-94122848D01*
X155063414Y-93990800D01*
X155063410Y-93990798D01*
X155059359Y-93987598D01*
X155018053Y-93964796D01*
X154968084Y-93914364D01*
X154953312Y-93844921D01*
X154978428Y-93778516D01*
X155005780Y-93751909D01*
X155049603Y-93720650D01*
X155184860Y-93624173D01*
X155190983Y-93618072D01*
X155295411Y-93514008D01*
X155343096Y-93466489D01*
X155400605Y-93386457D01*
X155470435Y-93289277D01*
X155473453Y-93285077D01*
X155484458Y-93262811D01*
X155570136Y-93089453D01*
X155570137Y-93089451D01*
X155572430Y-93084811D01*
X155637370Y-92871069D01*
X155666529Y-92649590D01*
X155668156Y-92583000D01*
X155649852Y-92360361D01*
X155595431Y-92143702D01*
X155506354Y-91938840D01*
X155385014Y-91751277D01*
X155234670Y-91586051D01*
X155230619Y-91582852D01*
X155230615Y-91582848D01*
X155063414Y-91450800D01*
X155063410Y-91450798D01*
X155059359Y-91447598D01*
X155022260Y-91427118D01*
X154926695Y-91374364D01*
X154885384Y-91351559D01*
X154835414Y-91301127D01*
X154820642Y-91231685D01*
X154845758Y-91165279D01*
X154893027Y-91127057D01*
X154917865Y-91115475D01*
X154927356Y-91109994D01*
X155094782Y-90992762D01*
X155103189Y-90985708D01*
X155247708Y-90841189D01*
X155254762Y-90832782D01*
X155371994Y-90665356D01*
X155377472Y-90655870D01*
X155463857Y-90470617D01*
X155467603Y-90460325D01*
X155506678Y-90314497D01*
X155506342Y-90300401D01*
X155498400Y-90297000D01*
X153116749Y-90297000D01*
X153103218Y-90300973D01*
X153101989Y-90309522D01*
X153142397Y-90460325D01*
X153146143Y-90470617D01*
X153232528Y-90655870D01*
X153238006Y-90665356D01*
X153355238Y-90832782D01*
X153362292Y-90841189D01*
X153506811Y-90985708D01*
X153515218Y-90992762D01*
X153682644Y-91109994D01*
X153692130Y-91115472D01*
X153718896Y-91127953D01*
X153772181Y-91174871D01*
X153791642Y-91243148D01*
X153771100Y-91311108D01*
X153723827Y-91353910D01*
X153578607Y-91429507D01*
X153574474Y-91432610D01*
X153574471Y-91432612D01*
X153550247Y-91450800D01*
X153399965Y-91563635D01*
X153245629Y-91725138D01*
X153119743Y-91909680D01*
X153025688Y-92112305D01*
X153023459Y-92111270D01*
X152987307Y-92160111D01*
X152920922Y-92185282D01*
X152857633Y-92170904D01*
X152856752Y-92172882D01*
X152688319Y-92097891D01*
X152688318Y-92097891D01*
X152682288Y-92095206D01*
X152588887Y-92075353D01*
X152501944Y-92056872D01*
X152501939Y-92056872D01*
X152495487Y-92055500D01*
X152304513Y-92055500D01*
X152298061Y-92056872D01*
X152298056Y-92056872D01*
X152211112Y-92075353D01*
X152117712Y-92095206D01*
X152111682Y-92097891D01*
X152111681Y-92097891D01*
X151949278Y-92170197D01*
X151949276Y-92170198D01*
X151943248Y-92172882D01*
X151788747Y-92285134D01*
X151784326Y-92290044D01*
X151784325Y-92290045D01*
X151725532Y-92355342D01*
X151660960Y-92427056D01*
X151657659Y-92432774D01*
X151570926Y-92583000D01*
X151565473Y-92592444D01*
X151506458Y-92774072D01*
X151505768Y-92780633D01*
X151505768Y-92780635D01*
X151496263Y-92871069D01*
X151486496Y-92964000D01*
X151496725Y-93061320D01*
X151483953Y-93131156D01*
X151435451Y-93183003D01*
X151366619Y-93200398D01*
X151358777Y-93199837D01*
X151352487Y-93198500D01*
X151161513Y-93198500D01*
X151155061Y-93199872D01*
X151155056Y-93199872D01*
X151068113Y-93218353D01*
X150974712Y-93238206D01*
X150968682Y-93240891D01*
X150968681Y-93240891D01*
X150806278Y-93313197D01*
X150806276Y-93313198D01*
X150800248Y-93315882D01*
X150794907Y-93319762D01*
X150794906Y-93319763D01*
X150786209Y-93326082D01*
X150645747Y-93428134D01*
X150641326Y-93433044D01*
X150641325Y-93433045D01*
X150540149Y-93545413D01*
X150517960Y-93570056D01*
X150422473Y-93735444D01*
X150420432Y-93741726D01*
X150418900Y-93746441D01*
X150378824Y-93805045D01*
X150313426Y-93832679D01*
X150299068Y-93833500D01*
X150145513Y-93833500D01*
X150139061Y-93834872D01*
X150139056Y-93834872D01*
X150057800Y-93852144D01*
X149958712Y-93873206D01*
X149952682Y-93875891D01*
X149952681Y-93875891D01*
X149790278Y-93948197D01*
X149790276Y-93948198D01*
X149784248Y-93950882D01*
X149629747Y-94063134D01*
X149625326Y-94068044D01*
X149625325Y-94068045D01*
X149596076Y-94100530D01*
X149501960Y-94205056D01*
X149406473Y-94370444D01*
X149347458Y-94552072D01*
X149346768Y-94558633D01*
X149346768Y-94558635D01*
X149334122Y-94678954D01*
X149327496Y-94742000D01*
X149328186Y-94748565D01*
X149344683Y-94905522D01*
X149347458Y-94931928D01*
X149406473Y-95113556D01*
X149409776Y-95119278D01*
X149409777Y-95119279D01*
X149413868Y-95126365D01*
X149501960Y-95278944D01*
X149509637Y-95287470D01*
X149540353Y-95351476D01*
X149542000Y-95371779D01*
X149542000Y-98684221D01*
X149521998Y-98752342D01*
X149509641Y-98768525D01*
X149501960Y-98777056D01*
X149406473Y-98942444D01*
X149347458Y-99124072D01*
X149327496Y-99314000D01*
X149347458Y-99503928D01*
X149406473Y-99685556D01*
X149501960Y-99850944D01*
X149506378Y-99855851D01*
X149506379Y-99855852D01*
X149555226Y-99910102D01*
X149629747Y-99992866D01*
X149693462Y-100039158D01*
X149771982Y-100096206D01*
X149784248Y-100105118D01*
X149790276Y-100107802D01*
X149790278Y-100107803D01*
X149934513Y-100172020D01*
X149958712Y-100182794D01*
X150052112Y-100202647D01*
X150139056Y-100221128D01*
X150139061Y-100221128D01*
X150145513Y-100222500D01*
X150336487Y-100222500D01*
X150342939Y-100221128D01*
X150342944Y-100221128D01*
X150425979Y-100203478D01*
X150454394Y-100197438D01*
X150525184Y-100202840D01*
X150581816Y-100245657D01*
X150606310Y-100312294D01*
X150590889Y-100381596D01*
X150569685Y-100409780D01*
X146254528Y-104724937D01*
X146191631Y-104759088D01*
X146021712Y-104795206D01*
X146015682Y-104797891D01*
X146015681Y-104797891D01*
X145853278Y-104870197D01*
X145853276Y-104870198D01*
X145847248Y-104872882D01*
X145841907Y-104876762D01*
X145841906Y-104876763D01*
X145791843Y-104913136D01*
X145692747Y-104985134D01*
X145564960Y-105127056D01*
X145469473Y-105292444D01*
X145410458Y-105474072D01*
X145390496Y-105664000D01*
X132327751Y-105664000D01*
X132406527Y-105527556D01*
X132465542Y-105345928D01*
X132485504Y-105156000D01*
X132480485Y-105108251D01*
X132466232Y-104972635D01*
X132466232Y-104972633D01*
X132465542Y-104966072D01*
X132406527Y-104784444D01*
X132311040Y-104619056D01*
X132183253Y-104477134D01*
X132028752Y-104364882D01*
X132022724Y-104362198D01*
X132022722Y-104362197D01*
X131860319Y-104289891D01*
X131860318Y-104289891D01*
X131854288Y-104287206D01*
X131760887Y-104267353D01*
X131673944Y-104248872D01*
X131673939Y-104248872D01*
X131667487Y-104247500D01*
X131476513Y-104247500D01*
X131470061Y-104248872D01*
X131470056Y-104248872D01*
X131383113Y-104267353D01*
X131289712Y-104287206D01*
X131283682Y-104289891D01*
X131283681Y-104289891D01*
X131121278Y-104362197D01*
X131121276Y-104362198D01*
X131115248Y-104364882D01*
X131109907Y-104368762D01*
X131109906Y-104368763D01*
X131021580Y-104432936D01*
X130954712Y-104456794D01*
X130947519Y-104457000D01*
X129148481Y-104457000D01*
X129080360Y-104436998D01*
X129074420Y-104432936D01*
X128986094Y-104368763D01*
X128986093Y-104368762D01*
X128980752Y-104364882D01*
X128974724Y-104362198D01*
X128974722Y-104362197D01*
X128812319Y-104289891D01*
X128812318Y-104289891D01*
X128806288Y-104287206D01*
X128712887Y-104267353D01*
X128625944Y-104248872D01*
X128625939Y-104248872D01*
X128619487Y-104247500D01*
X128428513Y-104247500D01*
X128422061Y-104248872D01*
X128422056Y-104248872D01*
X128335113Y-104267353D01*
X128241712Y-104287206D01*
X128235682Y-104289891D01*
X128235681Y-104289891D01*
X128073278Y-104362197D01*
X128073276Y-104362198D01*
X128067248Y-104364882D01*
X127912747Y-104477134D01*
X127784960Y-104619056D01*
X127689473Y-104784444D01*
X127630458Y-104966072D01*
X127629768Y-104972633D01*
X127629768Y-104972635D01*
X127615515Y-105108251D01*
X127610496Y-105156000D01*
X118158500Y-105156000D01*
X118158500Y-99519695D01*
X129828251Y-99519695D01*
X129828548Y-99524848D01*
X129828548Y-99524851D01*
X129837814Y-99685556D01*
X129841110Y-99742715D01*
X129842247Y-99747761D01*
X129842248Y-99747767D01*
X129849189Y-99778565D01*
X129890222Y-99960639D01*
X129974266Y-100167616D01*
X130090987Y-100358088D01*
X130237250Y-100526938D01*
X130241230Y-100530242D01*
X130245981Y-100534187D01*
X130285616Y-100593090D01*
X130287113Y-100664071D01*
X130249997Y-100724593D01*
X130209724Y-100749112D01*
X130094295Y-100792385D01*
X129977739Y-100879739D01*
X129890385Y-100996295D01*
X129839255Y-101132684D01*
X129832500Y-101194866D01*
X129832500Y-102991134D01*
X129839255Y-103053316D01*
X129890385Y-103189705D01*
X129977739Y-103306261D01*
X130094295Y-103393615D01*
X130230684Y-103444745D01*
X130292866Y-103451500D01*
X132089134Y-103451500D01*
X132151316Y-103444745D01*
X132287705Y-103393615D01*
X132404261Y-103306261D01*
X132491615Y-103189705D01*
X132542745Y-103053316D01*
X132549500Y-102991134D01*
X132549500Y-101194866D01*
X132542745Y-101132684D01*
X132491615Y-100996295D01*
X132404261Y-100879739D01*
X132287705Y-100792385D01*
X132275132Y-100787672D01*
X132169203Y-100747960D01*
X132112439Y-100705318D01*
X132087739Y-100638756D01*
X132102947Y-100569408D01*
X132124493Y-100540727D01*
X132225435Y-100440137D01*
X132229096Y-100436489D01*
X132238683Y-100423148D01*
X132356435Y-100259277D01*
X132359453Y-100255077D01*
X132375554Y-100222500D01*
X132456136Y-100059453D01*
X132456137Y-100059451D01*
X132458430Y-100054811D01*
X132523370Y-99841069D01*
X132552529Y-99619590D01*
X132552709Y-99612213D01*
X132554074Y-99556365D01*
X132554074Y-99556361D01*
X132554156Y-99553000D01*
X132535852Y-99330361D01*
X132481431Y-99113702D01*
X132392354Y-98908840D01*
X132307099Y-98777056D01*
X132273822Y-98725617D01*
X132273820Y-98725614D01*
X132271014Y-98721277D01*
X132120670Y-98556051D01*
X132116619Y-98552852D01*
X132116615Y-98552848D01*
X131949414Y-98420800D01*
X131949410Y-98420798D01*
X131945359Y-98417598D01*
X131908260Y-98397118D01*
X131850217Y-98365077D01*
X131771384Y-98321559D01*
X131721414Y-98271127D01*
X131706642Y-98201685D01*
X131731758Y-98135279D01*
X131779027Y-98097057D01*
X131803865Y-98085475D01*
X131813356Y-98079994D01*
X131980782Y-97962762D01*
X131989189Y-97955708D01*
X132133708Y-97811189D01*
X132140762Y-97802782D01*
X132257994Y-97635356D01*
X132263472Y-97625870D01*
X132349857Y-97440617D01*
X132353603Y-97430325D01*
X132392678Y-97284497D01*
X132392342Y-97270401D01*
X132384400Y-97267000D01*
X130002749Y-97267000D01*
X129989218Y-97270973D01*
X129987989Y-97279522D01*
X130028397Y-97430325D01*
X130032143Y-97440617D01*
X130118528Y-97625870D01*
X130124006Y-97635356D01*
X130241238Y-97802782D01*
X130248292Y-97811189D01*
X130392811Y-97955708D01*
X130401218Y-97962762D01*
X130568644Y-98079994D01*
X130578130Y-98085472D01*
X130604896Y-98097953D01*
X130658181Y-98144871D01*
X130677642Y-98213148D01*
X130657100Y-98281108D01*
X130609827Y-98323910D01*
X130464607Y-98399507D01*
X130460474Y-98402610D01*
X130460471Y-98402612D01*
X130290100Y-98530530D01*
X130285965Y-98533635D01*
X130260894Y-98559870D01*
X130142062Y-98684221D01*
X130131629Y-98695138D01*
X130128715Y-98699410D01*
X130128714Y-98699411D01*
X130116404Y-98717457D01*
X130005743Y-98879680D01*
X129990003Y-98913590D01*
X129938403Y-99024753D01*
X129911688Y-99082305D01*
X129851989Y-99297570D01*
X129828251Y-99519695D01*
X118158500Y-99519695D01*
X118158500Y-96741503D01*
X129989322Y-96741503D01*
X129989658Y-96755599D01*
X129997600Y-96759000D01*
X130918885Y-96759000D01*
X130934124Y-96754525D01*
X130935329Y-96753135D01*
X130937000Y-96745452D01*
X130937000Y-96740885D01*
X131445000Y-96740885D01*
X131449475Y-96756124D01*
X131450865Y-96757329D01*
X131458548Y-96759000D01*
X132379251Y-96759000D01*
X132392782Y-96755027D01*
X132394011Y-96746478D01*
X132353603Y-96595675D01*
X132349857Y-96585383D01*
X132263472Y-96400130D01*
X132257994Y-96390644D01*
X132140762Y-96223218D01*
X132133708Y-96214811D01*
X131989189Y-96070292D01*
X131980782Y-96063238D01*
X131813356Y-95946006D01*
X131803870Y-95940528D01*
X131618617Y-95854143D01*
X131608325Y-95850397D01*
X131462497Y-95811322D01*
X131448401Y-95811658D01*
X131445000Y-95819600D01*
X131445000Y-96740885D01*
X130937000Y-96740885D01*
X130937000Y-95824749D01*
X130933027Y-95811218D01*
X130924478Y-95809989D01*
X130773675Y-95850397D01*
X130763383Y-95854143D01*
X130578130Y-95940528D01*
X130568644Y-95946006D01*
X130401218Y-96063238D01*
X130392811Y-96070292D01*
X130248292Y-96214811D01*
X130241238Y-96223218D01*
X130124006Y-96390644D01*
X130118528Y-96400130D01*
X130032143Y-96585383D01*
X130028397Y-96595675D01*
X129989322Y-96741503D01*
X118158500Y-96741503D01*
X118158500Y-95709199D01*
X135991500Y-95709199D01*
X135991693Y-95711648D01*
X135991693Y-95711655D01*
X135994083Y-95742020D01*
X136006391Y-95898403D01*
X136007545Y-95903210D01*
X136007546Y-95903216D01*
X136014454Y-95931990D01*
X136065495Y-96144591D01*
X136067388Y-96149162D01*
X136067389Y-96149164D01*
X136151547Y-96352338D01*
X136162384Y-96378502D01*
X136294672Y-96594376D01*
X136459102Y-96786898D01*
X136651624Y-96951328D01*
X136867498Y-97083616D01*
X136872068Y-97085509D01*
X136872072Y-97085511D01*
X137096836Y-97178611D01*
X137101409Y-97180505D01*
X137186032Y-97200821D01*
X137342784Y-97238454D01*
X137342790Y-97238455D01*
X137347597Y-97239609D01*
X137600000Y-97259474D01*
X137852403Y-97239609D01*
X137857210Y-97238455D01*
X137857216Y-97238454D01*
X138013968Y-97200821D01*
X138098591Y-97180505D01*
X138103164Y-97178611D01*
X138327928Y-97085511D01*
X138327932Y-97085509D01*
X138332502Y-97083616D01*
X138548376Y-96951328D01*
X138740898Y-96786898D01*
X138743093Y-96784328D01*
X138805024Y-96750510D01*
X138845414Y-96748368D01*
X138898467Y-96754131D01*
X138898471Y-96754131D01*
X138901866Y-96754500D01*
X140498134Y-96754500D01*
X140560316Y-96747745D01*
X140696705Y-96696615D01*
X140813261Y-96609261D01*
X140837579Y-96576813D01*
X140894436Y-96534299D01*
X140965254Y-96529273D01*
X141008680Y-96547798D01*
X141086601Y-96600159D01*
X141086610Y-96600164D01*
X141091262Y-96603290D01*
X141296967Y-96693588D01*
X141302418Y-96694897D01*
X141302422Y-96694898D01*
X141493972Y-96740885D01*
X141515411Y-96746032D01*
X141593079Y-96750510D01*
X141734083Y-96758640D01*
X141734086Y-96758640D01*
X141739690Y-96758963D01*
X141962715Y-96731975D01*
X142177435Y-96665918D01*
X142182415Y-96663348D01*
X142182419Y-96663346D01*
X142372081Y-96565454D01*
X142372082Y-96565454D01*
X142377064Y-96562882D01*
X142555292Y-96426123D01*
X142559063Y-96421978D01*
X142559067Y-96421975D01*
X142606480Y-96369869D01*
X142667121Y-96332946D01*
X142738096Y-96334669D01*
X142787358Y-96364183D01*
X142846994Y-96421975D01*
X142883163Y-96457025D01*
X142904799Y-96477992D01*
X142909450Y-96481117D01*
X142909457Y-96481123D01*
X142945275Y-96505191D01*
X142990661Y-96559787D01*
X143001000Y-96609773D01*
X143001000Y-98122401D01*
X143000708Y-98130971D01*
X142998739Y-98159857D01*
X142996830Y-98187852D01*
X142998135Y-98195328D01*
X142998135Y-98195332D01*
X143007663Y-98249924D01*
X143008626Y-98256449D01*
X143013456Y-98296357D01*
X143016191Y-98318960D01*
X143018875Y-98326062D01*
X143019719Y-98329500D01*
X143023583Y-98343623D01*
X143024613Y-98347034D01*
X143025919Y-98354517D01*
X143028972Y-98361472D01*
X143051239Y-98412198D01*
X143053730Y-98418304D01*
X143075994Y-98477222D01*
X143080293Y-98483477D01*
X143081935Y-98486618D01*
X143089033Y-98499372D01*
X143090870Y-98502478D01*
X143093923Y-98509433D01*
X143098548Y-98515460D01*
X143098550Y-98515464D01*
X143132265Y-98559402D01*
X143136129Y-98564720D01*
X143171821Y-98616652D01*
X143177491Y-98621704D01*
X143177492Y-98621705D01*
X143217688Y-98657518D01*
X143222964Y-98662499D01*
X145999503Y-101439038D01*
X146005356Y-101445303D01*
X146042842Y-101488274D01*
X146069276Y-101506852D01*
X146094378Y-101524494D01*
X146099674Y-101528427D01*
X146143263Y-101562606D01*
X146143266Y-101562608D01*
X146149240Y-101567292D01*
X146156164Y-101570418D01*
X146159199Y-101572256D01*
X146171898Y-101579500D01*
X146175046Y-101581188D01*
X146181261Y-101585556D01*
X146239950Y-101608438D01*
X146245995Y-101610978D01*
X146303435Y-101636913D01*
X146310908Y-101638298D01*
X146314326Y-101639369D01*
X146328315Y-101643354D01*
X146331807Y-101644251D01*
X146338889Y-101647012D01*
X146346422Y-101648004D01*
X146346423Y-101648004D01*
X146401330Y-101655233D01*
X146407843Y-101656265D01*
X146462318Y-101666361D01*
X146462320Y-101666361D01*
X146469787Y-101667745D01*
X146477367Y-101667308D01*
X146477368Y-101667308D01*
X146531112Y-101664209D01*
X146538365Y-101664000D01*
X147330519Y-101664000D01*
X147398640Y-101684002D01*
X147404580Y-101688064D01*
X147498248Y-101756118D01*
X147504276Y-101758802D01*
X147504278Y-101758803D01*
X147666681Y-101831109D01*
X147672712Y-101833794D01*
X147766112Y-101853647D01*
X147853056Y-101872128D01*
X147853061Y-101872128D01*
X147859513Y-101873500D01*
X148050487Y-101873500D01*
X148056939Y-101872128D01*
X148056944Y-101872128D01*
X148143887Y-101853647D01*
X148237288Y-101833794D01*
X148243319Y-101831109D01*
X148405722Y-101758803D01*
X148405724Y-101758802D01*
X148411752Y-101756118D01*
X148566253Y-101643866D01*
X148595856Y-101610989D01*
X148689621Y-101506852D01*
X148689622Y-101506851D01*
X148694040Y-101501944D01*
X148789527Y-101336556D01*
X148848542Y-101154928D01*
X148868504Y-100965000D01*
X148867814Y-100958435D01*
X148849232Y-100781635D01*
X148849232Y-100781633D01*
X148848542Y-100775072D01*
X148789527Y-100593444D01*
X148694040Y-100428056D01*
X148566253Y-100286134D01*
X148425907Y-100184166D01*
X148417094Y-100177763D01*
X148417093Y-100177762D01*
X148411752Y-100173882D01*
X148405724Y-100171198D01*
X148405722Y-100171197D01*
X148243319Y-100098891D01*
X148243318Y-100098891D01*
X148237288Y-100096206D01*
X148143888Y-100076353D01*
X148056944Y-100057872D01*
X148056939Y-100057872D01*
X148050487Y-100056500D01*
X147859513Y-100056500D01*
X147853061Y-100057872D01*
X147853056Y-100057872D01*
X147766112Y-100076353D01*
X147672712Y-100096206D01*
X147666682Y-100098891D01*
X147666681Y-100098891D01*
X147504278Y-100171197D01*
X147504276Y-100171198D01*
X147498248Y-100173882D01*
X147492907Y-100177762D01*
X147492906Y-100177763D01*
X147404580Y-100241936D01*
X147337712Y-100265794D01*
X147330519Y-100266000D01*
X146855725Y-100266000D01*
X146787604Y-100245998D01*
X146766630Y-100229095D01*
X144435905Y-97898370D01*
X144401879Y-97836058D01*
X144399000Y-97809275D01*
X144399000Y-96823896D01*
X144419002Y-96755775D01*
X144472658Y-96709282D01*
X144542932Y-96699178D01*
X144607512Y-96728672D01*
X144620811Y-96742066D01*
X144655889Y-96783137D01*
X144655894Y-96783142D01*
X144659102Y-96786898D01*
X144851624Y-96951328D01*
X145067498Y-97083616D01*
X145072068Y-97085509D01*
X145072072Y-97085511D01*
X145296836Y-97178611D01*
X145301409Y-97180505D01*
X145386032Y-97200821D01*
X145542784Y-97238454D01*
X145542790Y-97238455D01*
X145547597Y-97239609D01*
X145800000Y-97259474D01*
X146052403Y-97239609D01*
X146057210Y-97238455D01*
X146057216Y-97238454D01*
X146213968Y-97200821D01*
X146298591Y-97180505D01*
X146303164Y-97178611D01*
X146527928Y-97085511D01*
X146527932Y-97085509D01*
X146532502Y-97083616D01*
X146748376Y-96951328D01*
X146940898Y-96786898D01*
X147105328Y-96594376D01*
X147237616Y-96378502D01*
X147248454Y-96352338D01*
X147332611Y-96149164D01*
X147332612Y-96149162D01*
X147334505Y-96144591D01*
X147385546Y-95931990D01*
X147392454Y-95903216D01*
X147392455Y-95903210D01*
X147393609Y-95898403D01*
X147405917Y-95742020D01*
X147408307Y-95711655D01*
X147408307Y-95711648D01*
X147408500Y-95709199D01*
X147408500Y-94282801D01*
X147393609Y-94093597D01*
X147385364Y-94059251D01*
X147338463Y-93863897D01*
X147334505Y-93847409D01*
X147319978Y-93812338D01*
X147239511Y-93618072D01*
X147239509Y-93618068D01*
X147237616Y-93613498D01*
X147105328Y-93397624D01*
X146940898Y-93205102D01*
X146934775Y-93199872D01*
X146917315Y-93184960D01*
X146748376Y-93040672D01*
X146532502Y-92908384D01*
X146527932Y-92906491D01*
X146527928Y-92906489D01*
X146303164Y-92813389D01*
X146303162Y-92813388D01*
X146298591Y-92811495D01*
X146158103Y-92777767D01*
X146057216Y-92753546D01*
X146057210Y-92753545D01*
X146052403Y-92752391D01*
X145800000Y-92732526D01*
X145547597Y-92752391D01*
X145542790Y-92753545D01*
X145542784Y-92753546D01*
X145441897Y-92777767D01*
X145301409Y-92811495D01*
X145296838Y-92813388D01*
X145296836Y-92813389D01*
X145072072Y-92906489D01*
X145072068Y-92906491D01*
X145067498Y-92908384D01*
X144851624Y-93040672D01*
X144682685Y-93184960D01*
X144665226Y-93199872D01*
X144659102Y-93205102D01*
X144655894Y-93208858D01*
X144504617Y-93385980D01*
X144445166Y-93424789D01*
X144374172Y-93425295D01*
X144338534Y-93408733D01*
X144308738Y-93388710D01*
X144103033Y-93298412D01*
X144097582Y-93297103D01*
X144097578Y-93297102D01*
X143890046Y-93247278D01*
X143890045Y-93247278D01*
X143884589Y-93245968D01*
X143796532Y-93240891D01*
X143665917Y-93233360D01*
X143665914Y-93233360D01*
X143660310Y-93233037D01*
X143437285Y-93260025D01*
X143222565Y-93326082D01*
X143217585Y-93328652D01*
X143217581Y-93328654D01*
X143031323Y-93424789D01*
X143022936Y-93429118D01*
X142844708Y-93565877D01*
X142840937Y-93570022D01*
X142840933Y-93570025D01*
X142793520Y-93622131D01*
X142732879Y-93659054D01*
X142661904Y-93657331D01*
X142612642Y-93627817D01*
X142535470Y-93553031D01*
X142499229Y-93517911D01*
X142499226Y-93517909D01*
X142495201Y-93514008D01*
X142308738Y-93388710D01*
X142103033Y-93298412D01*
X142097582Y-93297103D01*
X142097578Y-93297102D01*
X141890046Y-93247278D01*
X141890045Y-93247278D01*
X141884589Y-93245968D01*
X141796532Y-93240891D01*
X141665917Y-93233360D01*
X141665914Y-93233360D01*
X141660310Y-93233037D01*
X141437285Y-93260025D01*
X141222565Y-93326082D01*
X141217585Y-93328652D01*
X141217581Y-93328654D01*
X141031323Y-93424789D01*
X141022936Y-93429118D01*
X141018488Y-93432531D01*
X141018482Y-93432535D01*
X141012986Y-93436752D01*
X140946766Y-93462352D01*
X140877217Y-93448087D01*
X140835458Y-93412356D01*
X140818641Y-93389918D01*
X140813261Y-93382739D01*
X140696705Y-93295385D01*
X140560316Y-93244255D01*
X140498134Y-93237500D01*
X138901866Y-93237500D01*
X138898471Y-93237869D01*
X138898467Y-93237869D01*
X138845414Y-93243632D01*
X138775531Y-93231103D01*
X138743240Y-93207845D01*
X138740898Y-93205102D01*
X138734775Y-93199872D01*
X138717315Y-93184960D01*
X138548376Y-93040672D01*
X138332502Y-92908384D01*
X138327932Y-92906491D01*
X138327928Y-92906489D01*
X138103164Y-92813389D01*
X138103162Y-92813388D01*
X138098591Y-92811495D01*
X137958103Y-92777767D01*
X137857216Y-92753546D01*
X137857210Y-92753545D01*
X137852403Y-92752391D01*
X137600000Y-92732526D01*
X137347597Y-92752391D01*
X137342790Y-92753545D01*
X137342784Y-92753546D01*
X137241897Y-92777767D01*
X137101409Y-92811495D01*
X137096838Y-92813388D01*
X137096836Y-92813389D01*
X136872072Y-92906489D01*
X136872068Y-92906491D01*
X136867498Y-92908384D01*
X136651624Y-93040672D01*
X136482685Y-93184960D01*
X136465226Y-93199872D01*
X136459102Y-93205102D01*
X136294672Y-93397624D01*
X136162384Y-93613498D01*
X136160491Y-93618068D01*
X136160489Y-93618072D01*
X136080022Y-93812338D01*
X136065495Y-93847409D01*
X136061537Y-93863897D01*
X136014637Y-94059251D01*
X136006391Y-94093597D01*
X135991500Y-94282801D01*
X135991500Y-95709199D01*
X118158500Y-95709199D01*
X118158500Y-86360000D01*
X125665835Y-86360000D01*
X125684465Y-86596711D01*
X125685619Y-86601518D01*
X125685620Y-86601524D01*
X125720640Y-86747391D01*
X125739895Y-86827594D01*
X125741788Y-86832165D01*
X125741789Y-86832167D01*
X125822744Y-87027610D01*
X125830760Y-87046963D01*
X125833346Y-87051183D01*
X125952241Y-87245202D01*
X125952245Y-87245208D01*
X125954824Y-87249416D01*
X126109031Y-87429969D01*
X126289584Y-87584176D01*
X126293792Y-87586755D01*
X126293798Y-87586759D01*
X126474947Y-87697767D01*
X126492037Y-87708240D01*
X126496607Y-87710133D01*
X126496611Y-87710135D01*
X126679620Y-87785939D01*
X126711406Y-87799105D01*
X126791609Y-87818360D01*
X126937476Y-87853380D01*
X126937482Y-87853381D01*
X126942289Y-87854535D01*
X127179000Y-87873165D01*
X127415711Y-87854535D01*
X127420518Y-87853381D01*
X127420524Y-87853380D01*
X127566391Y-87818360D01*
X127646594Y-87799105D01*
X127678380Y-87785939D01*
X127861389Y-87710135D01*
X127861393Y-87710133D01*
X127865963Y-87708240D01*
X127883053Y-87697767D01*
X128064202Y-87586759D01*
X128064208Y-87586755D01*
X128068416Y-87584176D01*
X128248969Y-87429969D01*
X128403176Y-87249416D01*
X128405755Y-87245208D01*
X128405759Y-87245202D01*
X128524654Y-87051183D01*
X128527240Y-87046963D01*
X128535257Y-87027610D01*
X128616211Y-86832167D01*
X128616212Y-86832165D01*
X128618105Y-86827594D01*
X128637360Y-86747391D01*
X128672380Y-86601524D01*
X128672381Y-86601518D01*
X128673535Y-86596711D01*
X128692165Y-86360000D01*
X132165835Y-86360000D01*
X132184465Y-86596711D01*
X132185619Y-86601518D01*
X132185620Y-86601524D01*
X132220640Y-86747391D01*
X132239895Y-86827594D01*
X132241788Y-86832165D01*
X132241789Y-86832167D01*
X132322744Y-87027610D01*
X132330760Y-87046963D01*
X132333346Y-87051183D01*
X132452241Y-87245202D01*
X132452245Y-87245208D01*
X132454824Y-87249416D01*
X132609031Y-87429969D01*
X132789584Y-87584176D01*
X132793792Y-87586755D01*
X132793798Y-87586759D01*
X132974947Y-87697767D01*
X132992037Y-87708240D01*
X132996607Y-87710133D01*
X132996611Y-87710135D01*
X133179620Y-87785939D01*
X133211406Y-87799105D01*
X133291609Y-87818360D01*
X133437476Y-87853380D01*
X133437482Y-87853381D01*
X133442289Y-87854535D01*
X133679000Y-87873165D01*
X133915711Y-87854535D01*
X133920518Y-87853381D01*
X133920524Y-87853380D01*
X134066391Y-87818360D01*
X134146594Y-87799105D01*
X134178380Y-87785939D01*
X134361389Y-87710135D01*
X134361393Y-87710133D01*
X134365963Y-87708240D01*
X134383053Y-87697767D01*
X134564202Y-87586759D01*
X134564208Y-87586755D01*
X134568416Y-87584176D01*
X134748969Y-87429969D01*
X134903176Y-87249416D01*
X134905755Y-87245208D01*
X134905759Y-87245202D01*
X135024654Y-87051183D01*
X135027240Y-87046963D01*
X135035257Y-87027610D01*
X135116211Y-86832167D01*
X135116212Y-86832165D01*
X135118105Y-86827594D01*
X135137360Y-86747391D01*
X135172380Y-86601524D01*
X135172381Y-86601518D01*
X135173535Y-86596711D01*
X135192165Y-86360000D01*
X140143835Y-86360000D01*
X140162465Y-86596711D01*
X140163619Y-86601518D01*
X140163620Y-86601524D01*
X140198640Y-86747391D01*
X140217895Y-86827594D01*
X140219788Y-86832165D01*
X140219789Y-86832167D01*
X140300744Y-87027610D01*
X140308760Y-87046963D01*
X140311346Y-87051183D01*
X140430241Y-87245202D01*
X140430245Y-87245208D01*
X140432824Y-87249416D01*
X140587031Y-87429969D01*
X140767584Y-87584176D01*
X140771792Y-87586755D01*
X140771798Y-87586759D01*
X140952947Y-87697767D01*
X140970037Y-87708240D01*
X140974607Y-87710133D01*
X140974611Y-87710135D01*
X141157620Y-87785939D01*
X141189406Y-87799105D01*
X141269609Y-87818360D01*
X141415476Y-87853380D01*
X141415482Y-87853381D01*
X141420289Y-87854535D01*
X141657000Y-87873165D01*
X141893711Y-87854535D01*
X141898518Y-87853381D01*
X141898524Y-87853380D01*
X142044391Y-87818360D01*
X142124594Y-87799105D01*
X142156380Y-87785939D01*
X142339389Y-87710135D01*
X142339393Y-87710133D01*
X142343963Y-87708240D01*
X142361053Y-87697767D01*
X142542202Y-87586759D01*
X142542208Y-87586755D01*
X142546416Y-87584176D01*
X142726969Y-87429969D01*
X142881176Y-87249416D01*
X142883755Y-87245208D01*
X142883759Y-87245202D01*
X143002654Y-87051183D01*
X143005240Y-87046963D01*
X143013257Y-87027610D01*
X143094211Y-86832167D01*
X143094212Y-86832165D01*
X143096105Y-86827594D01*
X143115360Y-86747391D01*
X143150380Y-86601524D01*
X143150381Y-86601518D01*
X143151535Y-86596711D01*
X143170165Y-86360000D01*
X146643835Y-86360000D01*
X146662465Y-86596711D01*
X146663619Y-86601518D01*
X146663620Y-86601524D01*
X146698640Y-86747391D01*
X146717895Y-86827594D01*
X146719788Y-86832165D01*
X146719789Y-86832167D01*
X146800744Y-87027610D01*
X146808760Y-87046963D01*
X146811346Y-87051183D01*
X146930241Y-87245202D01*
X146930245Y-87245208D01*
X146932824Y-87249416D01*
X147087031Y-87429969D01*
X147267584Y-87584176D01*
X147271792Y-87586755D01*
X147271798Y-87586759D01*
X147452947Y-87697767D01*
X147470037Y-87708240D01*
X147474607Y-87710133D01*
X147474611Y-87710135D01*
X147657620Y-87785939D01*
X147689406Y-87799105D01*
X147769609Y-87818360D01*
X147915476Y-87853380D01*
X147915482Y-87853381D01*
X147920289Y-87854535D01*
X148157000Y-87873165D01*
X148393711Y-87854535D01*
X148398518Y-87853381D01*
X148398524Y-87853380D01*
X148544391Y-87818360D01*
X148624594Y-87799105D01*
X148656380Y-87785939D01*
X148839389Y-87710135D01*
X148839393Y-87710133D01*
X148843963Y-87708240D01*
X148861053Y-87697767D01*
X149042202Y-87586759D01*
X149042208Y-87586755D01*
X149046416Y-87584176D01*
X149180456Y-87469695D01*
X152942251Y-87469695D01*
X152942548Y-87474848D01*
X152942548Y-87474851D01*
X152948011Y-87569590D01*
X152955110Y-87692715D01*
X152956247Y-87697761D01*
X152956248Y-87697767D01*
X152979086Y-87799105D01*
X153004222Y-87910639D01*
X153088266Y-88117616D01*
X153204987Y-88308088D01*
X153351250Y-88476938D01*
X153523126Y-88619632D01*
X153716000Y-88732338D01*
X153717133Y-88732770D01*
X153769068Y-88779476D01*
X153787811Y-88847953D01*
X153766556Y-88915694D01*
X153715081Y-88959826D01*
X153692134Y-88970526D01*
X153682644Y-88976006D01*
X153515218Y-89093238D01*
X153506811Y-89100292D01*
X153362292Y-89244811D01*
X153355238Y-89253218D01*
X153238006Y-89420644D01*
X153232528Y-89430130D01*
X153146143Y-89615383D01*
X153142397Y-89625675D01*
X153103322Y-89771503D01*
X153103658Y-89785599D01*
X153111600Y-89789000D01*
X155493251Y-89789000D01*
X155506782Y-89785027D01*
X155508011Y-89776478D01*
X155467603Y-89625675D01*
X155463857Y-89615383D01*
X155377472Y-89430130D01*
X155371994Y-89420644D01*
X155254762Y-89253218D01*
X155247708Y-89244811D01*
X155103189Y-89100292D01*
X155094782Y-89093238D01*
X154927356Y-88976006D01*
X154917866Y-88970526D01*
X154890141Y-88957598D01*
X154836856Y-88910682D01*
X154817394Y-88842405D01*
X154837935Y-88774445D01*
X154887957Y-88730252D01*
X154889019Y-88729732D01*
X155002994Y-88673896D01*
X155184860Y-88544173D01*
X155343096Y-88386489D01*
X155402594Y-88303689D01*
X155470435Y-88209277D01*
X155473453Y-88205077D01*
X155572430Y-88004811D01*
X155617970Y-87854923D01*
X155635865Y-87796023D01*
X155635865Y-87796021D01*
X155637370Y-87791069D01*
X155666529Y-87569590D01*
X155668156Y-87503000D01*
X155649852Y-87280361D01*
X155595431Y-87063702D01*
X155506354Y-86858840D01*
X155385014Y-86671277D01*
X155381532Y-86667450D01*
X155237798Y-86509488D01*
X155206746Y-86445642D01*
X155215141Y-86375143D01*
X155260317Y-86320375D01*
X155286761Y-86306706D01*
X155393297Y-86266767D01*
X155401705Y-86263615D01*
X155518261Y-86176261D01*
X155605615Y-86059705D01*
X155656745Y-85923316D01*
X155663500Y-85861134D01*
X155663500Y-84064866D01*
X155656745Y-84002684D01*
X155605615Y-83866295D01*
X155518261Y-83749739D01*
X155401705Y-83662385D01*
X155265316Y-83611255D01*
X155203134Y-83604500D01*
X153406866Y-83604500D01*
X153344684Y-83611255D01*
X153208295Y-83662385D01*
X153091739Y-83749739D01*
X153004385Y-83866295D01*
X152953255Y-84002684D01*
X152946500Y-84064866D01*
X152946500Y-85861134D01*
X152953255Y-85923316D01*
X153004385Y-86059705D01*
X153091739Y-86176261D01*
X153208295Y-86263615D01*
X153216704Y-86266767D01*
X153216705Y-86266768D01*
X153325451Y-86307535D01*
X153382216Y-86350176D01*
X153406916Y-86416738D01*
X153391709Y-86486087D01*
X153372316Y-86512568D01*
X153287308Y-86601524D01*
X153245629Y-86645138D01*
X153119743Y-86829680D01*
X153025688Y-87032305D01*
X152965989Y-87247570D01*
X152942251Y-87469695D01*
X149180456Y-87469695D01*
X149226969Y-87429969D01*
X149381176Y-87249416D01*
X149383755Y-87245208D01*
X149383759Y-87245202D01*
X149502654Y-87051183D01*
X149505240Y-87046963D01*
X149513257Y-87027610D01*
X149594211Y-86832167D01*
X149594212Y-86832165D01*
X149596105Y-86827594D01*
X149615360Y-86747391D01*
X149650380Y-86601524D01*
X149650381Y-86601518D01*
X149651535Y-86596711D01*
X149670165Y-86360000D01*
X149651535Y-86123289D01*
X149634252Y-86051297D01*
X149597260Y-85897218D01*
X149596105Y-85892406D01*
X149583152Y-85861134D01*
X149507135Y-85677611D01*
X149507133Y-85677607D01*
X149505240Y-85673037D01*
X149502654Y-85668817D01*
X149383759Y-85474798D01*
X149383755Y-85474792D01*
X149381176Y-85470584D01*
X149226969Y-85290031D01*
X149046416Y-85135824D01*
X149042208Y-85133245D01*
X149042202Y-85133241D01*
X148848183Y-85014346D01*
X148843963Y-85011760D01*
X148839393Y-85009867D01*
X148839389Y-85009865D01*
X148629167Y-84922789D01*
X148629165Y-84922788D01*
X148624594Y-84920895D01*
X148544391Y-84901640D01*
X148398524Y-84866620D01*
X148398518Y-84866619D01*
X148393711Y-84865465D01*
X148157000Y-84846835D01*
X147920289Y-84865465D01*
X147915482Y-84866619D01*
X147915476Y-84866620D01*
X147769609Y-84901640D01*
X147689406Y-84920895D01*
X147684835Y-84922788D01*
X147684833Y-84922789D01*
X147474611Y-85009865D01*
X147474607Y-85009867D01*
X147470037Y-85011760D01*
X147465817Y-85014346D01*
X147271798Y-85133241D01*
X147271792Y-85133245D01*
X147267584Y-85135824D01*
X147087031Y-85290031D01*
X146932824Y-85470584D01*
X146930245Y-85474792D01*
X146930241Y-85474798D01*
X146811346Y-85668817D01*
X146808760Y-85673037D01*
X146806867Y-85677607D01*
X146806865Y-85677611D01*
X146730848Y-85861134D01*
X146717895Y-85892406D01*
X146716740Y-85897218D01*
X146679749Y-86051297D01*
X146662465Y-86123289D01*
X146643835Y-86360000D01*
X143170165Y-86360000D01*
X143151535Y-86123289D01*
X143134252Y-86051297D01*
X143097260Y-85897218D01*
X143096105Y-85892406D01*
X143083152Y-85861134D01*
X143007135Y-85677611D01*
X143007133Y-85677607D01*
X143005240Y-85673037D01*
X143002654Y-85668817D01*
X142883759Y-85474798D01*
X142883755Y-85474792D01*
X142881176Y-85470584D01*
X142726969Y-85290031D01*
X142546416Y-85135824D01*
X142542208Y-85133245D01*
X142542202Y-85133241D01*
X142348183Y-85014346D01*
X142343963Y-85011760D01*
X142339393Y-85009867D01*
X142339389Y-85009865D01*
X142129167Y-84922789D01*
X142129165Y-84922788D01*
X142124594Y-84920895D01*
X142044391Y-84901640D01*
X141898524Y-84866620D01*
X141898518Y-84866619D01*
X141893711Y-84865465D01*
X141657000Y-84846835D01*
X141420289Y-84865465D01*
X141415482Y-84866619D01*
X141415476Y-84866620D01*
X141269609Y-84901640D01*
X141189406Y-84920895D01*
X141184835Y-84922788D01*
X141184833Y-84922789D01*
X140974611Y-85009865D01*
X140974607Y-85009867D01*
X140970037Y-85011760D01*
X140965817Y-85014346D01*
X140771798Y-85133241D01*
X140771792Y-85133245D01*
X140767584Y-85135824D01*
X140587031Y-85290031D01*
X140432824Y-85470584D01*
X140430245Y-85474792D01*
X140430241Y-85474798D01*
X140311346Y-85668817D01*
X140308760Y-85673037D01*
X140306867Y-85677607D01*
X140306865Y-85677611D01*
X140230848Y-85861134D01*
X140217895Y-85892406D01*
X140216740Y-85897218D01*
X140179749Y-86051297D01*
X140162465Y-86123289D01*
X140143835Y-86360000D01*
X135192165Y-86360000D01*
X135173535Y-86123289D01*
X135156252Y-86051297D01*
X135119260Y-85897218D01*
X135118105Y-85892406D01*
X135105152Y-85861134D01*
X135029135Y-85677611D01*
X135029133Y-85677607D01*
X135027240Y-85673037D01*
X135024654Y-85668817D01*
X134905759Y-85474798D01*
X134905755Y-85474792D01*
X134903176Y-85470584D01*
X134748969Y-85290031D01*
X134568416Y-85135824D01*
X134564208Y-85133245D01*
X134564202Y-85133241D01*
X134370183Y-85014346D01*
X134365963Y-85011760D01*
X134361393Y-85009867D01*
X134361389Y-85009865D01*
X134151167Y-84922789D01*
X134151165Y-84922788D01*
X134146594Y-84920895D01*
X134066391Y-84901640D01*
X133920524Y-84866620D01*
X133920518Y-84866619D01*
X133915711Y-84865465D01*
X133679000Y-84846835D01*
X133442289Y-84865465D01*
X133437482Y-84866619D01*
X133437476Y-84866620D01*
X133291609Y-84901640D01*
X133211406Y-84920895D01*
X133206835Y-84922788D01*
X133206833Y-84922789D01*
X132996611Y-85009865D01*
X132996607Y-85009867D01*
X132992037Y-85011760D01*
X132987817Y-85014346D01*
X132793798Y-85133241D01*
X132793792Y-85133245D01*
X132789584Y-85135824D01*
X132609031Y-85290031D01*
X132454824Y-85470584D01*
X132452245Y-85474792D01*
X132452241Y-85474798D01*
X132333346Y-85668817D01*
X132330760Y-85673037D01*
X132328867Y-85677607D01*
X132328865Y-85677611D01*
X132252848Y-85861134D01*
X132239895Y-85892406D01*
X132238740Y-85897218D01*
X132201749Y-86051297D01*
X132184465Y-86123289D01*
X132165835Y-86360000D01*
X128692165Y-86360000D01*
X128673535Y-86123289D01*
X128656252Y-86051297D01*
X128619260Y-85897218D01*
X128618105Y-85892406D01*
X128605152Y-85861134D01*
X128529135Y-85677611D01*
X128529133Y-85677607D01*
X128527240Y-85673037D01*
X128524654Y-85668817D01*
X128405759Y-85474798D01*
X128405755Y-85474792D01*
X128403176Y-85470584D01*
X128248969Y-85290031D01*
X128068416Y-85135824D01*
X128064208Y-85133245D01*
X128064202Y-85133241D01*
X127870183Y-85014346D01*
X127865963Y-85011760D01*
X127861393Y-85009867D01*
X127861389Y-85009865D01*
X127651167Y-84922789D01*
X127651165Y-84922788D01*
X127646594Y-84920895D01*
X127566391Y-84901640D01*
X127420524Y-84866620D01*
X127420518Y-84866619D01*
X127415711Y-84865465D01*
X127179000Y-84846835D01*
X126942289Y-84865465D01*
X126937482Y-84866619D01*
X126937476Y-84866620D01*
X126791609Y-84901640D01*
X126711406Y-84920895D01*
X126706835Y-84922788D01*
X126706833Y-84922789D01*
X126496611Y-85009865D01*
X126496607Y-85009867D01*
X126492037Y-85011760D01*
X126487817Y-85014346D01*
X126293798Y-85133241D01*
X126293792Y-85133245D01*
X126289584Y-85135824D01*
X126109031Y-85290031D01*
X125954824Y-85470584D01*
X125952245Y-85474792D01*
X125952241Y-85474798D01*
X125833346Y-85668817D01*
X125830760Y-85673037D01*
X125828867Y-85677607D01*
X125828865Y-85677611D01*
X125752848Y-85861134D01*
X125739895Y-85892406D01*
X125738740Y-85897218D01*
X125701749Y-86051297D01*
X125684465Y-86123289D01*
X125665835Y-86360000D01*
X118158500Y-86360000D01*
X118158500Y-83001668D01*
X126402162Y-83001668D01*
X126407443Y-83008722D01*
X126575784Y-83107092D01*
X126585071Y-83111542D01*
X126787562Y-83188866D01*
X126797460Y-83191742D01*
X127009862Y-83234955D01*
X127020091Y-83236174D01*
X127236697Y-83244117D01*
X127246983Y-83243650D01*
X127461979Y-83216108D01*
X127472065Y-83213965D01*
X127679672Y-83151680D01*
X127689267Y-83147919D01*
X127883904Y-83052568D01*
X127892770Y-83047283D01*
X127944737Y-83010215D01*
X127951447Y-83001668D01*
X132902162Y-83001668D01*
X132907443Y-83008722D01*
X133075784Y-83107092D01*
X133085071Y-83111542D01*
X133287562Y-83188866D01*
X133297460Y-83191742D01*
X133509862Y-83234955D01*
X133520091Y-83236174D01*
X133736697Y-83244117D01*
X133746983Y-83243650D01*
X133961979Y-83216108D01*
X133972065Y-83213965D01*
X134179672Y-83151680D01*
X134189267Y-83147919D01*
X134383904Y-83052568D01*
X134392770Y-83047283D01*
X134444737Y-83010215D01*
X134451447Y-83001668D01*
X140880162Y-83001668D01*
X140885443Y-83008722D01*
X141053784Y-83107092D01*
X141063071Y-83111542D01*
X141265562Y-83188866D01*
X141275460Y-83191742D01*
X141487862Y-83234955D01*
X141498091Y-83236174D01*
X141714697Y-83244117D01*
X141724983Y-83243650D01*
X141939979Y-83216108D01*
X141950065Y-83213965D01*
X142157672Y-83151680D01*
X142167267Y-83147919D01*
X142361904Y-83052568D01*
X142370770Y-83047283D01*
X142422737Y-83010215D01*
X142429447Y-83001668D01*
X147380162Y-83001668D01*
X147385443Y-83008722D01*
X147553784Y-83107092D01*
X147563071Y-83111542D01*
X147765562Y-83188866D01*
X147775460Y-83191742D01*
X147987862Y-83234955D01*
X147998091Y-83236174D01*
X148214697Y-83244117D01*
X148224983Y-83243650D01*
X148439979Y-83216108D01*
X148450065Y-83213965D01*
X148657672Y-83151680D01*
X148667267Y-83147919D01*
X148861904Y-83052568D01*
X148870770Y-83047283D01*
X148922737Y-83010215D01*
X148931138Y-82999514D01*
X148924151Y-82986361D01*
X148169812Y-82232022D01*
X148155868Y-82224408D01*
X148154035Y-82224539D01*
X148147420Y-82228790D01*
X147386922Y-82989288D01*
X147380162Y-83001668D01*
X142429447Y-83001668D01*
X142431138Y-82999514D01*
X142424151Y-82986361D01*
X141669812Y-82232022D01*
X141655868Y-82224408D01*
X141654035Y-82224539D01*
X141647420Y-82228790D01*
X140886922Y-82989288D01*
X140880162Y-83001668D01*
X134451447Y-83001668D01*
X134453138Y-82999514D01*
X134446151Y-82986361D01*
X133691812Y-82232022D01*
X133677868Y-82224408D01*
X133676035Y-82224539D01*
X133669420Y-82228790D01*
X132908922Y-82989288D01*
X132902162Y-83001668D01*
X127951447Y-83001668D01*
X127953138Y-82999514D01*
X127946151Y-82986361D01*
X127191812Y-82232022D01*
X127177868Y-82224408D01*
X127176035Y-82224539D01*
X127169420Y-82228790D01*
X126408922Y-82989288D01*
X126402162Y-83001668D01*
X118158500Y-83001668D01*
X118158500Y-81831300D01*
X125793978Y-81831300D01*
X125806455Y-82047688D01*
X125807891Y-82057909D01*
X125855542Y-82269349D01*
X125858622Y-82279177D01*
X125940170Y-82480008D01*
X125944815Y-82489204D01*
X126028732Y-82626145D01*
X126039190Y-82635606D01*
X126047967Y-82631823D01*
X126806978Y-81872812D01*
X126813356Y-81861132D01*
X127543408Y-81861132D01*
X127543539Y-81862965D01*
X127547790Y-81869580D01*
X128305955Y-82627745D01*
X128317965Y-82634304D01*
X128329705Y-82625336D01*
X128363787Y-82577904D01*
X128369098Y-82569066D01*
X128465128Y-82374764D01*
X128468926Y-82365171D01*
X128531934Y-82157786D01*
X128534112Y-82147713D01*
X128562642Y-81931011D01*
X128563161Y-81924343D01*
X128564651Y-81863365D01*
X128564457Y-81856646D01*
X128562373Y-81831300D01*
X132293978Y-81831300D01*
X132306455Y-82047688D01*
X132307891Y-82057909D01*
X132355542Y-82269349D01*
X132358622Y-82279177D01*
X132440170Y-82480008D01*
X132444815Y-82489204D01*
X132528732Y-82626145D01*
X132539190Y-82635606D01*
X132547967Y-82631823D01*
X133306978Y-81872812D01*
X133313356Y-81861132D01*
X134043408Y-81861132D01*
X134043539Y-81862965D01*
X134047790Y-81869580D01*
X134805955Y-82627745D01*
X134817965Y-82634304D01*
X134829705Y-82625336D01*
X134863787Y-82577904D01*
X134869098Y-82569066D01*
X134965128Y-82374764D01*
X134968926Y-82365171D01*
X135031934Y-82157786D01*
X135034112Y-82147713D01*
X135062642Y-81931011D01*
X135063161Y-81924343D01*
X135064651Y-81863365D01*
X135064457Y-81856646D01*
X135062373Y-81831300D01*
X140271978Y-81831300D01*
X140284455Y-82047688D01*
X140285891Y-82057909D01*
X140333542Y-82269349D01*
X140336622Y-82279177D01*
X140418170Y-82480008D01*
X140422815Y-82489204D01*
X140506732Y-82626145D01*
X140517190Y-82635606D01*
X140525967Y-82631823D01*
X141284978Y-81872812D01*
X141291356Y-81861132D01*
X142021408Y-81861132D01*
X142021539Y-81862965D01*
X142025790Y-81869580D01*
X142783955Y-82627745D01*
X142795965Y-82634304D01*
X142807705Y-82625336D01*
X142841787Y-82577904D01*
X142847098Y-82569066D01*
X142943128Y-82374764D01*
X142946926Y-82365171D01*
X143009934Y-82157786D01*
X143012112Y-82147713D01*
X143040642Y-81931011D01*
X143041161Y-81924343D01*
X143042651Y-81863365D01*
X143042457Y-81856646D01*
X143040373Y-81831300D01*
X146771978Y-81831300D01*
X146784455Y-82047688D01*
X146785891Y-82057909D01*
X146833542Y-82269349D01*
X146836622Y-82279177D01*
X146918170Y-82480008D01*
X146922815Y-82489204D01*
X147006732Y-82626145D01*
X147017190Y-82635606D01*
X147025967Y-82631823D01*
X147784978Y-81872812D01*
X147791356Y-81861132D01*
X148521408Y-81861132D01*
X148521539Y-81862965D01*
X148525790Y-81869580D01*
X149283955Y-82627745D01*
X149295965Y-82634304D01*
X149307705Y-82625336D01*
X149341787Y-82577904D01*
X149347098Y-82569066D01*
X149443128Y-82374764D01*
X149446926Y-82365171D01*
X149509934Y-82157786D01*
X149512112Y-82147713D01*
X149540642Y-81931011D01*
X149541161Y-81924343D01*
X149542651Y-81863365D01*
X149542457Y-81856646D01*
X149524550Y-81638835D01*
X149522865Y-81628655D01*
X149470062Y-81418438D01*
X149466742Y-81408687D01*
X149380311Y-81209908D01*
X149375445Y-81200833D01*
X149306697Y-81094566D01*
X149296011Y-81085362D01*
X149286444Y-81089766D01*
X148529022Y-81847188D01*
X148521408Y-81861132D01*
X147791356Y-81861132D01*
X147792592Y-81858868D01*
X147792461Y-81857035D01*
X147788210Y-81850420D01*
X147030297Y-81092507D01*
X147018761Y-81086207D01*
X147006478Y-81095831D01*
X146955031Y-81171249D01*
X146949933Y-81180223D01*
X146858678Y-81376814D01*
X146855115Y-81386501D01*
X146797194Y-81595357D01*
X146795263Y-81605476D01*
X146772230Y-81821011D01*
X146771978Y-81831300D01*
X143040373Y-81831300D01*
X143024550Y-81638835D01*
X143022865Y-81628655D01*
X142970062Y-81418438D01*
X142966742Y-81408687D01*
X142880311Y-81209908D01*
X142875445Y-81200833D01*
X142806697Y-81094566D01*
X142796011Y-81085362D01*
X142786444Y-81089766D01*
X142029022Y-81847188D01*
X142021408Y-81861132D01*
X141291356Y-81861132D01*
X141292592Y-81858868D01*
X141292461Y-81857035D01*
X141288210Y-81850420D01*
X140530297Y-81092507D01*
X140518761Y-81086207D01*
X140506478Y-81095831D01*
X140455031Y-81171249D01*
X140449933Y-81180223D01*
X140358678Y-81376814D01*
X140355115Y-81386501D01*
X140297194Y-81595357D01*
X140295263Y-81605476D01*
X140272230Y-81821011D01*
X140271978Y-81831300D01*
X135062373Y-81831300D01*
X135046550Y-81638835D01*
X135044865Y-81628655D01*
X134992062Y-81418438D01*
X134988742Y-81408687D01*
X134902311Y-81209908D01*
X134897445Y-81200833D01*
X134828697Y-81094566D01*
X134818011Y-81085362D01*
X134808444Y-81089766D01*
X134051022Y-81847188D01*
X134043408Y-81861132D01*
X133313356Y-81861132D01*
X133314592Y-81858868D01*
X133314461Y-81857035D01*
X133310210Y-81850420D01*
X132552297Y-81092507D01*
X132540761Y-81086207D01*
X132528478Y-81095831D01*
X132477031Y-81171249D01*
X132471933Y-81180223D01*
X132380678Y-81376814D01*
X132377115Y-81386501D01*
X132319194Y-81595357D01*
X132317263Y-81605476D01*
X132294230Y-81821011D01*
X132293978Y-81831300D01*
X128562373Y-81831300D01*
X128546550Y-81638835D01*
X128544865Y-81628655D01*
X128492062Y-81418438D01*
X128488742Y-81408687D01*
X128402311Y-81209908D01*
X128397445Y-81200833D01*
X128328697Y-81094566D01*
X128318011Y-81085362D01*
X128308444Y-81089766D01*
X127551022Y-81847188D01*
X127543408Y-81861132D01*
X126813356Y-81861132D01*
X126814592Y-81858868D01*
X126814461Y-81857035D01*
X126810210Y-81850420D01*
X126052297Y-81092507D01*
X126040761Y-81086207D01*
X126028478Y-81095831D01*
X125977031Y-81171249D01*
X125971933Y-81180223D01*
X125880678Y-81376814D01*
X125877115Y-81386501D01*
X125819194Y-81595357D01*
X125817263Y-81605476D01*
X125794230Y-81821011D01*
X125793978Y-81831300D01*
X118158500Y-81831300D01*
X118158500Y-80719999D01*
X126403794Y-80719999D01*
X126410538Y-80732328D01*
X127166188Y-81487978D01*
X127180132Y-81495592D01*
X127181965Y-81495461D01*
X127188580Y-81491210D01*
X127948766Y-80731024D01*
X127954787Y-80719999D01*
X132903794Y-80719999D01*
X132910538Y-80732328D01*
X133666188Y-81487978D01*
X133680132Y-81495592D01*
X133681965Y-81495461D01*
X133688580Y-81491210D01*
X134448766Y-80731024D01*
X134454787Y-80719999D01*
X140881794Y-80719999D01*
X140888538Y-80732328D01*
X141644188Y-81487978D01*
X141658132Y-81495592D01*
X141659965Y-81495461D01*
X141666580Y-81491210D01*
X142426766Y-80731024D01*
X142432787Y-80719999D01*
X147381794Y-80719999D01*
X147388538Y-80732328D01*
X148144188Y-81487978D01*
X148158132Y-81495592D01*
X148159965Y-81495461D01*
X148166580Y-81491210D01*
X148926766Y-80731024D01*
X148933786Y-80718169D01*
X148926348Y-80707960D01*
X148919324Y-80703294D01*
X148729578Y-80598548D01*
X148720166Y-80594318D01*
X148515855Y-80521967D01*
X148505884Y-80519333D01*
X148292498Y-80481323D01*
X148282246Y-80480354D01*
X148065507Y-80477706D01*
X148055220Y-80478426D01*
X147840979Y-80511209D01*
X147830939Y-80513600D01*
X147624920Y-80580938D01*
X147615418Y-80584933D01*
X147423168Y-80685012D01*
X147414436Y-80690510D01*
X147390249Y-80708671D01*
X147381794Y-80719999D01*
X142432787Y-80719999D01*
X142433786Y-80718169D01*
X142426348Y-80707960D01*
X142419324Y-80703294D01*
X142229578Y-80598548D01*
X142220166Y-80594318D01*
X142015855Y-80521967D01*
X142005884Y-80519333D01*
X141792498Y-80481323D01*
X141782246Y-80480354D01*
X141565507Y-80477706D01*
X141555220Y-80478426D01*
X141340979Y-80511209D01*
X141330939Y-80513600D01*
X141124920Y-80580938D01*
X141115418Y-80584933D01*
X140923168Y-80685012D01*
X140914436Y-80690510D01*
X140890249Y-80708671D01*
X140881794Y-80719999D01*
X134454787Y-80719999D01*
X134455786Y-80718169D01*
X134448348Y-80707960D01*
X134441324Y-80703294D01*
X134251578Y-80598548D01*
X134242166Y-80594318D01*
X134037855Y-80521967D01*
X134027884Y-80519333D01*
X133814498Y-80481323D01*
X133804246Y-80480354D01*
X133587507Y-80477706D01*
X133577220Y-80478426D01*
X133362979Y-80511209D01*
X133352939Y-80513600D01*
X133146920Y-80580938D01*
X133137418Y-80584933D01*
X132945168Y-80685012D01*
X132936436Y-80690510D01*
X132912249Y-80708671D01*
X132903794Y-80719999D01*
X127954787Y-80719999D01*
X127955786Y-80718169D01*
X127948348Y-80707960D01*
X127941324Y-80703294D01*
X127751578Y-80598548D01*
X127742166Y-80594318D01*
X127537855Y-80521967D01*
X127527884Y-80519333D01*
X127314498Y-80481323D01*
X127304246Y-80480354D01*
X127087507Y-80477706D01*
X127077220Y-80478426D01*
X126862979Y-80511209D01*
X126852939Y-80513600D01*
X126646920Y-80580938D01*
X126637418Y-80584933D01*
X126445168Y-80685012D01*
X126436436Y-80690510D01*
X126412249Y-80708671D01*
X126403794Y-80719999D01*
X118158500Y-80719999D01*
X118158500Y-52110500D01*
X118178502Y-52042379D01*
X118232158Y-51995886D01*
X118284500Y-51984500D01*
X178015500Y-51984500D01*
X178083621Y-52004502D01*
G37*
%TD.AperFunction*%
%TD*%
M02*
