%TF.GenerationSoftware,KiCad,Pcbnew,6.0.7-f9a2dced07~116~ubuntu22.04.1*%
%TF.CreationDate,2022-09-22T10:40:41-04:00*%
%TF.ProjectId,gimbal,67696d62-616c-42e6-9b69-6361645f7063,rev?*%
%TF.SameCoordinates,Original*%
%TF.FileFunction,Copper,L1,Top*%
%TF.FilePolarity,Positive*%
%FSLAX46Y46*%
G04 Gerber Fmt 4.6, Leading zero omitted, Abs format (unit mm)*
G04 Created by KiCad (PCBNEW 6.0.7-f9a2dced07~116~ubuntu22.04.1) date 2022-09-22 10:40:41*
%MOMM*%
%LPD*%
G01*
G04 APERTURE LIST*
G04 Aperture macros list*
%AMRoundRect*
0 Rectangle with rounded corners*
0 $1 Rounding radius*
0 $2 $3 $4 $5 $6 $7 $8 $9 X,Y pos of 4 corners*
0 Add a 4 corners polygon primitive as box body*
4,1,4,$2,$3,$4,$5,$6,$7,$8,$9,$2,$3,0*
0 Add four circle primitives for the rounded corners*
1,1,$1+$1,$2,$3*
1,1,$1+$1,$4,$5*
1,1,$1+$1,$6,$7*
1,1,$1+$1,$8,$9*
0 Add four rect primitives between the rounded corners*
20,1,$1+$1,$2,$3,$4,$5,0*
20,1,$1+$1,$4,$5,$6,$7,0*
20,1,$1+$1,$6,$7,$8,$9,0*
20,1,$1+$1,$8,$9,$2,$3,0*%
G04 Aperture macros list end*
%TA.AperFunction,SMDPad,CuDef*%
%ADD10RoundRect,0.250000X0.250000X0.475000X-0.250000X0.475000X-0.250000X-0.475000X0.250000X-0.475000X0*%
%TD*%
%TA.AperFunction,SMDPad,CuDef*%
%ADD11RoundRect,0.250000X-0.475000X0.250000X-0.475000X-0.250000X0.475000X-0.250000X0.475000X0.250000X0*%
%TD*%
%TA.AperFunction,SMDPad,CuDef*%
%ADD12R,1.200000X0.900000*%
%TD*%
%TA.AperFunction,ComponentPad*%
%ADD13R,1.700000X1.700000*%
%TD*%
%TA.AperFunction,ComponentPad*%
%ADD14O,1.700000X1.700000*%
%TD*%
%TA.AperFunction,SMDPad,CuDef*%
%ADD15RoundRect,0.249999X-0.625001X0.312501X-0.625001X-0.312501X0.625001X-0.312501X0.625001X0.312501X0*%
%TD*%
%TA.AperFunction,SMDPad,CuDef*%
%ADD16R,1.500000X2.000000*%
%TD*%
%TA.AperFunction,SMDPad,CuDef*%
%ADD17R,3.800000X2.000000*%
%TD*%
%TA.AperFunction,SMDPad,CuDef*%
%ADD18RoundRect,0.150000X0.825000X0.150000X-0.825000X0.150000X-0.825000X-0.150000X0.825000X-0.150000X0*%
%TD*%
%TA.AperFunction,SMDPad,CuDef*%
%ADD19RoundRect,0.250000X0.625000X-0.312500X0.625000X0.312500X-0.625000X0.312500X-0.625000X-0.312500X0*%
%TD*%
%TA.AperFunction,ComponentPad*%
%ADD20C,2.000000*%
%TD*%
%TA.AperFunction,SMDPad,CuDef*%
%ADD21RoundRect,0.635000X-0.635000X-1.905000X0.635000X-1.905000X0.635000X1.905000X-0.635000X1.905000X0*%
%TD*%
%TA.AperFunction,SMDPad,CuDef*%
%ADD22RoundRect,0.243750X0.243750X0.456250X-0.243750X0.456250X-0.243750X-0.456250X0.243750X-0.456250X0*%
%TD*%
%TA.AperFunction,SMDPad,CuDef*%
%ADD23RoundRect,0.243750X0.456250X-0.243750X0.456250X0.243750X-0.456250X0.243750X-0.456250X-0.243750X0*%
%TD*%
%TA.AperFunction,SMDPad,CuDef*%
%ADD24RoundRect,0.250000X-0.312500X-0.625000X0.312500X-0.625000X0.312500X0.625000X-0.312500X0.625000X0*%
%TD*%
%TA.AperFunction,SMDPad,CuDef*%
%ADD25RoundRect,0.250000X0.312500X0.625000X-0.312500X0.625000X-0.312500X-0.625000X0.312500X-0.625000X0*%
%TD*%
%TA.AperFunction,ComponentPad*%
%ADD26O,2.200000X3.500000*%
%TD*%
%TA.AperFunction,ComponentPad*%
%ADD27R,1.500000X2.500000*%
%TD*%
%TA.AperFunction,ComponentPad*%
%ADD28O,1.500000X2.500000*%
%TD*%
%TA.AperFunction,SMDPad,CuDef*%
%ADD29RoundRect,0.243750X-0.243750X-0.456250X0.243750X-0.456250X0.243750X0.456250X-0.243750X0.456250X0*%
%TD*%
%TA.AperFunction,ViaPad*%
%ADD30C,0.800000*%
%TD*%
%TA.AperFunction,Conductor*%
%ADD31C,0.508000*%
%TD*%
%TA.AperFunction,Conductor*%
%ADD32C,0.762000*%
%TD*%
%TA.AperFunction,Conductor*%
%ADD33C,0.381000*%
%TD*%
G04 APERTURE END LIST*
D10*
%TO.P,C1,1*%
%TO.N,VCC*%
X132649000Y-116967000D03*
%TO.P,C1,2*%
%TO.N,GND*%
X130749000Y-116967000D03*
%TD*%
D11*
%TO.P,C2,1*%
%TO.N,+3V3*%
X137541000Y-107635000D03*
%TO.P,C2,2*%
%TO.N,GND*%
X137541000Y-109535000D03*
%TD*%
D12*
%TO.P,D1,1,K*%
%TO.N,VCC*%
X137541000Y-115569000D03*
%TO.P,D1,2,A*%
%TO.N,+3V3*%
X137541000Y-112269000D03*
%TD*%
D13*
%TO.P,J2,1,Pin_1*%
%TO.N,Net-(J2-Pad1)*%
X131191000Y-102093000D03*
D14*
%TO.P,J2,2,Pin_2*%
%TO.N,+3V3*%
X131191000Y-99553000D03*
%TO.P,J2,3,Pin_3*%
%TO.N,GND*%
X131191000Y-97013000D03*
%TD*%
D13*
%TO.P,J3,1,Pin_1*%
%TO.N,+3V3*%
X154305000Y-84963000D03*
D14*
%TO.P,J3,2,Pin_2*%
%TO.N,unconnected-(J3-Pad2)*%
X154305000Y-87503000D03*
%TO.P,J3,3,Pin_3*%
%TO.N,GND*%
X154305000Y-90043000D03*
%TO.P,J3,4,Pin_4*%
%TO.N,/SDA*%
X154305000Y-92583000D03*
%TO.P,J3,5,Pin_5*%
%TO.N,/SCL*%
X154305000Y-95123000D03*
%TO.P,J3,6,Pin_6*%
%TO.N,unconnected-(J3-Pad6)*%
X154305000Y-97663000D03*
%TD*%
D13*
%TO.P,J4,1,Pin_1*%
%TO.N,/Servo_X*%
X163703000Y-121920000D03*
D14*
%TO.P,J4,2,Pin_2*%
%TO.N,VCC*%
X161163000Y-121920000D03*
%TO.P,J4,3,Pin_3*%
%TO.N,GND*%
X158623000Y-121920000D03*
%TD*%
D13*
%TO.P,J6,1,Pin_1*%
%TO.N,/Servo_Y*%
X173609000Y-121920000D03*
D14*
%TO.P,J6,2,Pin_2*%
%TO.N,VCC*%
X171069000Y-121920000D03*
%TO.P,J6,3,Pin_3*%
%TO.N,GND*%
X168529000Y-121920000D03*
%TD*%
D13*
%TO.P,J7,1,Pin_1*%
%TO.N,unconnected-(J7-Pad1)*%
X172085000Y-87503000D03*
D14*
%TO.P,J7,2,Pin_2*%
%TO.N,unconnected-(J7-Pad2)*%
X172085000Y-90043000D03*
%TO.P,J7,3,Pin_3*%
%TO.N,unconnected-(J7-Pad3)*%
X172085000Y-92583000D03*
%TO.P,J7,4,Pin_4*%
%TO.N,unconnected-(J7-Pad4)*%
X172085000Y-95123000D03*
%TD*%
D15*
%TO.P,R1,1*%
%TO.N,/UPDI*%
X137668000Y-101661500D03*
%TO.P,R1,2*%
%TO.N,Net-(R1-Pad2)*%
X137668000Y-104586500D03*
%TD*%
D16*
%TO.P,U1,1,GND*%
%TO.N,GND*%
X129526000Y-113640000D03*
D17*
%TO.P,U1,2,VO*%
%TO.N,+3V3*%
X131826000Y-107340000D03*
D16*
X131826000Y-113640000D03*
%TO.P,U1,3,VI*%
%TO.N,VCC*%
X134126000Y-113640000D03*
%TD*%
D18*
%TO.P,U2,1,VCC*%
%TO.N,+3V3*%
X148144000Y-109728000D03*
%TO.P,U2,2,PA4*%
%TO.N,/Servo_X*%
X148144000Y-108458000D03*
%TO.P,U2,3,PA5*%
%TO.N,/Servo_Y*%
X148144000Y-107188000D03*
%TO.P,U2,4,PA6*%
%TO.N,/Center*%
X148144000Y-105918000D03*
%TO.P,U2,5,PA7*%
%TO.N,/Side*%
X148144000Y-104648000D03*
%TO.P,U2,6,PB3*%
%TO.N,unconnected-(U2-Pad6)*%
X148144000Y-103378000D03*
%TO.P,U2,7,PB2*%
%TO.N,/TX*%
X148144000Y-102108000D03*
%TO.P,U2,8,PB1*%
%TO.N,/SDA*%
X143194000Y-102108000D03*
%TO.P,U2,9,PB0*%
%TO.N,/SCL*%
X143194000Y-103378000D03*
%TO.P,U2,10,~{RESET}/PA0*%
%TO.N,Net-(R1-Pad2)*%
X143194000Y-104648000D03*
%TO.P,U2,11,PA1*%
%TO.N,unconnected-(U2-Pad11)*%
X143194000Y-105918000D03*
%TO.P,U2,12,PA2*%
%TO.N,Net-(R4-Pad1)*%
X143194000Y-107188000D03*
%TO.P,U2,13,PA3*%
%TO.N,Net-(R3-Pad1)*%
X143194000Y-108458000D03*
%TO.P,U2,14,GND*%
%TO.N,GND*%
X143194000Y-109728000D03*
%TD*%
D19*
%TO.P,R2,1*%
%TO.N,VCC*%
X125984000Y-115254500D03*
%TO.P,R2,2*%
%TO.N,Net-(D2-Pad2)*%
X125984000Y-112329500D03*
%TD*%
D13*
%TO.P,J1,1,Pin_1*%
%TO.N,GND*%
X122570000Y-121920000D03*
D14*
%TO.P,J1,2,Pin_2*%
%TO.N,Net-(J1-Pad2)*%
X125110000Y-121920000D03*
%TO.P,J1,3,Pin_3*%
%TO.N,GND*%
X127650000Y-121920000D03*
%TD*%
D20*
%TO.P,SW2,1,1*%
%TO.N,/Center*%
X141657000Y-86360000D03*
X148157000Y-86360000D03*
%TO.P,SW2,2,2*%
%TO.N,GND*%
X141657000Y-81860000D03*
X148157000Y-81860000D03*
%TD*%
D21*
%TO.P,SW1,1,A*%
%TO.N,VCC*%
X134152000Y-121771000D03*
%TO.P,SW1,2,B*%
%TO.N,Net-(J1-Pad2)*%
X139192000Y-121771000D03*
%TO.P,SW1,3,C*%
%TO.N,unconnected-(SW1-Pad3)*%
X144272000Y-121771000D03*
%TD*%
D22*
%TO.P,D3,1,K*%
%TO.N,GND*%
X145639000Y-74676000D03*
%TO.P,D3,2,A*%
%TO.N,Net-(D3-Pad2)*%
X143764000Y-74676000D03*
%TD*%
D23*
%TO.P,D2,1,K*%
%TO.N,GND*%
X123444000Y-114729500D03*
%TO.P,D2,2,A*%
%TO.N,Net-(D2-Pad2)*%
X123444000Y-112854500D03*
%TD*%
D24*
%TO.P,R4,1*%
%TO.N,Net-(R4-Pad1)*%
X129145500Y-77216000D03*
%TO.P,R4,2*%
%TO.N,Net-(D4-Pad2)*%
X132070500Y-77216000D03*
%TD*%
D25*
%TO.P,R3,1*%
%TO.N,Net-(R3-Pad1)*%
X146164000Y-77216000D03*
%TO.P,R3,2*%
%TO.N,Net-(D3-Pad2)*%
X143239000Y-77216000D03*
%TD*%
D26*
%TO.P,SW4,*%
%TO.N,*%
X145800000Y-94996000D03*
X137600000Y-94996000D03*
D27*
%TO.P,SW4,1,A*%
%TO.N,/UPDI*%
X139700000Y-94996000D03*
D28*
%TO.P,SW4,2,B*%
%TO.N,Net-(J2-Pad1)*%
X141700000Y-94996000D03*
%TO.P,SW4,3,C*%
%TO.N,/TX*%
X143700000Y-94996000D03*
%TD*%
D29*
%TO.P,D4,1,K*%
%TO.N,GND*%
X129618500Y-74793000D03*
%TO.P,D4,2,A*%
%TO.N,Net-(D4-Pad2)*%
X131493500Y-74793000D03*
%TD*%
D20*
%TO.P,SW3,1,1*%
%TO.N,/Side*%
X127179000Y-86360000D03*
X133679000Y-86360000D03*
%TO.P,SW3,2,2*%
%TO.N,GND*%
X127179000Y-81860000D03*
X133679000Y-81860000D03*
%TD*%
D30*
%TO.N,GND*%
X135890000Y-109601000D03*
X129526000Y-115744000D03*
X145161000Y-109728000D03*
%TO.N,+3V3*%
X157099000Y-105791000D03*
X157099000Y-109601000D03*
%TO.N,/TX*%
X147955000Y-100965000D03*
%TO.N,/Center*%
X151257000Y-94107000D03*
X151257000Y-98933000D03*
%TO.N,/Side*%
X150241000Y-94742000D03*
X150241000Y-99314000D03*
%TO.N,Net-(R3-Pad1)*%
X146304000Y-105664000D03*
X152400000Y-92964000D03*
%TO.N,Net-(R4-Pad1)*%
X131572000Y-105156000D03*
X128524000Y-105156000D03*
%TD*%
D31*
%TO.N,GND*%
X130749000Y-116967000D02*
X129526000Y-115744000D01*
X129526000Y-115744000D02*
X129526000Y-113640000D01*
D32*
%TO.N,VCC*%
X134152000Y-117856000D02*
X157099000Y-117856000D01*
X161163000Y-121920000D02*
X163068000Y-123825000D01*
X134126000Y-116953000D02*
X134126000Y-113640000D01*
X157099000Y-117856000D02*
X161163000Y-121920000D01*
D31*
X132649000Y-116967000D02*
X134112000Y-116967000D01*
X134112000Y-116967000D02*
X134126000Y-116953000D01*
D33*
X134152000Y-121771000D02*
X132500500Y-121771000D01*
D31*
X137541000Y-115569000D02*
X136055000Y-115569000D01*
D32*
X134152000Y-117856000D02*
X134126000Y-117830000D01*
D31*
X136055000Y-115569000D02*
X134126000Y-113640000D01*
D32*
X134152000Y-121771000D02*
X134152000Y-117856000D01*
X163068000Y-123825000D02*
X169164000Y-123825000D01*
X134126000Y-117830000D02*
X134126000Y-116953000D01*
X169164000Y-123825000D02*
X171069000Y-121920000D01*
D33*
X132500500Y-121771000D02*
X125984000Y-115254500D01*
D31*
%TO.N,+3V3*%
X157099000Y-87757000D02*
X154305000Y-84963000D01*
X148144000Y-111125000D02*
X155575000Y-111125000D01*
X148144000Y-111125000D02*
X141031000Y-111125000D01*
X131826000Y-113640000D02*
X131826000Y-111252000D01*
X148144000Y-109728000D02*
X148144000Y-111125000D01*
X129887000Y-100857000D02*
X129887000Y-105401000D01*
X131826000Y-111252000D02*
X136524000Y-111252000D01*
X131191000Y-99553000D02*
X129887000Y-100857000D01*
X157099000Y-105791000D02*
X157099000Y-87757000D01*
X131826000Y-111252000D02*
X131826000Y-107340000D01*
X155575000Y-111125000D02*
X157099000Y-109601000D01*
X137246000Y-107340000D02*
X137541000Y-107635000D01*
X131826000Y-107340000D02*
X137246000Y-107340000D01*
X136524000Y-111252000D02*
X137541000Y-112269000D01*
X129887000Y-105401000D02*
X131826000Y-107340000D01*
X141031000Y-111125000D02*
X137541000Y-107635000D01*
D33*
%TO.N,/UPDI*%
X139700000Y-99629500D02*
X139700000Y-94996000D01*
X137668000Y-101661500D02*
X139700000Y-99629500D01*
%TO.N,/SCL*%
X144331658Y-103378000D02*
X152586658Y-95123000D01*
X143194000Y-103378000D02*
X144331658Y-103378000D01*
X152586658Y-95123000D02*
X154305000Y-95123000D01*
%TO.N,/SDA*%
X144780000Y-102108000D02*
X154305000Y-92583000D01*
X143194000Y-102108000D02*
X144780000Y-102108000D01*
%TO.N,/Servo_X*%
X158496000Y-108458000D02*
X148144000Y-108458000D01*
X163703000Y-113665000D02*
X158496000Y-108458000D01*
X163703000Y-121920000D02*
X163703000Y-113665000D01*
%TO.N,/TX*%
X148144000Y-101154000D02*
X148144000Y-102108000D01*
X147955000Y-100965000D02*
X148144000Y-101154000D01*
%TO.N,/Servo_Y*%
X148144000Y-107188000D02*
X158877000Y-107188000D01*
X158877000Y-107188000D02*
X173609000Y-121920000D01*
%TO.N,Net-(R1-Pad2)*%
X143194000Y-104648000D02*
X137729500Y-104648000D01*
X137729500Y-104648000D02*
X137668000Y-104586500D01*
%TO.N,Net-(D2-Pad2)*%
X123969000Y-112329500D02*
X123444000Y-112854500D01*
X125984000Y-112329500D02*
X123969000Y-112329500D01*
%TO.N,Net-(D3-Pad2)*%
X143239000Y-75201000D02*
X143764000Y-74676000D01*
X143239000Y-77216000D02*
X143239000Y-75201000D01*
%TO.N,/Center*%
X148144000Y-105918000D02*
X148613382Y-105918000D01*
X151257000Y-89460000D02*
X148157000Y-86360000D01*
X151257000Y-101600000D02*
X151257000Y-98933000D01*
X148613382Y-105918000D02*
X151257000Y-103274382D01*
X148157000Y-86360000D02*
X141657000Y-86360000D01*
X151257000Y-103274382D02*
X151257000Y-101600000D01*
X151257000Y-94107000D02*
X151257000Y-89460000D01*
%TO.N,/Side*%
X148717000Y-104648000D02*
X150241000Y-103124000D01*
X136219000Y-88900000D02*
X133679000Y-86360000D01*
X148144000Y-104648000D02*
X148717000Y-104648000D01*
X127179000Y-86360000D02*
X133679000Y-86360000D01*
X150241000Y-103124000D02*
X150241000Y-99314000D01*
X144399000Y-88900000D02*
X136219000Y-88900000D01*
X150241000Y-94742000D02*
X144399000Y-88900000D01*
D32*
%TO.N,Net-(J1-Pad2)*%
X136071000Y-124892000D02*
X128082000Y-124892000D01*
X139192000Y-121771000D02*
X136071000Y-124892000D01*
X128082000Y-124892000D02*
X125110000Y-121920000D01*
D33*
%TO.N,Net-(D4-Pad2)*%
X132070500Y-75370000D02*
X131493500Y-74793000D01*
X132070500Y-77216000D02*
X132070500Y-75370000D01*
%TO.N,Net-(J2-Pad1)*%
X132222000Y-103124000D02*
X138176000Y-103124000D01*
X138176000Y-103124000D02*
X141700000Y-99600000D01*
X141700000Y-99600000D02*
X141700000Y-94996000D01*
X131191000Y-102093000D02*
X132222000Y-103124000D01*
%TO.N,Net-(R3-Pad1)*%
X152400000Y-92964000D02*
X152400000Y-83452000D01*
X143663382Y-108458000D02*
X143194000Y-108458000D01*
X152400000Y-83452000D02*
X146164000Y-77216000D01*
X146304000Y-105817382D02*
X143663382Y-108458000D01*
X146304000Y-105664000D02*
X146304000Y-105817382D01*
%TO.N,Net-(R4-Pad1)*%
X128524000Y-105156000D02*
X125476000Y-102108000D01*
X132080000Y-105664000D02*
X139192000Y-105664000D01*
X128524000Y-77216000D02*
X129145500Y-77216000D01*
X139192000Y-105664000D02*
X140716000Y-107188000D01*
X125476000Y-80264000D02*
X128524000Y-77216000D01*
X140716000Y-107188000D02*
X143194000Y-107188000D01*
X125476000Y-102108000D02*
X125476000Y-80264000D01*
X131572000Y-105156000D02*
X132080000Y-105664000D01*
%TD*%
%TA.AperFunction,Conductor*%
%TO.N,GND*%
G36*
X178083621Y-52004502D02*
G01*
X178130114Y-52058158D01*
X178141500Y-52110500D01*
X178141500Y-124841500D01*
X178121498Y-124909621D01*
X178067842Y-124956114D01*
X178015500Y-124967500D01*
X169171510Y-124967500D01*
X169131141Y-124955647D01*
X169106539Y-124966461D01*
X169090389Y-124967500D01*
X163141611Y-124967500D01*
X163103325Y-124956258D01*
X163089613Y-124964088D01*
X163060490Y-124967500D01*
X145410660Y-124967500D01*
X145342539Y-124947498D01*
X145296046Y-124893842D01*
X145285942Y-124823568D01*
X145315436Y-124758988D01*
X145359310Y-124726438D01*
X145372382Y-124720604D01*
X145469006Y-124677483D01*
X145520429Y-124642075D01*
X145637345Y-124561571D01*
X145637346Y-124561570D01*
X145642101Y-124558296D01*
X145656203Y-124544170D01*
X145786498Y-124413647D01*
X145790578Y-124409560D01*
X145909463Y-124236258D01*
X145994775Y-124044192D01*
X146009708Y-123981750D01*
X146042463Y-123844793D01*
X146042464Y-123844789D01*
X146043658Y-123839795D01*
X146048167Y-123776890D01*
X146050339Y-123746594D01*
X146050339Y-123746586D01*
X146050500Y-123744344D01*
X146050500Y-122306703D01*
X150036743Y-122306703D01*
X150037302Y-122310947D01*
X150037302Y-122310951D01*
X150046162Y-122378245D01*
X150074268Y-122591734D01*
X150150129Y-122869036D01*
X150151813Y-122872984D01*
X150259769Y-123126081D01*
X150262923Y-123133476D01*
X150274693Y-123153142D01*
X150346148Y-123272534D01*
X150410561Y-123380161D01*
X150590313Y-123604528D01*
X150798851Y-123802423D01*
X151032317Y-123970186D01*
X151036112Y-123972195D01*
X151036113Y-123972196D01*
X151055570Y-123982498D01*
X151286392Y-124104712D01*
X151556373Y-124203511D01*
X151837264Y-124264755D01*
X151865841Y-124267004D01*
X152060282Y-124282307D01*
X152060291Y-124282307D01*
X152062739Y-124282500D01*
X152218271Y-124282500D01*
X152220407Y-124282354D01*
X152220418Y-124282354D01*
X152428548Y-124268165D01*
X152428554Y-124268164D01*
X152432825Y-124267873D01*
X152437020Y-124267004D01*
X152437022Y-124267004D01*
X152602511Y-124232733D01*
X152714342Y-124209574D01*
X152985343Y-124113607D01*
X153116155Y-124046090D01*
X153237005Y-123983715D01*
X153237006Y-123983715D01*
X153240812Y-123981750D01*
X153244313Y-123979289D01*
X153244317Y-123979287D01*
X153425382Y-123852032D01*
X153476023Y-123816441D01*
X153686622Y-123620740D01*
X153868713Y-123398268D01*
X154018927Y-123153142D01*
X154024081Y-123141402D01*
X154132757Y-122893830D01*
X154134483Y-122889898D01*
X154213244Y-122613406D01*
X154247417Y-122373292D01*
X154253146Y-122333036D01*
X154253146Y-122333034D01*
X154253751Y-122328784D01*
X154253845Y-122310951D01*
X154254497Y-122186522D01*
X157419989Y-122186522D01*
X157460397Y-122337325D01*
X157464143Y-122347617D01*
X157550528Y-122532870D01*
X157556006Y-122542356D01*
X157673238Y-122709782D01*
X157680292Y-122718189D01*
X157824811Y-122862708D01*
X157833218Y-122869762D01*
X158000644Y-122986994D01*
X158010130Y-122992472D01*
X158195383Y-123078857D01*
X158205675Y-123082603D01*
X158351503Y-123121678D01*
X158365599Y-123121342D01*
X158369000Y-123113400D01*
X158369000Y-122192115D01*
X158364525Y-122176876D01*
X158363135Y-122175671D01*
X158355452Y-122174000D01*
X157434749Y-122174000D01*
X157421218Y-122177973D01*
X157419989Y-122186522D01*
X154254497Y-122186522D01*
X154255235Y-122045583D01*
X154255235Y-122045576D01*
X154255257Y-122041297D01*
X154217732Y-121756266D01*
X154201618Y-121697361D01*
X154188082Y-121647885D01*
X154141871Y-121478964D01*
X154102728Y-121387196D01*
X154030763Y-121218476D01*
X154030761Y-121218472D01*
X154029077Y-121214524D01*
X153913774Y-121021866D01*
X153883643Y-120971521D01*
X153883640Y-120971517D01*
X153881439Y-120967839D01*
X153701687Y-120743472D01*
X153575299Y-120623534D01*
X153496258Y-120548527D01*
X153496255Y-120548525D01*
X153493149Y-120545577D01*
X153259683Y-120377814D01*
X153237843Y-120366250D01*
X153200203Y-120346321D01*
X153005608Y-120243288D01*
X152735627Y-120144489D01*
X152454736Y-120083245D01*
X152423685Y-120080801D01*
X152231718Y-120065693D01*
X152231709Y-120065693D01*
X152229261Y-120065500D01*
X152073729Y-120065500D01*
X152071593Y-120065646D01*
X152071582Y-120065646D01*
X151863452Y-120079835D01*
X151863446Y-120079836D01*
X151859175Y-120080127D01*
X151854980Y-120080996D01*
X151854978Y-120080996D01*
X151718417Y-120109276D01*
X151577658Y-120138426D01*
X151306657Y-120234393D01*
X151051188Y-120366250D01*
X151047687Y-120368711D01*
X151047683Y-120368713D01*
X151037594Y-120375804D01*
X150815977Y-120531559D01*
X150773502Y-120571029D01*
X150614635Y-120718658D01*
X150605378Y-120727260D01*
X150423287Y-120949732D01*
X150273073Y-121194858D01*
X150271347Y-121198791D01*
X150271346Y-121198792D01*
X150161379Y-121449305D01*
X150157517Y-121458102D01*
X150078756Y-121734594D01*
X150038249Y-122019216D01*
X150038227Y-122023505D01*
X150038226Y-122023512D01*
X150037066Y-122245046D01*
X150036743Y-122306703D01*
X146050500Y-122306703D01*
X146050500Y-119797656D01*
X146043370Y-119700221D01*
X145994131Y-119495910D01*
X145908483Y-119303994D01*
X145905209Y-119299239D01*
X145792571Y-119135655D01*
X145792570Y-119135654D01*
X145789296Y-119130899D01*
X145640560Y-118982422D01*
X145635802Y-118979158D01*
X145635796Y-118979153D01*
X145630326Y-118975401D01*
X145585468Y-118920372D01*
X145577482Y-118849825D01*
X145608904Y-118786161D01*
X145669758Y-118749591D01*
X145701604Y-118745500D01*
X156678367Y-118745500D01*
X156746488Y-118765502D01*
X156767462Y-118782405D01*
X158475464Y-120490407D01*
X158509490Y-120552719D01*
X158504425Y-120623534D01*
X158461878Y-120680370D01*
X158408255Y-120703587D01*
X158403112Y-120704494D01*
X158205675Y-120757397D01*
X158195383Y-120761143D01*
X158010130Y-120847528D01*
X158000644Y-120853006D01*
X157833218Y-120970238D01*
X157824811Y-120977292D01*
X157680292Y-121121811D01*
X157673238Y-121130218D01*
X157556006Y-121297644D01*
X157550528Y-121307130D01*
X157464143Y-121492383D01*
X157460397Y-121502675D01*
X157421322Y-121648503D01*
X157421658Y-121662599D01*
X157429600Y-121666000D01*
X158751000Y-121666000D01*
X158819121Y-121686002D01*
X158865614Y-121739658D01*
X158877000Y-121792000D01*
X158877000Y-123108251D01*
X158880973Y-123121782D01*
X158889522Y-123123011D01*
X159040325Y-123082603D01*
X159050617Y-123078857D01*
X159235870Y-122992472D01*
X159245356Y-122986994D01*
X159412782Y-122869762D01*
X159421189Y-122862708D01*
X159565708Y-122718189D01*
X159572762Y-122709782D01*
X159689994Y-122542356D01*
X159695471Y-122532871D01*
X159706974Y-122508202D01*
X159753891Y-122454916D01*
X159822168Y-122435454D01*
X159890128Y-122455995D01*
X159937912Y-122514044D01*
X159944297Y-122529767D01*
X159946266Y-122534616D01*
X159948965Y-122539020D01*
X160053608Y-122709782D01*
X160062987Y-122725088D01*
X160209250Y-122893938D01*
X160381126Y-123036632D01*
X160574000Y-123149338D01*
X160578825Y-123151180D01*
X160578826Y-123151181D01*
X160593538Y-123156799D01*
X160782692Y-123229030D01*
X160787760Y-123230061D01*
X160787763Y-123230062D01*
X160895017Y-123251883D01*
X161001597Y-123273567D01*
X161006772Y-123273757D01*
X161006774Y-123273757D01*
X161218936Y-123281537D01*
X161286278Y-123304022D01*
X161303414Y-123318357D01*
X162382511Y-124397454D01*
X162395348Y-124412482D01*
X162403331Y-124423470D01*
X162408233Y-124427883D01*
X162408234Y-124427885D01*
X162453063Y-124468249D01*
X162457847Y-124472790D01*
X162471994Y-124486937D01*
X162474559Y-124489014D01*
X162487554Y-124499537D01*
X162492575Y-124503825D01*
X162537381Y-124544170D01*
X162537385Y-124544173D01*
X162542285Y-124548585D01*
X162547995Y-124551881D01*
X162547998Y-124551884D01*
X162554045Y-124555375D01*
X162570330Y-124566568D01*
X162580875Y-124575107D01*
X162640480Y-124605477D01*
X162646276Y-124608624D01*
X162704215Y-124642075D01*
X162717125Y-124646270D01*
X162735384Y-124653833D01*
X162747476Y-124659994D01*
X162800525Y-124674209D01*
X162812094Y-124677309D01*
X162818419Y-124679182D01*
X162882044Y-124699855D01*
X162888611Y-124700545D01*
X162888615Y-124700546D01*
X162894288Y-124701142D01*
X162895530Y-124701272D01*
X162914972Y-124704875D01*
X162928085Y-124708389D01*
X162934682Y-124708735D01*
X162934684Y-124708735D01*
X162994887Y-124711890D01*
X163001461Y-124712407D01*
X163018105Y-124714156D01*
X163018109Y-124714156D01*
X163021380Y-124714500D01*
X163041407Y-124714500D01*
X163048001Y-124714673D01*
X163067084Y-124715673D01*
X163097276Y-124726283D01*
X163106113Y-124720604D01*
X163121901Y-124717051D01*
X163128215Y-124716051D01*
X163147925Y-124714500D01*
X169084075Y-124714500D01*
X169103785Y-124716051D01*
X169110099Y-124717051D01*
X169128193Y-124725629D01*
X169136012Y-124720604D01*
X169164916Y-124715673D01*
X169183999Y-124714673D01*
X169190593Y-124714500D01*
X169210620Y-124714500D01*
X169213891Y-124714156D01*
X169213895Y-124714156D01*
X169230539Y-124712407D01*
X169237113Y-124711890D01*
X169297316Y-124708735D01*
X169297318Y-124708735D01*
X169303915Y-124708389D01*
X169317028Y-124704875D01*
X169336470Y-124701272D01*
X169337712Y-124701142D01*
X169343385Y-124700546D01*
X169343389Y-124700545D01*
X169349956Y-124699855D01*
X169413581Y-124679182D01*
X169419906Y-124677309D01*
X169431475Y-124674209D01*
X169484524Y-124659994D01*
X169496616Y-124653833D01*
X169514875Y-124646270D01*
X169527785Y-124642075D01*
X169585724Y-124608624D01*
X169591520Y-124605477D01*
X169651125Y-124575107D01*
X169661670Y-124566568D01*
X169677955Y-124555375D01*
X169684002Y-124551884D01*
X169684005Y-124551881D01*
X169689715Y-124548585D01*
X169694615Y-124544173D01*
X169694619Y-124544170D01*
X169739425Y-124503825D01*
X169744446Y-124499537D01*
X169757441Y-124489014D01*
X169760006Y-124486937D01*
X169774153Y-124472790D01*
X169778937Y-124468249D01*
X169823766Y-124427885D01*
X169823767Y-124427883D01*
X169828669Y-124423470D01*
X169836652Y-124412482D01*
X169849489Y-124397454D01*
X170932217Y-123314726D01*
X170994529Y-123280700D01*
X171025927Y-123277906D01*
X171072228Y-123279604D01*
X171125673Y-123281564D01*
X171125677Y-123281564D01*
X171130837Y-123281753D01*
X171135957Y-123281097D01*
X171135959Y-123281097D01*
X171347288Y-123254025D01*
X171347289Y-123254025D01*
X171352416Y-123253368D01*
X171357366Y-123251883D01*
X171561429Y-123190661D01*
X171561434Y-123190659D01*
X171566384Y-123189174D01*
X171766994Y-123090896D01*
X171948860Y-122961173D01*
X172057091Y-122853319D01*
X172119462Y-122819404D01*
X172190268Y-122824592D01*
X172247030Y-122867238D01*
X172264012Y-122898341D01*
X172286201Y-122957529D01*
X172308385Y-123016705D01*
X172395739Y-123133261D01*
X172512295Y-123220615D01*
X172648684Y-123271745D01*
X172710866Y-123278500D01*
X174507134Y-123278500D01*
X174569316Y-123271745D01*
X174705705Y-123220615D01*
X174822261Y-123133261D01*
X174909615Y-123016705D01*
X174960745Y-122880316D01*
X174967500Y-122818134D01*
X174967500Y-121021866D01*
X174960745Y-120959684D01*
X174909615Y-120823295D01*
X174822261Y-120706739D01*
X174705705Y-120619385D01*
X174569316Y-120568255D01*
X174507134Y-120561500D01*
X173291226Y-120561500D01*
X173223105Y-120541498D01*
X173202131Y-120524595D01*
X159391497Y-106713962D01*
X159385643Y-106707696D01*
X159376072Y-106696725D01*
X159348158Y-106664726D01*
X159296622Y-106628506D01*
X159291326Y-106624573D01*
X159247737Y-106590394D01*
X159247734Y-106590392D01*
X159241760Y-106585708D01*
X159234836Y-106582582D01*
X159231801Y-106580744D01*
X159219102Y-106573500D01*
X159215954Y-106571812D01*
X159209739Y-106567444D01*
X159151050Y-106544562D01*
X159145005Y-106542022D01*
X159087565Y-106516087D01*
X159080092Y-106514702D01*
X159076674Y-106513631D01*
X159062685Y-106509646D01*
X159059193Y-106508749D01*
X159052111Y-106505988D01*
X159044578Y-106504996D01*
X159044577Y-106504996D01*
X158989670Y-106497767D01*
X158983157Y-106496735D01*
X158928682Y-106486639D01*
X158928680Y-106486639D01*
X158921213Y-106485255D01*
X158913633Y-106485692D01*
X158913632Y-106485692D01*
X158859888Y-106488791D01*
X158852635Y-106489000D01*
X157963293Y-106489000D01*
X157895172Y-106468998D01*
X157848679Y-106415342D01*
X157838575Y-106345068D01*
X157854174Y-106300000D01*
X157930223Y-106168279D01*
X157930224Y-106168278D01*
X157933527Y-106162556D01*
X157992542Y-105980928D01*
X157995814Y-105949803D01*
X158011814Y-105797565D01*
X158012504Y-105791000D01*
X158000325Y-105675126D01*
X157993232Y-105607635D01*
X157993232Y-105607633D01*
X157992542Y-105601072D01*
X157933527Y-105419444D01*
X157878381Y-105323928D01*
X157861500Y-105260929D01*
X157861500Y-95089695D01*
X170722251Y-95089695D01*
X170722548Y-95094848D01*
X170722548Y-95094851D01*
X170728011Y-95189590D01*
X170735110Y-95312715D01*
X170736247Y-95317761D01*
X170736248Y-95317767D01*
X170756119Y-95405939D01*
X170784222Y-95530639D01*
X170820664Y-95620386D01*
X170855725Y-95706730D01*
X170868266Y-95737616D01*
X170870965Y-95742020D01*
X170982286Y-95923680D01*
X170984987Y-95928088D01*
X171131250Y-96096938D01*
X171303126Y-96239632D01*
X171496000Y-96352338D01*
X171500825Y-96354180D01*
X171500826Y-96354181D01*
X171573612Y-96381975D01*
X171704692Y-96432030D01*
X171709760Y-96433061D01*
X171709763Y-96433062D01*
X171814466Y-96454364D01*
X171923597Y-96476567D01*
X171928772Y-96476757D01*
X171928774Y-96476757D01*
X172141673Y-96484564D01*
X172141677Y-96484564D01*
X172146837Y-96484753D01*
X172151957Y-96484097D01*
X172151959Y-96484097D01*
X172363288Y-96457025D01*
X172363289Y-96457025D01*
X172368416Y-96456368D01*
X172375096Y-96454364D01*
X172577429Y-96393661D01*
X172577434Y-96393659D01*
X172582384Y-96392174D01*
X172782994Y-96293896D01*
X172964860Y-96164173D01*
X172989340Y-96139779D01*
X173119435Y-96010137D01*
X173123096Y-96006489D01*
X173182594Y-95923689D01*
X173250435Y-95829277D01*
X173253453Y-95825077D01*
X173307232Y-95716264D01*
X173350136Y-95629453D01*
X173350137Y-95629451D01*
X173352430Y-95624811D01*
X173413214Y-95424749D01*
X173415865Y-95416023D01*
X173415865Y-95416021D01*
X173417370Y-95411069D01*
X173446529Y-95189590D01*
X173448156Y-95123000D01*
X173429852Y-94900361D01*
X173375431Y-94683702D01*
X173286354Y-94478840D01*
X173165014Y-94291277D01*
X173014670Y-94126051D01*
X173010619Y-94122852D01*
X173010615Y-94122848D01*
X172843414Y-93990800D01*
X172843410Y-93990798D01*
X172839359Y-93987598D01*
X172798053Y-93964796D01*
X172748084Y-93914364D01*
X172733312Y-93844921D01*
X172758428Y-93778516D01*
X172785780Y-93751909D01*
X172830918Y-93719712D01*
X172964860Y-93624173D01*
X172970983Y-93618072D01*
X173075411Y-93514008D01*
X173123096Y-93466489D01*
X173180605Y-93386457D01*
X173250435Y-93289277D01*
X173253453Y-93285077D01*
X173264458Y-93262811D01*
X173350136Y-93089453D01*
X173350137Y-93089451D01*
X173352430Y-93084811D01*
X173417370Y-92871069D01*
X173446529Y-92649590D01*
X173448156Y-92583000D01*
X173429852Y-92360361D01*
X173375431Y-92143702D01*
X173286354Y-91938840D01*
X173165014Y-91751277D01*
X173014670Y-91586051D01*
X173010619Y-91582852D01*
X173010615Y-91582848D01*
X172843414Y-91450800D01*
X172843410Y-91450798D01*
X172839359Y-91447598D01*
X172798053Y-91424796D01*
X172748084Y-91374364D01*
X172733312Y-91304921D01*
X172758428Y-91238516D01*
X172785780Y-91211909D01*
X172851153Y-91165279D01*
X172964860Y-91084173D01*
X173123096Y-90926489D01*
X173182594Y-90843689D01*
X173250435Y-90749277D01*
X173253453Y-90745077D01*
X173292854Y-90665356D01*
X173350136Y-90549453D01*
X173350137Y-90549451D01*
X173352430Y-90544811D01*
X173417370Y-90331069D01*
X173446529Y-90109590D01*
X173448156Y-90043000D01*
X173429852Y-89820361D01*
X173375431Y-89603702D01*
X173286354Y-89398840D01*
X173245793Y-89336142D01*
X173167822Y-89215617D01*
X173167820Y-89215614D01*
X173165014Y-89211277D01*
X173161532Y-89207450D01*
X173017798Y-89049488D01*
X172986746Y-88985642D01*
X172995141Y-88915143D01*
X173040317Y-88860375D01*
X173066761Y-88846706D01*
X173173297Y-88806767D01*
X173181705Y-88803615D01*
X173298261Y-88716261D01*
X173385615Y-88599705D01*
X173436745Y-88463316D01*
X173443500Y-88401134D01*
X173443500Y-86604866D01*
X173436745Y-86542684D01*
X173385615Y-86406295D01*
X173298261Y-86289739D01*
X173181705Y-86202385D01*
X173045316Y-86151255D01*
X172983134Y-86144500D01*
X171186866Y-86144500D01*
X171124684Y-86151255D01*
X170988295Y-86202385D01*
X170871739Y-86289739D01*
X170784385Y-86406295D01*
X170733255Y-86542684D01*
X170726500Y-86604866D01*
X170726500Y-88401134D01*
X170733255Y-88463316D01*
X170784385Y-88599705D01*
X170871739Y-88716261D01*
X170988295Y-88803615D01*
X170996704Y-88806767D01*
X170996705Y-88806768D01*
X171105451Y-88847535D01*
X171162216Y-88890176D01*
X171186916Y-88956738D01*
X171171709Y-89026087D01*
X171152316Y-89052568D01*
X171025629Y-89185138D01*
X171022715Y-89189410D01*
X171022714Y-89189411D01*
X170984923Y-89244811D01*
X170899743Y-89369680D01*
X170874866Y-89423274D01*
X170818531Y-89544638D01*
X170805688Y-89572305D01*
X170745989Y-89787570D01*
X170722251Y-90009695D01*
X170722548Y-90014848D01*
X170722548Y-90014851D01*
X170728011Y-90109590D01*
X170735110Y-90232715D01*
X170736247Y-90237761D01*
X170736248Y-90237767D01*
X170756119Y-90325939D01*
X170784222Y-90450639D01*
X170868266Y-90657616D01*
X170870965Y-90662020D01*
X170975611Y-90832787D01*
X170984987Y-90848088D01*
X171131250Y-91016938D01*
X171303126Y-91159632D01*
X171312790Y-91165279D01*
X171376445Y-91202476D01*
X171425169Y-91254114D01*
X171438240Y-91323897D01*
X171411509Y-91389669D01*
X171371055Y-91423027D01*
X171358607Y-91429507D01*
X171354474Y-91432610D01*
X171354471Y-91432612D01*
X171330247Y-91450800D01*
X171179965Y-91563635D01*
X171025629Y-91725138D01*
X170899743Y-91909680D01*
X170805688Y-92112305D01*
X170745989Y-92327570D01*
X170722251Y-92549695D01*
X170722548Y-92554848D01*
X170722548Y-92554851D01*
X170728011Y-92649590D01*
X170735110Y-92772715D01*
X170736247Y-92777761D01*
X170736248Y-92777767D01*
X170744276Y-92813389D01*
X170784222Y-92990639D01*
X170868266Y-93197616D01*
X170874301Y-93207464D01*
X170978412Y-93377358D01*
X170984987Y-93388088D01*
X171131250Y-93556938D01*
X171303126Y-93699632D01*
X171337489Y-93719712D01*
X171376445Y-93742476D01*
X171425169Y-93794114D01*
X171438240Y-93863897D01*
X171411509Y-93929669D01*
X171371055Y-93963027D01*
X171358607Y-93969507D01*
X171354474Y-93972610D01*
X171354471Y-93972612D01*
X171184100Y-94100530D01*
X171179965Y-94103635D01*
X171025629Y-94265138D01*
X170899743Y-94449680D01*
X170805688Y-94652305D01*
X170745989Y-94867570D01*
X170722251Y-95089695D01*
X157861500Y-95089695D01*
X157861500Y-87824376D01*
X157862933Y-87805426D01*
X157865124Y-87791027D01*
X157865124Y-87791021D01*
X157866224Y-87783792D01*
X157862577Y-87738949D01*
X157861915Y-87730817D01*
X157861500Y-87720602D01*
X157861500Y-87712475D01*
X157858189Y-87684076D01*
X157857760Y-87679736D01*
X157857036Y-87670828D01*
X157851809Y-87606574D01*
X157849553Y-87599612D01*
X157848357Y-87593624D01*
X157846949Y-87587667D01*
X157846101Y-87580393D01*
X157843603Y-87573511D01*
X157843602Y-87573507D01*
X157821055Y-87511393D01*
X157819645Y-87507289D01*
X157797013Y-87437425D01*
X157793213Y-87431162D01*
X157790675Y-87425620D01*
X157787933Y-87420144D01*
X157785434Y-87413259D01*
X157745185Y-87351868D01*
X157742870Y-87348200D01*
X157704773Y-87285419D01*
X157697333Y-87276995D01*
X157697362Y-87276969D01*
X157694762Y-87274038D01*
X157691958Y-87270684D01*
X157687946Y-87264565D01*
X157631413Y-87211011D01*
X157628972Y-87208634D01*
X155700405Y-85280067D01*
X155666379Y-85217755D01*
X155663500Y-85190972D01*
X155663500Y-84064866D01*
X155656745Y-84002684D01*
X155605615Y-83866295D01*
X155518261Y-83749739D01*
X155401705Y-83662385D01*
X155265316Y-83611255D01*
X155203134Y-83604500D01*
X153406866Y-83604500D01*
X153344684Y-83611255D01*
X153337288Y-83614027D01*
X153337282Y-83614029D01*
X153269229Y-83639541D01*
X153198422Y-83644724D01*
X153136053Y-83610803D01*
X153101924Y-83548547D01*
X153099000Y-83521559D01*
X153099000Y-83480600D01*
X153099292Y-83472029D01*
X153102653Y-83422725D01*
X153103170Y-83415149D01*
X153092334Y-83353065D01*
X153091378Y-83346586D01*
X153083809Y-83284040D01*
X153081125Y-83276938D01*
X153080270Y-83273456D01*
X153076430Y-83259421D01*
X153075389Y-83255973D01*
X153074082Y-83248483D01*
X153059870Y-83216108D01*
X153048763Y-83190805D01*
X153046270Y-83184697D01*
X153026692Y-83132886D01*
X153026692Y-83132885D01*
X153024006Y-83125778D01*
X153019700Y-83119512D01*
X153018050Y-83116357D01*
X153010931Y-83103565D01*
X153009131Y-83100521D01*
X153006078Y-83093567D01*
X152967740Y-83043604D01*
X152963862Y-83038267D01*
X152932481Y-82992607D01*
X152932479Y-82992605D01*
X152928179Y-82986348D01*
X152915692Y-82975222D01*
X152882312Y-82945482D01*
X152877036Y-82940501D01*
X147271905Y-77335370D01*
X147237879Y-77273058D01*
X147235000Y-77246275D01*
X147235000Y-76540600D01*
X147224026Y-76434834D01*
X147168050Y-76267054D01*
X147074978Y-76116652D01*
X146949803Y-75991695D01*
X146937522Y-75984125D01*
X146805468Y-75902725D01*
X146805466Y-75902724D01*
X146799238Y-75898885D01*
X146719495Y-75872436D01*
X146637889Y-75845368D01*
X146637887Y-75845368D01*
X146631361Y-75843203D01*
X146624525Y-75842503D01*
X146624522Y-75842502D01*
X146581469Y-75838091D01*
X146526900Y-75832500D01*
X146370219Y-75832500D01*
X146302098Y-75812498D01*
X146255605Y-75758842D01*
X146245501Y-75688568D01*
X146274995Y-75623988D01*
X146281124Y-75617405D01*
X146374711Y-75523818D01*
X146384360Y-75511380D01*
X146456638Y-75389164D01*
X146462886Y-75374727D01*
X146502917Y-75236936D01*
X146505217Y-75224349D01*
X146507307Y-75197791D01*
X146507500Y-75192866D01*
X146507500Y-74948115D01*
X146503025Y-74932876D01*
X146501635Y-74931671D01*
X146493952Y-74930000D01*
X145511000Y-74930000D01*
X145442879Y-74909998D01*
X145396386Y-74856342D01*
X145385000Y-74804000D01*
X145385000Y-74403885D01*
X145893000Y-74403885D01*
X145897475Y-74419124D01*
X145898865Y-74420329D01*
X145906548Y-74422000D01*
X146489384Y-74422000D01*
X146504623Y-74417525D01*
X146505828Y-74416135D01*
X146507499Y-74408452D01*
X146507499Y-74159139D01*
X146507305Y-74154203D01*
X146505217Y-74127659D01*
X146502916Y-74115058D01*
X146462886Y-73977273D01*
X146456638Y-73962836D01*
X146384360Y-73840620D01*
X146374711Y-73828182D01*
X146274318Y-73727789D01*
X146261880Y-73718140D01*
X146139664Y-73645862D01*
X146125227Y-73639614D01*
X145987436Y-73599583D01*
X145974849Y-73597283D01*
X145948291Y-73595193D01*
X145943365Y-73595000D01*
X145911115Y-73595000D01*
X145895876Y-73599475D01*
X145894671Y-73600865D01*
X145893000Y-73608548D01*
X145893000Y-74403885D01*
X145385000Y-74403885D01*
X145385000Y-73613116D01*
X145380525Y-73597877D01*
X145379135Y-73596672D01*
X145371452Y-73595001D01*
X145334639Y-73595001D01*
X145329703Y-73595195D01*
X145303159Y-73597283D01*
X145290558Y-73599584D01*
X145152773Y-73639614D01*
X145138336Y-73645862D01*
X145016120Y-73718140D01*
X145003682Y-73727789D01*
X144903289Y-73828182D01*
X144893642Y-73840618D01*
X144884404Y-73856239D01*
X144832511Y-73904692D01*
X144762661Y-73917397D01*
X144697029Y-73890322D01*
X144668806Y-73858404D01*
X144657801Y-73840620D01*
X144601297Y-73749311D01*
X144579738Y-73727789D01*
X144482333Y-73630554D01*
X144477153Y-73625383D01*
X144449842Y-73608548D01*
X144411360Y-73584828D01*
X144327829Y-73533339D01*
X144320880Y-73531034D01*
X144167866Y-73480281D01*
X144167864Y-73480281D01*
X144161335Y-73478115D01*
X144057731Y-73467500D01*
X143766266Y-73467500D01*
X143470270Y-73467501D01*
X143365371Y-73478384D01*
X143358840Y-73480563D01*
X143358835Y-73480564D01*
X143210689Y-73529990D01*
X143198974Y-73533898D01*
X143049811Y-73626203D01*
X142925883Y-73750347D01*
X142833839Y-73899671D01*
X142831534Y-73906619D01*
X142831534Y-73906620D01*
X142795032Y-74016671D01*
X142778615Y-74066165D01*
X142768000Y-74169769D01*
X142768001Y-74422000D01*
X142768001Y-74626951D01*
X142747999Y-74695072D01*
X142724834Y-74721897D01*
X142715726Y-74729842D01*
X142711359Y-74736056D01*
X142679506Y-74781378D01*
X142675573Y-74786674D01*
X142641394Y-74830263D01*
X142641392Y-74830266D01*
X142636708Y-74836240D01*
X142633582Y-74843164D01*
X142631744Y-74846199D01*
X142624500Y-74858898D01*
X142622812Y-74862046D01*
X142618444Y-74868261D01*
X142604375Y-74904348D01*
X142595567Y-74926939D01*
X142593022Y-74932995D01*
X142567087Y-74990435D01*
X142565702Y-74997908D01*
X142564631Y-75001326D01*
X142560646Y-75015315D01*
X142559749Y-75018807D01*
X142556988Y-75025889D01*
X142555996Y-75033422D01*
X142555996Y-75033423D01*
X142548767Y-75088330D01*
X142547735Y-75094843D01*
X142537639Y-75149318D01*
X142536255Y-75156787D01*
X142536692Y-75164367D01*
X142536692Y-75164368D01*
X142539791Y-75218112D01*
X142540000Y-75225365D01*
X142540000Y-75867958D01*
X142519998Y-75936079D01*
X142480304Y-75975101D01*
X142452152Y-75992522D01*
X142327195Y-76117697D01*
X142323355Y-76123927D01*
X142323354Y-76123928D01*
X142303974Y-76155369D01*
X142234385Y-76268262D01*
X142178703Y-76436139D01*
X142168000Y-76540600D01*
X142168000Y-77891400D01*
X142178974Y-77997166D01*
X142234950Y-78164946D01*
X142328022Y-78315348D01*
X142453197Y-78440305D01*
X142459427Y-78444145D01*
X142459428Y-78444146D01*
X142596590Y-78528694D01*
X142603762Y-78533115D01*
X142683505Y-78559564D01*
X142765111Y-78586632D01*
X142765113Y-78586632D01*
X142771639Y-78588797D01*
X142778475Y-78589497D01*
X142778478Y-78589498D01*
X142821531Y-78593909D01*
X142876100Y-78599500D01*
X143601900Y-78599500D01*
X143605146Y-78599163D01*
X143605150Y-78599163D01*
X143700808Y-78589238D01*
X143700812Y-78589237D01*
X143707666Y-78588526D01*
X143714202Y-78586345D01*
X143714204Y-78586345D01*
X143846306Y-78542272D01*
X143875446Y-78532550D01*
X144025848Y-78439478D01*
X144150805Y-78314303D01*
X144243615Y-78163738D01*
X144299297Y-77995861D01*
X144310000Y-77891400D01*
X144310000Y-76540600D01*
X144299026Y-76434834D01*
X144243050Y-76267054D01*
X144149978Y-76116652D01*
X144115055Y-76081790D01*
X144080976Y-76019508D01*
X144085979Y-75948688D01*
X144128476Y-75891815D01*
X144164197Y-75873093D01*
X144322078Y-75820420D01*
X144329026Y-75818102D01*
X144478189Y-75725797D01*
X144602117Y-75601653D01*
X144668650Y-75493716D01*
X144721422Y-75446223D01*
X144791494Y-75434799D01*
X144856617Y-75463073D01*
X144884364Y-75495694D01*
X144893640Y-75511379D01*
X144903289Y-75523818D01*
X145003682Y-75624211D01*
X145016120Y-75633860D01*
X145138336Y-75706138D01*
X145152773Y-75712386D01*
X145290564Y-75752417D01*
X145303151Y-75754717D01*
X145325990Y-75756514D01*
X145392331Y-75781800D01*
X145434471Y-75838938D01*
X145439030Y-75909788D01*
X145404561Y-75971855D01*
X145389051Y-75984048D01*
X145389112Y-75984125D01*
X145383380Y-75988668D01*
X145377152Y-75992522D01*
X145252195Y-76117697D01*
X145248355Y-76123927D01*
X145248354Y-76123928D01*
X145228974Y-76155369D01*
X145159385Y-76268262D01*
X145103703Y-76436139D01*
X145093000Y-76540600D01*
X145093000Y-77891400D01*
X145103974Y-77997166D01*
X145159950Y-78164946D01*
X145253022Y-78315348D01*
X145378197Y-78440305D01*
X145384427Y-78444145D01*
X145384428Y-78444146D01*
X145521590Y-78528694D01*
X145528762Y-78533115D01*
X145608505Y-78559564D01*
X145690111Y-78586632D01*
X145690113Y-78586632D01*
X145696639Y-78588797D01*
X145703475Y-78589497D01*
X145703478Y-78589498D01*
X145746531Y-78593909D01*
X145801100Y-78599500D01*
X146506775Y-78599500D01*
X146574896Y-78619502D01*
X146595870Y-78636405D01*
X148222900Y-80263436D01*
X148256926Y-80325748D01*
X148251861Y-80396564D01*
X148209314Y-80453399D01*
X148142794Y-80478210D01*
X148132265Y-80478522D01*
X148065506Y-80477706D01*
X148055220Y-80478426D01*
X147840979Y-80511209D01*
X147830939Y-80513600D01*
X147624920Y-80580938D01*
X147615418Y-80584933D01*
X147423168Y-80685012D01*
X147414436Y-80690510D01*
X147390249Y-80708671D01*
X147381794Y-80719999D01*
X147388538Y-80732328D01*
X149283955Y-82627745D01*
X149295965Y-82634304D01*
X149307705Y-82625336D01*
X149341787Y-82577904D01*
X149347098Y-82569066D01*
X149443128Y-82374764D01*
X149446926Y-82365171D01*
X149509934Y-82157786D01*
X149512112Y-82147713D01*
X149540642Y-81931011D01*
X149541161Y-81924343D01*
X149542152Y-81883763D01*
X149563811Y-81816151D01*
X149618586Y-81770982D01*
X149689086Y-81762598D01*
X149757209Y-81797745D01*
X151664095Y-83704631D01*
X151698121Y-83766943D01*
X151701000Y-83793726D01*
X151701000Y-88611275D01*
X151680998Y-88679396D01*
X151627342Y-88725889D01*
X151557068Y-88735993D01*
X151492488Y-88706499D01*
X151485905Y-88700370D01*
X149649297Y-86863762D01*
X149615271Y-86801450D01*
X149615873Y-86745253D01*
X149650380Y-86601524D01*
X149650381Y-86601518D01*
X149651535Y-86596711D01*
X149670165Y-86360000D01*
X149651535Y-86123289D01*
X149596105Y-85892406D01*
X149505240Y-85673037D01*
X149497864Y-85661000D01*
X149383759Y-85474798D01*
X149383755Y-85474792D01*
X149381176Y-85470584D01*
X149226969Y-85290031D01*
X149046416Y-85135824D01*
X149042208Y-85133245D01*
X149042202Y-85133241D01*
X148848183Y-85014346D01*
X148843963Y-85011760D01*
X148839393Y-85009867D01*
X148839389Y-85009865D01*
X148629167Y-84922789D01*
X148629165Y-84922788D01*
X148624594Y-84920895D01*
X148544391Y-84901640D01*
X148398524Y-84866620D01*
X148398518Y-84866619D01*
X148393711Y-84865465D01*
X148157000Y-84846835D01*
X147920289Y-84865465D01*
X147915482Y-84866619D01*
X147915476Y-84866620D01*
X147769609Y-84901640D01*
X147689406Y-84920895D01*
X147684835Y-84922788D01*
X147684833Y-84922789D01*
X147474611Y-85009865D01*
X147474607Y-85009867D01*
X147470037Y-85011760D01*
X147465817Y-85014346D01*
X147271798Y-85133241D01*
X147271792Y-85133245D01*
X147267584Y-85135824D01*
X147087031Y-85290031D01*
X146932824Y-85470584D01*
X146930237Y-85474806D01*
X146853005Y-85600835D01*
X146800357Y-85648467D01*
X146745573Y-85661000D01*
X143068427Y-85661000D01*
X143000306Y-85640998D01*
X142960995Y-85600835D01*
X142883763Y-85474806D01*
X142881176Y-85470584D01*
X142726969Y-85290031D01*
X142546416Y-85135824D01*
X142542208Y-85133245D01*
X142542202Y-85133241D01*
X142348183Y-85014346D01*
X142343963Y-85011760D01*
X142339393Y-85009867D01*
X142339389Y-85009865D01*
X142129167Y-84922789D01*
X142129165Y-84922788D01*
X142124594Y-84920895D01*
X142044391Y-84901640D01*
X141898524Y-84866620D01*
X141898518Y-84866619D01*
X141893711Y-84865465D01*
X141657000Y-84846835D01*
X141420289Y-84865465D01*
X141415482Y-84866619D01*
X141415476Y-84866620D01*
X141269609Y-84901640D01*
X141189406Y-84920895D01*
X141184835Y-84922788D01*
X141184833Y-84922789D01*
X140974611Y-85009865D01*
X140974607Y-85009867D01*
X140970037Y-85011760D01*
X140965817Y-85014346D01*
X140771798Y-85133241D01*
X140771792Y-85133245D01*
X140767584Y-85135824D01*
X140587031Y-85290031D01*
X140432824Y-85470584D01*
X140430245Y-85474792D01*
X140430241Y-85474798D01*
X140316136Y-85661000D01*
X140308760Y-85673037D01*
X140217895Y-85892406D01*
X140162465Y-86123289D01*
X140143835Y-86360000D01*
X140162465Y-86596711D01*
X140163619Y-86601518D01*
X140163620Y-86601524D01*
X140165243Y-86608283D01*
X140217895Y-86827594D01*
X140308760Y-87046963D01*
X140311346Y-87051183D01*
X140430241Y-87245202D01*
X140430245Y-87245208D01*
X140432824Y-87249416D01*
X140587031Y-87429969D01*
X140767584Y-87584176D01*
X140771792Y-87586755D01*
X140771798Y-87586759D01*
X140965817Y-87705654D01*
X140970037Y-87708240D01*
X140974607Y-87710133D01*
X140974611Y-87710135D01*
X141170005Y-87791069D01*
X141189406Y-87799105D01*
X141254964Y-87814844D01*
X141415476Y-87853380D01*
X141415482Y-87853381D01*
X141420289Y-87854535D01*
X141657000Y-87873165D01*
X141893711Y-87854535D01*
X141898518Y-87853381D01*
X141898524Y-87853380D01*
X142059036Y-87814844D01*
X142124594Y-87799105D01*
X142143995Y-87791069D01*
X142339389Y-87710135D01*
X142339393Y-87710133D01*
X142343963Y-87708240D01*
X142348183Y-87705654D01*
X142542202Y-87586759D01*
X142542208Y-87586755D01*
X142546416Y-87584176D01*
X142726969Y-87429969D01*
X142850427Y-87285419D01*
X142877963Y-87253178D01*
X142881176Y-87249416D01*
X142960995Y-87119165D01*
X143013643Y-87071533D01*
X143068427Y-87059000D01*
X146745573Y-87059000D01*
X146813694Y-87079002D01*
X146853005Y-87119165D01*
X146932824Y-87249416D01*
X146936037Y-87253178D01*
X146963574Y-87285419D01*
X147087031Y-87429969D01*
X147267584Y-87584176D01*
X147271792Y-87586755D01*
X147271798Y-87586759D01*
X147465817Y-87705654D01*
X147470037Y-87708240D01*
X147474607Y-87710133D01*
X147474611Y-87710135D01*
X147670005Y-87791069D01*
X147689406Y-87799105D01*
X147754964Y-87814844D01*
X147915476Y-87853380D01*
X147915482Y-87853381D01*
X147920289Y-87854535D01*
X148157000Y-87873165D01*
X148393711Y-87854535D01*
X148398518Y-87853381D01*
X148398524Y-87853380D01*
X148475398Y-87834924D01*
X148542254Y-87818873D01*
X148613161Y-87822420D01*
X148660762Y-87852297D01*
X150521095Y-89712630D01*
X150555121Y-89774942D01*
X150558000Y-89801725D01*
X150558000Y-93477221D01*
X150537998Y-93545342D01*
X150525641Y-93561525D01*
X150517960Y-93570056D01*
X150445057Y-93696327D01*
X150431556Y-93719712D01*
X150380174Y-93768705D01*
X150310460Y-93782141D01*
X150244549Y-93755755D01*
X150233342Y-93745807D01*
X144913497Y-88425962D01*
X144907643Y-88419696D01*
X144891450Y-88401134D01*
X144870158Y-88376726D01*
X144818622Y-88340506D01*
X144813326Y-88336573D01*
X144769737Y-88302394D01*
X144769734Y-88302392D01*
X144763760Y-88297708D01*
X144756836Y-88294582D01*
X144753801Y-88292744D01*
X144741102Y-88285500D01*
X144737954Y-88283812D01*
X144731739Y-88279444D01*
X144673050Y-88256562D01*
X144667005Y-88254022D01*
X144609565Y-88228087D01*
X144602092Y-88226702D01*
X144598674Y-88225631D01*
X144584685Y-88221646D01*
X144581193Y-88220749D01*
X144574111Y-88217988D01*
X144566578Y-88216996D01*
X144566577Y-88216996D01*
X144511670Y-88209767D01*
X144505157Y-88208735D01*
X144450682Y-88198639D01*
X144450680Y-88198639D01*
X144443213Y-88197255D01*
X144435633Y-88197692D01*
X144435632Y-88197692D01*
X144381888Y-88200791D01*
X144374635Y-88201000D01*
X136560726Y-88201000D01*
X136492605Y-88180998D01*
X136471631Y-88164095D01*
X135877126Y-87569590D01*
X135171297Y-86863762D01*
X135137272Y-86801450D01*
X135137873Y-86745253D01*
X135172380Y-86601524D01*
X135172381Y-86601518D01*
X135173535Y-86596711D01*
X135192165Y-86360000D01*
X135173535Y-86123289D01*
X135118105Y-85892406D01*
X135027240Y-85673037D01*
X135019864Y-85661000D01*
X134905759Y-85474798D01*
X134905755Y-85474792D01*
X134903176Y-85470584D01*
X134748969Y-85290031D01*
X134568416Y-85135824D01*
X134564208Y-85133245D01*
X134564202Y-85133241D01*
X134370183Y-85014346D01*
X134365963Y-85011760D01*
X134361393Y-85009867D01*
X134361389Y-85009865D01*
X134151167Y-84922789D01*
X134151165Y-84922788D01*
X134146594Y-84920895D01*
X134066391Y-84901640D01*
X133920524Y-84866620D01*
X133920518Y-84866619D01*
X133915711Y-84865465D01*
X133679000Y-84846835D01*
X133442289Y-84865465D01*
X133437482Y-84866619D01*
X133437476Y-84866620D01*
X133291609Y-84901640D01*
X133211406Y-84920895D01*
X133206835Y-84922788D01*
X133206833Y-84922789D01*
X132996611Y-85009865D01*
X132996607Y-85009867D01*
X132992037Y-85011760D01*
X132987817Y-85014346D01*
X132793798Y-85133241D01*
X132793792Y-85133245D01*
X132789584Y-85135824D01*
X132609031Y-85290031D01*
X132454824Y-85470584D01*
X132452237Y-85474806D01*
X132375005Y-85600835D01*
X132322357Y-85648467D01*
X132267573Y-85661000D01*
X128590427Y-85661000D01*
X128522306Y-85640998D01*
X128482995Y-85600835D01*
X128405763Y-85474806D01*
X128403176Y-85470584D01*
X128248969Y-85290031D01*
X128068416Y-85135824D01*
X128064208Y-85133245D01*
X128064202Y-85133241D01*
X127870183Y-85014346D01*
X127865963Y-85011760D01*
X127861393Y-85009867D01*
X127861389Y-85009865D01*
X127651167Y-84922789D01*
X127651165Y-84922788D01*
X127646594Y-84920895D01*
X127566391Y-84901640D01*
X127420524Y-84866620D01*
X127420518Y-84866619D01*
X127415711Y-84865465D01*
X127179000Y-84846835D01*
X126942289Y-84865465D01*
X126937482Y-84866619D01*
X126937476Y-84866620D01*
X126791609Y-84901640D01*
X126711406Y-84920895D01*
X126706835Y-84922788D01*
X126706833Y-84922789D01*
X126496611Y-85009865D01*
X126496607Y-85009867D01*
X126492037Y-85011760D01*
X126487817Y-85014346D01*
X126366835Y-85088484D01*
X126298301Y-85107022D01*
X126230625Y-85085566D01*
X126185292Y-85030927D01*
X126175000Y-84981051D01*
X126175000Y-83089836D01*
X126195002Y-83021715D01*
X126248658Y-82975222D01*
X126318932Y-82965118D01*
X126375117Y-82990064D01*
X126375962Y-82988857D01*
X126388643Y-82997736D01*
X126575784Y-83107092D01*
X126585071Y-83111542D01*
X126787562Y-83188866D01*
X126797460Y-83191742D01*
X127009862Y-83234955D01*
X127020091Y-83236174D01*
X127236697Y-83244117D01*
X127246983Y-83243650D01*
X127461979Y-83216108D01*
X127472065Y-83213965D01*
X127679672Y-83151680D01*
X127689267Y-83147919D01*
X127883904Y-83052568D01*
X127892770Y-83047283D01*
X127944737Y-83010215D01*
X127951447Y-83001668D01*
X132902162Y-83001668D01*
X132907443Y-83008722D01*
X133075784Y-83107092D01*
X133085071Y-83111542D01*
X133287562Y-83188866D01*
X133297460Y-83191742D01*
X133509862Y-83234955D01*
X133520091Y-83236174D01*
X133736697Y-83244117D01*
X133746983Y-83243650D01*
X133961979Y-83216108D01*
X133972065Y-83213965D01*
X134179672Y-83151680D01*
X134189267Y-83147919D01*
X134383904Y-83052568D01*
X134392770Y-83047283D01*
X134444737Y-83010215D01*
X134451447Y-83001668D01*
X140880162Y-83001668D01*
X140885443Y-83008722D01*
X141053784Y-83107092D01*
X141063071Y-83111542D01*
X141265562Y-83188866D01*
X141275460Y-83191742D01*
X141487862Y-83234955D01*
X141498091Y-83236174D01*
X141714697Y-83244117D01*
X141724983Y-83243650D01*
X141939979Y-83216108D01*
X141950065Y-83213965D01*
X142157672Y-83151680D01*
X142167267Y-83147919D01*
X142361904Y-83052568D01*
X142370770Y-83047283D01*
X142422737Y-83010215D01*
X142429447Y-83001668D01*
X147380162Y-83001668D01*
X147385443Y-83008722D01*
X147553784Y-83107092D01*
X147563071Y-83111542D01*
X147765562Y-83188866D01*
X147775460Y-83191742D01*
X147987862Y-83234955D01*
X147998091Y-83236174D01*
X148214697Y-83244117D01*
X148224983Y-83243650D01*
X148439979Y-83216108D01*
X148450065Y-83213965D01*
X148657672Y-83151680D01*
X148667267Y-83147919D01*
X148861904Y-83052568D01*
X148870770Y-83047283D01*
X148922737Y-83010215D01*
X148931138Y-82999514D01*
X148924151Y-82986361D01*
X148169812Y-82232022D01*
X148155868Y-82224408D01*
X148154035Y-82224539D01*
X148147420Y-82228790D01*
X147386922Y-82989288D01*
X147380162Y-83001668D01*
X142429447Y-83001668D01*
X142431138Y-82999514D01*
X142424151Y-82986361D01*
X141669812Y-82232022D01*
X141655868Y-82224408D01*
X141654035Y-82224539D01*
X141647420Y-82228790D01*
X140886922Y-82989288D01*
X140880162Y-83001668D01*
X134451447Y-83001668D01*
X134453138Y-82999514D01*
X134446151Y-82986361D01*
X133691812Y-82232022D01*
X133677868Y-82224408D01*
X133676035Y-82224539D01*
X133669420Y-82228790D01*
X132908922Y-82989288D01*
X132902162Y-83001668D01*
X127951447Y-83001668D01*
X127953138Y-82999514D01*
X127946151Y-82986361D01*
X126908885Y-81949095D01*
X126874859Y-81886783D01*
X126876694Y-81861132D01*
X127543408Y-81861132D01*
X127543539Y-81862965D01*
X127547790Y-81869580D01*
X128305955Y-82627745D01*
X128317965Y-82634304D01*
X128329705Y-82625336D01*
X128363787Y-82577904D01*
X128369098Y-82569066D01*
X128465128Y-82374764D01*
X128468926Y-82365171D01*
X128531934Y-82157786D01*
X128534112Y-82147713D01*
X128562642Y-81931011D01*
X128563161Y-81924343D01*
X128564651Y-81863365D01*
X128564457Y-81856646D01*
X128562373Y-81831300D01*
X132293978Y-81831300D01*
X132306455Y-82047688D01*
X132307891Y-82057909D01*
X132355542Y-82269349D01*
X132358622Y-82279177D01*
X132440170Y-82480008D01*
X132444815Y-82489204D01*
X132528732Y-82626145D01*
X132539190Y-82635606D01*
X132547967Y-82631823D01*
X133306978Y-81872812D01*
X133313356Y-81861132D01*
X134043408Y-81861132D01*
X134043539Y-81862965D01*
X134047790Y-81869580D01*
X134805955Y-82627745D01*
X134817965Y-82634304D01*
X134829705Y-82625336D01*
X134863787Y-82577904D01*
X134869098Y-82569066D01*
X134965128Y-82374764D01*
X134968926Y-82365171D01*
X135031934Y-82157786D01*
X135034112Y-82147713D01*
X135062642Y-81931011D01*
X135063161Y-81924343D01*
X135064651Y-81863365D01*
X135064457Y-81856646D01*
X135062373Y-81831300D01*
X140271978Y-81831300D01*
X140284455Y-82047688D01*
X140285891Y-82057909D01*
X140333542Y-82269349D01*
X140336622Y-82279177D01*
X140418170Y-82480008D01*
X140422815Y-82489204D01*
X140506732Y-82626145D01*
X140517190Y-82635606D01*
X140525967Y-82631823D01*
X141284978Y-81872812D01*
X141291356Y-81861132D01*
X142021408Y-81861132D01*
X142021539Y-81862965D01*
X142025790Y-81869580D01*
X142783955Y-82627745D01*
X142795965Y-82634304D01*
X142807705Y-82625336D01*
X142841787Y-82577904D01*
X142847098Y-82569066D01*
X142943128Y-82374764D01*
X142946926Y-82365171D01*
X143009934Y-82157786D01*
X143012112Y-82147713D01*
X143040642Y-81931011D01*
X143041161Y-81924343D01*
X143042651Y-81863365D01*
X143042457Y-81856646D01*
X143040373Y-81831300D01*
X146771978Y-81831300D01*
X146784455Y-82047688D01*
X146785891Y-82057909D01*
X146833542Y-82269349D01*
X146836622Y-82279177D01*
X146918170Y-82480008D01*
X146922815Y-82489204D01*
X147006732Y-82626145D01*
X147017190Y-82635606D01*
X147025967Y-82631823D01*
X147784978Y-81872812D01*
X147792592Y-81858868D01*
X147792461Y-81857035D01*
X147788210Y-81850420D01*
X147030297Y-81092507D01*
X147018761Y-81086207D01*
X147006478Y-81095831D01*
X146955031Y-81171249D01*
X146949933Y-81180223D01*
X146858678Y-81376814D01*
X146855115Y-81386501D01*
X146797194Y-81595357D01*
X146795263Y-81605476D01*
X146772230Y-81821011D01*
X146771978Y-81831300D01*
X143040373Y-81831300D01*
X143024550Y-81638835D01*
X143022865Y-81628655D01*
X142970062Y-81418438D01*
X142966742Y-81408687D01*
X142880311Y-81209908D01*
X142875445Y-81200833D01*
X142806697Y-81094566D01*
X142796011Y-81085362D01*
X142786444Y-81089766D01*
X142029022Y-81847188D01*
X142021408Y-81861132D01*
X141291356Y-81861132D01*
X141292592Y-81858868D01*
X141292461Y-81857035D01*
X141288210Y-81850420D01*
X140530297Y-81092507D01*
X140518761Y-81086207D01*
X140506478Y-81095831D01*
X140455031Y-81171249D01*
X140449933Y-81180223D01*
X140358678Y-81376814D01*
X140355115Y-81386501D01*
X140297194Y-81595357D01*
X140295263Y-81605476D01*
X140272230Y-81821011D01*
X140271978Y-81831300D01*
X135062373Y-81831300D01*
X135046550Y-81638835D01*
X135044865Y-81628655D01*
X134992062Y-81418438D01*
X134988742Y-81408687D01*
X134902311Y-81209908D01*
X134897445Y-81200833D01*
X134828697Y-81094566D01*
X134818011Y-81085362D01*
X134808444Y-81089766D01*
X134051022Y-81847188D01*
X134043408Y-81861132D01*
X133313356Y-81861132D01*
X133314592Y-81858868D01*
X133314461Y-81857035D01*
X133310210Y-81850420D01*
X132552297Y-81092507D01*
X132540761Y-81086207D01*
X132528478Y-81095831D01*
X132477031Y-81171249D01*
X132471933Y-81180223D01*
X132380678Y-81376814D01*
X132377115Y-81386501D01*
X132319194Y-81595357D01*
X132317263Y-81605476D01*
X132294230Y-81821011D01*
X132293978Y-81831300D01*
X128562373Y-81831300D01*
X128546550Y-81638835D01*
X128544865Y-81628655D01*
X128492062Y-81418438D01*
X128488742Y-81408687D01*
X128402311Y-81209908D01*
X128397445Y-81200833D01*
X128328697Y-81094566D01*
X128318011Y-81085362D01*
X128308444Y-81089766D01*
X127551022Y-81847188D01*
X127543408Y-81861132D01*
X126876694Y-81861132D01*
X126879924Y-81815968D01*
X126908885Y-81770905D01*
X127948766Y-80731024D01*
X127954787Y-80719999D01*
X132903794Y-80719999D01*
X132910538Y-80732328D01*
X133666188Y-81487978D01*
X133680132Y-81495592D01*
X133681965Y-81495461D01*
X133688580Y-81491210D01*
X134448766Y-80731024D01*
X134454787Y-80719999D01*
X140881794Y-80719999D01*
X140888538Y-80732328D01*
X141644188Y-81487978D01*
X141658132Y-81495592D01*
X141659965Y-81495461D01*
X141666580Y-81491210D01*
X142426766Y-80731024D01*
X142433786Y-80718169D01*
X142426348Y-80707960D01*
X142419324Y-80703294D01*
X142229578Y-80598548D01*
X142220166Y-80594318D01*
X142015855Y-80521967D01*
X142005884Y-80519333D01*
X141792498Y-80481323D01*
X141782246Y-80480354D01*
X141565507Y-80477706D01*
X141555220Y-80478426D01*
X141340979Y-80511209D01*
X141330939Y-80513600D01*
X141124920Y-80580938D01*
X141115418Y-80584933D01*
X140923168Y-80685012D01*
X140914436Y-80690510D01*
X140890249Y-80708671D01*
X140881794Y-80719999D01*
X134454787Y-80719999D01*
X134455786Y-80718169D01*
X134448348Y-80707960D01*
X134441324Y-80703294D01*
X134251578Y-80598548D01*
X134242166Y-80594318D01*
X134037855Y-80521967D01*
X134027884Y-80519333D01*
X133814498Y-80481323D01*
X133804246Y-80480354D01*
X133587507Y-80477706D01*
X133577220Y-80478426D01*
X133362979Y-80511209D01*
X133352939Y-80513600D01*
X133146920Y-80580938D01*
X133137418Y-80584933D01*
X132945168Y-80685012D01*
X132936436Y-80690510D01*
X132912249Y-80708671D01*
X132903794Y-80719999D01*
X127954787Y-80719999D01*
X127955786Y-80718169D01*
X127948348Y-80707960D01*
X127941324Y-80703294D01*
X127751578Y-80598548D01*
X127742166Y-80594318D01*
X127537855Y-80521967D01*
X127527884Y-80519333D01*
X127314498Y-80481323D01*
X127304246Y-80480354D01*
X127087507Y-80477706D01*
X127077220Y-80478426D01*
X126862979Y-80511209D01*
X126852939Y-80513600D01*
X126646920Y-80580938D01*
X126637418Y-80584933D01*
X126445165Y-80685013D01*
X126436440Y-80690507D01*
X126376653Y-80735397D01*
X126310169Y-80760303D01*
X126240773Y-80745311D01*
X126190499Y-80695181D01*
X126175000Y-80634637D01*
X126175000Y-80605725D01*
X126195002Y-80537604D01*
X126211905Y-80516630D01*
X128245057Y-78483478D01*
X128307369Y-78449452D01*
X128378184Y-78454517D01*
X128400265Y-78465311D01*
X128466583Y-78506191D01*
X128503090Y-78528694D01*
X128510262Y-78533115D01*
X128590005Y-78559564D01*
X128671611Y-78586632D01*
X128671613Y-78586632D01*
X128678139Y-78588797D01*
X128684975Y-78589497D01*
X128684978Y-78589498D01*
X128728031Y-78593909D01*
X128782600Y-78599500D01*
X129508400Y-78599500D01*
X129511646Y-78599163D01*
X129511650Y-78599163D01*
X129607308Y-78589238D01*
X129607312Y-78589237D01*
X129614166Y-78588526D01*
X129620702Y-78586345D01*
X129620704Y-78586345D01*
X129752806Y-78542272D01*
X129781946Y-78532550D01*
X129932348Y-78439478D01*
X130057305Y-78314303D01*
X130150115Y-78163738D01*
X130205797Y-77995861D01*
X130216500Y-77891400D01*
X130216500Y-76540600D01*
X130205526Y-76434834D01*
X130149550Y-76267054D01*
X130056478Y-76116652D01*
X129995391Y-76055671D01*
X129961312Y-75993388D01*
X129966315Y-75922568D01*
X130008812Y-75865695D01*
X130049257Y-75845501D01*
X130104725Y-75829386D01*
X130119164Y-75823138D01*
X130241380Y-75750860D01*
X130253818Y-75741211D01*
X130354211Y-75640818D01*
X130363858Y-75628382D01*
X130373096Y-75612761D01*
X130424989Y-75564308D01*
X130494839Y-75551603D01*
X130560471Y-75578678D01*
X130588694Y-75610596D01*
X130656203Y-75719689D01*
X130661385Y-75724862D01*
X130687428Y-75750860D01*
X130780347Y-75843617D01*
X130929671Y-75935661D01*
X130936619Y-75937965D01*
X130936622Y-75937967D01*
X131061819Y-75979493D01*
X131120179Y-76019924D01*
X131147416Y-76085488D01*
X131134883Y-76155369D01*
X131129412Y-76165202D01*
X131065885Y-76268262D01*
X131010203Y-76436139D01*
X130999500Y-76540600D01*
X130999500Y-77891400D01*
X131010474Y-77997166D01*
X131066450Y-78164946D01*
X131159522Y-78315348D01*
X131284697Y-78440305D01*
X131290927Y-78444145D01*
X131290928Y-78444146D01*
X131428090Y-78528694D01*
X131435262Y-78533115D01*
X131515005Y-78559564D01*
X131596611Y-78586632D01*
X131596613Y-78586632D01*
X131603139Y-78588797D01*
X131609975Y-78589497D01*
X131609978Y-78589498D01*
X131653031Y-78593909D01*
X131707600Y-78599500D01*
X132433400Y-78599500D01*
X132436646Y-78599163D01*
X132436650Y-78599163D01*
X132532308Y-78589238D01*
X132532312Y-78589237D01*
X132539166Y-78588526D01*
X132545702Y-78586345D01*
X132545704Y-78586345D01*
X132677806Y-78542272D01*
X132706946Y-78532550D01*
X132857348Y-78439478D01*
X132982305Y-78314303D01*
X133075115Y-78163738D01*
X133130797Y-77995861D01*
X133141500Y-77891400D01*
X133141500Y-76540600D01*
X133130526Y-76434834D01*
X133074550Y-76267054D01*
X132981478Y-76116652D01*
X132856303Y-75991695D01*
X132829384Y-75975102D01*
X132781891Y-75922330D01*
X132769500Y-75867842D01*
X132769500Y-75398589D01*
X132769792Y-75390019D01*
X132773153Y-75340724D01*
X132773153Y-75340720D01*
X132773669Y-75333148D01*
X132762837Y-75271085D01*
X132761875Y-75264564D01*
X132755222Y-75209582D01*
X132755221Y-75209579D01*
X132754309Y-75202040D01*
X132751623Y-75194931D01*
X132750777Y-75191488D01*
X132746914Y-75177363D01*
X132745886Y-75173958D01*
X132744581Y-75166482D01*
X132719265Y-75108810D01*
X132716777Y-75102715D01*
X132697190Y-75050880D01*
X132697189Y-75050878D01*
X132694506Y-75043778D01*
X132690209Y-75037526D01*
X132688566Y-75034383D01*
X132681471Y-75021635D01*
X132679630Y-75018523D01*
X132676577Y-75011567D01*
X132638232Y-74961593D01*
X132634361Y-74956266D01*
X132602981Y-74910607D01*
X132602980Y-74910605D01*
X132598679Y-74904348D01*
X132552820Y-74863489D01*
X132547545Y-74858509D01*
X132526405Y-74837369D01*
X132492379Y-74775057D01*
X132489500Y-74748274D01*
X132489499Y-74290037D01*
X132489499Y-74286770D01*
X132478616Y-74181871D01*
X132476437Y-74175340D01*
X132476436Y-74175335D01*
X132425420Y-74022422D01*
X132423102Y-74015474D01*
X132330797Y-73866311D01*
X132309238Y-73844789D01*
X132211833Y-73747554D01*
X132206653Y-73742383D01*
X132179342Y-73725548D01*
X132157362Y-73712000D01*
X132057329Y-73650339D01*
X132050380Y-73648034D01*
X131897366Y-73597281D01*
X131897364Y-73597281D01*
X131890835Y-73595115D01*
X131787231Y-73584500D01*
X131495766Y-73584500D01*
X131199770Y-73584501D01*
X131094871Y-73595384D01*
X131088340Y-73597563D01*
X131088335Y-73597564D01*
X130943569Y-73645862D01*
X130928474Y-73650898D01*
X130779311Y-73743203D01*
X130655383Y-73867347D01*
X130651543Y-73873577D01*
X130651542Y-73873578D01*
X130588850Y-73975284D01*
X130536078Y-74022777D01*
X130466006Y-74034201D01*
X130400883Y-74005927D01*
X130373136Y-73973306D01*
X130363860Y-73957621D01*
X130354211Y-73945182D01*
X130253818Y-73844789D01*
X130241380Y-73835140D01*
X130119164Y-73762862D01*
X130104727Y-73756614D01*
X129966936Y-73716583D01*
X129954349Y-73714283D01*
X129927791Y-73712193D01*
X129922865Y-73712000D01*
X129890615Y-73712000D01*
X129875376Y-73716475D01*
X129874171Y-73717865D01*
X129872500Y-73725548D01*
X129872500Y-74921000D01*
X129852498Y-74989121D01*
X129798842Y-75035614D01*
X129746500Y-75047000D01*
X128768116Y-75047000D01*
X128752877Y-75051475D01*
X128751672Y-75052865D01*
X128750001Y-75060548D01*
X128750001Y-75309862D01*
X128750195Y-75314797D01*
X128752283Y-75341341D01*
X128754584Y-75353942D01*
X128794614Y-75491727D01*
X128800862Y-75506164D01*
X128873141Y-75628380D01*
X128874152Y-75629684D01*
X128874627Y-75630893D01*
X128877178Y-75635207D01*
X128876482Y-75635618D01*
X128900101Y-75695769D01*
X128886203Y-75765392D01*
X128836870Y-75816448D01*
X128782581Y-75832316D01*
X128782600Y-75832500D01*
X128781596Y-75832604D01*
X128781595Y-75832604D01*
X128730625Y-75837893D01*
X128683692Y-75842762D01*
X128683688Y-75842763D01*
X128676834Y-75843474D01*
X128670298Y-75845655D01*
X128670296Y-75845655D01*
X128553867Y-75884499D01*
X128509054Y-75899450D01*
X128358652Y-75992522D01*
X128233695Y-76117697D01*
X128229855Y-76123927D01*
X128229854Y-76123928D01*
X128210474Y-76155369D01*
X128140885Y-76268262D01*
X128085203Y-76436139D01*
X128074500Y-76540600D01*
X128074500Y-76621704D01*
X128054498Y-76689825D01*
X128042582Y-76705516D01*
X128017465Y-76733708D01*
X128012501Y-76738964D01*
X125001962Y-79749503D01*
X124995697Y-79755356D01*
X124952726Y-79792842D01*
X124948359Y-79799056D01*
X124916506Y-79844378D01*
X124912573Y-79849674D01*
X124878394Y-79893263D01*
X124878392Y-79893266D01*
X124873708Y-79899240D01*
X124870582Y-79906164D01*
X124868744Y-79909199D01*
X124861500Y-79921898D01*
X124859812Y-79925046D01*
X124855444Y-79931261D01*
X124852684Y-79938340D01*
X124832567Y-79989939D01*
X124830022Y-79995995D01*
X124804087Y-80053435D01*
X124802702Y-80060908D01*
X124801631Y-80064326D01*
X124797646Y-80078315D01*
X124796749Y-80081807D01*
X124793988Y-80088889D01*
X124792996Y-80096422D01*
X124792996Y-80096423D01*
X124785767Y-80151330D01*
X124784735Y-80157843D01*
X124774639Y-80212318D01*
X124773255Y-80219787D01*
X124773692Y-80227367D01*
X124773692Y-80227368D01*
X124776791Y-80281112D01*
X124777000Y-80288365D01*
X124777000Y-102079401D01*
X124776708Y-102087971D01*
X124773385Y-102136713D01*
X124772830Y-102144852D01*
X124774135Y-102152328D01*
X124774135Y-102152332D01*
X124783663Y-102206924D01*
X124784626Y-102213449D01*
X124792191Y-102275960D01*
X124794875Y-102283062D01*
X124795719Y-102286500D01*
X124799583Y-102300623D01*
X124800613Y-102304034D01*
X124801919Y-102311517D01*
X124804972Y-102318472D01*
X124827239Y-102369198D01*
X124829730Y-102375304D01*
X124847747Y-102422982D01*
X124851994Y-102434222D01*
X124856293Y-102440477D01*
X124857935Y-102443618D01*
X124865033Y-102456372D01*
X124866870Y-102459478D01*
X124869923Y-102466433D01*
X124874548Y-102472460D01*
X124874550Y-102472464D01*
X124908265Y-102516402D01*
X124912129Y-102521720D01*
X124947821Y-102573652D01*
X124953491Y-102578704D01*
X124953492Y-102578705D01*
X124993688Y-102614518D01*
X124998964Y-102619499D01*
X127587757Y-105208292D01*
X127621783Y-105270604D01*
X127623972Y-105284215D01*
X127630458Y-105345928D01*
X127689473Y-105527556D01*
X127784960Y-105692944D01*
X127789378Y-105697851D01*
X127789379Y-105697852D01*
X127861000Y-105777395D01*
X127912747Y-105834866D01*
X128067248Y-105947118D01*
X128073276Y-105949802D01*
X128073278Y-105949803D01*
X128224952Y-106017332D01*
X128241712Y-106024794D01*
X128335113Y-106044647D01*
X128422056Y-106063128D01*
X128422061Y-106063128D01*
X128428513Y-106064500D01*
X128619487Y-106064500D01*
X128625939Y-106063128D01*
X128625944Y-106063128D01*
X128712887Y-106044647D01*
X128806288Y-106024794D01*
X128823048Y-106017332D01*
X128974722Y-105949803D01*
X128974724Y-105949802D01*
X128980752Y-105947118D01*
X129067679Y-105883962D01*
X129111373Y-105852216D01*
X129178241Y-105828358D01*
X129247392Y-105844438D01*
X129280186Y-105873501D01*
X129281227Y-105872581D01*
X129288667Y-105881005D01*
X129288638Y-105881031D01*
X129291238Y-105883962D01*
X129294042Y-105887316D01*
X129298054Y-105893435D01*
X129303366Y-105898467D01*
X129354586Y-105946988D01*
X129357028Y-105949366D01*
X129424994Y-106017332D01*
X129459020Y-106079644D01*
X129453881Y-106150657D01*
X129424255Y-106229684D01*
X129417500Y-106291866D01*
X129417500Y-108388134D01*
X129424255Y-108450316D01*
X129475385Y-108586705D01*
X129562739Y-108703261D01*
X129679295Y-108790615D01*
X129815684Y-108841745D01*
X129877866Y-108848500D01*
X130937500Y-108848500D01*
X131005621Y-108868502D01*
X131052114Y-108922158D01*
X131063500Y-108974500D01*
X131063500Y-111224046D01*
X131063258Y-111231847D01*
X131059432Y-111293516D01*
X131060672Y-111300732D01*
X131061680Y-111306597D01*
X131063500Y-111327936D01*
X131063500Y-112016458D01*
X131043498Y-112084579D01*
X130989842Y-112131072D01*
X130970435Y-112137739D01*
X130965684Y-112138255D01*
X130958289Y-112141027D01*
X130958286Y-112141028D01*
X130843978Y-112183880D01*
X130829295Y-112189385D01*
X130712739Y-112276739D01*
X130707358Y-112283919D01*
X130707357Y-112283920D01*
X130687686Y-112310167D01*
X130630827Y-112352682D01*
X130560008Y-112357708D01*
X130513691Y-112337181D01*
X130490947Y-112320958D01*
X130395140Y-112274127D01*
X130376672Y-112268419D01*
X130316636Y-112259660D01*
X130307537Y-112259000D01*
X129798115Y-112259000D01*
X129782876Y-112263475D01*
X129781671Y-112264865D01*
X129780000Y-112272548D01*
X129780000Y-115002885D01*
X129784475Y-115018124D01*
X129785865Y-115019329D01*
X129793548Y-115021000D01*
X130307504Y-115021000D01*
X130316664Y-115020330D01*
X130377313Y-115011402D01*
X130395787Y-115005661D01*
X130491507Y-114958665D01*
X130513495Y-114942923D01*
X130580528Y-114919532D01*
X130649566Y-114936096D01*
X130687668Y-114969809D01*
X130702325Y-114989365D01*
X130712739Y-115003261D01*
X130829295Y-115090615D01*
X130965684Y-115141745D01*
X131027866Y-115148500D01*
X132624134Y-115148500D01*
X132686316Y-115141745D01*
X132822705Y-115090615D01*
X132844497Y-115074283D01*
X132900435Y-115032360D01*
X132966942Y-115007512D01*
X133036324Y-115022565D01*
X133051565Y-115032360D01*
X133122113Y-115085233D01*
X133122116Y-115085235D01*
X133129295Y-115090615D01*
X133154730Y-115100150D01*
X133211495Y-115142792D01*
X133236194Y-115209354D01*
X133236500Y-115218132D01*
X133236500Y-115630239D01*
X133216498Y-115698360D01*
X133162842Y-115744853D01*
X133092568Y-115754957D01*
X133070835Y-115749833D01*
X133053861Y-115744203D01*
X133047025Y-115743503D01*
X133047022Y-115743502D01*
X133003969Y-115739091D01*
X132949400Y-115733500D01*
X132348600Y-115733500D01*
X132345354Y-115733837D01*
X132345350Y-115733837D01*
X132249692Y-115743762D01*
X132249688Y-115743763D01*
X132242834Y-115744474D01*
X132236298Y-115746655D01*
X132236296Y-115746655D01*
X132114439Y-115787310D01*
X132075054Y-115800450D01*
X131924652Y-115893522D01*
X131799695Y-116018697D01*
X131795855Y-116024927D01*
X131795854Y-116024928D01*
X131731831Y-116128792D01*
X131679058Y-116176286D01*
X131608987Y-116187709D01*
X131543863Y-116159435D01*
X131516117Y-116126814D01*
X131505588Y-116109009D01*
X131495939Y-116096571D01*
X131394429Y-115995061D01*
X131381991Y-115985412D01*
X131258416Y-115912330D01*
X131243979Y-115906082D01*
X131104680Y-115865612D01*
X131092076Y-115863310D01*
X131065184Y-115861193D01*
X131060254Y-115861000D01*
X131021115Y-115861000D01*
X131005876Y-115865475D01*
X131004671Y-115866865D01*
X131003000Y-115874548D01*
X131003000Y-118054884D01*
X131007475Y-118070123D01*
X131008865Y-118071328D01*
X131016548Y-118072999D01*
X131060252Y-118072999D01*
X131065188Y-118072805D01*
X131092077Y-118070690D01*
X131104678Y-118068389D01*
X131243979Y-118027918D01*
X131258416Y-118021670D01*
X131381991Y-117948588D01*
X131394429Y-117938939D01*
X131495939Y-117837429D01*
X131505586Y-117824993D01*
X131516076Y-117807255D01*
X131567969Y-117758802D01*
X131637819Y-117746097D01*
X131703451Y-117773172D01*
X131731673Y-117805090D01*
X131800522Y-117916348D01*
X131925697Y-118041305D01*
X131931927Y-118045145D01*
X131931928Y-118045146D01*
X132035637Y-118109073D01*
X132076262Y-118134115D01*
X132156005Y-118160564D01*
X132237611Y-118187632D01*
X132237613Y-118187632D01*
X132244139Y-118189797D01*
X132250975Y-118190497D01*
X132250978Y-118190498D01*
X132294031Y-118194909D01*
X132348600Y-118200500D01*
X132949400Y-118200500D01*
X132952646Y-118200163D01*
X132952650Y-118200163D01*
X133048308Y-118190238D01*
X133048312Y-118190237D01*
X133055166Y-118189526D01*
X133096622Y-118175695D01*
X133167572Y-118173109D01*
X133228656Y-118209292D01*
X133260482Y-118272756D01*
X133262500Y-118295218D01*
X133262500Y-118651770D01*
X133242498Y-118719891D01*
X133188842Y-118766384D01*
X133166022Y-118774263D01*
X133152523Y-118777516D01*
X133152520Y-118777517D01*
X133146910Y-118778869D01*
X133141639Y-118781221D01*
X133141637Y-118781222D01*
X133130570Y-118786161D01*
X132954994Y-118864517D01*
X132950240Y-118867790D01*
X132950239Y-118867791D01*
X132825021Y-118954012D01*
X132781899Y-118983704D01*
X132633422Y-119132440D01*
X132514537Y-119305742D01*
X132429225Y-119497808D01*
X132380342Y-119702205D01*
X132379975Y-119707327D01*
X132373665Y-119795360D01*
X132373500Y-119797656D01*
X132373500Y-120351275D01*
X132353498Y-120419396D01*
X132299842Y-120465889D01*
X132229568Y-120475993D01*
X132164988Y-120446499D01*
X132158405Y-120440370D01*
X129221287Y-117503252D01*
X129868001Y-117503252D01*
X129868195Y-117508188D01*
X129870310Y-117535077D01*
X129872611Y-117547678D01*
X129913082Y-117686979D01*
X129919330Y-117701416D01*
X129992412Y-117824991D01*
X130002061Y-117837429D01*
X130103571Y-117938939D01*
X130116009Y-117948588D01*
X130239584Y-118021670D01*
X130254021Y-118027918D01*
X130393320Y-118068388D01*
X130405924Y-118070690D01*
X130432816Y-118072807D01*
X130437746Y-118073000D01*
X130476885Y-118073000D01*
X130492124Y-118068525D01*
X130493329Y-118067135D01*
X130495000Y-118059452D01*
X130495000Y-117239115D01*
X130490525Y-117223876D01*
X130489135Y-117222671D01*
X130481452Y-117221000D01*
X129886116Y-117221000D01*
X129870877Y-117225475D01*
X129869672Y-117226865D01*
X129868001Y-117234548D01*
X129868001Y-117503252D01*
X129221287Y-117503252D01*
X128412920Y-116694885D01*
X129868000Y-116694885D01*
X129872475Y-116710124D01*
X129873865Y-116711329D01*
X129881548Y-116713000D01*
X130476885Y-116713000D01*
X130492124Y-116708525D01*
X130493329Y-116707135D01*
X130495000Y-116699452D01*
X130495000Y-115879116D01*
X130490525Y-115863877D01*
X130489135Y-115862672D01*
X130481452Y-115861001D01*
X130437749Y-115861001D01*
X130432812Y-115861195D01*
X130405923Y-115863310D01*
X130393322Y-115865611D01*
X130254021Y-115906082D01*
X130239584Y-115912330D01*
X130116009Y-115985412D01*
X130103571Y-115995061D01*
X130002061Y-116096571D01*
X129992412Y-116109009D01*
X129919330Y-116232584D01*
X129913082Y-116247021D01*
X129872612Y-116386320D01*
X129870310Y-116398924D01*
X129868193Y-116425816D01*
X129868000Y-116430746D01*
X129868000Y-116694885D01*
X128412920Y-116694885D01*
X127404405Y-115686370D01*
X127370379Y-115624058D01*
X127367500Y-115597275D01*
X127367500Y-114891600D01*
X127366992Y-114886705D01*
X127357238Y-114792692D01*
X127357237Y-114792688D01*
X127356526Y-114785834D01*
X127351000Y-114769269D01*
X127318383Y-114671504D01*
X128395000Y-114671504D01*
X128395670Y-114680664D01*
X128404598Y-114741313D01*
X128410339Y-114759787D01*
X128457335Y-114855507D01*
X128469295Y-114872212D01*
X128544322Y-114947109D01*
X128561050Y-114959041D01*
X128656860Y-115005873D01*
X128675328Y-115011581D01*
X128735364Y-115020340D01*
X128744463Y-115021000D01*
X129253885Y-115021000D01*
X129269124Y-115016525D01*
X129270329Y-115015135D01*
X129272000Y-115007452D01*
X129272000Y-113912115D01*
X129267525Y-113896876D01*
X129266135Y-113895671D01*
X129258452Y-113894000D01*
X128413115Y-113894000D01*
X128397876Y-113898475D01*
X128396671Y-113899865D01*
X128395000Y-113907548D01*
X128395000Y-114671504D01*
X127318383Y-114671504D01*
X127302868Y-114625002D01*
X127300550Y-114618054D01*
X127207478Y-114467652D01*
X127082303Y-114342695D01*
X127076072Y-114338854D01*
X126937968Y-114253725D01*
X126937966Y-114253724D01*
X126931738Y-114249885D01*
X126771254Y-114196655D01*
X126770389Y-114196368D01*
X126770387Y-114196368D01*
X126763861Y-114194203D01*
X126757025Y-114193503D01*
X126757022Y-114193502D01*
X126713969Y-114189091D01*
X126659400Y-114183500D01*
X125308600Y-114183500D01*
X125305354Y-114183837D01*
X125305350Y-114183837D01*
X125209692Y-114193762D01*
X125209688Y-114193763D01*
X125202834Y-114194474D01*
X125196298Y-114196655D01*
X125196296Y-114196655D01*
X125099839Y-114228836D01*
X125035054Y-114250450D01*
X124884652Y-114343522D01*
X124759695Y-114468697D01*
X124755854Y-114474928D01*
X124751317Y-114480673D01*
X124749686Y-114479385D01*
X124704603Y-114519965D01*
X124634532Y-114531394D01*
X124569406Y-114503125D01*
X124529902Y-114444134D01*
X124524494Y-114416244D01*
X124522717Y-114393658D01*
X124520416Y-114381058D01*
X124480386Y-114243273D01*
X124474138Y-114228836D01*
X124401860Y-114106620D01*
X124392211Y-114094182D01*
X124291818Y-113993789D01*
X124279382Y-113984142D01*
X124263761Y-113974904D01*
X124215308Y-113923011D01*
X124202603Y-113853161D01*
X124229678Y-113787529D01*
X124261596Y-113759306D01*
X124270155Y-113754009D01*
X124370689Y-113691797D01*
X124494617Y-113567653D01*
X124586661Y-113418329D01*
X124592684Y-113400172D01*
X124640929Y-113254717D01*
X124681360Y-113196357D01*
X124746924Y-113169120D01*
X124816805Y-113181653D01*
X124849540Y-113205211D01*
X124885697Y-113241305D01*
X124891927Y-113245145D01*
X124891928Y-113245146D01*
X125029090Y-113329694D01*
X125036262Y-113334115D01*
X125116005Y-113360564D01*
X125197611Y-113387632D01*
X125197613Y-113387632D01*
X125204139Y-113389797D01*
X125210975Y-113390497D01*
X125210978Y-113390498D01*
X125254031Y-113394909D01*
X125308600Y-113400500D01*
X126659400Y-113400500D01*
X126662646Y-113400163D01*
X126662650Y-113400163D01*
X126758308Y-113390238D01*
X126758312Y-113390237D01*
X126765166Y-113389526D01*
X126771702Y-113387345D01*
X126771704Y-113387345D01*
X126830032Y-113367885D01*
X128395000Y-113367885D01*
X128399475Y-113383124D01*
X128400865Y-113384329D01*
X128408548Y-113386000D01*
X129253885Y-113386000D01*
X129269124Y-113381525D01*
X129270329Y-113380135D01*
X129272000Y-113372452D01*
X129272000Y-112277115D01*
X129267525Y-112261876D01*
X129266135Y-112260671D01*
X129258452Y-112259000D01*
X128744496Y-112259000D01*
X128735336Y-112259670D01*
X128674687Y-112268598D01*
X128656213Y-112274339D01*
X128560493Y-112321335D01*
X128543788Y-112333295D01*
X128468891Y-112408322D01*
X128456959Y-112425050D01*
X128410127Y-112520860D01*
X128404419Y-112539328D01*
X128395660Y-112599364D01*
X128395000Y-112608463D01*
X128395000Y-113367885D01*
X126830032Y-113367885D01*
X126903806Y-113343272D01*
X126932946Y-113333550D01*
X127083348Y-113240478D01*
X127208305Y-113115303D01*
X127225356Y-113087642D01*
X127297275Y-112970968D01*
X127297276Y-112970966D01*
X127301115Y-112964738D01*
X127356797Y-112796861D01*
X127367500Y-112692400D01*
X127367500Y-111966600D01*
X127359783Y-111892224D01*
X127357238Y-111867692D01*
X127357237Y-111867688D01*
X127356526Y-111860834D01*
X127354205Y-111853875D01*
X127304700Y-111705494D01*
X127300550Y-111693054D01*
X127207478Y-111542652D01*
X127082303Y-111417695D01*
X127076072Y-111413854D01*
X126937968Y-111328725D01*
X126937966Y-111328724D01*
X126931738Y-111324885D01*
X126771254Y-111271655D01*
X126770389Y-111271368D01*
X126770387Y-111271368D01*
X126763861Y-111269203D01*
X126757025Y-111268503D01*
X126757022Y-111268502D01*
X126713969Y-111264091D01*
X126659400Y-111258500D01*
X125308600Y-111258500D01*
X125305354Y-111258837D01*
X125305350Y-111258837D01*
X125209692Y-111268762D01*
X125209688Y-111268763D01*
X125202834Y-111269474D01*
X125196298Y-111271655D01*
X125196296Y-111271655D01*
X125091563Y-111306597D01*
X125035054Y-111325450D01*
X124884652Y-111418522D01*
X124759695Y-111543697D01*
X124755855Y-111549927D01*
X124755854Y-111549928D01*
X124743102Y-111570616D01*
X124690330Y-111618109D01*
X124635842Y-111630500D01*
X123997599Y-111630500D01*
X123989029Y-111630208D01*
X123939723Y-111626846D01*
X123939719Y-111626846D01*
X123932148Y-111626330D01*
X123924672Y-111627635D01*
X123924668Y-111627635D01*
X123870076Y-111637163D01*
X123863551Y-111638126D01*
X123808582Y-111644778D01*
X123808580Y-111644779D01*
X123801040Y-111645691D01*
X123793938Y-111648375D01*
X123790500Y-111649219D01*
X123776377Y-111653083D01*
X123772966Y-111654113D01*
X123765483Y-111655419D01*
X123758528Y-111658472D01*
X123707802Y-111680739D01*
X123701696Y-111683230D01*
X123657312Y-111700002D01*
X123642778Y-111705494D01*
X123636523Y-111709793D01*
X123633382Y-111711435D01*
X123620628Y-111718533D01*
X123617522Y-111720370D01*
X123610567Y-111723423D01*
X123604540Y-111728048D01*
X123604536Y-111728050D01*
X123560598Y-111761765D01*
X123555280Y-111765629D01*
X123503348Y-111801321D01*
X123489984Y-111816321D01*
X123429734Y-111853875D01*
X123395909Y-111858500D01*
X122966300Y-111858501D01*
X122937770Y-111858501D01*
X122832871Y-111869384D01*
X122826340Y-111871563D01*
X122826335Y-111871564D01*
X122678189Y-111920990D01*
X122666474Y-111924898D01*
X122517311Y-112017203D01*
X122512138Y-112022385D01*
X122450052Y-112084579D01*
X122393383Y-112141347D01*
X122301339Y-112290671D01*
X122299034Y-112297619D01*
X122299034Y-112297620D01*
X122262316Y-112408322D01*
X122246115Y-112457165D01*
X122235500Y-112560769D01*
X122235501Y-113148230D01*
X122246384Y-113253129D01*
X122248563Y-113259660D01*
X122248564Y-113259665D01*
X122284669Y-113367885D01*
X122301898Y-113419526D01*
X122394203Y-113568689D01*
X122518347Y-113692617D01*
X122524577Y-113696457D01*
X122524578Y-113696458D01*
X122626284Y-113759150D01*
X122673777Y-113811922D01*
X122685201Y-113881994D01*
X122656927Y-113947117D01*
X122624306Y-113974864D01*
X122608621Y-113984140D01*
X122596182Y-113993789D01*
X122495789Y-114094182D01*
X122486140Y-114106620D01*
X122413862Y-114228836D01*
X122407614Y-114243273D01*
X122367583Y-114381064D01*
X122365283Y-114393651D01*
X122363193Y-114420209D01*
X122363000Y-114425135D01*
X122363000Y-114457385D01*
X122367475Y-114472624D01*
X122368865Y-114473829D01*
X122376548Y-114475500D01*
X123572000Y-114475500D01*
X123640121Y-114495502D01*
X123686614Y-114549158D01*
X123698000Y-114601500D01*
X123698000Y-115579884D01*
X123702475Y-115595123D01*
X123703865Y-115596328D01*
X123711548Y-115597999D01*
X123960862Y-115597999D01*
X123965797Y-115597805D01*
X123992341Y-115595717D01*
X124004942Y-115593416D01*
X124142727Y-115553386D01*
X124157164Y-115547138D01*
X124279380Y-115474860D01*
X124291818Y-115465211D01*
X124385405Y-115371624D01*
X124447717Y-115337598D01*
X124518532Y-115342663D01*
X124575368Y-115385210D01*
X124600179Y-115451730D01*
X124600500Y-115460719D01*
X124600500Y-115617400D01*
X124611474Y-115723166D01*
X124613655Y-115729702D01*
X124613655Y-115729704D01*
X124657459Y-115861000D01*
X124667450Y-115890946D01*
X124760522Y-116041348D01*
X124885697Y-116166305D01*
X124891927Y-116170145D01*
X124891928Y-116170146D01*
X125029851Y-116255163D01*
X125036262Y-116259115D01*
X125077796Y-116272891D01*
X125197611Y-116312632D01*
X125197613Y-116312632D01*
X125204139Y-116314797D01*
X125210975Y-116315497D01*
X125210978Y-116315498D01*
X125254031Y-116319909D01*
X125308600Y-116325500D01*
X126014275Y-116325500D01*
X126082396Y-116345502D01*
X126103370Y-116362405D01*
X129044958Y-119303994D01*
X131986010Y-122245046D01*
X131991863Y-122251311D01*
X132029342Y-122294274D01*
X132080883Y-122330498D01*
X132086168Y-122334423D01*
X132135740Y-122373292D01*
X132142658Y-122376416D01*
X132145679Y-122378245D01*
X132158398Y-122385500D01*
X132161546Y-122387188D01*
X132167761Y-122391556D01*
X132226450Y-122414438D01*
X132232495Y-122416978D01*
X132289935Y-122442913D01*
X132289936Y-122442913D01*
X132289681Y-122443477D01*
X132344198Y-122479919D01*
X132372521Y-122545021D01*
X132373500Y-122560700D01*
X132373500Y-123744344D01*
X132380630Y-123841779D01*
X132381837Y-123846786D01*
X132381838Y-123846791D01*
X132381884Y-123846984D01*
X132381880Y-123847064D01*
X132382631Y-123851877D01*
X132381636Y-123852032D01*
X132378396Y-123917895D01*
X132337125Y-123975663D01*
X132271173Y-124001948D01*
X132259390Y-124002500D01*
X128502633Y-124002500D01*
X128434512Y-123982498D01*
X128413538Y-123965595D01*
X127797536Y-123349593D01*
X127763510Y-123287281D01*
X127768575Y-123216466D01*
X127811122Y-123159630D01*
X127864745Y-123136413D01*
X127869888Y-123135506D01*
X128067325Y-123082603D01*
X128077617Y-123078857D01*
X128262870Y-122992472D01*
X128272356Y-122986994D01*
X128439782Y-122869762D01*
X128448189Y-122862708D01*
X128592708Y-122718189D01*
X128599762Y-122709782D01*
X128716994Y-122542356D01*
X128722472Y-122532870D01*
X128808857Y-122347617D01*
X128812603Y-122337325D01*
X128851678Y-122191497D01*
X128851342Y-122177401D01*
X128843400Y-122174000D01*
X127522000Y-122174000D01*
X127453879Y-122153998D01*
X127407386Y-122100342D01*
X127396000Y-122048000D01*
X127396000Y-121647885D01*
X127904000Y-121647885D01*
X127908475Y-121663124D01*
X127909865Y-121664329D01*
X127917548Y-121666000D01*
X128838251Y-121666000D01*
X128851782Y-121662027D01*
X128853011Y-121653478D01*
X128812603Y-121502675D01*
X128808857Y-121492383D01*
X128722472Y-121307130D01*
X128716994Y-121297644D01*
X128599762Y-121130218D01*
X128592708Y-121121811D01*
X128448189Y-120977292D01*
X128439782Y-120970238D01*
X128272356Y-120853006D01*
X128262870Y-120847528D01*
X128077617Y-120761143D01*
X128067325Y-120757397D01*
X127921497Y-120718322D01*
X127907401Y-120718658D01*
X127904000Y-120726600D01*
X127904000Y-121647885D01*
X127396000Y-121647885D01*
X127396000Y-120731749D01*
X127392027Y-120718218D01*
X127383478Y-120716989D01*
X127232675Y-120757397D01*
X127222383Y-120761143D01*
X127037130Y-120847528D01*
X127027644Y-120853006D01*
X126860218Y-120970238D01*
X126851811Y-120977292D01*
X126707292Y-121121811D01*
X126700238Y-121130218D01*
X126583006Y-121297644D01*
X126577528Y-121307131D01*
X126565039Y-121333912D01*
X126518121Y-121387196D01*
X126449843Y-121406656D01*
X126381884Y-121386113D01*
X126335297Y-121330904D01*
X126311354Y-121275840D01*
X126211708Y-121121811D01*
X126192822Y-121092617D01*
X126192820Y-121092614D01*
X126190014Y-121088277D01*
X126039670Y-120923051D01*
X126035619Y-120919852D01*
X126035615Y-120919848D01*
X125868414Y-120787800D01*
X125868410Y-120787798D01*
X125864359Y-120784598D01*
X125668789Y-120676638D01*
X125663920Y-120674914D01*
X125663916Y-120674912D01*
X125463087Y-120603795D01*
X125463083Y-120603794D01*
X125458212Y-120602069D01*
X125453119Y-120601162D01*
X125453116Y-120601161D01*
X125243373Y-120563800D01*
X125243367Y-120563799D01*
X125238284Y-120562894D01*
X125164452Y-120561992D01*
X125020081Y-120560228D01*
X125020079Y-120560228D01*
X125014911Y-120560165D01*
X124794091Y-120593955D01*
X124581756Y-120663357D01*
X124531209Y-120689670D01*
X124460268Y-120726600D01*
X124383607Y-120766507D01*
X124379474Y-120769610D01*
X124379471Y-120769612D01*
X124209100Y-120897530D01*
X124204965Y-120900635D01*
X124165525Y-120941907D01*
X124081949Y-121029364D01*
X124050629Y-121062138D01*
X124030153Y-121092155D01*
X123975243Y-121137155D01*
X123904718Y-121145325D01*
X123840971Y-121114070D01*
X123804242Y-121053312D01*
X123800403Y-121030336D01*
X123800330Y-121029339D01*
X123791402Y-120968687D01*
X123785661Y-120950213D01*
X123738665Y-120854493D01*
X123726705Y-120837788D01*
X123651678Y-120762891D01*
X123634950Y-120750959D01*
X123539140Y-120704127D01*
X123520672Y-120698419D01*
X123460636Y-120689660D01*
X123451537Y-120689000D01*
X122842115Y-120689000D01*
X122826876Y-120693475D01*
X122825671Y-120694865D01*
X122824000Y-120702548D01*
X122824000Y-123132885D01*
X122828475Y-123148124D01*
X122829865Y-123149329D01*
X122837548Y-123151000D01*
X123451504Y-123151000D01*
X123460664Y-123150330D01*
X123521313Y-123141402D01*
X123539787Y-123135661D01*
X123635507Y-123088665D01*
X123652212Y-123076705D01*
X123727109Y-123001678D01*
X123739041Y-122984950D01*
X123785873Y-122889140D01*
X123791581Y-122870672D01*
X123801000Y-122806110D01*
X123802200Y-122806285D01*
X123825160Y-122744912D01*
X123882037Y-122702421D01*
X123952858Y-122697426D01*
X124015137Y-122731512D01*
X124021191Y-122738023D01*
X124152654Y-122889787D01*
X124156250Y-122893938D01*
X124328126Y-123036632D01*
X124521000Y-123149338D01*
X124525825Y-123151180D01*
X124525826Y-123151181D01*
X124540538Y-123156799D01*
X124729692Y-123229030D01*
X124734760Y-123230061D01*
X124734763Y-123230062D01*
X124842017Y-123251883D01*
X124948597Y-123273567D01*
X124953772Y-123273757D01*
X124953774Y-123273757D01*
X125165936Y-123281537D01*
X125233278Y-123304022D01*
X125250414Y-123318357D01*
X126684462Y-124752405D01*
X126718488Y-124814717D01*
X126713423Y-124885532D01*
X126670876Y-124942368D01*
X126604356Y-124967179D01*
X126595367Y-124967500D01*
X118284500Y-124967500D01*
X118216379Y-124947498D01*
X118169886Y-124893842D01*
X118158500Y-124841500D01*
X118158500Y-122801504D01*
X121339000Y-122801504D01*
X121339670Y-122810664D01*
X121348598Y-122871313D01*
X121354339Y-122889787D01*
X121401335Y-122985507D01*
X121413295Y-123002212D01*
X121488322Y-123077109D01*
X121505050Y-123089041D01*
X121600860Y-123135873D01*
X121619328Y-123141581D01*
X121679364Y-123150340D01*
X121688463Y-123151000D01*
X122297885Y-123151000D01*
X122313124Y-123146525D01*
X122314329Y-123145135D01*
X122316000Y-123137452D01*
X122316000Y-122192115D01*
X122311525Y-122176876D01*
X122310135Y-122175671D01*
X122302452Y-122174000D01*
X121357115Y-122174000D01*
X121341876Y-122178475D01*
X121340671Y-122179865D01*
X121339000Y-122187548D01*
X121339000Y-122801504D01*
X118158500Y-122801504D01*
X118158500Y-121647885D01*
X121339000Y-121647885D01*
X121343475Y-121663124D01*
X121344865Y-121664329D01*
X121352548Y-121666000D01*
X122297885Y-121666000D01*
X122313124Y-121661525D01*
X122314329Y-121660135D01*
X122316000Y-121652452D01*
X122316000Y-120707115D01*
X122311525Y-120691876D01*
X122310135Y-120690671D01*
X122302452Y-120689000D01*
X121688496Y-120689000D01*
X121679336Y-120689670D01*
X121618687Y-120698598D01*
X121600213Y-120704339D01*
X121504493Y-120751335D01*
X121487788Y-120763295D01*
X121412891Y-120838322D01*
X121400959Y-120855050D01*
X121354127Y-120950860D01*
X121348419Y-120969328D01*
X121339660Y-121029364D01*
X121339000Y-121038463D01*
X121339000Y-121647885D01*
X118158500Y-121647885D01*
X118158500Y-115033862D01*
X122363001Y-115033862D01*
X122363195Y-115038797D01*
X122365283Y-115065341D01*
X122367584Y-115077942D01*
X122407614Y-115215727D01*
X122413862Y-115230164D01*
X122486140Y-115352380D01*
X122495789Y-115364818D01*
X122596182Y-115465211D01*
X122608620Y-115474860D01*
X122730836Y-115547138D01*
X122745273Y-115553386D01*
X122883064Y-115593417D01*
X122895651Y-115595717D01*
X122922209Y-115597807D01*
X122927134Y-115598000D01*
X123171885Y-115598000D01*
X123187124Y-115593525D01*
X123188329Y-115592135D01*
X123190000Y-115584452D01*
X123190000Y-115001615D01*
X123185525Y-114986376D01*
X123184135Y-114985171D01*
X123176452Y-114983500D01*
X122381116Y-114983500D01*
X122365877Y-114987975D01*
X122364672Y-114989365D01*
X122363001Y-114997048D01*
X122363001Y-115033862D01*
X118158500Y-115033862D01*
X118158500Y-74520885D01*
X128750000Y-74520885D01*
X128754475Y-74536124D01*
X128755865Y-74537329D01*
X128763548Y-74539000D01*
X129346385Y-74539000D01*
X129361624Y-74534525D01*
X129362829Y-74533135D01*
X129364500Y-74525452D01*
X129364500Y-73730116D01*
X129360025Y-73714877D01*
X129358635Y-73713672D01*
X129350952Y-73712001D01*
X129314139Y-73712001D01*
X129309203Y-73712195D01*
X129282659Y-73714283D01*
X129270058Y-73716584D01*
X129132273Y-73756614D01*
X129117836Y-73762862D01*
X128995620Y-73835140D01*
X128983182Y-73844789D01*
X128882789Y-73945182D01*
X128873140Y-73957620D01*
X128800862Y-74079836D01*
X128794614Y-74094273D01*
X128754583Y-74232064D01*
X128752283Y-74244651D01*
X128750193Y-74271209D01*
X128750000Y-74276135D01*
X128750000Y-74520885D01*
X118158500Y-74520885D01*
X118158500Y-52110500D01*
X118178502Y-52042379D01*
X118232158Y-51995886D01*
X118284500Y-51984500D01*
X178015500Y-51984500D01*
X178083621Y-52004502D01*
G37*
%TD.AperFunction*%
%TA.AperFunction,Conductor*%
G36*
X164610512Y-113910501D02*
G01*
X164617095Y-113916630D01*
X171046786Y-120346321D01*
X171080812Y-120408633D01*
X171075747Y-120479448D01*
X171033200Y-120536284D01*
X170973648Y-120558448D01*
X170973911Y-120560165D01*
X170753091Y-120593955D01*
X170540756Y-120663357D01*
X170490209Y-120689670D01*
X170419268Y-120726600D01*
X170342607Y-120766507D01*
X170338474Y-120769610D01*
X170338471Y-120769612D01*
X170168100Y-120897530D01*
X170163965Y-120900635D01*
X170124525Y-120941907D01*
X170040949Y-121029364D01*
X170009629Y-121062138D01*
X169883743Y-121246680D01*
X169855683Y-121307130D01*
X169842895Y-121334680D01*
X169796071Y-121388047D01*
X169727828Y-121407628D01*
X169659832Y-121387205D01*
X169614413Y-121334881D01*
X169601475Y-121307135D01*
X169595994Y-121297644D01*
X169478762Y-121130218D01*
X169471708Y-121121811D01*
X169327189Y-120977292D01*
X169318782Y-120970238D01*
X169151356Y-120853006D01*
X169141870Y-120847528D01*
X168956617Y-120761143D01*
X168946325Y-120757397D01*
X168800497Y-120718322D01*
X168786401Y-120718658D01*
X168783000Y-120726600D01*
X168783000Y-122048000D01*
X168762998Y-122116121D01*
X168709342Y-122162614D01*
X168657000Y-122174000D01*
X167340749Y-122174000D01*
X167327218Y-122177973D01*
X167325989Y-122186522D01*
X167366397Y-122337325D01*
X167370143Y-122347617D01*
X167456528Y-122532870D01*
X167462006Y-122542356D01*
X167579238Y-122709782D01*
X167586292Y-122718189D01*
X167588508Y-122720405D01*
X167589172Y-122721622D01*
X167589823Y-122722397D01*
X167589667Y-122722528D01*
X167622534Y-122782717D01*
X167617469Y-122853532D01*
X167574922Y-122910368D01*
X167508402Y-122935179D01*
X167499413Y-122935500D01*
X165187500Y-122935500D01*
X165119379Y-122915498D01*
X165072886Y-122861842D01*
X165061500Y-122809500D01*
X165061500Y-121648503D01*
X167327322Y-121648503D01*
X167327658Y-121662599D01*
X167335600Y-121666000D01*
X168256885Y-121666000D01*
X168272124Y-121661525D01*
X168273329Y-121660135D01*
X168275000Y-121652452D01*
X168275000Y-120731749D01*
X168271027Y-120718218D01*
X168262478Y-120716989D01*
X168111675Y-120757397D01*
X168101383Y-120761143D01*
X167916130Y-120847528D01*
X167906644Y-120853006D01*
X167739218Y-120970238D01*
X167730811Y-120977292D01*
X167586292Y-121121811D01*
X167579238Y-121130218D01*
X167462006Y-121297644D01*
X167456528Y-121307130D01*
X167370143Y-121492383D01*
X167366397Y-121502675D01*
X167327322Y-121648503D01*
X165061500Y-121648503D01*
X165061500Y-121021866D01*
X165054745Y-120959684D01*
X165003615Y-120823295D01*
X164916261Y-120706739D01*
X164799705Y-120619385D01*
X164663316Y-120568255D01*
X164601134Y-120561500D01*
X164528000Y-120561500D01*
X164459879Y-120541498D01*
X164413386Y-120487842D01*
X164402000Y-120435500D01*
X164402000Y-114005725D01*
X164422002Y-113937604D01*
X164475658Y-113891111D01*
X164545932Y-113881007D01*
X164610512Y-113910501D01*
G37*
%TD.AperFunction*%
%TA.AperFunction,Conductor*%
G36*
X136316267Y-108122502D02*
G01*
X136362760Y-108176158D01*
X136367670Y-108188624D01*
X136374450Y-108208946D01*
X136467522Y-108359348D01*
X136592697Y-108484305D01*
X136598927Y-108488145D01*
X136598928Y-108488146D01*
X136702792Y-108552169D01*
X136750286Y-108604942D01*
X136761709Y-108675013D01*
X136733435Y-108740137D01*
X136700814Y-108767883D01*
X136683009Y-108778412D01*
X136670571Y-108788061D01*
X136569061Y-108889571D01*
X136559412Y-108902009D01*
X136486330Y-109025584D01*
X136480082Y-109040021D01*
X136439612Y-109179320D01*
X136437310Y-109191924D01*
X136435193Y-109218816D01*
X136435000Y-109223746D01*
X136435000Y-109262885D01*
X136439475Y-109278124D01*
X136440865Y-109279329D01*
X136448548Y-109281000D01*
X137669000Y-109281000D01*
X137737121Y-109301002D01*
X137783614Y-109354658D01*
X137795000Y-109407000D01*
X137795000Y-110397884D01*
X137799475Y-110413123D01*
X137800865Y-110414328D01*
X137808548Y-110415999D01*
X138077252Y-110415999D01*
X138082188Y-110415805D01*
X138109077Y-110413690D01*
X138121678Y-110411389D01*
X138260979Y-110370918D01*
X138275416Y-110364670D01*
X138398991Y-110291588D01*
X138411429Y-110281939D01*
X138512939Y-110180429D01*
X138522588Y-110167991D01*
X138595670Y-110044416D01*
X138605066Y-110022704D01*
X138607993Y-110023971D01*
X138638276Y-109976570D01*
X138702777Y-109946903D01*
X138773078Y-109956818D01*
X138810139Y-109982477D01*
X140444190Y-111616528D01*
X140456577Y-111630941D01*
X140469546Y-111648564D01*
X140499455Y-111673973D01*
X140510055Y-111682979D01*
X140517571Y-111689909D01*
X140523315Y-111695653D01*
X140526189Y-111697927D01*
X140526196Y-111697933D01*
X140545711Y-111713372D01*
X140549115Y-111716163D01*
X140599472Y-111758945D01*
X140599476Y-111758948D01*
X140605051Y-111763684D01*
X140611566Y-111767011D01*
X140616636Y-111770392D01*
X140621858Y-111773617D01*
X140627600Y-111778160D01*
X140694112Y-111809246D01*
X140698006Y-111811149D01*
X140763404Y-111844543D01*
X140770521Y-111846284D01*
X140776239Y-111848411D01*
X140782045Y-111850342D01*
X140788679Y-111853443D01*
X140795847Y-111854934D01*
X140795850Y-111854935D01*
X140824210Y-111860834D01*
X140860539Y-111868391D01*
X140864797Y-111869354D01*
X140936112Y-111886804D01*
X140941718Y-111887152D01*
X140941719Y-111887152D01*
X140947330Y-111887500D01*
X140947328Y-111887539D01*
X140951229Y-111887772D01*
X140955588Y-111888161D01*
X140962756Y-111889652D01*
X140970073Y-111889454D01*
X141032226Y-111887772D01*
X141040577Y-111887546D01*
X141043986Y-111887500D01*
X148116046Y-111887500D01*
X148123847Y-111887742D01*
X148185516Y-111891568D01*
X148198600Y-111889320D01*
X148219936Y-111887500D01*
X155507624Y-111887500D01*
X155526574Y-111888933D01*
X155540973Y-111891124D01*
X155540979Y-111891124D01*
X155548208Y-111892224D01*
X155555500Y-111891631D01*
X155555503Y-111891631D01*
X155601183Y-111887915D01*
X155611398Y-111887500D01*
X155619525Y-111887500D01*
X155623161Y-111887076D01*
X155623163Y-111887076D01*
X155626615Y-111886673D01*
X155647924Y-111884189D01*
X155652244Y-111883762D01*
X155725426Y-111877809D01*
X155732388Y-111875553D01*
X155738376Y-111874357D01*
X155744333Y-111872949D01*
X155751607Y-111872101D01*
X155758489Y-111869603D01*
X155758493Y-111869602D01*
X155820607Y-111847055D01*
X155824711Y-111845645D01*
X155894575Y-111823013D01*
X155900838Y-111819213D01*
X155906380Y-111816675D01*
X155911856Y-111813933D01*
X155918741Y-111811434D01*
X155980132Y-111771185D01*
X155983800Y-111768870D01*
X156046581Y-111730773D01*
X156050786Y-111727059D01*
X156050789Y-111727057D01*
X156055005Y-111723333D01*
X156055031Y-111723362D01*
X156057962Y-111720762D01*
X156061316Y-111717958D01*
X156067435Y-111713946D01*
X156120989Y-111657413D01*
X156123366Y-111654972D01*
X157262515Y-110515823D01*
X157325412Y-110481672D01*
X157374824Y-110471169D01*
X157374833Y-110471166D01*
X157381288Y-110469794D01*
X157502112Y-110416000D01*
X157549722Y-110394803D01*
X157549724Y-110394802D01*
X157555752Y-110392118D01*
X157710253Y-110279866D01*
X157765446Y-110218568D01*
X157833621Y-110142852D01*
X157833622Y-110142851D01*
X157838040Y-110137944D01*
X157900374Y-110029979D01*
X157930223Y-109978279D01*
X157930224Y-109978278D01*
X157933527Y-109972556D01*
X157992542Y-109790928D01*
X158012504Y-109601000D01*
X158002839Y-109509042D01*
X157993232Y-109417635D01*
X157993232Y-109417633D01*
X157992542Y-109411072D01*
X157963882Y-109322865D01*
X157963580Y-109321936D01*
X157961553Y-109250968D01*
X157998215Y-109190171D01*
X158061927Y-109158845D01*
X158083413Y-109157000D01*
X158154275Y-109157000D01*
X158222396Y-109177002D01*
X158243370Y-109193905D01*
X162967095Y-113917630D01*
X163001121Y-113979942D01*
X163004000Y-114006725D01*
X163004000Y-120435500D01*
X162983998Y-120503621D01*
X162930342Y-120550114D01*
X162878000Y-120561500D01*
X162804866Y-120561500D01*
X162742684Y-120568255D01*
X162606295Y-120619385D01*
X162489739Y-120706739D01*
X162402385Y-120823295D01*
X162399233Y-120831703D01*
X162357919Y-120941907D01*
X162315277Y-120998671D01*
X162248716Y-121023371D01*
X162179367Y-121008163D01*
X162146743Y-120982476D01*
X162096151Y-120926875D01*
X162096142Y-120926866D01*
X162092670Y-120923051D01*
X162088619Y-120919852D01*
X162088615Y-120919848D01*
X161921414Y-120787800D01*
X161921410Y-120787798D01*
X161917359Y-120784598D01*
X161721789Y-120676638D01*
X161716920Y-120674914D01*
X161716916Y-120674912D01*
X161516087Y-120603795D01*
X161516083Y-120603794D01*
X161511212Y-120602069D01*
X161506119Y-120601162D01*
X161506116Y-120601161D01*
X161296373Y-120563800D01*
X161296367Y-120563799D01*
X161291284Y-120562894D01*
X161259062Y-120562500D01*
X161112309Y-120560707D01*
X161044438Y-120539874D01*
X161024754Y-120523811D01*
X157784489Y-117283546D01*
X157771652Y-117268518D01*
X157763669Y-117257530D01*
X157728069Y-117225475D01*
X157713937Y-117212751D01*
X157709153Y-117208210D01*
X157695006Y-117194063D01*
X157679446Y-117181463D01*
X157674425Y-117177175D01*
X157629619Y-117136830D01*
X157629615Y-117136827D01*
X157624715Y-117132415D01*
X157619005Y-117129119D01*
X157619002Y-117129116D01*
X157612955Y-117125625D01*
X157596670Y-117114432D01*
X157586125Y-117105893D01*
X157526520Y-117075523D01*
X157520724Y-117072376D01*
X157514975Y-117069057D01*
X157462785Y-117038925D01*
X157449875Y-117034730D01*
X157431616Y-117027167D01*
X157419524Y-117021006D01*
X157354906Y-117003691D01*
X157348582Y-117001818D01*
X157339981Y-116999023D01*
X157284956Y-116981145D01*
X157278389Y-116980455D01*
X157278385Y-116980454D01*
X157272712Y-116979858D01*
X157271470Y-116979728D01*
X157252028Y-116976125D01*
X157238915Y-116972611D01*
X157232318Y-116972265D01*
X157232316Y-116972265D01*
X157172113Y-116969110D01*
X157165539Y-116968593D01*
X157148895Y-116966844D01*
X157148891Y-116966844D01*
X157145620Y-116966500D01*
X157125593Y-116966500D01*
X157118999Y-116966327D01*
X157058782Y-116963171D01*
X157058778Y-116963171D01*
X157052190Y-116962826D01*
X157045675Y-116963858D01*
X157045673Y-116963858D01*
X157038786Y-116964949D01*
X157019075Y-116966500D01*
X135141500Y-116966500D01*
X135073379Y-116946498D01*
X135026886Y-116892842D01*
X135015500Y-116840500D01*
X135015500Y-115912028D01*
X135035502Y-115843907D01*
X135089158Y-115797414D01*
X135159432Y-115787310D01*
X135224012Y-115816804D01*
X135230595Y-115822933D01*
X135468190Y-116060528D01*
X135480577Y-116074941D01*
X135493546Y-116092564D01*
X135499129Y-116097307D01*
X135534055Y-116126979D01*
X135541571Y-116133909D01*
X135547315Y-116139653D01*
X135550189Y-116141927D01*
X135550196Y-116141933D01*
X135569711Y-116157372D01*
X135573115Y-116160163D01*
X135623472Y-116202945D01*
X135623476Y-116202948D01*
X135629051Y-116207684D01*
X135635568Y-116211012D01*
X135640632Y-116214389D01*
X135645856Y-116217616D01*
X135651600Y-116222160D01*
X135658231Y-116225259D01*
X135718082Y-116253232D01*
X135722033Y-116255163D01*
X135755298Y-116272149D01*
X135787404Y-116288543D01*
X135794519Y-116290284D01*
X135800265Y-116292421D01*
X135806048Y-116294345D01*
X135812679Y-116297444D01*
X135884557Y-116312394D01*
X135888829Y-116313361D01*
X135960112Y-116330804D01*
X135965711Y-116331151D01*
X135965715Y-116331152D01*
X135971330Y-116331500D01*
X135971328Y-116331539D01*
X135975229Y-116331772D01*
X135979588Y-116332161D01*
X135986756Y-116333652D01*
X135994073Y-116333454D01*
X136064577Y-116331546D01*
X136067986Y-116331500D01*
X136476669Y-116331500D01*
X136544790Y-116351502D01*
X136564699Y-116370040D01*
X136566008Y-116368731D01*
X136572358Y-116375081D01*
X136577739Y-116382261D01*
X136694295Y-116469615D01*
X136830684Y-116520745D01*
X136892866Y-116527500D01*
X138189134Y-116527500D01*
X138251316Y-116520745D01*
X138387705Y-116469615D01*
X138504261Y-116382261D01*
X138591615Y-116265705D01*
X138642745Y-116129316D01*
X138649500Y-116067134D01*
X138649500Y-115070866D01*
X138642745Y-115008684D01*
X138591615Y-114872295D01*
X138504261Y-114755739D01*
X138387705Y-114668385D01*
X138251316Y-114617255D01*
X138189134Y-114610500D01*
X136892866Y-114610500D01*
X136830684Y-114617255D01*
X136694295Y-114668385D01*
X136577739Y-114755739D01*
X136572358Y-114762919D01*
X136566008Y-114769269D01*
X136563359Y-114766620D01*
X136520711Y-114798552D01*
X136476669Y-114806500D01*
X136423028Y-114806500D01*
X136354907Y-114786498D01*
X136333933Y-114769595D01*
X135421405Y-113857067D01*
X135387379Y-113794755D01*
X135384500Y-113767972D01*
X135384500Y-112591866D01*
X135377745Y-112529684D01*
X135326615Y-112393295D01*
X135239261Y-112276739D01*
X135192008Y-112241325D01*
X135149495Y-112184466D01*
X135144470Y-112113648D01*
X135178529Y-112051355D01*
X135240861Y-112017365D01*
X135267575Y-112014500D01*
X136155972Y-112014500D01*
X136224093Y-112034502D01*
X136245067Y-112051405D01*
X136395595Y-112201933D01*
X136429621Y-112264245D01*
X136432500Y-112291028D01*
X136432500Y-112767134D01*
X136439255Y-112829316D01*
X136490385Y-112965705D01*
X136577739Y-113082261D01*
X136694295Y-113169615D01*
X136830684Y-113220745D01*
X136892866Y-113227500D01*
X138189134Y-113227500D01*
X138251316Y-113220745D01*
X138387705Y-113169615D01*
X138504261Y-113082261D01*
X138591615Y-112965705D01*
X138642745Y-112829316D01*
X138649500Y-112767134D01*
X138649500Y-111770866D01*
X138642745Y-111708684D01*
X138591615Y-111572295D01*
X138504261Y-111455739D01*
X138387705Y-111368385D01*
X138251316Y-111317255D01*
X138189134Y-111310500D01*
X137713028Y-111310500D01*
X137644907Y-111290498D01*
X137623932Y-111273595D01*
X137110806Y-110760468D01*
X137098420Y-110746055D01*
X137089795Y-110734335D01*
X137085454Y-110728436D01*
X137044945Y-110694021D01*
X137037429Y-110687091D01*
X137031685Y-110681347D01*
X137028811Y-110679073D01*
X137028804Y-110679067D01*
X137009289Y-110663628D01*
X137005885Y-110660837D01*
X136979033Y-110638024D01*
X136940069Y-110578675D01*
X136939377Y-110507682D01*
X136977176Y-110447584D01*
X137041467Y-110417463D01*
X137060613Y-110416000D01*
X137268885Y-110416000D01*
X137284124Y-110411525D01*
X137285329Y-110410135D01*
X137287000Y-110402452D01*
X137287000Y-109807115D01*
X137282525Y-109791876D01*
X137281135Y-109790671D01*
X137273452Y-109789000D01*
X136453116Y-109789000D01*
X136437877Y-109793475D01*
X136436672Y-109794865D01*
X136435001Y-109802548D01*
X136435001Y-109846252D01*
X136435195Y-109851188D01*
X136437310Y-109878077D01*
X136439611Y-109890678D01*
X136480082Y-110029979D01*
X136486330Y-110044416D01*
X136559412Y-110167991D01*
X136569061Y-110180429D01*
X136661379Y-110272747D01*
X136695405Y-110335059D01*
X136690340Y-110405874D01*
X136647793Y-110462710D01*
X136575692Y-110487796D01*
X136528997Y-110489060D01*
X136514422Y-110489454D01*
X136511014Y-110489500D01*
X132714500Y-110489500D01*
X132646379Y-110469498D01*
X132599886Y-110415842D01*
X132588500Y-110363500D01*
X132588500Y-108974500D01*
X132608502Y-108906379D01*
X132662158Y-108859886D01*
X132714500Y-108848500D01*
X133774134Y-108848500D01*
X133836316Y-108841745D01*
X133972705Y-108790615D01*
X134089261Y-108703261D01*
X134176615Y-108586705D01*
X134227745Y-108450316D01*
X134234500Y-108388134D01*
X134234500Y-108228500D01*
X134254502Y-108160379D01*
X134308158Y-108113886D01*
X134360500Y-108102500D01*
X136248146Y-108102500D01*
X136316267Y-108122502D01*
G37*
%TD.AperFunction*%
%TA.AperFunction,Conductor*%
G36*
X138918396Y-106383002D02*
G01*
X138939370Y-106399905D01*
X140201503Y-107662038D01*
X140207356Y-107668303D01*
X140244842Y-107711274D01*
X140251056Y-107715641D01*
X140296389Y-107747502D01*
X140301684Y-107751435D01*
X140351239Y-107790291D01*
X140358163Y-107793417D01*
X140361212Y-107795264D01*
X140373878Y-107802489D01*
X140377043Y-107804186D01*
X140383261Y-107808556D01*
X140441996Y-107831456D01*
X140448009Y-107833983D01*
X140505435Y-107859912D01*
X140512903Y-107861296D01*
X140516311Y-107862364D01*
X140530350Y-107866364D01*
X140533814Y-107867253D01*
X140540889Y-107870012D01*
X140548418Y-107871003D01*
X140548421Y-107871004D01*
X140603345Y-107878235D01*
X140609859Y-107879267D01*
X140664317Y-107889360D01*
X140664320Y-107889360D01*
X140671786Y-107890744D01*
X140679366Y-107890307D01*
X140679367Y-107890307D01*
X140733094Y-107887209D01*
X140740347Y-107887000D01*
X141637767Y-107887000D01*
X141705888Y-107907002D01*
X141752381Y-107960658D01*
X141762485Y-108030932D01*
X141758764Y-108048152D01*
X141715233Y-108197989D01*
X141715232Y-108197993D01*
X141713438Y-108204169D01*
X141712934Y-108210574D01*
X141712933Y-108210579D01*
X141711523Y-108228500D01*
X141710500Y-108241498D01*
X141710500Y-108674502D01*
X141713438Y-108711831D01*
X141734762Y-108785229D01*
X141756452Y-108859886D01*
X141759855Y-108871601D01*
X141776893Y-108900411D01*
X141840509Y-109007980D01*
X141840511Y-109007983D01*
X141844547Y-109014807D01*
X141928990Y-109099250D01*
X141963016Y-109161562D01*
X141957951Y-109232377D01*
X141940258Y-109264524D01*
X141907228Y-109308039D01*
X141898875Y-109322865D01*
X141851459Y-109442624D01*
X141847884Y-109456699D01*
X141850167Y-109470390D01*
X141862992Y-109474000D01*
X144524291Y-109474000D01*
X144538273Y-109469894D01*
X144540243Y-109457201D01*
X144536541Y-109442624D01*
X144489125Y-109322865D01*
X144480772Y-109308039D01*
X144447742Y-109264524D01*
X144422489Y-109198171D01*
X144437118Y-109128698D01*
X144459010Y-109099250D01*
X144543453Y-109014807D01*
X144547489Y-109007983D01*
X144547491Y-109007980D01*
X144611107Y-108900411D01*
X144628145Y-108871601D01*
X144631549Y-108859886D01*
X144653238Y-108785229D01*
X144674562Y-108711831D01*
X144677500Y-108674502D01*
X144677500Y-108484607D01*
X144697502Y-108416486D01*
X144714405Y-108395512D01*
X146546399Y-106563519D01*
X146608711Y-106529493D01*
X146679527Y-106534558D01*
X146736362Y-106577105D01*
X146761173Y-106643625D01*
X146743948Y-106716752D01*
X146709855Y-106774399D01*
X146663438Y-106934169D01*
X146660500Y-106971498D01*
X146660500Y-107404502D01*
X146663438Y-107441831D01*
X146709855Y-107601601D01*
X146794547Y-107744807D01*
X146797229Y-107747489D01*
X146822502Y-107811861D01*
X146808600Y-107881484D01*
X146798428Y-107897312D01*
X146794547Y-107901193D01*
X146709855Y-108044399D01*
X146663438Y-108204169D01*
X146662934Y-108210574D01*
X146662933Y-108210579D01*
X146661523Y-108228500D01*
X146660500Y-108241498D01*
X146660500Y-108674502D01*
X146663438Y-108711831D01*
X146684762Y-108785229D01*
X146706452Y-108859886D01*
X146709855Y-108871601D01*
X146794547Y-109014807D01*
X146797229Y-109017489D01*
X146822502Y-109081861D01*
X146808600Y-109151484D01*
X146798428Y-109167312D01*
X146794547Y-109171193D01*
X146709855Y-109314399D01*
X146663438Y-109474169D01*
X146660500Y-109511498D01*
X146660500Y-109944502D01*
X146663438Y-109981831D01*
X146709855Y-110141601D01*
X146713891Y-110148425D01*
X146728047Y-110172362D01*
X146745506Y-110241178D01*
X146722989Y-110308509D01*
X146667644Y-110352978D01*
X146619593Y-110362500D01*
X144571753Y-110362500D01*
X144503632Y-110342498D01*
X144457139Y-110288842D01*
X144447035Y-110218568D01*
X144471389Y-110160322D01*
X144480772Y-110147960D01*
X144489125Y-110133135D01*
X144536541Y-110013376D01*
X144540116Y-109999301D01*
X144537833Y-109985610D01*
X144525008Y-109982000D01*
X141863709Y-109982000D01*
X141849727Y-109986106D01*
X141847757Y-109998799D01*
X141851459Y-110013376D01*
X141898875Y-110133135D01*
X141907228Y-110147960D01*
X141916611Y-110160322D01*
X141941863Y-110226675D01*
X141927234Y-110296148D01*
X141877367Y-110346683D01*
X141816247Y-110362500D01*
X141399028Y-110362500D01*
X141330907Y-110342498D01*
X141309933Y-110325595D01*
X138811405Y-107827067D01*
X138777379Y-107764755D01*
X138774500Y-107737972D01*
X138774500Y-107334600D01*
X138763526Y-107228834D01*
X138707550Y-107061054D01*
X138614478Y-106910652D01*
X138489303Y-106785695D01*
X138470978Y-106774399D01*
X138344968Y-106696725D01*
X138344966Y-106696724D01*
X138338738Y-106692885D01*
X138190223Y-106643625D01*
X138177389Y-106639368D01*
X138177387Y-106639368D01*
X138170861Y-106637203D01*
X138164025Y-106636503D01*
X138164022Y-106636502D01*
X138120969Y-106632091D01*
X138066400Y-106626500D01*
X137550085Y-106626500D01*
X137513732Y-106619960D01*
X137513610Y-106620460D01*
X137512641Y-106620223D01*
X137509972Y-106619283D01*
X137506168Y-106618599D01*
X137500738Y-106616580D01*
X137494952Y-106614655D01*
X137488321Y-106611556D01*
X137481156Y-106610066D01*
X137476624Y-106608558D01*
X137418299Y-106568076D01*
X137391120Y-106502488D01*
X137403715Y-106432618D01*
X137452085Y-106380648D01*
X137516396Y-106363000D01*
X138850275Y-106363000D01*
X138918396Y-106383002D01*
G37*
%TD.AperFunction*%
%TA.AperFunction,Conductor*%
G36*
X155866592Y-87602930D02*
G01*
X156299595Y-88035933D01*
X156333621Y-88098245D01*
X156336500Y-88125028D01*
X156336500Y-105260929D01*
X156319619Y-105323928D01*
X156264473Y-105419444D01*
X156205458Y-105601072D01*
X156204768Y-105607633D01*
X156204768Y-105607635D01*
X156197675Y-105675126D01*
X156185496Y-105791000D01*
X156186186Y-105797565D01*
X156202187Y-105949803D01*
X156205458Y-105980928D01*
X156264473Y-106162556D01*
X156267776Y-106168278D01*
X156267777Y-106168279D01*
X156343826Y-106300000D01*
X156360564Y-106368996D01*
X156337343Y-106436087D01*
X156281536Y-106479974D01*
X156234707Y-106489000D01*
X149700233Y-106489000D01*
X149632112Y-106468998D01*
X149585619Y-106415342D01*
X149575515Y-106345068D01*
X149579236Y-106327848D01*
X149622767Y-106178011D01*
X149622768Y-106178007D01*
X149624562Y-106171831D01*
X149625404Y-106161145D01*
X149627307Y-106136958D01*
X149627307Y-106136950D01*
X149627500Y-106134502D01*
X149627500Y-105944607D01*
X149647502Y-105876486D01*
X149664405Y-105855512D01*
X151731038Y-103788879D01*
X151737304Y-103783025D01*
X151780274Y-103745540D01*
X151816502Y-103693992D01*
X151820435Y-103688698D01*
X151824515Y-103683494D01*
X151859291Y-103639143D01*
X151862417Y-103632219D01*
X151864264Y-103629170D01*
X151871489Y-103616504D01*
X151873186Y-103613339D01*
X151877556Y-103607121D01*
X151900456Y-103548386D01*
X151902983Y-103542373D01*
X151928912Y-103484947D01*
X151930296Y-103477479D01*
X151931364Y-103474071D01*
X151935364Y-103460032D01*
X151936253Y-103456568D01*
X151939012Y-103449493D01*
X151947235Y-103387037D01*
X151948267Y-103380523D01*
X151958360Y-103326065D01*
X151958360Y-103326062D01*
X151959744Y-103318596D01*
X151956209Y-103257287D01*
X151956000Y-103250035D01*
X151956000Y-99562779D01*
X151976002Y-99494658D01*
X151988359Y-99478475D01*
X151996040Y-99469944D01*
X152073649Y-99335522D01*
X152088223Y-99310279D01*
X152088224Y-99310278D01*
X152091527Y-99304556D01*
X152150542Y-99122928D01*
X152160861Y-99024753D01*
X152169814Y-98939565D01*
X152170504Y-98933000D01*
X152150542Y-98743072D01*
X152091527Y-98561444D01*
X152075472Y-98533635D01*
X152008477Y-98417598D01*
X151996040Y-98396056D01*
X151968147Y-98365077D01*
X151872675Y-98259045D01*
X151872674Y-98259044D01*
X151868253Y-98254134D01*
X151745311Y-98164811D01*
X151719094Y-98145763D01*
X151719093Y-98145762D01*
X151713752Y-98141882D01*
X151707724Y-98139198D01*
X151707722Y-98139197D01*
X151545319Y-98066891D01*
X151545318Y-98066891D01*
X151539288Y-98064206D01*
X151445888Y-98044353D01*
X151358944Y-98025872D01*
X151358939Y-98025872D01*
X151352487Y-98024500D01*
X151161513Y-98024500D01*
X151155061Y-98025872D01*
X151155056Y-98025872D01*
X151068112Y-98044353D01*
X150974712Y-98064206D01*
X150968680Y-98066891D01*
X150968060Y-98067093D01*
X150897092Y-98069121D01*
X150836294Y-98032459D01*
X150804969Y-97968747D01*
X150813061Y-97898213D01*
X150840028Y-97858165D01*
X152839288Y-95858905D01*
X152901600Y-95824879D01*
X152928383Y-95822000D01*
X153069412Y-95822000D01*
X153137533Y-95842002D01*
X153176844Y-95882165D01*
X153202285Y-95923680D01*
X153202290Y-95923686D01*
X153204987Y-95928088D01*
X153351250Y-96096938D01*
X153523126Y-96239632D01*
X153593595Y-96280811D01*
X153596445Y-96282476D01*
X153645169Y-96334114D01*
X153658240Y-96403897D01*
X153631509Y-96469669D01*
X153591055Y-96503027D01*
X153578607Y-96509507D01*
X153574474Y-96512610D01*
X153574471Y-96512612D01*
X153431946Y-96619623D01*
X153399965Y-96643635D01*
X153396393Y-96647373D01*
X153263060Y-96786898D01*
X153245629Y-96805138D01*
X153242715Y-96809410D01*
X153242714Y-96809411D01*
X153230404Y-96827457D01*
X153119743Y-96989680D01*
X153104003Y-97023590D01*
X153032045Y-97178611D01*
X153025688Y-97192305D01*
X152965989Y-97407570D01*
X152942251Y-97629695D01*
X152942548Y-97634848D01*
X152942548Y-97634851D01*
X152948011Y-97729590D01*
X152955110Y-97852715D01*
X152956247Y-97857761D01*
X152956248Y-97857767D01*
X152976119Y-97945939D01*
X153004222Y-98070639D01*
X153088266Y-98277616D01*
X153107889Y-98309638D01*
X153187055Y-98438825D01*
X153204987Y-98468088D01*
X153351250Y-98636938D01*
X153523126Y-98779632D01*
X153716000Y-98892338D01*
X153924692Y-98972030D01*
X153929760Y-98973061D01*
X153929763Y-98973062D01*
X154037017Y-98994883D01*
X154143597Y-99016567D01*
X154148772Y-99016757D01*
X154148774Y-99016757D01*
X154361673Y-99024564D01*
X154361677Y-99024564D01*
X154366837Y-99024753D01*
X154371957Y-99024097D01*
X154371959Y-99024097D01*
X154583288Y-98997025D01*
X154583289Y-98997025D01*
X154588416Y-98996368D01*
X154593366Y-98994883D01*
X154797429Y-98933661D01*
X154797434Y-98933659D01*
X154802384Y-98932174D01*
X155002994Y-98833896D01*
X155184860Y-98704173D01*
X155343096Y-98546489D01*
X155349647Y-98537373D01*
X155470435Y-98369277D01*
X155473453Y-98365077D01*
X155493799Y-98323911D01*
X155570136Y-98169453D01*
X155570137Y-98169451D01*
X155572430Y-98164811D01*
X155631999Y-97968747D01*
X155635865Y-97956023D01*
X155635865Y-97956021D01*
X155637370Y-97951069D01*
X155666529Y-97729590D01*
X155668156Y-97663000D01*
X155649852Y-97440361D01*
X155595431Y-97223702D01*
X155506354Y-97018840D01*
X155460601Y-96948117D01*
X155387822Y-96835617D01*
X155387820Y-96835614D01*
X155385014Y-96831277D01*
X155234670Y-96666051D01*
X155230619Y-96662852D01*
X155230615Y-96662848D01*
X155063414Y-96530800D01*
X155063410Y-96530798D01*
X155059359Y-96527598D01*
X155018053Y-96504796D01*
X154968084Y-96454364D01*
X154953312Y-96384921D01*
X154978428Y-96318516D01*
X155005780Y-96291909D01*
X155049603Y-96260650D01*
X155184860Y-96164173D01*
X155209340Y-96139779D01*
X155339435Y-96010137D01*
X155343096Y-96006489D01*
X155402594Y-95923689D01*
X155470435Y-95829277D01*
X155473453Y-95825077D01*
X155527232Y-95716264D01*
X155570136Y-95629453D01*
X155570137Y-95629451D01*
X155572430Y-95624811D01*
X155633214Y-95424749D01*
X155635865Y-95416023D01*
X155635865Y-95416021D01*
X155637370Y-95411069D01*
X155666529Y-95189590D01*
X155668156Y-95123000D01*
X155649852Y-94900361D01*
X155595431Y-94683702D01*
X155506354Y-94478840D01*
X155385014Y-94291277D01*
X155234670Y-94126051D01*
X155230619Y-94122852D01*
X155230615Y-94122848D01*
X155063414Y-93990800D01*
X155063410Y-93990798D01*
X155059359Y-93987598D01*
X155018053Y-93964796D01*
X154968084Y-93914364D01*
X154953312Y-93844921D01*
X154978428Y-93778516D01*
X155005780Y-93751909D01*
X155050918Y-93719712D01*
X155184860Y-93624173D01*
X155190983Y-93618072D01*
X155295411Y-93514008D01*
X155343096Y-93466489D01*
X155400605Y-93386457D01*
X155470435Y-93289277D01*
X155473453Y-93285077D01*
X155484458Y-93262811D01*
X155570136Y-93089453D01*
X155570137Y-93089451D01*
X155572430Y-93084811D01*
X155637370Y-92871069D01*
X155666529Y-92649590D01*
X155668156Y-92583000D01*
X155649852Y-92360361D01*
X155595431Y-92143702D01*
X155506354Y-91938840D01*
X155385014Y-91751277D01*
X155234670Y-91586051D01*
X155230619Y-91582852D01*
X155230615Y-91582848D01*
X155063414Y-91450800D01*
X155063410Y-91450798D01*
X155059359Y-91447598D01*
X155022260Y-91427118D01*
X154926695Y-91374364D01*
X154885384Y-91351559D01*
X154835414Y-91301127D01*
X154820642Y-91231685D01*
X154845758Y-91165279D01*
X154893027Y-91127057D01*
X154917865Y-91115475D01*
X154927356Y-91109994D01*
X155094782Y-90992762D01*
X155103189Y-90985708D01*
X155247708Y-90841189D01*
X155254762Y-90832782D01*
X155371994Y-90665356D01*
X155377472Y-90655870D01*
X155463857Y-90470617D01*
X155467603Y-90460325D01*
X155506678Y-90314497D01*
X155506342Y-90300401D01*
X155498400Y-90297000D01*
X154177000Y-90297000D01*
X154108879Y-90276998D01*
X154062386Y-90223342D01*
X154051000Y-90171000D01*
X154051000Y-89915000D01*
X154071002Y-89846879D01*
X154124658Y-89800386D01*
X154177000Y-89789000D01*
X155493251Y-89789000D01*
X155506782Y-89785027D01*
X155508011Y-89776478D01*
X155467603Y-89625675D01*
X155463857Y-89615383D01*
X155377472Y-89430130D01*
X155371994Y-89420644D01*
X155254762Y-89253218D01*
X155247708Y-89244811D01*
X155103189Y-89100292D01*
X155094782Y-89093238D01*
X154927356Y-88976006D01*
X154917866Y-88970526D01*
X154890141Y-88957598D01*
X154836856Y-88910682D01*
X154817394Y-88842405D01*
X154837935Y-88774445D01*
X154887957Y-88730252D01*
X154889019Y-88729732D01*
X155002994Y-88673896D01*
X155184860Y-88544173D01*
X155343096Y-88386489D01*
X155350112Y-88376726D01*
X155470435Y-88209277D01*
X155473453Y-88205077D01*
X155493708Y-88164095D01*
X155570136Y-88009453D01*
X155570137Y-88009451D01*
X155572430Y-88004811D01*
X155617970Y-87854923D01*
X155635865Y-87796023D01*
X155635865Y-87796021D01*
X155637370Y-87791069D01*
X155652575Y-87675578D01*
X155681298Y-87610651D01*
X155740563Y-87571560D01*
X155811554Y-87570715D01*
X155866592Y-87602930D01*
G37*
%TD.AperFunction*%
%TA.AperFunction,Conductor*%
G36*
X132335694Y-87079002D02*
G01*
X132375005Y-87119165D01*
X132454824Y-87249416D01*
X132458037Y-87253178D01*
X132485574Y-87285419D01*
X132609031Y-87429969D01*
X132789584Y-87584176D01*
X132793792Y-87586755D01*
X132793798Y-87586759D01*
X132987817Y-87705654D01*
X132992037Y-87708240D01*
X132996607Y-87710133D01*
X132996611Y-87710135D01*
X133192005Y-87791069D01*
X133211406Y-87799105D01*
X133276964Y-87814844D01*
X133437476Y-87853380D01*
X133437482Y-87853381D01*
X133442289Y-87854535D01*
X133679000Y-87873165D01*
X133915711Y-87854535D01*
X133920518Y-87853381D01*
X133920524Y-87853380D01*
X133997398Y-87834924D01*
X134064254Y-87818873D01*
X134135161Y-87822420D01*
X134182762Y-87852297D01*
X135704503Y-89374038D01*
X135710356Y-89380303D01*
X135747842Y-89423274D01*
X135754056Y-89427641D01*
X135799389Y-89459502D01*
X135804684Y-89463435D01*
X135854239Y-89502291D01*
X135861163Y-89505417D01*
X135864212Y-89507264D01*
X135876878Y-89514489D01*
X135880043Y-89516186D01*
X135886261Y-89520556D01*
X135944996Y-89543456D01*
X135951009Y-89545983D01*
X136008435Y-89571912D01*
X136015903Y-89573296D01*
X136019311Y-89574364D01*
X136033350Y-89578364D01*
X136036814Y-89579253D01*
X136043889Y-89582012D01*
X136051418Y-89583003D01*
X136051421Y-89583004D01*
X136106345Y-89590235D01*
X136112859Y-89591267D01*
X136167317Y-89601360D01*
X136167320Y-89601360D01*
X136174786Y-89602744D01*
X136182366Y-89602307D01*
X136182367Y-89602307D01*
X136236094Y-89599209D01*
X136243347Y-89599000D01*
X144057275Y-89599000D01*
X144125396Y-89619002D01*
X144146370Y-89635905D01*
X149304757Y-94794293D01*
X149338783Y-94856605D01*
X149340972Y-94870217D01*
X149347458Y-94931928D01*
X149406473Y-95113556D01*
X149409776Y-95119278D01*
X149409777Y-95119279D01*
X149413868Y-95126365D01*
X149501960Y-95278944D01*
X149506378Y-95283851D01*
X149506379Y-95283852D01*
X149536916Y-95317767D01*
X149629747Y-95420866D01*
X149784248Y-95533118D01*
X149790276Y-95535802D01*
X149790278Y-95535803D01*
X149952681Y-95608109D01*
X149958712Y-95610794D01*
X149965164Y-95612166D01*
X149965169Y-95612167D01*
X150003838Y-95620386D01*
X150066312Y-95654115D01*
X150100633Y-95716264D01*
X150095905Y-95787103D01*
X150066736Y-95832728D01*
X144527370Y-101372095D01*
X144465058Y-101406121D01*
X144438275Y-101409000D01*
X144418770Y-101409000D01*
X144354631Y-101391453D01*
X144289429Y-101352893D01*
X144289427Y-101352892D01*
X144282601Y-101348855D01*
X144274990Y-101346644D01*
X144274988Y-101346643D01*
X144222769Y-101331472D01*
X144122831Y-101302438D01*
X144116426Y-101301934D01*
X144116421Y-101301933D01*
X144087958Y-101299693D01*
X144087950Y-101299693D01*
X144085502Y-101299500D01*
X142302498Y-101299500D01*
X142300050Y-101299693D01*
X142300042Y-101299693D01*
X142271579Y-101301933D01*
X142271574Y-101301934D01*
X142265169Y-101302438D01*
X142165231Y-101331472D01*
X142113012Y-101346643D01*
X142113010Y-101346644D01*
X142105399Y-101348855D01*
X142098572Y-101352892D01*
X142098573Y-101352892D01*
X141969020Y-101429509D01*
X141969017Y-101429511D01*
X141962193Y-101433547D01*
X141844547Y-101551193D01*
X141840511Y-101558017D01*
X141840509Y-101558020D01*
X141796000Y-101633281D01*
X141759855Y-101694399D01*
X141713438Y-101854169D01*
X141710500Y-101891498D01*
X141710500Y-102324502D01*
X141710693Y-102326950D01*
X141710693Y-102326958D01*
X141711019Y-102331092D01*
X141713438Y-102361831D01*
X141721958Y-102391157D01*
X141745580Y-102472464D01*
X141759855Y-102521601D01*
X141844547Y-102664807D01*
X141847229Y-102667489D01*
X141872502Y-102731861D01*
X141858600Y-102801484D01*
X141848428Y-102817312D01*
X141844547Y-102821193D01*
X141759855Y-102964399D01*
X141713438Y-103124169D01*
X141710500Y-103161498D01*
X141710500Y-103594502D01*
X141710693Y-103596950D01*
X141710693Y-103596958D01*
X141712280Y-103617115D01*
X141713438Y-103631831D01*
X141715232Y-103638007D01*
X141715233Y-103638011D01*
X141758764Y-103787848D01*
X141758561Y-103858844D01*
X141720007Y-103918460D01*
X141655342Y-103947768D01*
X141637767Y-103949000D01*
X139054101Y-103949000D01*
X138985980Y-103928998D01*
X138946956Y-103889302D01*
X138900769Y-103814663D01*
X138891479Y-103799651D01*
X138779254Y-103687622D01*
X138745176Y-103625343D01*
X138750179Y-103554523D01*
X138779178Y-103509357D01*
X140433166Y-101855370D01*
X142174046Y-100114490D01*
X142180312Y-100108636D01*
X142217547Y-100076154D01*
X142223274Y-100071158D01*
X142259498Y-100019617D01*
X142263423Y-100014332D01*
X142297607Y-99970735D01*
X142302292Y-99964760D01*
X142305416Y-99957842D01*
X142307245Y-99954821D01*
X142314500Y-99942102D01*
X142316188Y-99938954D01*
X142320556Y-99932739D01*
X142343438Y-99874050D01*
X142345978Y-99868005D01*
X142371913Y-99810565D01*
X142373298Y-99803092D01*
X142374369Y-99799674D01*
X142378354Y-99785685D01*
X142379251Y-99782193D01*
X142382012Y-99775111D01*
X142383004Y-99767577D01*
X142390233Y-99712670D01*
X142391265Y-99706157D01*
X142401361Y-99651682D01*
X142401361Y-99651680D01*
X142402745Y-99644213D01*
X142399209Y-99582887D01*
X142399000Y-99575635D01*
X142399000Y-96608187D01*
X142419002Y-96540066D01*
X142448296Y-96508225D01*
X142550841Y-96429539D01*
X142550845Y-96429535D01*
X142555292Y-96426123D01*
X142559063Y-96421978D01*
X142559067Y-96421975D01*
X142606480Y-96369869D01*
X142667121Y-96332946D01*
X142738096Y-96334669D01*
X142787358Y-96364183D01*
X142846994Y-96421975D01*
X142883163Y-96457025D01*
X142904799Y-96477992D01*
X143091262Y-96603290D01*
X143296967Y-96693588D01*
X143302418Y-96694897D01*
X143302422Y-96694898D01*
X143493972Y-96740885D01*
X143515411Y-96746032D01*
X143593079Y-96750510D01*
X143734083Y-96758640D01*
X143734086Y-96758640D01*
X143739690Y-96758963D01*
X143962715Y-96731975D01*
X144177435Y-96665918D01*
X144182415Y-96663348D01*
X144182419Y-96663346D01*
X144351278Y-96576191D01*
X144420985Y-96562722D01*
X144486909Y-96589077D01*
X144504879Y-96606327D01*
X144655889Y-96783137D01*
X144655894Y-96783142D01*
X144659102Y-96786898D01*
X144851624Y-96951328D01*
X145067498Y-97083616D01*
X145072068Y-97085509D01*
X145072072Y-97085511D01*
X145296836Y-97178611D01*
X145301409Y-97180505D01*
X145386032Y-97200821D01*
X145542784Y-97238454D01*
X145542790Y-97238455D01*
X145547597Y-97239609D01*
X145800000Y-97259474D01*
X146052403Y-97239609D01*
X146057210Y-97238455D01*
X146057216Y-97238454D01*
X146213968Y-97200821D01*
X146298591Y-97180505D01*
X146303164Y-97178611D01*
X146527928Y-97085511D01*
X146527932Y-97085509D01*
X146532502Y-97083616D01*
X146748376Y-96951328D01*
X146940898Y-96786898D01*
X147105328Y-96594376D01*
X147237616Y-96378502D01*
X147248454Y-96352338D01*
X147332611Y-96149164D01*
X147332612Y-96149162D01*
X147334505Y-96144591D01*
X147385546Y-95931990D01*
X147392454Y-95903216D01*
X147392455Y-95903210D01*
X147393609Y-95898403D01*
X147405917Y-95742020D01*
X147408307Y-95711655D01*
X147408307Y-95711648D01*
X147408500Y-95709199D01*
X147408500Y-94282801D01*
X147393609Y-94093597D01*
X147367563Y-93985104D01*
X147338463Y-93863897D01*
X147334505Y-93847409D01*
X147292420Y-93745807D01*
X147239511Y-93618072D01*
X147239509Y-93618068D01*
X147237616Y-93613498D01*
X147105328Y-93397624D01*
X146940898Y-93205102D01*
X146748376Y-93040672D01*
X146532502Y-92908384D01*
X146527932Y-92906491D01*
X146527928Y-92906489D01*
X146303164Y-92813389D01*
X146303162Y-92813388D01*
X146298591Y-92811495D01*
X146158103Y-92777767D01*
X146057216Y-92753546D01*
X146057210Y-92753545D01*
X146052403Y-92752391D01*
X145800000Y-92732526D01*
X145547597Y-92752391D01*
X145542790Y-92753545D01*
X145542784Y-92753546D01*
X145441897Y-92777767D01*
X145301409Y-92811495D01*
X145296838Y-92813388D01*
X145296836Y-92813389D01*
X145072072Y-92906489D01*
X145072068Y-92906491D01*
X145067498Y-92908384D01*
X144851624Y-93040672D01*
X144659102Y-93205102D01*
X144655894Y-93208858D01*
X144504617Y-93385980D01*
X144445166Y-93424789D01*
X144374172Y-93425295D01*
X144338534Y-93408733D01*
X144308738Y-93388710D01*
X144103033Y-93298412D01*
X144097582Y-93297103D01*
X144097578Y-93297102D01*
X143890046Y-93247278D01*
X143890045Y-93247278D01*
X143884589Y-93245968D01*
X143800525Y-93241121D01*
X143665917Y-93233360D01*
X143665914Y-93233360D01*
X143660310Y-93233037D01*
X143437285Y-93260025D01*
X143222565Y-93326082D01*
X143217585Y-93328652D01*
X143217581Y-93328654D01*
X143075790Y-93401838D01*
X143022936Y-93429118D01*
X142844708Y-93565877D01*
X142840937Y-93570022D01*
X142840933Y-93570025D01*
X142793520Y-93622131D01*
X142732879Y-93659054D01*
X142661904Y-93657331D01*
X142612642Y-93627817D01*
X142495201Y-93514008D01*
X142308738Y-93388710D01*
X142103033Y-93298412D01*
X142097582Y-93297103D01*
X142097578Y-93297102D01*
X141890046Y-93247278D01*
X141890045Y-93247278D01*
X141884589Y-93245968D01*
X141800525Y-93241121D01*
X141665917Y-93233360D01*
X141665914Y-93233360D01*
X141660310Y-93233037D01*
X141437285Y-93260025D01*
X141222565Y-93326082D01*
X141217585Y-93328652D01*
X141217581Y-93328654D01*
X141075790Y-93401838D01*
X141022936Y-93429118D01*
X141018488Y-93432531D01*
X141018482Y-93432535D01*
X141012986Y-93436752D01*
X140946766Y-93462352D01*
X140877217Y-93448087D01*
X140835458Y-93412356D01*
X140818641Y-93389918D01*
X140813261Y-93382739D01*
X140696705Y-93295385D01*
X140560316Y-93244255D01*
X140498134Y-93237500D01*
X138901866Y-93237500D01*
X138898471Y-93237869D01*
X138898467Y-93237869D01*
X138845414Y-93243632D01*
X138775531Y-93231103D01*
X138743240Y-93207845D01*
X138740898Y-93205102D01*
X138548376Y-93040672D01*
X138332502Y-92908384D01*
X138327932Y-92906491D01*
X138327928Y-92906489D01*
X138103164Y-92813389D01*
X138103162Y-92813388D01*
X138098591Y-92811495D01*
X137958103Y-92777767D01*
X137857216Y-92753546D01*
X137857210Y-92753545D01*
X137852403Y-92752391D01*
X137600000Y-92732526D01*
X137347597Y-92752391D01*
X137342790Y-92753545D01*
X137342784Y-92753546D01*
X137241897Y-92777767D01*
X137101409Y-92811495D01*
X137096838Y-92813388D01*
X137096836Y-92813389D01*
X136872072Y-92906489D01*
X136872068Y-92906491D01*
X136867498Y-92908384D01*
X136651624Y-93040672D01*
X136459102Y-93205102D01*
X136294672Y-93397624D01*
X136162384Y-93613498D01*
X136160491Y-93618068D01*
X136160489Y-93618072D01*
X136107580Y-93745807D01*
X136065495Y-93847409D01*
X136061537Y-93863897D01*
X136032438Y-93985104D01*
X136006391Y-94093597D01*
X135991500Y-94282801D01*
X135991500Y-95709199D01*
X135991693Y-95711648D01*
X135991693Y-95711655D01*
X135994083Y-95742020D01*
X136006391Y-95898403D01*
X136007545Y-95903210D01*
X136007546Y-95903216D01*
X136014454Y-95931990D01*
X136065495Y-96144591D01*
X136067388Y-96149162D01*
X136067389Y-96149164D01*
X136151547Y-96352338D01*
X136162384Y-96378502D01*
X136294672Y-96594376D01*
X136459102Y-96786898D01*
X136651624Y-96951328D01*
X136867498Y-97083616D01*
X136872068Y-97085509D01*
X136872072Y-97085511D01*
X137096836Y-97178611D01*
X137101409Y-97180505D01*
X137186032Y-97200821D01*
X137342784Y-97238454D01*
X137342790Y-97238455D01*
X137347597Y-97239609D01*
X137600000Y-97259474D01*
X137852403Y-97239609D01*
X137857210Y-97238455D01*
X137857216Y-97238454D01*
X138013968Y-97200821D01*
X138098591Y-97180505D01*
X138103164Y-97178611D01*
X138327928Y-97085511D01*
X138327932Y-97085509D01*
X138332502Y-97083616D01*
X138548376Y-96951328D01*
X138740898Y-96786898D01*
X138743093Y-96784328D01*
X138805024Y-96750510D01*
X138845414Y-96748368D01*
X138888607Y-96753060D01*
X138954169Y-96780302D01*
X138994596Y-96838664D01*
X139001000Y-96878323D01*
X139001000Y-99287775D01*
X138980998Y-99355896D01*
X138964095Y-99376870D01*
X137787370Y-100553595D01*
X137725058Y-100587621D01*
X137698275Y-100590500D01*
X137037246Y-100590501D01*
X136992600Y-100590501D01*
X136886833Y-100601474D01*
X136880286Y-100603658D01*
X136880287Y-100603658D01*
X136725998Y-100655133D01*
X136725996Y-100655134D01*
X136719054Y-100657450D01*
X136568651Y-100750521D01*
X136443694Y-100875697D01*
X136439854Y-100881927D01*
X136364174Y-101004703D01*
X136350885Y-101026261D01*
X136348581Y-101033208D01*
X136300456Y-101178302D01*
X136295203Y-101194138D01*
X136284500Y-101298599D01*
X136284501Y-102024400D01*
X136295474Y-102130167D01*
X136336082Y-102251881D01*
X136338498Y-102259123D01*
X136341084Y-102330073D01*
X136304900Y-102391157D01*
X136241436Y-102422982D01*
X136218975Y-102425000D01*
X132675500Y-102425000D01*
X132607379Y-102404998D01*
X132560886Y-102351342D01*
X132549500Y-102299000D01*
X132549500Y-101194866D01*
X132542745Y-101132684D01*
X132491615Y-100996295D01*
X132404261Y-100879739D01*
X132287705Y-100792385D01*
X132275132Y-100787672D01*
X132169203Y-100747960D01*
X132112439Y-100705318D01*
X132087739Y-100638756D01*
X132102947Y-100569408D01*
X132124493Y-100540727D01*
X132229096Y-100436489D01*
X132237013Y-100425472D01*
X132356435Y-100259277D01*
X132359453Y-100255077D01*
X132371924Y-100229845D01*
X132456136Y-100059453D01*
X132456137Y-100059451D01*
X132458430Y-100054811D01*
X132523370Y-99841069D01*
X132552529Y-99619590D01*
X132553426Y-99582888D01*
X132554074Y-99556365D01*
X132554074Y-99556361D01*
X132554156Y-99553000D01*
X132535852Y-99330361D01*
X132481431Y-99113702D01*
X132392354Y-98908840D01*
X132308766Y-98779632D01*
X132273822Y-98725617D01*
X132273820Y-98725614D01*
X132271014Y-98721277D01*
X132120670Y-98556051D01*
X132116619Y-98552852D01*
X132116615Y-98552848D01*
X131949414Y-98420800D01*
X131949410Y-98420798D01*
X131945359Y-98417598D01*
X131923444Y-98405500D01*
X131841813Y-98360438D01*
X131771384Y-98321559D01*
X131721414Y-98271127D01*
X131706642Y-98201685D01*
X131731758Y-98135279D01*
X131779027Y-98097057D01*
X131803865Y-98085475D01*
X131813356Y-98079994D01*
X131980782Y-97962762D01*
X131989189Y-97955708D01*
X132133708Y-97811189D01*
X132140762Y-97802782D01*
X132257994Y-97635356D01*
X132263472Y-97625870D01*
X132349857Y-97440617D01*
X132353603Y-97430325D01*
X132392678Y-97284497D01*
X132392342Y-97270401D01*
X132384400Y-97267000D01*
X130002749Y-97267000D01*
X129989218Y-97270973D01*
X129987989Y-97279522D01*
X130028397Y-97430325D01*
X130032143Y-97440617D01*
X130118528Y-97625870D01*
X130124006Y-97635356D01*
X130241238Y-97802782D01*
X130248292Y-97811189D01*
X130392811Y-97955708D01*
X130401218Y-97962762D01*
X130568644Y-98079994D01*
X130578130Y-98085472D01*
X130604896Y-98097953D01*
X130658181Y-98144871D01*
X130677642Y-98213148D01*
X130657100Y-98281108D01*
X130609827Y-98323910D01*
X130464607Y-98399507D01*
X130460474Y-98402610D01*
X130460471Y-98402612D01*
X130290100Y-98530530D01*
X130285965Y-98533635D01*
X130131629Y-98695138D01*
X130128715Y-98699410D01*
X130128714Y-98699411D01*
X130116404Y-98717457D01*
X130005743Y-98879680D01*
X129963732Y-98970185D01*
X129938403Y-99024753D01*
X129911688Y-99082305D01*
X129851989Y-99297570D01*
X129828251Y-99519695D01*
X129828548Y-99524848D01*
X129828548Y-99524851D01*
X129829978Y-99549646D01*
X129841110Y-99742715D01*
X129842247Y-99747759D01*
X129842826Y-99751881D01*
X129832501Y-99822123D01*
X129807148Y-99858514D01*
X129395472Y-100270190D01*
X129381059Y-100282577D01*
X129363436Y-100295546D01*
X129358692Y-100301129D01*
X129358693Y-100301129D01*
X129329021Y-100336055D01*
X129322091Y-100343571D01*
X129316347Y-100349315D01*
X129314073Y-100352189D01*
X129314067Y-100352196D01*
X129298628Y-100371711D01*
X129295837Y-100375115D01*
X129253055Y-100425472D01*
X129253052Y-100425476D01*
X129248316Y-100431051D01*
X129244988Y-100437568D01*
X129241611Y-100442632D01*
X129238384Y-100447856D01*
X129233840Y-100453600D01*
X129230741Y-100460231D01*
X129202768Y-100520082D01*
X129200837Y-100524033D01*
X129167457Y-100589404D01*
X129165716Y-100596519D01*
X129163579Y-100602265D01*
X129161655Y-100608048D01*
X129158556Y-100614679D01*
X129157066Y-100621843D01*
X129143608Y-100686547D01*
X129142639Y-100690829D01*
X129125196Y-100762112D01*
X129124500Y-100773330D01*
X129124461Y-100773328D01*
X129124228Y-100777229D01*
X129123839Y-100781588D01*
X129122348Y-100788756D01*
X129122546Y-100796073D01*
X129124454Y-100866577D01*
X129124500Y-100869986D01*
X129124500Y-104234859D01*
X129104498Y-104302980D01*
X129050842Y-104349473D01*
X128980568Y-104359577D01*
X128947252Y-104349966D01*
X128812323Y-104289892D01*
X128812315Y-104289889D01*
X128806288Y-104287206D01*
X128636369Y-104251088D01*
X128573472Y-104216937D01*
X126211905Y-101855370D01*
X126177879Y-101793058D01*
X126175000Y-101766275D01*
X126175000Y-96741503D01*
X129989322Y-96741503D01*
X129989658Y-96755599D01*
X129997600Y-96759000D01*
X130918885Y-96759000D01*
X130934124Y-96754525D01*
X130935329Y-96753135D01*
X130937000Y-96745452D01*
X130937000Y-96740885D01*
X131445000Y-96740885D01*
X131449475Y-96756124D01*
X131450865Y-96757329D01*
X131458548Y-96759000D01*
X132379251Y-96759000D01*
X132392782Y-96755027D01*
X132394011Y-96746478D01*
X132353603Y-96595675D01*
X132349857Y-96585383D01*
X132263472Y-96400130D01*
X132257994Y-96390644D01*
X132140762Y-96223218D01*
X132133708Y-96214811D01*
X131989189Y-96070292D01*
X131980782Y-96063238D01*
X131813356Y-95946006D01*
X131803870Y-95940528D01*
X131618617Y-95854143D01*
X131608325Y-95850397D01*
X131462497Y-95811322D01*
X131448401Y-95811658D01*
X131445000Y-95819600D01*
X131445000Y-96740885D01*
X130937000Y-96740885D01*
X130937000Y-95824749D01*
X130933027Y-95811218D01*
X130924478Y-95809989D01*
X130773675Y-95850397D01*
X130763383Y-95854143D01*
X130578130Y-95940528D01*
X130568644Y-95946006D01*
X130401218Y-96063238D01*
X130392811Y-96070292D01*
X130248292Y-96214811D01*
X130241238Y-96223218D01*
X130124006Y-96390644D01*
X130118528Y-96400130D01*
X130032143Y-96585383D01*
X130028397Y-96595675D01*
X129989322Y-96741503D01*
X126175000Y-96741503D01*
X126175000Y-87738949D01*
X126195002Y-87670828D01*
X126248658Y-87624335D01*
X126318932Y-87614231D01*
X126366835Y-87631516D01*
X126487817Y-87705654D01*
X126492037Y-87708240D01*
X126496607Y-87710133D01*
X126496611Y-87710135D01*
X126692005Y-87791069D01*
X126711406Y-87799105D01*
X126776964Y-87814844D01*
X126937476Y-87853380D01*
X126937482Y-87853381D01*
X126942289Y-87854535D01*
X127179000Y-87873165D01*
X127415711Y-87854535D01*
X127420518Y-87853381D01*
X127420524Y-87853380D01*
X127581036Y-87814844D01*
X127646594Y-87799105D01*
X127665995Y-87791069D01*
X127861389Y-87710135D01*
X127861393Y-87710133D01*
X127865963Y-87708240D01*
X127870183Y-87705654D01*
X128064202Y-87586759D01*
X128064208Y-87586755D01*
X128068416Y-87584176D01*
X128248969Y-87429969D01*
X128372427Y-87285419D01*
X128399963Y-87253178D01*
X128403176Y-87249416D01*
X128482995Y-87119165D01*
X128535643Y-87071533D01*
X128590427Y-87059000D01*
X132267573Y-87059000D01*
X132335694Y-87079002D01*
G37*
%TD.AperFunction*%
%TD*%
M02*
