%TF.GenerationSoftware,KiCad,Pcbnew,6.0.7-f9a2dced07~116~ubuntu22.04.1*%
%TF.CreationDate,2022-09-22T10:40:41-04:00*%
%TF.ProjectId,gimbal,67696d62-616c-42e6-9b69-6361645f7063,rev?*%
%TF.SameCoordinates,Original*%
%TF.FileFunction,Paste,Top*%
%TF.FilePolarity,Positive*%
%FSLAX46Y46*%
G04 Gerber Fmt 4.6, Leading zero omitted, Abs format (unit mm)*
G04 Created by KiCad (PCBNEW 6.0.7-f9a2dced07~116~ubuntu22.04.1) date 2022-09-22 10:40:41*
%MOMM*%
%LPD*%
G01*
G04 APERTURE LIST*
G04 Aperture macros list*
%AMRoundRect*
0 Rectangle with rounded corners*
0 $1 Rounding radius*
0 $2 $3 $4 $5 $6 $7 $8 $9 X,Y pos of 4 corners*
0 Add a 4 corners polygon primitive as box body*
4,1,4,$2,$3,$4,$5,$6,$7,$8,$9,$2,$3,0*
0 Add four circle primitives for the rounded corners*
1,1,$1+$1,$2,$3*
1,1,$1+$1,$4,$5*
1,1,$1+$1,$6,$7*
1,1,$1+$1,$8,$9*
0 Add four rect primitives between the rounded corners*
20,1,$1+$1,$2,$3,$4,$5,0*
20,1,$1+$1,$4,$5,$6,$7,0*
20,1,$1+$1,$6,$7,$8,$9,0*
20,1,$1+$1,$8,$9,$2,$3,0*%
G04 Aperture macros list end*
%ADD10RoundRect,0.250000X0.250000X0.475000X-0.250000X0.475000X-0.250000X-0.475000X0.250000X-0.475000X0*%
%ADD11RoundRect,0.250000X-0.475000X0.250000X-0.475000X-0.250000X0.475000X-0.250000X0.475000X0.250000X0*%
%ADD12R,1.200000X0.900000*%
%ADD13RoundRect,0.249999X-0.625001X0.312501X-0.625001X-0.312501X0.625001X-0.312501X0.625001X0.312501X0*%
%ADD14R,1.500000X2.000000*%
%ADD15R,3.800000X2.000000*%
%ADD16RoundRect,0.150000X0.825000X0.150000X-0.825000X0.150000X-0.825000X-0.150000X0.825000X-0.150000X0*%
%ADD17RoundRect,0.250000X0.625000X-0.312500X0.625000X0.312500X-0.625000X0.312500X-0.625000X-0.312500X0*%
%ADD18RoundRect,0.635000X-0.635000X-1.905000X0.635000X-1.905000X0.635000X1.905000X-0.635000X1.905000X0*%
%ADD19RoundRect,0.243750X0.243750X0.456250X-0.243750X0.456250X-0.243750X-0.456250X0.243750X-0.456250X0*%
%ADD20RoundRect,0.243750X0.456250X-0.243750X0.456250X0.243750X-0.456250X0.243750X-0.456250X-0.243750X0*%
%ADD21RoundRect,0.250000X-0.312500X-0.625000X0.312500X-0.625000X0.312500X0.625000X-0.312500X0.625000X0*%
%ADD22RoundRect,0.250000X0.312500X0.625000X-0.312500X0.625000X-0.312500X-0.625000X0.312500X-0.625000X0*%
%ADD23RoundRect,0.243750X-0.243750X-0.456250X0.243750X-0.456250X0.243750X0.456250X-0.243750X0.456250X0*%
G04 APERTURE END LIST*
D10*
%TO.C,C1*%
X132649000Y-116967000D03*
X130749000Y-116967000D03*
%TD*%
D11*
%TO.C,C2*%
X137541000Y-107635000D03*
X137541000Y-109535000D03*
%TD*%
D12*
%TO.C,D1*%
X137541000Y-115569000D03*
X137541000Y-112269000D03*
%TD*%
D13*
%TO.C,R1*%
X137668000Y-101661500D03*
X137668000Y-104586500D03*
%TD*%
D14*
%TO.C,U1*%
X129526000Y-113640000D03*
D15*
X131826000Y-107340000D03*
D14*
X131826000Y-113640000D03*
X134126000Y-113640000D03*
%TD*%
D16*
%TO.C,U2*%
X148144000Y-109728000D03*
X148144000Y-108458000D03*
X148144000Y-107188000D03*
X148144000Y-105918000D03*
X148144000Y-104648000D03*
X148144000Y-103378000D03*
X148144000Y-102108000D03*
X143194000Y-102108000D03*
X143194000Y-103378000D03*
X143194000Y-104648000D03*
X143194000Y-105918000D03*
X143194000Y-107188000D03*
X143194000Y-108458000D03*
X143194000Y-109728000D03*
%TD*%
D17*
%TO.C,R2*%
X125984000Y-115254500D03*
X125984000Y-112329500D03*
%TD*%
D18*
%TO.C,SW1*%
X134152000Y-121771000D03*
X139192000Y-121771000D03*
X144272000Y-121771000D03*
%TD*%
D19*
%TO.C,D3*%
X145639000Y-74676000D03*
X143764000Y-74676000D03*
%TD*%
D20*
%TO.C,D2*%
X123444000Y-114729500D03*
X123444000Y-112854500D03*
%TD*%
D21*
%TO.C,R4*%
X129145500Y-77216000D03*
X132070500Y-77216000D03*
%TD*%
D22*
%TO.C,R3*%
X146164000Y-77216000D03*
X143239000Y-77216000D03*
%TD*%
D23*
%TO.C,D4*%
X129618500Y-74793000D03*
X131493500Y-74793000D03*
%TD*%
M02*
