%TF.GenerationSoftware,KiCad,Pcbnew,6.0.7-f9a2dced07~116~ubuntu22.04.1*%
%TF.CreationDate,2022-09-22T10:40:42-04:00*%
%TF.ProjectId,gimbal,67696d62-616c-42e6-9b69-6361645f7063,rev?*%
%TF.SameCoordinates,Original*%
%TF.FileFunction,Soldermask,Top*%
%TF.FilePolarity,Negative*%
%FSLAX46Y46*%
G04 Gerber Fmt 4.6, Leading zero omitted, Abs format (unit mm)*
G04 Created by KiCad (PCBNEW 6.0.7-f9a2dced07~116~ubuntu22.04.1) date 2022-09-22 10:40:42*
%MOMM*%
%LPD*%
G01*
G04 APERTURE LIST*
G04 Aperture macros list*
%AMRoundRect*
0 Rectangle with rounded corners*
0 $1 Rounding radius*
0 $2 $3 $4 $5 $6 $7 $8 $9 X,Y pos of 4 corners*
0 Add a 4 corners polygon primitive as box body*
4,1,4,$2,$3,$4,$5,$6,$7,$8,$9,$2,$3,0*
0 Add four circle primitives for the rounded corners*
1,1,$1+$1,$2,$3*
1,1,$1+$1,$4,$5*
1,1,$1+$1,$6,$7*
1,1,$1+$1,$8,$9*
0 Add four rect primitives between the rounded corners*
20,1,$1+$1,$2,$3,$4,$5,0*
20,1,$1+$1,$4,$5,$6,$7,0*
20,1,$1+$1,$6,$7,$8,$9,0*
20,1,$1+$1,$8,$9,$2,$3,0*%
G04 Aperture macros list end*
%ADD10C,0.600000*%
%ADD11RoundRect,0.250000X0.250000X0.475000X-0.250000X0.475000X-0.250000X-0.475000X0.250000X-0.475000X0*%
%ADD12RoundRect,0.250000X-0.475000X0.250000X-0.475000X-0.250000X0.475000X-0.250000X0.475000X0.250000X0*%
%ADD13R,1.200000X0.900000*%
%ADD14R,1.700000X1.700000*%
%ADD15O,1.700000X1.700000*%
%ADD16RoundRect,0.249999X-0.625001X0.312501X-0.625001X-0.312501X0.625001X-0.312501X0.625001X0.312501X0*%
%ADD17R,1.500000X2.000000*%
%ADD18R,3.800000X2.000000*%
%ADD19RoundRect,0.150000X0.825000X0.150000X-0.825000X0.150000X-0.825000X-0.150000X0.825000X-0.150000X0*%
%ADD20RoundRect,0.250000X0.625000X-0.312500X0.625000X0.312500X-0.625000X0.312500X-0.625000X-0.312500X0*%
%ADD21C,3.200000*%
%ADD22C,2.000000*%
%ADD23RoundRect,0.635000X-0.635000X-1.905000X0.635000X-1.905000X0.635000X1.905000X-0.635000X1.905000X0*%
%ADD24RoundRect,0.243750X0.243750X0.456250X-0.243750X0.456250X-0.243750X-0.456250X0.243750X-0.456250X0*%
%ADD25RoundRect,0.243750X0.456250X-0.243750X0.456250X0.243750X-0.456250X0.243750X-0.456250X-0.243750X0*%
%ADD26RoundRect,0.250000X-0.312500X-0.625000X0.312500X-0.625000X0.312500X0.625000X-0.312500X0.625000X0*%
%ADD27RoundRect,0.250000X0.312500X0.625000X-0.312500X0.625000X-0.312500X-0.625000X0.312500X-0.625000X0*%
%ADD28O,2.200000X3.500000*%
%ADD29R,1.500000X2.500000*%
%ADD30O,1.500000X2.500000*%
%ADD31RoundRect,0.243750X-0.243750X-0.456250X0.243750X-0.456250X0.243750X0.456250X-0.243750X0.456250X0*%
G04 APERTURE END LIST*
D10*
X134462857Y-63381142D02*
X136177142Y-63381142D01*
X135320000Y-66381142D02*
X135320000Y-63381142D01*
X138034285Y-63381142D02*
X138034285Y-65524000D01*
X137891428Y-65952571D01*
X137605714Y-66238285D01*
X137177142Y-66381142D01*
X136891428Y-66381142D01*
X139462857Y-66381142D02*
X139462857Y-63381142D01*
X139462857Y-64809714D02*
X141177142Y-64809714D01*
X141177142Y-66381142D02*
X141177142Y-63381142D01*
X142462857Y-66238285D02*
X142891428Y-66381142D01*
X143605714Y-66381142D01*
X143891428Y-66238285D01*
X144034285Y-66095428D01*
X144177142Y-65809714D01*
X144177142Y-65524000D01*
X144034285Y-65238285D01*
X143891428Y-65095428D01*
X143605714Y-64952571D01*
X143034285Y-64809714D01*
X142748571Y-64666857D01*
X142605714Y-64524000D01*
X142462857Y-64238285D01*
X142462857Y-63952571D01*
X142605714Y-63666857D01*
X142748571Y-63524000D01*
X143034285Y-63381142D01*
X143748571Y-63381142D01*
X144177142Y-63524000D01*
X145320000Y-66238285D02*
X145748571Y-66381142D01*
X146462857Y-66381142D01*
X146748571Y-66238285D01*
X146891428Y-66095428D01*
X147034285Y-65809714D01*
X147034285Y-65524000D01*
X146891428Y-65238285D01*
X146748571Y-65095428D01*
X146462857Y-64952571D01*
X145891428Y-64809714D01*
X145605714Y-64666857D01*
X145462857Y-64524000D01*
X145320000Y-64238285D01*
X145320000Y-63952571D01*
X145462857Y-63666857D01*
X145605714Y-63524000D01*
X145891428Y-63381142D01*
X146605714Y-63381142D01*
X147034285Y-63524000D01*
X147891428Y-63381142D02*
X149605714Y-63381142D01*
X148748571Y-66381142D02*
X148748571Y-63381142D01*
X152891428Y-63381142D02*
X152891428Y-65809714D01*
X153034285Y-66095428D01*
X153177142Y-66238285D01*
X153462857Y-66381142D01*
X154034285Y-66381142D01*
X154320000Y-66238285D01*
X154462857Y-66095428D01*
X154605714Y-65809714D01*
X154605714Y-63381142D01*
X155891428Y-65524000D02*
X157320000Y-65524000D01*
X155605714Y-66381142D02*
X156605714Y-63381142D01*
X157605714Y-66381142D01*
X158177142Y-63381142D02*
X159177142Y-66381142D01*
X160177142Y-63381142D01*
D11*
%TO.C,C1*%
X132649000Y-116967000D03*
X130749000Y-116967000D03*
%TD*%
D12*
%TO.C,C2*%
X137541000Y-107635000D03*
X137541000Y-109535000D03*
%TD*%
D13*
%TO.C,D1*%
X137541000Y-115569000D03*
X137541000Y-112269000D03*
%TD*%
D14*
%TO.C,J2*%
X131191000Y-102093000D03*
D15*
X131191000Y-99553000D03*
X131191000Y-97013000D03*
%TD*%
D14*
%TO.C,J3*%
X154305000Y-84963000D03*
D15*
X154305000Y-87503000D03*
X154305000Y-90043000D03*
X154305000Y-92583000D03*
X154305000Y-95123000D03*
X154305000Y-97663000D03*
%TD*%
D14*
%TO.C,J4*%
X163703000Y-121920000D03*
D15*
X161163000Y-121920000D03*
X158623000Y-121920000D03*
%TD*%
D14*
%TO.C,J6*%
X173609000Y-121920000D03*
D15*
X171069000Y-121920000D03*
X168529000Y-121920000D03*
%TD*%
D14*
%TO.C,J7*%
X172085000Y-87503000D03*
D15*
X172085000Y-90043000D03*
X172085000Y-92583000D03*
X172085000Y-95123000D03*
%TD*%
D16*
%TO.C,R1*%
X137668000Y-101661500D03*
X137668000Y-104586500D03*
%TD*%
D17*
%TO.C,U1*%
X129526000Y-113640000D03*
D18*
X131826000Y-107340000D03*
D17*
X131826000Y-113640000D03*
X134126000Y-113640000D03*
%TD*%
D19*
%TO.C,U2*%
X148144000Y-109728000D03*
X148144000Y-108458000D03*
X148144000Y-107188000D03*
X148144000Y-105918000D03*
X148144000Y-104648000D03*
X148144000Y-103378000D03*
X148144000Y-102108000D03*
X143194000Y-102108000D03*
X143194000Y-103378000D03*
X143194000Y-104648000D03*
X143194000Y-105918000D03*
X143194000Y-107188000D03*
X143194000Y-108458000D03*
X143194000Y-109728000D03*
%TD*%
D20*
%TO.C,R2*%
X125984000Y-115254500D03*
X125984000Y-112329500D03*
%TD*%
D14*
%TO.C,J1*%
X122570000Y-121920000D03*
D15*
X125110000Y-121920000D03*
X127650000Y-121920000D03*
%TD*%
D21*
%TO.C,H1*%
X152146000Y-122174000D03*
%TD*%
D22*
%TO.C,SW2*%
X141657000Y-86360000D03*
X148157000Y-86360000D03*
X141657000Y-81860000D03*
X148157000Y-81860000D03*
%TD*%
D23*
%TO.C,SW1*%
X134152000Y-121771000D03*
X139192000Y-121771000D03*
X144272000Y-121771000D03*
%TD*%
D24*
%TO.C,D3*%
X145639000Y-74676000D03*
X143764000Y-74676000D03*
%TD*%
D25*
%TO.C,D2*%
X123444000Y-114729500D03*
X123444000Y-112854500D03*
%TD*%
D26*
%TO.C,R4*%
X129145500Y-77216000D03*
X132070500Y-77216000D03*
%TD*%
D27*
%TO.C,R3*%
X146164000Y-77216000D03*
X143239000Y-77216000D03*
%TD*%
D28*
%TO.C,SW4*%
X145800000Y-94996000D03*
X137600000Y-94996000D03*
D29*
X139700000Y-94996000D03*
D30*
X141700000Y-94996000D03*
X143700000Y-94996000D03*
%TD*%
D31*
%TO.C,D4*%
X129618500Y-74793000D03*
X131493500Y-74793000D03*
%TD*%
D22*
%TO.C,SW3*%
X127179000Y-86360000D03*
X133679000Y-86360000D03*
X127179000Y-81860000D03*
X133679000Y-81860000D03*
%TD*%
M02*
